<?xml version="1.0" encoding="utf-8"?>
<!-- Generator: Adobe Illustrator 25.0.0, SVG Export Plug-In . SVG Version: 6.00 Build 0)  -->
<svg version="1.1" id="Layer_1" xmlns="http://www.w3.org/2000/svg" xmlns:xlink="http://www.w3.org/1999/xlink" x="0px" y="0px"
	 viewBox="0 0 400 213.2" style="enable-background:new 0 0 400 213.2;" xml:space="preserve">
<style type="text/css">
	.st0{fill:#009D88;}
	.st1{fill:#006662;}
	.st2{fill:#A9D7AA;}
	.st3{fill:#4CBEA0;}
	.st4{fill:#D7A461;}
	.st5{fill:#FDBF7A;}
	.st6{fill:#004751;}
	.st7{fill:#B3865D;}
	.st8{fill:#4C7E85;}
	.st9{fill:#19A794;}
	.st10{fill:#47B8AA;}
	.st11{fill:#FEECD7;}
	.st12{opacity:0.22;fill:#006662;enable-background:new    ;}
	.st13{fill:#E8CFB8;}
	.st14{opacity:0.29;fill:#006662;enable-background:new    ;}
	.st15{opacity:0.49;fill:#004751;enable-background:new    ;}
	.st16{fill:#77401B;}
	.st17{fill:#FFF0C1;}
</style>
<path class="st0" d="M60.4,24.5c1.9-2,3.9-3,5.4-6.5c1.7-4.1,0.3-6.2,1.9-10.3c1.5-3.8,5-8.1,8.5-7.6c3.4,0.5,5.4,5.2,6.6,8
	c2.6,6.1,1.1,8.7,3.5,13.4c2.5,4.8,5.4,4.2,8.5,8c4.7,5.7,4.4,14.7,4.1,22.5c-0.7,18-7.3,21.8-4.7,33.6c1.2,5.6,2.4,5.4,4.1,13.7
	c1.1,5.7,2.6,12.8,1.3,20.6c-1.7,10.1-6.2,9.7-10.7,23.3c-2.8,8.5-1.4,9.6-4.4,17.2c-2.6,6.3-6.1,15.2-12.3,16
	c-6.6,0.9-12-8.4-12.9-9.9c-4.2-7.2-4.1-15.2-4.1-18.3c0.1-8.4,2.5-10,1.9-16.8c-0.6-6.3-3-7.3-5.7-14.5c-3.3-8.8-5.9-24.3-0.6-35.5
	c2.8-5.9,5.9-6.6,6.6-12.2c0.7-5.8-2.5-7.3-3.8-14.9C51.9,44.7,53.9,31.1,60.4,24.5z"/>
<g>
	<path class="st1" d="M70.8,202.3c-0.3,0-0.5-0.2-0.5-0.5c-1.4-14.3-1.6-28.4-0.6-42.1c0.7-9.3,1.7-15.3,2.6-20.6
		c1.2-6.9,2.2-12.8,2.1-23.6c0-7.9-0.6-12.6-1.1-16.6c-0.6-5-1.1-9.3-0.5-18.1c0.4-5.1,0.9-8.9,1.5-13c0.7-4.8,1.4-9.7,1.9-17.5
		c0.5-7.6,0.6-15.3,0.3-22.8c0-0.3,0.2-0.5,0.5-0.5s0.5,0.2,0.5,0.5c0.3,7.6,0.2,15.3-0.3,22.9C76.7,58.2,76,63.2,75.3,68
		c-0.6,4-1.1,7.8-1.5,12.9c-0.6,8.7-0.1,13,0.5,17.9c0.5,4.1,1.1,8.7,1.1,16.8c0,10.9-1,16.8-2.1,23.8c-0.9,5.3-1.9,11.3-2.6,20.5
		c-1,13.6-0.8,27.7,0.6,41.9C71.3,202.1,71.1,202.3,70.8,202.3z"/>
	<path class="st1" d="M75,66.9c-0.2,0-0.4-0.1-0.5-0.3l-7.5-20c-0.1-0.3,0-0.6,0.3-0.7c0.3-0.1,0.6,0,0.7,0.3l7.5,20
		c0.1,0.3,0,0.6-0.3,0.7C75.2,66.9,75.1,66.9,75,66.9z"/>
	<path class="st1" d="M73.8,98.3c-0.1,0-0.2,0-0.3-0.1c-0.2-0.2-0.3-0.5-0.1-0.7l12.1-17.3c0.2-0.2,0.5-0.3,0.7-0.1
		c0.2,0.2,0.3,0.5,0.1,0.7l-12,17.3C74.2,98.2,74,98.3,73.8,98.3z"/>
	<path class="st1" d="M71.9,146.4c-0.1,0-0.2,0-0.3-0.1c-0.2-0.2-0.2-0.5-0.1-0.7l13.3-15.3c0.2-0.2,0.5-0.2,0.7-0.1
		c0.2,0.2,0.2,0.5,0.1,0.7l-13.3,15.3C72.2,146.4,72,146.4,71.9,146.4z"/>
	<path class="st1" d="M74.6,125.1c-0.2,0-0.4-0.1-0.5-0.3l-11.3-21.2c-0.1-0.3,0-0.6,0.2-0.7s0.6,0,0.7,0.2L75,124.3
		c0.1,0.3,0,0.6-0.2,0.7C74.8,125.1,74.7,125.1,74.6,125.1z"/>
</g>
<path class="st2" d="M13.9,113.6c1.4,0.9,3.2,1.1,3.4,1.1c2.8,0.3,4.5-1.2,7.7-2.8c0,0,4.7-2.4,10.4-3.3c3.8-0.6,4.5,0.1,8.5-0.7
	c3.6-0.7,6-1.1,8.2-2.9c4.1-3.4,4.2-9,4.2-10.1c0.1-5.7-3.1-9.7-4.2-11.1c-4.4-5.3-10.3-6.4-12.7-6.9c-2.3-0.4-9.5-1.7-16.6,2.6
	c-6.8,4.2-9,10.8-10.1,14C10.5,100.2,9.4,110.5,13.9,113.6z"/>
<path class="st3" d="M9,131.6c1.1-0.9,4.5-3.9,10.1-6.5c5.1-2.4,10.7-5.1,18-4.6c8.6,0.6,14.5,5.3,17.3,7.5
	c3.9,3.1,10.8,8.6,11.4,17.3c0.1,1,0.7,9.3-4.2,12.7c-5.2,3.6-10-2.6-20.9-2.6c-14.7,0-20.1,11.2-30.4,7.5c-5.1-1.9-7.7-6.1-8.2-6.9
	c-3.7-6.2-1.7-12.9-1.3-14C2.4,137.5,5.3,134.9,9,131.6z"/>
<g>
	<path class="st1" d="M33.2,203c-0.3,0-0.6-0.2-0.6-0.5c-0.5-5.8-0.7-11.8-0.7-17.7c0.1-16,2.2-27.9,3.5-35.8
		c0.3-1.7,0.5-3.2,0.7-4.5C38.8,127.7,37,109,30.8,89c-0.1-0.3,0.1-0.6,0.4-0.7s0.6,0.1,0.7,0.4c6.2,20.1,8,39,5.4,56.1
		c-0.2,1.3-0.5,2.8-0.7,4.5c-1.3,7.8-3.4,19.6-3.5,35.6c0,5.9,0.2,11.8,0.7,17.6C33.8,202.7,33.6,203,33.2,203z"/>
	<path class="st1" d="M35.2,102.7c-0.2,0-0.3-0.1-0.4-0.2c-0.2-0.2-0.2-0.6,0-0.8c0.6-0.5,1-1.1,1.5-1.7c1.6-2.4,1.7-5,1.6-6.8
		c0-0.3,0.2-0.6,0.5-0.6s0.6,0.2,0.6,0.5c0.2,2,0,4.8-1.7,7.5c-0.5,0.7-1,1.4-1.6,1.9C35.4,102.6,35.3,102.7,35.2,102.7z"/>
	<path class="st1" d="M36.4,148.2c-0.2,0-0.3-0.1-0.4-0.2c-0.2-0.2-0.2-0.6,0-0.8c1.7-1.6,3.3-3.2,4.8-5c2.5-3,4.6-6.2,6.3-9.7
		c0.1-0.3,0.5-0.4,0.8-0.3c0.3,0.1,0.4,0.5,0.3,0.8c-1.8,3.5-4,6.9-6.5,9.9c-1.5,1.8-3.1,3.5-4.9,5.1
		C36.7,148.2,36.6,148.2,36.4,148.2z"/>
	<path class="st1" d="M43.6,140c-0.3,0-0.5-0.2-0.6-0.5c-0.4-1.8-0.5-3.7-0.5-5.6c0-1.4,0.1-2.7,0.4-4.1c0.1-0.3,0.4-0.5,0.7-0.5
		c0.3,0.1,0.5,0.4,0.5,0.7c-0.2,1.3-0.3,2.6-0.4,3.9c0,1.8,0.1,3.6,0.5,5.3c0.1,0.3-0.1,0.6-0.5,0.7C43.7,140,43.7,140,43.6,140z"/>
	<path class="st1" d="M36.8,141.9c-0.1,0-0.2,0-0.3-0.1c-2.1-1.3-3.9-2.8-5.6-4.5c-2.5-2.7-4.5-5.8-5.9-9.2c-0.1-0.3,0-0.6,0.3-0.8
		c0.3-0.1,0.6,0,0.8,0.3c1.3,3.3,3.2,6.3,5.6,8.9c1.6,1.7,3.4,3.1,5.4,4.3c0.3,0.2,0.4,0.5,0.2,0.8C37.2,141.8,37,141.9,36.8,141.9z
		"/>
</g>
<rect x="90.5" y="117.1" class="st4" width="70.3" height="3.3"/>
<polygon class="st4" points="167.7,204.7 157.3,204.7 142.5,119.2 152.9,119.2 "/>
<polygon class="st4" points="392.5,205.1 382.2,205.1 367.4,141.5 377.7,141.5 "/>
<rect x="96.7" y="141.1" class="st4" width="283.1" height="9.4"/>
<rect x="170.2" y="118.2" class="st5" width="211.4" height="17"/>
<rect x="170.2" y="95" class="st5" width="211.4" height="17"/>
<rect x="170.2" y="71.9" class="st5" width="220.6" height="17"/>
<path class="st6" d="M185.2,9.5c-1,0.1-2.1,0.3-2.7,0.9c-0.4,0.4-0.5,0.9-0.8,1.4c-0.9,1.3-3.1,1.6-4.6,2.5c-3,1.9-2,6-3.9,8.7
	c-1.1,1.7-3.4,3.1-3.2,5.1c0.2,1.7,2.3,3.2,1.8,4.8c-0.7,2.1-5.1,2.4-5.2,4.6c-0.1,1.2,1.4,2.3,1.1,3.5c-0.2,0.9-1.2,1.5-2.3,1.8
	s-2.2,0.4-3.1,0.9c-1.4,0.7-2.1,2.3-1.7,3.6c0.2,0.7,0.7,1.4,0.5,2c-0.1,0.5-0.6,0.8-1,1.1c-1.1,0.7-2.4,1.2-3.4,2s-1.8,2-1.5,3.1
	c0.1,0.5,0.4,0.9,0.5,1.4c0.5,2.3-3.8,3.5-4.1,5.9c-0.2,1.4,1.2,2.6,1.2,4c0,1.3-1.1,2.5-0.9,3.9c0.2,1.2,1.4,2.1,2.5,2.8
	c0.9,0.6,2,1.2,3.1,1s1.7-1.2,2.7-1.7c2-0.9,4.3,0.9,6.6,0.8c1.5-0.1,2.7-1,4.1-1.3c3.3-0.7,6.9,1.8,10.1,0.7c1-0.3,1.8-1,2.8-1.3
	c1.7-0.5,3.6,0.3,5.3,0.5c0.4,0.1,0.7,0.1,1.1,0c1.6-0.4,1-2.6,2.2-3.6c0.9-0.6,2.2-0.4,3.3-0.8c2.3-0.8,2.1-3.6,3.7-5.1
	c0.4-0.4,1-0.7,1.4-1.2c0.7-0.7,0.9-1.6,1-2.5c0.3-1.9,0.6-3.9,0.7-5.8c0.1-1.1,0.1-2.1,0.6-3.1c0.3-0.7,0.8-1.3,1-2
	c0.3-1.2-0.1-2.4,0.1-3.6c0.2-0.8,0.6-1.5,1-2.2c1.4-2.6,2.3-5.4,2.6-8.2c0.1-1.2,0.2-2.5,0.7-3.7c0.4-0.7,0.9-1.4,1.1-2.2
	c0.1-0.6,0-1.2-0.1-1.8c-0.4-2-0.7-4-1.1-6c-0.1-0.5-0.2-1-0.5-1.4s-0.8-0.6-1.2-0.9c-0.5-0.4-0.9-1-1.3-1.5
	C201.2,10.7,193.1,8.9,185.2,9.5z"/>
<path class="st7" d="M236.8,95.5c0.9,0.3,1.9,0.7,2.6,1.4c0.8,0.8,1.1,2,0.8,3.1s-1.2,1.9-2.4,2.2c-1.3,0.3-2.6-0.1-3.9-0.6
	c-2-0.7-4-1.4-5.9-2.1c-1.5-0.5-3.2-1.4-3.4-2.9C224,89.3,233.9,94.4,236.8,95.5z"/>
<path class="st7" d="M194.9,200.8c3.9,0.4,7.7,0.5,11.6,0.2c4.9-14.2,8.5-28.9,10.5-43.9c0.5-3.4,0.7-7.2-1.5-9.8
	c-1.8-2.1-4.9-2.9-7.6-2c-8.8,2.7-7.7,17.6-8.8,24.8C198.9,172.7,195.1,200.8,194.9,200.8z"/>
<path class="st7" d="M172.3,200.2c3.8,1,7.9,1.1,11.7,0.2c3.1-5.7,6.1-11.4,9.1-17.1c3.6-7,7.1-14.3,8.2-22.1c0.4-2.8,0.2-6.1-2-7.8
	c-3.2-2.5-8.4-0.9-9.9,2.3c-2.3,4.8-3.6,10.3-5.4,15.3C183.1,173.6,173.3,200.5,172.3,200.2z"/>
<path class="st8" d="M227.5,145.4c-0.6,3.6-1.8,7.1-2.9,10.6c-3.5,10.9-7,21.7-10.6,32.6c-0.4,1.2-0.8,2.5-1.9,3.1
	c-1.5,0.8-3.3-0.2-5-0.3c-0.5,0-1,0-1.5,0.2c-0.8,0.4-1.4,1.2-2.2,1.6c-2.5,1.6-5.6-0.4-8.4-1.1c-0.2-0.1-0.5-0.1-0.7-0.1
	c-0.4-0.1-0.8-0.1-1.2-0.2l0,0c-0.4,0-0.8,0-1.3,0c-0.6,0-1.2,0.1-1.8,0.1c-0.5,0.1-1.1,0.2-1.6,0.3l0,0c-0.6,0.1-1.1,0.2-1.7,0.4
	c-3.9,0.9-7.8,2.2-11.4,1.1c-0.2-0.1-0.5-0.2-0.7-0.2c-0.2-0.1-0.4-0.2-0.6-0.3c-0.9-0.4-1.7-1-2.5-1.6c-0.2-0.2-0.4-0.4-0.7-0.5
	c-1.4-1.1-2.7-2.1-4.3-2.5c-0.1,0-0.3-0.1-0.4-0.1l0,0c-2.4-0.4-5.2,0.7-7-1c7.2-11.1,17.3-19.9,23.6-31.6c0.3-0.5,0.6-1.1,0.8-1.7
	c0.1-0.1,0.1-0.2,0.2-0.3l0,0c0.5-1,0.9-2,1.2-3c0.1-0.2,0.1-0.3,0.2-0.5c0,0,0,0,0-0.1s0.1-0.3,0.1-0.4l0,0l0,0
	c0.1-0.2,0.1-0.3,0.1-0.5c0-0.1,0.1-0.3,0.1-0.4c0-0.1,0-0.2,0.1-0.3c0.1-0.3,0.1-0.6,0.2-0.9c0.1-0.5,0.2-1.2,0.1-1.8l0,0
	c0-0.1,0-0.1,0-0.2c0-0.4,0.2-0.6,0.2-1.1l0,0c0-0.4,0-0.7,0-1.1c-0.2-2.8-1.4-5.7-3.5-7.6c-0.1-0.1-0.1-0.1-0.2-0.2l0,0
	c-0.1,0-0.1-0.1-0.2-0.1c-0.4-0.3-0.8-0.6-1.1-0.8c-1.6-0.9-2.5-1.1-1.6-3.9c0.4-1.4,1.1-2.7,1.9-4c0.3-0.5,0.6-0.9,0.9-1.3
	c2.3-3.3,5.5-6.2,8.8-7.9c8.9-4.7,19.8-2.3,29,1.8c0.3,0.1,0.6,0.3,0.9,0.4c1.1,0.5,2.1,1.1,3,1.9l0,0c0.1,0.1,0.2,0.2,0.4,0.4
	c1.2,1.3,1.8,3,2.3,4.7C228.2,132.9,228.6,139.3,227.5,145.4z"/>
<path class="st0" d="M208,62.7c2.6,5.9,3.9,12.3,5.5,18.5c0.1,0.6,0.3,1.2,0.6,1.7c0.4,0.5,0.9,0.8,1.4,1.2c6.3,3.9,13,7,20.1,9.3
	c-1.1,3.2-2.9,6-5.4,8.3c-9.3-3-18.2-8.5-27.3-12.1c-0.8-0.3-1.6-0.6-2.2-1.2c-0.6-0.6-0.9-1.3-1.1-2.1c-3.5-9.4-4.9-17.6-3.5-27.5
	c0.3-2,0.1-5.4,1-7.2c1.1-2.4,2.7-0.4,4,1C204.2,55.4,206.4,59,208,62.7z"/>
<path class="st9" d="M210,115.5c-7.9,2.4-16.2,2.7-24.4,3c-6.3,0.2-12.6,0.5-18.8,0.7c-2.1-9.8-1.8-18.7-2.8-28.7
	c-0.3-2.5-0.8-6.9-0.7-9.4c0.1-5.7,0.9-12.6,2.8-18c1.7-5,3.3-8.1,7.5-11.2c1.8-1.4,4-2.3,6.3-2.8c1.6-0.4,3.2-0.6,4.8-0.7
	c2.7-0.2,5.5,0,8,0.2c0.5,0,1.1,0.1,1.6,0.1c0.9,0.1,1.8,0.2,2.7,0.5c0.1,0,0.2,0.1,0.3,0.1c0.9,0.4,1.7,1,2.4,1.6
	c1.5,1.2,3,2.3,4.2,3.9c0.9,1.2,1.5,2.5,1.9,3.9c2.7,7.7,1.5,16.2,1.7,24.4C207.5,94,210,104.7,210,115.5z"/>
<path class="st7" d="M217.1,63.8c0.4,0,0.9,0,1.2,0.1c0.6,0.3,1,1,1.1,1.6c0.6,2.3-0.5,4.8-2.3,6.5c-1.7,1.7-4,2.6-6.2,3.5
	c-0.5,0.2-0.9,0.4-1.4,0.3c-3-0.2-3-5-1.6-6.7C209.7,66.9,214.1,64.1,217.1,63.8z"/>
<path class="st1" d="M307.4,20.3c-1.3,2.2-2,4.6-2.3,7c-0.8,8.1,4.3,16,3.3,24.1c-0.3,2.6-1.3,5.2-0.7,7.8c0.4,1.7,1.4,3.2,2.4,4.7
	c0.5,0.7,1,1.5,1.9,1.9c1.3,0.7,2.9,0.7,4.4,0.7c4.7-0.2,9.4-0.4,14.1-0.6c2.6-0.1,5.3-0.2,7.5-1.3c0.8-0.4,1.5-0.9,2-1.5
	c0.7-1,0.8-2.3,0.7-3.5c-0.2-2-0.9-3.9-1.4-5.8c-1.3-5.1-1.2-10.3-1.1-15.5c0-2.6,0.1-5.1,0.1-7.7c0-1.9,0.1-3.8-0.5-5.6
	c-1.2-4-4.5-7.8-8.9-9.3c-3.8-1.3-8.1-3.1-14-1.2C311.7,15.7,308.9,17.7,307.4,20.3z"/>
<path class="st10" d="M311.3,56.8c0,0,1.9-2.3,9.5-2c4.3,0.1,6-0.9,11.6,1.7c5.6,2.6-8.5,8.7-8.5,8.7l-8.6,0.2L311.3,56.8z"/>
<path class="st3" d="M234.5,170.6c-0.9,0.4-1.9,0.3-2.8,0.3c-3.8-0.3-7.7-0.2-11.5,0.2c-0.8,0.1-1.6,0.2-2.3,0.6
	c-0.7,0.4-1.2,1.1-1.2,1.9c0,0.6,0.4,1.1,0.7,1.5c1.8,2.2,4.3,3.6,7,4.4c2.7,0.8,5.5,1.1,8.3,1.2c1.1,0.1,2.2,0.1,3.2-0.3
	c0.8-0.3,1.5-1,2.1-1.6c2.1-2,4.2-4.1,6.4-6.1c0.7-0.7-4.5-4.7-5.1-4.9C236.5,166.8,236.7,169.6,234.5,170.6z"/>
<path class="st3" d="M276.5,193.1c-0.5,0.8-1.4,1.3-2.2,1.8c-3.3,1.9-6.5,4.2-9.4,6.7c-0.6,0.5-1.2,1-1.5,1.8s-0.4,1.6,0.1,2.2
	c0.3,0.4,0.9,0.7,1.4,0.8c2.7,0.8,5.6,0.5,8.3-0.3c2.7-0.8,5.2-2.2,7.6-3.7c0.9-0.6,1.9-1.1,2.4-2c0.5-0.7,0.7-1.6,0.8-2.5
	c0.6-2.9,1.2-5.8,1.8-8.6c0.2-0.9-6.3-1.3-7-1.2C275.9,188.8,277.7,191,276.5,193.1z"/>
<path class="st6" d="M293.7,142c2.8,18.4-7.1,49.2-7.1,49.2s-0.6,1.3-1.1,1.6c-0.6,0.4-1.4,0.3-2.2,0.3c-2.4-0.2-7.2-0.5-7.2-0.5
	c3.8-16.3,1.4-33.1,1-49.7c0-0.8,4.2-2.6,4.5-3.4c0.3-0.6,0.7-1.1,1.2-1.5c2.1-1.8,4.6-3,7.2-3.9c7.9-2.9,16.4-4,24.8-3.2
	c2.6,0.2,5.7,1,6.6,3.4c0.6,1.6-0.3,5.1-1.9,6c-1.7,1-6.3,0.4-8.4,0.5C309.8,141,293.7,142.1,293.7,142z"/>
<path class="st10" d="M307,59.6c-2.3,2.5-3.8,5.7-4.9,9c-1.6,4.6-2.4,9.4-3.1,14.3c-1.3,8.5-2.2,17.1-2.7,25.8
	c-0.2,3.9-0.4,7.8,0.3,11.7c0.1,0.3,0.1,0.7,0.4,0.9c0.3,0.3,0.7,0.4,1.1,0.4c2.7,0.3,5.4,0,7.9-0.8c0.8-20.9,3.9-41.7,9.3-61.9
	c0.8-3,0.9-4.3-2.6-3.1C310.6,56.5,308.6,57.9,307,59.6z"/>
<path class="st2" d="M325.5,56.4c-3-1.4-5.8-1.9-9.1-1.5c-6.2,20.3-11.7,41.5-10.6,62.6c0,0.8,0.1,1.6,0.5,2.3
	c0.7,1.2,2.3,1.6,3.7,1.7c4.5,0.5,9.1,0,13.4-1.3c0.7-0.2,1.4-0.5,2-1c0.5-0.5,0.7-1.2,0.9-1.9c2.5-8.6,3.5-17.6,4.8-26.5
	c0.8-5.4,1.7-10.8,1.6-16.2C332.7,69,331.3,59.1,325.5,56.4z"/>
<path class="st11" d="M326.2,42.3c0,0.2,0,0.4,0,0.6c0,1,0,2-0.1,3.1c-0.1,3-0.4,6-1.3,9c-0.1,0.3-0.2,0.6-0.5,0.8l0,0
	c-0.1,0-0.1,0.1-0.2,0.1c-0.3,0.1-0.6,0.1-0.9,0.2c-4,0.2-5.6-1-6.3-2.9c-0.3-0.8-0.4-1.8-0.5-2.8c0-0.5-0.1-1.1-0.1-1.6
	c0-0.4,0-0.8,0-1.2c0-0.5-0.1-1.1-0.1-1.6c-0.2-1.8-0.4-3.2,1.4-4.3c1.6-1,7.2-1.6,8.3,0.1C326.2,41.8,326.2,42.1,326.2,42.3z"/>
<path class="st11" d="M325.3,53.1l-0.4,3.1c-0.1,0.1-2.9,2.5-4.7,2.9c-1.5,0.3-3-1.2-3.5-1.8c-0.1-0.2-0.2-0.3-0.2-0.6v-6.9l0.3-0.1
	l6.2-1.3l0.3,1.8l0.1,0.8l0.7,4.8L325.3,53.1z"/>
<path class="st11" d="M289.4,118.1c-0.8,1.1-1.6,2.5-1.1,3.7c0.1,0.1,0.2,0.3,0.3,0.4c0.1,0.1,0.3,0.1,0.4,0.1
	c2.3,0.2,4.6-0.7,6.4-2.1s3.2-3.2,4.6-5.1c0.2-0.3,0.4-0.5,0.5-0.9c0.3-0.8-0.3-1.8-1-2.2s-1.7-0.5-2.6-0.4
	C293.2,112,291.4,115.3,289.4,118.1z"/>
<path class="st11" d="M254.1,87.3c-0.5,0-1,0-1.5,0.1c-0.6,0.2-1.2,0.5-1.8,0.9c-0.7,0.5-1.5,1-2,1.7s-0.7,1.7-0.3,2.5
	c0.5,0.9,1.8,1.2,2.9,1.2c2.5,0.2,5.1,0,7.5-0.6c0.7-0.2,1.5-0.4,2-0.8c1.3-1,2.2-4.3,0.8-5c-0.4-0.2-2.8,0.1-3.4,0.1
	C257,87.4,255.6,87.4,254.1,87.3z"/>
<path class="st10" d="M311.8,60.6c-1.8,5.3-3.7,10.6-5.8,15.8c-1.4,3.6-3,7.2-5.6,10c-0.6,0.7-1.3,1.3-2.1,1.9
	c-1.1,0.9-2.3,1.7-3.5,2.5c-1,0.7-1.9,1.3-3,1.7c-1.1,0.4-2.4,0.5-3.6,0.6c-3.6,0.3-7.2,0.6-10.8,0.9c-0.9,0.1-1.8,0.1-2.6,0.2
	c-5.1,0.4-10.1,0.7-15.2,0.1c0-3-1-5.9,0-8.7c7.3-1.3,16.1-1.8,23.5-1.7c0.8,0,1.5,0,2.2-0.3c0.5-0.3,0.9-0.7,1.3-1.2
	c5.9-7,11.9-14,18-20.8C306.9,59.3,314.3,53.2,311.8,60.6z"/>
<path class="st1" d="M337.3,119.1c0,0,2.6,21.6-21.4,21.9c-24.1,0.4-28.5-0.8-28.5-0.8s-34,32-43.3,34.2l-9.2-4.6
	c0,0,32.3-46.7,50.9-47C285.7,122.8,318.2,112.5,337.3,119.1z"/>
<path class="st10" d="M341,121.8c-6.9,0.9-13.7,3-19.9,6.2c-1.3-3.2-1.7-6.7-1.9-10.2c0-0.1,0-0.3,0-0.4c0-0.9-0.1-1.7-0.1-2.6
	c-0.1-2-0.1-4-0.2-6.1c0-0.1,0-0.1,0-0.2c-0.1-3.5-0.1-7,0-10.6c0.2-10,1.1-20,2.9-29.8c0.6-3.4,0.8-9.5,3.3-12.2
	c2.3-2.5,7.1-0.2,9.1,1.8c1.9,1.9,2.7,4.6,3.2,7.2c2.5,12.3,1,25,2.1,37.4C340.1,108.8,341.4,115.3,341,121.8z"/>
<path class="st12" d="M336.8,92.7c-0.1,3.8-0.2,7.7-0.8,11.4c-0.3,2.1-0.8,4.3-1.8,6.2c-2.3,4.3-7,6.9-11.8,7.5
	c-1,0.1-2.1,0.2-3.1,0c0-0.1,0-0.3,0-0.4c0-0.9-0.1-1.7-0.1-2.6c-0.1-2-0.1-4-0.2-6.1c1.8-0.7,3.7-1.3,5.3-2.3
	C329.6,103.1,334,98.3,336.8,92.7z"/>
<path class="st12" d="M326.3,64.4c0.7,10.7,1.1,21.5,1.1,32.2c0,2.3-2.5,6.3-4.5,3.2c-1.5-2.4-0.7-8-0.7-10.7
	C322.4,80.7,323.8,72.3,326.3,64.4z"/>
<path class="st10" d="M326.1,93.4c0.1,0.6,0.1,1.3-0.1,1.9c-0.3,0.8-1.2,1.3-2,1.7c-2.9,1.5-6,2.6-9.1,3.9c-6.6,2.7-13,6-19,9.9
	c-0.4,0.3-0.9,0.6-1,1.1c-0.1,0.4,0.1,0.7,0.3,1c1.3,2.4,3.1,4.5,5.3,6.2c10.8-3.9,21.6-7.7,32.3-11.6c1.2-0.4,2.5-0.9,3.2-1.9
	c0.8-1,0.9-2.4,1-3.6c0.3-7.5,0.3-14.9,0.3-22.4c0-5.1-0.1-10.3-1.4-15.2c-0.5-1.7-1.2-3.5-2.4-4.8c-6.9-7.3-8.1,8-8.3,11.7
	C324.4,78.6,325.3,86,326.1,93.4z"/>
<path class="st12" d="M300.4,76.9c-0.7,3.4-1.4,6.8-1.9,10.2c-0.1,0.4-0.1,0.8-0.1,1.3c-1.1,0.9-2.3,1.7-3.5,2.5
	c-1,0.7-1.9,1.3-3,1.7c-1.1,0.4-2.4,0.5-3.6,0.6c-3.6,0.3-7.2,0.6-10.8,0.9c-0.9,0.1-1.8,0.1-2.6,0.2c0-0.7,0.4-1.4,1-1.8
	c0.7-0.6,1.7-0.8,2.6-1C287.2,89.3,295.9,84.7,300.4,76.9z"/>
<path class="st13" d="M326.1,42.9c0,1,0,2-0.1,3.1c-0.7,1.5-1.5,2.9-2.6,4c-0.1,0.1-0.1,0.1-0.2,0.2c-0.2,0.3-0.5,0.5-0.8,0.8
	c-1.5,1.3-3.5,2.2-5.6,2.1c-0.2,0-0.3,0-0.5,0v-2.8c0-0.5-0.1-1.1-0.1-1.6c0-0.4,0-0.8,0-1.2c1.8,0,3.5-0.5,5.1-1.3
	C323.1,45.3,324.7,44.1,326.1,42.9z"/>
<path class="st11" d="M310.2,43.4c1,2.6,3,5.1,6.1,5.8c2.3,0.5,4.8-0.1,6.7-1.3s3.3-2.8,4.4-4.6c2.3-3.5,3.7-7.5,4.1-11.5
	c0.3-3-0.1-6.4-2.8-8.5c-1.3-1-3-1.6-4.7-2.1c-2.9-0.7-6.1-1-9.1-0.4c-4.8,1-7.3,3.2-6.9,7.2C308.5,33.2,308.2,38.5,310.2,43.4z"/>
<path class="st1" d="M318.5,35.5c2.1,1.3,4.5,2.1,6.5,3.5c1.6,1.1,2.9,2.6,3.8,4.3c3.6-4.1,4-10.1,3.5-15.5
	c-0.2-2.6-0.7-5.4-2.3-7.5c-2.2-2.9-6.1-4-9.7-4.6c-1.2-0.2-2.5-0.4-3.7-0.1c-4.2,1.1-5.1,5.9-4.7,9.5
	C312.5,29.3,314.9,33.3,318.5,35.5z"/>
<path class="st1" d="M309.9,24.2c-1.3,2.2-2,4.8-2.5,7.3c-0.4-2-0.9-4-0.9-6.1s0.4-4.2,1.5-5.9s3-3.1,5-3.1c2.5-0.1,2.7,1.7,1.2,3.1
	C312.6,20.9,311,22.4,309.9,24.2z"/>
<path class="st1" d="M328.4,41.3c0,0-8.8,22.2,2.7,22.9c0,0,4.5,2.1,6.8,0.6c2.2-1.5-1.5-10.9-1.5-11.3c0-0.4-1.2-7.9-1.2-7.9
	L328.4,41.3z"/>
<polygon class="st7" points="193.4,31 193.4,44.1 193.4,48.6 190.9,48.6 184.5,48.6 184.6,31 "/>
<path class="st7" d="M197.1,49.4c-0.9,1.4-3.3,3.9-8.3,4.4c-5.7,0.6-8.3-3.2-9.1-4.7c1.6-0.4,3.2-0.6,4.8-0.7v-0.6l3.7-1.1l5.1,1.1
	c0,0,0.2,0.8,0.7,0.9c0.9,0.1,1.8,0.2,2.7,0.5C196.9,49.3,197,49.4,197.1,49.4z"/>
<path class="st9" d="M170.7,58.8c-4.5,11.8-4,25.4,1.4,36.8c0.3,0.6,0.6,1.2,1,1.6c0.8,0.7,1.9,1,2.9,1.2c2,0.4,4.1,0.8,6.1,0.3
	c1.5-0.3,2.9-1.1,4.2-1.8c9.6-5.3,19.4-10.7,27.5-18.2c0.3-0.3,0.7-0.6,0.7-1.1c0.1-0.4-0.1-0.8-0.3-1.1c-1.5-3.1-3.3-5.9-5.5-8.5
	c-9.7,6.4-19.5,12.8-30.4,17.1c0.9-8.1,1.8-16.2,2.6-24.4c0.2-2.1,0.4-4.3-0.5-6.2c-0.9-1.8-3.5-3.3-5.5-2.5
	C172.9,52.9,171.5,56.7,170.7,58.8z"/>
<path class="st8" d="M218.5,150.3c-0.6-1.9-1.2-3.9-2.3-5.6c-1.1-1.7-2.8-3.2-4.9-3.7c-2.8-0.6-5.7,0.6-8.5,1.5
	c-0.6,0.2-1.3,0.4-2,0.5c-0.4,0.1-0.8,0.2-1.2,0.3c-3.6,0.8-7.4,1.1-11.2,1.2c-0.3,0-0.6,0-0.9,0c-0.3,0-0.5,0-0.8,0
	c-0.2,0-0.5,0-0.7,0c-0.4,0-0.8,0-1.1,0c-0.2,0-0.3,0-0.5,0s-0.3-0.1-0.5-0.1c-0.1,0-0.2,0-0.3,0s-0.2,0-0.3,0c-0.6,0-1.2,0-1.8,0.1
	c-0.1,0-0.2,0-0.4,0l0,0l0,0c-1.7-0.1-3.3-0.3-4.9-0.9c-2.6-1-4.5-2.9-6.4-4.9c-1.3-1.4-2.6-2.7-3.4-4.4c-0.7-1.4-1-2.8-1.2-4.3
	c0-0.2,0-0.4-0.1-0.6c0-0.2,0-0.3,0-0.4c0-0.3,0-0.6,0-0.9c0-0.6,0-1.2,0-1.8c0-0.7,0-1.3,0.1-2c0-0.3,0-0.5,0-0.8
	c0-0.2,0-0.5,0-0.7c0.1-1.6,0.2-3.2,0.6-4.6c0.1-0.2,0.1-0.4,0.2-0.6l0,0c0.6-1.5,1.5-1.7,3.5-2c5.8-1.1,11.7-2.3,17.6-3
	c7.2-0.9,14.8-1,21.7,1c2,0.6,3.9,1.3,5.8,2.1c2.6,1.1,5.1,2.3,7.1,4.1c0.3,0.3,0.7,0.6,1,1c0.3,0.3,0.5,0.6,0.7,0.9l0,0
	c1.7,2.4,2.4,5.4,2.5,8.3C226.6,137.5,223.7,144.9,218.5,150.3z"/>
<path class="st8" d="M204.2,127.3l-3.4,15.8l-0.1,0.3l-0.4,1.6c0,0-10.7,5.8-13,4.5c-0.2-0.1-0.3-0.3-0.4-0.5c0-0.1,0-0.3,0-0.4
	c0-0.5,0-1-0.2-1.4l0,0c-0.2-0.4-0.4-0.8-0.7-1.1c-0.1-0.1-0.1-0.2-0.2-0.2c-0.1-0.2-0.1-0.3-0.3-0.4c-0.3-0.3-0.6-0.5-1.1-0.6
	c-0.2,0-0.3-0.1-0.5-0.1c-1.1-0.4-2.1-0.5-2.1-0.5l0.2-8.3v-0.1v-0.8l0.2-8v-1.3h0.9l12.1-0.5L204.2,127.3z"/>
<path class="st1" d="M184.1,200.4c1,2.7,2.7,5.1,5,6.8c0.7,0.5,1.5,1,2,1.6c0.6,0.7,0.9,1.6,0.5,2.4c-0.3,0.7-1.1,1.1-1.8,1.4
	c-3.2,1.1-6.8,0.5-9.9-0.9s-5.7-3.7-8.3-5.9c-0.4-0.3-0.8-0.7-1-1.2c-0.1-0.4-0.1-0.9,0-1.3c0.3-1.4,0.7-2.7,1.5-3.8
	c1.3-1.7,1.4-1.8,3.4-0.7C176.5,199,184.3,200.9,184.1,200.4z"/>
<path class="st1" d="M206.7,200.8c1,2.7,2.5,4.6,4.9,6.3c0.7,0.5,1.5,1,2,1.6c0.6,0.7,0.9,1.6,0.5,2.4c-0.3,0.7-1.1,1.1-1.8,1.4
	c-3.2,1.1-6.8,0.5-9.9-0.9s-5.5-3.2-8.1-5.4c-0.4-0.3-1-1.1-1.1-1.6c-0.1-0.4-0.3-1.2-0.2-1.6c0.3-1.4,0.7-2.6,1.6-3.8
	c1.3-1.7,0.6-0.9,3.6-0.3C198.8,199.1,206.9,201.3,206.7,200.8z"/>
<path class="st14" d="M179.3,95.3c0.6,0.5,1.1,1,1.9,1.1c1.4,0.3,3.3-0.3,4.6-1c6.6-3.6,6.5-3.8,11.8-6.3c3.3-1.6,6.5-3.8,9.8-5.2
	c-4.6,8.2-12.1,14.8-20.9,18.2c-2.1,0.8-4.4,1.4-6.6,0.9c-3.4-0.9-5.3-4.4-6.9-7.5c-1.3-2.7-3.4-5.9-4.3-8.7
	C170.9,85.6,177.6,93.9,179.3,95.3z"/>
<path class="st14" d="M182.1,78.3c0.5,0.6,1.1,1.2,1.8,1.5c1.3,0.5,2.8-0.3,4-1c1.8-1.1,3.7-2.3,5.2-3.9c-1.2,0.5-2.4,0.9-3.7,1.2
	c-1.4,0.4-2.9,1.5-4.4,1.2c-2.2-0.4-3.9-2.9-6.1-3.2C179.4,75.6,181.1,77.1,182.1,78.3z"/>
<path class="st15" d="M187.8,143.8c-0.1,0.3-0.2,0.6-0.2,0.8l0,0c-0.2,0.8-0.5,1.7-0.8,2.5c-0.8,2.4-1.8,4.6-3,6.8
	c0.5-1,0.9-2,1.2-3c0.1-0.2,0.1-0.3,0.2-0.5c0,0,0,0,0-0.1s0.1-0.3,0.1-0.4l0,0l0,0c0.1-0.2,0.1-0.3,0.1-0.5
	c0.1-0.2,0.1-0.5,0.2-0.7c0.1-0.3,0.1-0.6,0.2-0.9c0.1-0.5,0.2-1.2,0.1-1.8l0,0c0-0.1,0-0.1-0.1-0.2c-0.1-0.2-0.1-0.3-0.3-0.4
	c-0.3-0.3-0.6-0.5-1.1-0.6c-0.2,0-0.3-0.1-0.5-0.1c-0.1,0-0.2,0-0.3,0s-0.2,0-0.3,0c-0.6,0-1.2,0-1.8,0.1c-0.1,0-0.2,0-0.4,0l0,0
	l0,0c-1.7-0.1-3.3-0.3-4.9-0.9c-2.6-1-4.5-2.9-6.4-4.9c-1.3-1.4-2.6-2.7-3.4-4.4c-0.7-1.4-1-2.8-1.2-4.3c0-0.2,0-0.4-0.1-0.6
	c0-0.2,0-0.3,0-0.4c0-0.3,0-0.6,0-0.9c0-0.6,0-1.2,0-1.8c0-0.7,0-1.3,0.1-2c0-0.3,0-0.5,0-0.8c0-0.2,0-0.5,0-0.7
	c0.1-1.6,0.2-3.2,0.6-4.6c0.1-0.2,0.1-0.5,0.2-0.7l0,0c0.2,0.3,0.4,0.9,0.4,2c0.2,3.4,0.9,6.6,2.8,9.4c2.4,3.5,6.2,5.9,10.2,6.4
	c0.4,0.1,0.9,0.1,1.3,0.1c0.4,0,0.8,0.1,1.2,0.1h0.1l0,0c0.6,0,1.3,0.1,1.9,0.3c1.5,0.4,3,1.2,3.6,2.7
	C188.6,140.3,188.2,142.1,187.8,143.8z"/>
<path class="st15" d="M203.6,157.9c-0.5,9.1-1.1,18.6-5.8,26.4c-0.2,0.3-0.4,0.7-0.6,1c-1.3,2-2.8,4-3.5,6.4c0,0.1,0,0.1-0.1,0.2
	c-0.2,0-0.3,0-0.5,0c-0.4,0-0.8,0-1.3,0c-0.6,0-1.2,0.1-1.8,0.1c0.1-0.5,0.3-1,0.5-1.3c0.8-1.3,1.1-2,1.7-3.5c0.7-1.7,1.5-3.4,2.6-5
	c2.4-3.4,4.5-7.1,5.8-11.1C202,166.9,202,162.2,203.6,157.9z"/>
<path class="st15" d="M181.9,168.2c-0.8,4.7-3.5,8.9-5.9,13c-1.9,3.1-2.8,7.3-4.5,10.5c-0.2-0.2-0.4-0.4-0.7-0.5
	c-1.4-1.1-2.7-2.1-4.3-2.5c0-0.1-0.1-0.1-0.1-0.1c1.6-3.4,4.1-6.5,6.3-9.2C175.9,175.7,178.9,172,181.9,168.2z"/>
<path class="st9" d="M165.1,107l1.6,12.8c0,0,18.9-7.9,30.9-7.5s12.4,1.9,12.4,1.9l-5.2-10.1l-17.1,0.8L165.1,107z"/>
<path class="st0" d="M197.1,49.4c0,0,9.1,9,9.9,20.3l0,0c1.2-1.1,1.7-2.8,1.4-4.4C207.4,61.1,204.7,53.1,197.1,49.4z"/>
<path class="st16" d="M193.4,42.7v5c-1.7,0-3.2-0.1-4.5-1.3c-1.2-1.1-2.1-2.6-2.8-4c-0.4-0.8-2.4-4.5-0.5-4.1c0.8,0.2,1.4,0.9,2,1.4
	c0.8,0.6,1.7,1.1,2.5,1.6C191.2,41.9,192.3,42.3,193.4,42.7z"/>
<path class="st7" d="M203.5,38.4c-1,2.8-3,5.5-6,6.3c-2.3,0.6-4.7-0.1-6.6-1.4c-1.9-1.3-3.2-3.1-4.4-4.9c-2.3-3.8-3.7-8.1-4.1-12.4
	c-0.3-3.3,0.1-6.9,2.8-9.2c1.3-1.1,3-1.8,4.7-2.2c2.9-0.8,6-1.1,9-0.5c4.7,1,7.2,3.5,6.8,7.8C205.1,27.4,205.4,33.1,203.5,38.4z"/>
<path class="st6" d="M194.3,23.2c0.2,0.3,0.4,0.6,0.5,1c0.3,1.2-1.3,2-2.5,2.7c-2.6,1.6-4,4.5-3.3,7.1c0.3,1.1,0.9,2.2,0.8,3.4
	c-0.3,2.9-5.1,4.4-5.6,7.3c-0.3,1.9,1.4,3.9,0.7,5.8c-0.7,1.9-3.5,2.8-4.2,4.6c-0.7,1.9,1,4.1,0.1,6c-1,1.9-4.3,2.5-4.8,4.6
	c-0.2,1.1,0.5,2.4-0.4,3.2c-0.5,0.5-1.4,0.5-2,0.9c-0.5,0.3-0.8,0.9-1.2,1.4c-1.5,1.9-4.9,2.6-7.3,1.5c-0.3,0.9-1.2,1.7-2.3,1.8
	c-1.1,0.1-2.3-0.4-2.6-1.3c-0.2-0.7,0-1.4,0.3-2.1c0.9-2.3,1.8-4.6,2.7-6.9c0.2-0.4,0.3-0.8,0.2-1.3s-0.5-0.9-0.7-1.4
	c-0.5-1.1,0.3-2.3,1.1-3.4c2.5-3.2,5.2-6.3,8.2-9.1c1.8-1.7,3.8-3.5,4.9-5.6c1.3-2.6,1.3-5.5,2.6-8.1c0.7-1.5,1.8-2.8,1.9-4.4
	c0.1-1-0.3-2-0.5-2.9c-0.2-1.5,0-3,0.2-4.5c0.4-2.8,1-5.7,3.3-7.7s5.9-2.5,9.3-2.9c1.9-0.2,3.9-0.4,5.6,0.2s3.2,2.2,2.7,3.7
	C201,19.7,191.6,18.4,194.3,23.2z"/>
<path class="st6" d="M202.4,21.7c0.2,0.2,0.5,0.4,0.6,0.6s0.1,0.5,0,0.7c-0.3,1.3-1.1,2.5-0.7,3.8c0.3,1.1,1.4,1.7,2.1,2.5
	c0.6,0.6,1,1.4,1.1,2.3c1.3-3,1.4-6.4,1.4-9.6c0-0.9,0-1.8-0.2-2.6c-0.4-1.4-3.5-6.1-5.4-4.5c-0.7,0.6-0.7,2.5-0.6,3.3
	C200.7,19.5,201.4,20.8,202.4,21.7z"/>
<path class="st3" d="M184.7,116.1l-1.7,10.6l-0.5,3.3l-2.1,12.8c-0.2,1.2-1.3,2.1-2.5,2.1h-39.3c-1.2,0-2.2-0.9-2.5-2l-2.5-12.8
	l-0.6-3.3l-2-10.3c-0.3-1.5,0.9-3,2.5-3l9.2-0.1l0,0h2l26.7-0.2h2l8.9-0.1C183.8,113.2,185,114.6,184.7,116.1z"/>
<path class="st3" d="M143.2,117.1c-0.1-0.3-2.3-8.6,2.1-14.3c2.6-3.4,7-5.1,12.9-5.1c6,0,10.4,1.7,12.9,5.1
	c4.1,5.6,1.7,13.5,1.6,13.8l-1.9-0.6c0-0.1,2.2-7.3-1.3-12c-2.1-2.9-5.9-4.3-11.3-4.3c-5.3,0-9.1,1.5-11.3,4.4
	c-3.8,4.9-1.8,12.5-1.8,12.6L143.2,117.1z"/>
<polygon class="st17" points="183,126.7 182.4,130 133.6,130 133,126.7 "/>
<polygon class="st4" points="385.9,72 400,72 379.7,150.1 366.1,150.6 "/>
<rect x="96.7" y="118.3" class="st4" width="10.3" height="85.5"/>
<rect x="309.9" y="116.9" class="st4" width="70.3" height="3.3"/>
<rect x="316.1" y="118.3" class="st4" width="10.3" height="85.5"/>
</svg>
