<?xml version="1.0" encoding="utf-8"?>
<!-- Generator: Adobe Illustrator 25.0.0, SVG Export Plug-In . SVG Version: 6.00 Build 0)  -->
<svg version="1.1" id="Layer_1" xmlns="http://www.w3.org/2000/svg" xmlns:xlink="http://www.w3.org/1999/xlink" x="0px" y="0px"
	 viewBox="0 0 400 289.5" style="enable-background:new 0 0 400 289.5;" xml:space="preserve">
<style type="text/css">
	.st0{fill:#006662;}
	.st1{opacity:0.78;fill:#004751;enable-background:new    ;}
	.st2{fill:#004751;}
	.st3{fill:#69C5B9;}
	.st4{fill:#26626B;}
	.st5{fill:#BFE1C0;}
	.st6{fill:#4CBEA0;}
	.st7{fill:#42777E;}
	.st8{opacity:0.3;fill:#004751;enable-background:new    ;}
	.st9{fill:#6B949A;}
	.st10{fill:#E5F3E6;}
	.st11{fill:#B3865D;}
	.st12{fill:#FEECD7;}
	.st13{fill:#F2DBC4;}
	.st14{fill:#4CBAAC;}
	.st15{fill:#2B807D;}
	.st16{fill:#FFFFFF;}
	.st17{fill:#009D88;}
	.st18{fill:#B2B2B2;}
	.st19{fill:#E0E0E0;}
	.st20{fill:#CCCCCC;}
	.st21{opacity:0.11;fill:#404040;enable-background:new    ;}
	.st22{opacity:0.34;fill:#004751;enable-background:new    ;}
	.st23{fill:#A9D7AA;}
	.st24{fill:#6EC7BB;}
	.st25{fill:#FDBF7A;}
	.st26{fill:#996A44;}
	.st27{opacity:0.12;fill:#006662;enable-background:new    ;}
	.st28{opacity:0.82;fill:#C5E4C6;enable-background:new    ;}
	.st29{fill:#52BCAE;}
	.st30{fill:#FEDFBD;}
	.st31{opacity:0.21;fill:#009D88;enable-background:new    ;}
	.st32{fill:#428E8B;}
	.st33{opacity:0.28;fill:#004751;enable-background:new    ;}
	.st34{fill:#90D7C4;}
	.st35{fill:#EAC5A2;}
	.st36{fill:#DBF2EC;}
	.st37{opacity:6.000000e-02;fill:#004751;enable-background:new    ;}
	.st38{fill:#26AC9A;}
</style>
<path class="st0" d="M380.8,31.4c0.2,0.3,0.3,0.7,0.4,1c0.1,0.6-0.1,1.2-0.2,1.8c-0.5,2.1-0.8,4.3-2.1,5.9c-1,1.2-2.5,1.8-4,1.8
	s-2.9-0.6-4.1-1.5c-1.1-0.7-2-1.6-2.6-2.8s-0.9-2.7-0.6-4c0.4-1.7,1.8-3,3.3-3.6C373.7,28.8,378.9,28.1,380.8,31.4z"/>
<path class="st1" d="M378.2,29.4c0.2,0.3,0.3,0.7,0.4,1.1c0.1,0.6-0.1,1.2-0.2,1.8c-0.5,2.1-0.8,4.5-2.2,6.1c-1,1.2-2.6,1.9-4.1,1.8
	c-1.5,0-3-0.6-4.3-1.5c-1.1-0.7-2.1-1.7-2.7-2.9c-0.7-1.2-0.9-2.7-0.6-4.1c0.4-1.8,1.9-3.1,3.4-3.8C370.9,26.7,376.2,26,378.2,29.4z
	"/>
<path class="st0" d="M356.2,3.6c-1.3,1.3-2.2,2.8-3.1,4.3c-0.8,1.3-1.5,2.7-2,4.1c-1.3,3.9-1.5,9.1-0.8,13.2c0.4,2.6,1.6,4.4,3,6.6
	c0.7,1.1,1.6,2.1,2.5,3c1.2,1.3,2.4,2.6,4.1,3.1c1.4,0.5,3,0.3,4.5,0.1c2-0.3,4-0.5,6-0.8c0.8-0.1,1.7-0.3,2.4-0.6
	c0.6-0.3,1.2-0.8,1.7-1.3c1-0.9,2-1.9,2.8-3c1.4-1.9,2.2-4.1,2.9-6.3c0.9-3.2,1.5-6.6,1.3-9.9s-1.2-6.7-3.3-9.4
	c-2.6-3.3-6.6-5.3-10.7-6.1c-1.8-0.4-4.5-1-6.3-0.4C359.5,0.8,357.4,2.4,356.2,3.6z"/>
<path class="st2" d="M65.7,38.3c-1,1.8-2.4,3.4-4,4.7c-0.6,0.5-1.3,1-2.1,1.3c-0.7,0.3-1.5,0.4-2.2,0.4c-0.2,0-0.5,0-0.7,0
	c-1.7,0-3.5,0-5.1-0.6s-3-1.8-4.5-2.6c-0.7-0.4-1.5-0.7-2.3-1c-1.7-0.6-3.5-1.2-4.9-2.3c-2-1.6-3.5-4.1-3.7-6.7s0.3-4.9,0.9-7.5
	c0.4-1.5,1.2-3.6,1.9-5.1s1.7-3,2.7-4.3c0.2-0.2,0.4-0.5,0.6-0.7c1.7-2,3.8-3.5,6-4.5c3.1-1.4,6.5-1.8,10-1.1
	c0.3,0.1,0.6,0.1,0.8,0.2c6,1.5,8.3,7.1,9,13.4C68.6,27.5,68.5,33.4,65.7,38.3z"/>
<path class="st3" d="M57.9,54.3l-3.5,2.6l-13.3-1.6l-2.9-2.2c0,0-0.1-0.2-0.2-0.5c-0.3-0.9-0.8-2.6-0.8-3.2c0.1-0.6,1.4-5.1,1.8-6.6
	c0.1,0,0.2,0,0.3,0c0.1,0.2,0.2,0.5,0.3,0.7v0.1c0.9,2.1,3.1,6.2,7.3,6.6c5.6,0.5,7.6-3,7.6-3l0.1,0.1l3.1,2.8L57.9,54.3z"/>
<path class="st4" d="M106.6,75.2c-2.8-2.7-5.3-5.7-7.4-9c-0.6-0.9-1.1-2-0.9-3.1c0.2-0.6,0.5-1.1,1-1.4c2.2-1.8,6.3-0.9,7.6,1.7
	C108.5,66.7,107.2,71.8,106.6,75.2z"/>
<path class="st5" d="M64.7,188.2c1.9-0.2,3.8-0.4,5.3-1.6c1.3-1.1,1.9-2.8,2.5-4.3c1.4-4.1,2.9-8.3,3.1-12.6s-0.9-9-4-12
	c-2.3-2.2-5.3-3.4-8.4-4.4c-14-4.3-29.4-3.8-43.1,1.4c-4.2,1.6-8.4,3.7-11.3,7.2c-2.3,2.8-3.7,6.3-4.7,9.8
	c-1.1,3.6-1.9,7.3-2.5,11.1c-0.4,2.9-1,9.1-0.9,11.7c5.1-0.9,10.4-3.2,15.7-3.9s10.7-1.1,16-1.3C43.1,188.9,53.9,189.1,64.7,188.2z"
	/>
<path class="st6" d="M44.9,262L44.9,262c0,0.8,0.6,1.6,1.4,1.7l1.5,0.2c0,0,13.8,1.8,20.7,2c1,0,2.1,0,3.1-0.3
	c1.2-0.4,2.3-1.2,3-2.3c1.7-2.8,0.3-6.6-2.3-8.7s-5.8-2.8-9-3.5c-3.7-0.8-17-1.9-17-1.9L44.9,262z"/>
<path class="st7" d="M59.3,149c5.2,34,5.1,69-0.1,103.1c-5.2,0.4-10.4,0.8-15.5,1.2c3.4-32-5.6-63.9-8-96
	c-0.5-6.5-0.7-13.3,1.6-19.3c2.2-6.1,7.5-11.2,13.4-11c0.9,0,1.8,0.2,2.5,0.8c0.8,0.6,1.2,1.6,1.6,2.6
	C56.8,136.3,58.4,142.8,59.3,149z"/>
<path class="st8" d="M57.1,137.9c-5.2-1.2-10.7-0.6-15.5,1.6c-0.5,0.2-1,0.5-1.2,0.9s-0.2,0.8-0.2,1.3c-0.1,5.7-1.2,45.6,8.1,45.3
	C53.4,186.8,56.4,137.7,57.1,137.9z"/>
<path class="st6" d="M14.7,267C14.7,267,14.7,267.1,14.7,267c-0.1,1.1,0.5,2,1.4,2.3l0.4,0.1c0,0,13.4,3.7,20.2,4.9
	c1,0.2,2.1,0.3,3.1,0.2c1.3-0.2,2.5-0.9,3.3-1.9c2-2.5,1.2-6.5-1-8.9s-5.4-3.6-8.4-4.8c-3.6-1.4-15.9-4.8-15.9-4.8
	S14.8,263.7,14.7,267z"/>
<path class="st9" d="M48.8,173.3c0.3,5,0.6,10,0.1,14.9C47.8,199,43,208.8,39,218.7c-4.7,11.6-7.5,23.6-10.2,36
	c-0.2,0.9-0.4,2.7-0.4,2.7l-3.2-0.2c-2.8-0.4-5.5-0.7-8.3-1.1c1.4-12.9,2.8-25.9,4.2-38.8c0.5-4.4,1-8.8,1.7-13.2
	c1-5.5,2.4-11,3.1-16.6c0.6-5.1,0.5-10.3,0.5-15.4c-0.1-10.8,0.2-21.7,0.6-32.5c0.1-2.4,0.2-4.9,1-7.1c2-5.6,8.1-9.1,13-10.2
	C47.8,136.8,47.6,157.1,48.8,173.3z"/>
<polygon class="st3" points="36.3,48.1 45.8,51.9 51.3,51.4 57.4,51.7 63.1,128.3 61.2,143.2 21.6,140.3 25.7,79.9 28,55.2 "/>
<path class="st10" d="M68.2,63.7c5.6,19.2,7.6,39.3,9.6,59.3c0.6,5.9,1.2,11.9,0.2,17.8c-4.6,1.4-9.2,2.6-13.9,3.5
	c-1.5-17.5-3.1-35.1-4.6-52.6c-0.7-8-1.4-15.9-1.3-23.9c0-2.9-1.4-15.8,2.4-17.2C64.1,49.3,67.4,61.2,68.2,63.7z"/>
<path class="st11" d="M55.6,40.4c-0.1,0.5-0.1,1-0.2,1.6c0,0.2-0.1,0.5-0.1,0.7c-0.1,1-0.3,1.9-0.4,2.9c0,0.3-0.1,0.6-0.1,0.9
	c0,0.2-0.1,0.5-0.1,0.8c-0.1,0.7-0.2,1.4-0.5,2.1c-1.2,2.6-5,3.6-7.8,2.5c-2.9-1.1-4.7-3.8-6.2-6.4c-0.3-0.6-0.6-1.2-0.5-1.8
	c0.1-0.4,0.3-0.8,0.6-1.2c1.2-1.9,1.9-4.1,2.2-6.3c0.2-1.2-0.1-2.5-0.2-3.8c-0.1-1-0.2-1.9,0-2.7c0.4,0.1,0.7,0.2,1.1,0.4
	c2,0.8,4,2.1,5.8,3.3c1.9,1.3,3.6,2.7,5.3,4.2c0.5,0.4,1,0.9,1.2,1.5C55.8,39.4,55.7,39.9,55.6,40.4z"/>
<path class="st12" d="M105.4,99.7c-1.6-1-3.2-2.1-4.8-3.1c-0.8-0.5-1.6-1-2.5-1.1c-0.7-0.1-1.3,0.1-2,0.3c-2.6,0.9-5,2.2-7,4
	c-0.2,0.2-0.5,0.5-0.5,0.8c0,0.2,0.2,0.4,0.3,0.6c1.2,1.3,2.9,1.8,4.5,2.4s4.7,3.1,6.3,2.4C101.7,105.4,104.1,101.3,105.4,99.7z"/>
<path class="st12" d="M99.8,106.8c-6-0.2-11.9-1.5-17.3-4c-0.6-0.3-1.3-0.8-1.2-1.4c0.1-0.3,0.3-0.6,0.5-0.8
	c1.9-1.8,3.8-3.7,4.7-6.2c0.9-2.4-0.6-10,1.5-10.7c1.7-0.6,9.8,3.9,12.1,4.5c0.4,0.1,0.7,0.2,1,0.5c0.2,0.3,0.2,0.6,0.2,0.9
	c0,1,0.1,1.9,0.1,2.9c0.1,1.6,0.1,3.2,0.2,4.8c0,0.3,0,0.6,0,0.9C101.8,101.1,101.8,104.5,99.8,106.8z"/>
<path class="st13" d="M101.6,97.2c-2.1-0.3-3.8,0-5.9-0.5s-4.8-2.4-6.4-3.8c-1.5-1.4-2.8-3.9-2.4-6c2.2,1.5,3.8,3.3,6.5,4.3
	c2.5,0.9,5.3,1.2,7.9,0.8c0,0.1,0,0.2,0,0.4C101.5,93.9,101.5,95.5,101.6,97.2z"/>
<path class="st12" d="M104.1,89c-1,2.3-2.8,4.7-5.3,5c-1.2,0.1-2.5-0.3-3.6-0.8c-3.9-1.7-7.4-4.3-9.9-7.7c-2.5-3.4-3.8-7.8-3.4-12
	c0.4-3.4,1.9-6.7,3.9-9.5c1.1-1.6,2.5-3.1,4.2-4.1c2.6-1.5,5.9-1.5,8.7-0.3C109.8,63.9,108.2,80.1,104.1,89z"/>
<rect x="43.2" y="137.3" class="st14" width="25.1" height="3.8"/>
<path class="st15" d="M114.9,180.1c-16.7,0-31.2,9.6-38.2,23.6c-0.9,1.7-1.6,3.5-2.2,5.3c-1.5,4.3-2.3,8.9-2.3,13.8
	c0,8.9,2.7,17.1,7.3,23.9c0.9,1.3,1.8,2.5,2.8,3.7c5.2,6.2,12.2,10.8,20.1,13.2c1.8,0.6,3.7,1,5.6,1.3c2.2,0.4,4.6,0.6,6.9,0.6
	c2.2,0,4.5-0.2,6.6-0.5c1-0.2,2-0.3,3-0.6c0.3-0.1,0.6-0.1,0.9-0.2c5.7-1.4,11-4,15.5-7.5c4.7-3.6,8.7-8.3,11.6-13.5
	c0.8-1.4,1.5-2.9,2.1-4.5c2-4.9,3-10.2,3-15.9C157.6,199.2,138.5,180.1,114.9,180.1z M149.5,236.3c-2.8,7-7.6,13-13.8,17.2
	c-0.4,0.3-0.9,0.6-1.3,0.8c-1.1,0.7-2.2,1.3-3.3,1.8c-2.6,1.2-5.3,2.2-8.1,2.8c-2.6,0.6-5.3,0.9-8,0.9c-1.6,0-3.1-0.1-4.7-0.3
	c-1.9-0.2-3.7-0.6-5.5-1.1c-5.5-1.6-10.5-4.4-14.6-8.1c-1.3-1.2-2.5-2.4-3.6-3.7c-5.5-6.5-8.7-14.8-8.7-23.9c0-4.4,0.8-8.7,2.2-12.6
	c0.6-1.8,1.4-3.5,2.3-5.1c6.3-11.5,18.6-19.4,32.6-19.4c2.7,0,5.4,0.3,8,0.9c1.7,0.4,3.3,0.9,4.9,1.4c14.1,5.2,24.2,18.9,24.2,34.8
	c0,2.8-0.3,5.5-0.9,8.1C150.7,232.7,150.2,234.6,149.5,236.3z"/>
<circle class="st15" cx="116" cy="222.3" r="5.7"/>
<circle class="st14" cx="167.4" cy="258.4" r="10.8"/>
<path class="st16" d="M167.9,266.8c-4.5,0-8.2-3.7-8.2-8.2c0-1.9,0.6-3.6,1.7-5l0.7,0.6c-1,1.3-1.5,2.8-1.5,4.5c0,4,3.2,7.2,7.2,7.2
	c1.2,0,2.3-0.3,3.3-0.8l0.4,0.8C170.5,266.5,169.2,266.8,167.9,266.8z"/>
<path class="st17" d="M175.6,236.7c1.8,0.6,3.7,0.5,5.6,0.8c1.9,0.3,3.8,0.9,5.1,2.3c1.3,1.4,1.7,3.7,0.6,5.2
	c-0.9,1.3-2.6,1.7-4.2,2c-5.1,1-10.6,1.7-15.1-0.6c-0.3-0.2-0.6-0.3-0.8-0.6s-0.3-0.6-0.3-0.9c-0.5-2.4-1-4.8-1.5-7.3
	c-0.2-1.1-0.5-2.2-0.2-3.3c0.3-1.4,1.5-2.6,3-3C171.9,230.3,172.3,235.6,175.6,236.7z"/>
<path class="st2" d="M157.7,167.1c1.9,0.8,3.8,1.6,5.4,2.9c2.8,2.2,4.5,5.5,5.3,9c0.8,3.4,0.9,7,1.1,10.5
	c0.5,13.3,1.7,26.6,3.6,39.7c0.2,1.5,0.3,3.2-0.8,4.1c-0.4,0.3-0.9,0.5-1.4,0.7c-3.3,1.2-6.9,1.9-10.4,2
	c-2.8-17.1-5.7-34.3-8.5-51.4c-0.2-1-0.4-2-1-2.8c-0.7-0.8-1.8-1.1-2.8-1.4c-6.9-2-13.8-3.9-20.8-5.9c-4.4-1.2-9-2.6-12.3-5.7
	s-5-8.6-2.5-12.4c1.9-2.9,5.8-4,9.2-3.7c6,0.6,11.1,4.4,16.6,6.6C144.7,162.1,151.3,164.4,157.7,167.1z"/>
<path class="st0" d="M162.9,237.3c-2.9-0.2-5.7-0.2-8.6,0.1c-1.4,0.1-2.8,0.4-4.1,0.7c-0.1-0.2-0.2-0.4-0.2-0.6
	c-0.6-1.5-1-3.1-1.4-4.6c-0.5-2.2-0.9-4.4-1.2-6.6c-0.1-1.1-0.3-2.2-0.4-3.2c-0.2-1.7-0.3-3.3-0.5-5c-0.1-1.4-0.3-2.9-0.4-4.3
	c-0.3-2.2-0.5-4.4-1-6.5c0-0.1,0-0.1,0-0.2c-0.5-2.6-1.2-5.2-2.2-7.7c-0.3-0.8-0.7-1.7-1.5-2.1c-0.1-0.1-0.2-0.1-0.3-0.1
	c-0.6-0.2-1.3-0.2-1.9-0.2c-15.3,0.5-30.6,1.2-45.9-0.2c-3.1-0.3-6.3-0.7-9.1-2.1c-3.6-1.8-5.9-4.7-7.1-7.9
	c-2.8-7.6,0.7-17.3,9.3-20.3c2.8-1,5.8-1.1,8.8-1.3c5.7-0.2,11.4-0.2,17,0.1c13.6,0.6,27.2,2.7,40.1,7.1c2.7,0.9,5.7,2.2,6.9,4.8
	c0.5,1.1,0.7,2.4,0.8,3.6c0.8,8,1.4,16,1.9,23.9c0.1,1.6,0.2,3.3,0.3,4.9c0.1,2.5,0.2,4.9,0.3,7.4c0,1.3,0.1,2.5,0.1,3.8
	c0.1,1.7,0.1,3.4,0.1,5.1c0,1,0,2,0.1,3c0,2.4,0.1,4.8,0.1,7.2v0.1C162.9,236.5,162.9,236.9,162.9,237.3z"/>
<path class="st18" d="M165.1,220.3l-2.5,0.4l-4.6,0.7l-4.8,0.7L147,223l-1.8,0.3c-0.2-1.5-0.3-3-0.4-4.5c0-0.2,0-0.4-0.1-0.6
	l1.7-0.1l6.4-0.5l4.5-0.3l5.2-0.4l2.2-0.2C164.8,217.9,164.9,219.1,165.1,220.3z"/>
<path class="st19" d="M166.9,235.6l-4.1,0.5l-8.7,1l-4.3,0.5l-2.8,0.3c-0.3-1.4-0.5-2.9-0.7-4.3l2.1-0.6l5.1-1.5l5.8-1.7l3.4-1
	l3-0.9c0.1,0.8,0.1,1.6,0.2,2.4c0.1,1.7,0.3,3.4,0.8,5C166.9,235.4,166.9,235.5,166.9,235.6z"/>
<path class="st19" d="M165.6,225.7l-2.9,0.1l-4,0.1l-5.4,0.2l-6,0.2l-1.8,0.1c-0.1-1-0.2-2-0.3-3l1.8-0.3l6.2-0.9l4.8-0.7l4.6-0.7
	l2.5-0.4C165.3,222.1,165.5,223.9,165.6,225.7z"/>
<path class="st20" d="M165.8,227.8l-3,0.9l-3.4,1l-5.8,1.7l-5.1,1.5l-2.1,0.6c-0.4-2.4-0.7-4.8-1-7.2l1.8-0.1l6-0.2l5.4-0.2l4-0.1
	l2.9-0.1C165.7,226.4,165.8,227.1,165.8,227.8z"/>
<path class="st19" d="M163.2,209.2l-1.1,0.3l-5.9,1.5l-4.6,1.2l-5.7,1.5l-1.7,0.4c-0.1-1-0.3-1.9-0.5-2.8c-0.7-3.1-1.2-3.5,1.2-4.1
	c0.2,0,0.4-0.1,0.6-0.2c0.1,0,0.2,0,0.3-0.1c1.1-0.3,2.2-0.5,3.4-0.7c2-0.4,4-0.7,6-1c2.2-0.3,4.4-0.5,6.5-0.7c0.1,0,0.1,0,0.2,0
	C162.5,206.1,162.9,207.6,163.2,209.2z"/>
<path class="st20" d="M164.6,216.7l-2.2,0.2l-5.2,0.4l-4.5,0.3l-6.4,0.5l-1.7,0.1c-0.1-1.3-0.2-2.6-0.4-4l1.7-0.4l5.7-1.5l4.6-1.2
	l5.9-1.5l1.1-0.3C163.8,211.7,164.3,214.2,164.6,216.7z"/>
<path class="st20" d="M177.3,242.1l-11,12.5c-1.9,0.5-3.8,0.9-5.6,1.4c-0.3,0.1-0.6,0.1-0.9,0.2c-0.2,0-0.4,0.1-0.6,0.1l15-15
	C175.1,241.6,176.2,241.8,177.3,242.1z"/>
<path class="st20" d="M183.1,244.9c-0.7-0.9-1.7-1.5-2.8-1.9l-3.2,8.9c1.1-0.3,2.1-0.5,3.2-0.8c1.2-0.3,2.5-0.7,3.2-1.8
	C184.4,247.9,184,246,183.1,244.9z"/>
<path class="st18" d="M179.5,242.6c-0.7-0.2-1.5-0.4-2.2-0.6l-11.1,12.5c3.7-0.9,7.3-1.8,11-2.8l3.2-8.9
	C180,242.8,179.8,242.7,179.5,242.6z"/>
<path class="st20" d="M167.4,236.7l-11.9,6.7l-6.6,3.7c-0.7-3.1-1.2-6.1-1.8-9.2l2.8-0.3l4.3-0.5l8.7-1l4.1-0.5
	C167.1,235.9,167.2,236.3,167.4,236.7z"/>
<path class="st19" d="M174.1,241.4l-15,15c-1.6,0.4-3.3,0.7-4.8,0.1c-1.9-0.7-3.1-2.5-4-4.6l7-3.4l15.3-7.5
	C173.1,241.1,173.6,241.2,174.1,241.4z"/>
<path class="st18" d="M172.6,240.9l-15.3,7.5l-7,3.4c-0.5-1.4-0.9-2.8-1.2-4.3c0-0.2-0.1-0.4-0.1-0.6l6.6-3.7l11.9-6.7
	c0.2,0.4,0.4,0.7,0.6,1.1C169.2,239.4,170.8,240.3,172.6,240.9z"/>
<path class="st21" d="M160.6,256c-0.3,0.1-0.6,0.2-0.9,0.2c-0.2,0-0.4,0.1-0.6,0.1c-1.6,0.4-3.3,0.7-4.8,0.1c-1.9-0.7-3.1-2.5-4-4.6
	c-0.5-1.4-0.9-2.8-1.2-4.3c0-0.2-0.1-0.4-0.1-0.6c-0.7-3.1-1.2-6.1-1.8-9.2c-0.3-1.4-0.5-2.9-0.7-4.3c-0.4-2.4-0.7-4.8-1-7.2
	c-0.1-1-0.2-2-0.3-3c-0.2-1.5-0.3-3-0.4-4.5c0-0.2,0-0.4-0.1-0.6c-0.1-1.3-0.2-2.7-0.4-4c-0.1-1-0.3-1.9-0.5-2.8
	c-0.7-3.1-1.2-3.5,1.2-4.1c0.2,0,0.4-0.1,0.6-0.2c0.1,0,0.2,0,0.3-0.1c1.1-0.3,2.2-0.5,3.4-0.7c0.6,0.6,1.2,2.3,1.6,2.9
	c0.6,1,0.4,2,0.8,3c0.6,1.7,1,3.5,1.2,5.3c0.2,1.5,0.3,3,0.3,4.5c0,1.1,0.1,2.2,0.1,3.3c0,0.2,0,0.5,0,0.7c0.1,1.8,0.1,3.6,0.3,5.3
	c0.1,1.9,0.3,3.8,0.6,5.6c0,0.2,0,0.3,0.1,0.5c0.3,2,0.7,3.9,1.2,5.9c0.5,1.7,1,3.4,1.7,5.1c0.3,0.8,0.7,1.6,1.1,2.4
	c0.7,1.4,1.5,2.7,2,4.2C160.5,255.4,160.5,255.7,160.6,256z"/>
<path class="st22" d="M141,197.1c-0.6-0.2-1.3-0.2-1.9-0.2c-15.3,0.5-30.6,1.2-45.9-0.2c-3.1-0.3-6.3-0.7-9.1-2.1
	c-3.6-1.8-5.9-4.7-7.1-7.9c0.3-1.2,0.6-2.4,0.9-3.6c1.1-4.3,3.2,0.4,5.1,1.8c2.2,1.6,4.9,2.6,7.6,3.4c14.9,4.3,30.9,3.9,46.1,7.1
	c1.4,0.3,2.8,0.6,4,1.5C140.8,196.9,140.9,197,141,197.1z"/>
<path class="st23" d="M137.6,159.3c-3.3,2.4-7.3,3.2-11.1,4.5c-8.1,2.7-15.6,7.3-23.1,11.7c-10.7,6.3-27.2,14.3-27.2,14.3
	s-1.2-3.3-2.4-7.2c-1-3.2-2.1-6.9-2.6-9.6c-0.8-4.1-1.9-7.8-2.6-11.4c-0.9-4-1.4-8-1.1-12.5c0.4-5.7,0.7-11.4,1.1-17.1
	c0.3-4,0.5-8.1,2-11.8c2.1-5.3,6.4-9.2,8.9-14.3c0.8-1.6,1.1-4.2,2.8-4.9c2.1-0.9,5.7,1.1,7.7,1.7c3.5,1,7.7,1.3,10.2-1.5
	c0.9-0.9,1.6-2.2,2.8-2.4c0.7-0.1,1.3,0.2,2,0.5c2.6,1.2,5.2,2.4,7.8,3.6c1.3,0.6,2.6,1.2,3.7,2.2c2,1.8,3,4.5,4,7
	C126.1,127.9,131.8,143.6,137.6,159.3z"/>
<path class="st24" d="M97.2,161c-3.1,4.1-8.3,5.9-13.2,7.2c-2.5,0.6-5.1,1.2-6.9,3.1c-1.9,1.9-2.4,4.8-2.8,7.5
	c-0.2,1.3-0.4,2.6-0.6,3.9c-1-3.2-2.1-6.9-2.6-9.6c-0.8-4.1-1.9-7.8-2.6-11.4c1.4-1.6,5.3-1.1,7.2-1.2c3.7-0.2,7.3-0.2,11-0.1
	C87.9,160.3,96.8,161.6,97.2,161z"/>
<path class="st24" d="M75.8,149.9c0,0.4,0,0.8,0.3,1.1c0.2,0.2,0.6,0.2,0.9,0.2c4.5-0.3,9-0.7,13.5-1c-2.5-0.2-4.9-1.7-6.2-3.8
	c-1-1.6-1.5-3.4-1.9-5.3c-1.5-6.8-2.5-13.6-3.5-20.5c-0.6,1.8-0.6,4.1-1,6c-0.5,2.6-0.9,5.2-1.3,7.9
	C76.1,139.6,75.8,144.8,75.8,149.9z"/>
<path class="st24" d="M122.5,139.5c1.8,4.1,4,8.3,3.7,12.8c-0.4-1.8-3.5-1.2-4.6-2.6c-0.3-0.4-0.4-0.8-0.5-1.2
	c-1.5-5.1-2.8-10.3-3.8-15.5c-0.9-4.2-3.2-10.9-2.2-15C118,124.7,119.3,132.5,122.5,139.5z"/>
<path class="st12" d="M115.1,148.4c-1.1,0-2.3,0.3-3.2,1.1s-1.5,2.4-1.2,3.9c0.4,1.9,2,2.7,3.4,3.2c2.1,0.6,4.3,0.8,6.5,0.9
	c1.6,0.1,3.2,0.2,4.7,0.3c0.6,0,1.3,0.1,1.9-0.2c0.6-0.2,1.2-0.8,1.3-1.6c0.3-1.5-0.8-2.7-1.8-3.5
	C123,149.5,119.5,148.3,115.1,148.4z"/>
<path class="st14" d="M123.8,260.6l-4.5-65.9c-0.1-2-1.8-3.6-3.8-3.6h-13.3v-3.7h14c3.6,0,6.6,2.8,6.8,6.4l4.2,65.6L123.8,260.6z"/>
<path class="st14" d="M156.3,260.1l-3.4,1.5l-7.8-17.6l-3-6.8l-3.1-6.9l-1.6-3.7l-0.9-1.9c-0.8-1.8-2.6-3-4.5-3l-7.2-0.1h-1.4
	l0.1-3.7h1.1l7.6,0.1c3.4,0.1,6.4,2.1,7.8,5.2l1.5,3.5l1.2,2.8l1.1,2.5l3.4,7.7L156.3,260.1z"/>
<path class="st14" d="M145.4,260L145.4,260l47.5-13.2c1-0.3,2,0.3,2.3,1.3l0,0c0.3,1-0.3,2-1.3,2.3L150,262.6
	C148,263.2,145.9,262,145.4,260z"/>
<path class="st14" d="M142.6,229.3v1h-14.8c-0.9,0-1.7,0.1-2.5,0.2c-1.2,0.2-2.4,0.4-3.5,0.8c-7.3,2.5-12.6,9.4-12.6,17.6v2.4H57.4
	c-0.9-1-1.5-2.3-1.6-3.7h49.7c0-5.8,2.4-11,6.2-14.8c2.7-2.7,6.1-4.6,9.9-5.6c1.2-0.3,2.3-0.5,3.6-0.5c0.5,0,0.9-0.1,1.4-0.1h14.9
	L142.6,229.3z"/>
<circle class="st14" cx="125.4" cy="265.4" r="11.3"/>
<rect x="60.3" y="180.2" class="st25" width="47.6" height="19.7"/>
<path class="st14" d="M63.9,140.3v112.3c-0.7,0.3-1.5,0.5-2.4,0.5c-0.5,0-0.9-0.1-1.3-0.2V140.3H63.9z"/>
<path class="st14" d="M107.9,199.9h-3.7v-19.7c0-4.3-3.5-7.7-7.7-7.7H60.7v-3.7h35.4c6.5,0,11.8,5.3,11.8,11.8
	C107.9,180.6,107.9,199.9,107.9,199.9z"/>
<path class="st23" d="M69.3,110c-2.1,1.6-4.2,3.3-5.7,5.4c-2,2.8-2.5,6.8-3.1,10.2c-1.3,6.8-2,13.7-2.3,20.6
	c-0.2,5.7,1.2,12.3,2.8,17.8c0.2,0.7,0.5,1.4,1,1.9c0.6,0.6,1.5,0.7,2.3,0.9c3.3,0.5,5.1-0.1,8.4-0.5c2.8-0.3,7.8-1.3,10.5-1.7
	c15.1-2.3,19.9-3.6,34.5-5.1c-0.6-4.2-1.1-8.4-1.7-12.6c-10.5,0.3-7.5,0-15.4,1.3c-7.3,1.2-14.9,1.4-22.2,3c-0.7,0.2-1.5,0.3-2.2,0
	s-1.1-1.1-1.4-1.9c-1.7-4-2.9-8.3-3.7-12.6c-0.1-0.7-0.2-1.3-0.1-2c0.1-1,0.7-1.8,1.3-2.6c2.9-4.2,5.5-8.6,7.9-13.1
	s6.1-12.1,3.9-17.4c-1.6-3.7-4.2,0-6.4,1.8C74.9,105.7,72.1,107.8,69.3,110z"/>
<path class="st14" d="M131.9,200H61.4c-0.7,0-1.2-0.5-1.2-1.2v-2.4c0-0.7,0.5-1.2,1.2-1.2h70.5c0.7,0,1.2,0.5,1.2,1.2v2.4
	C133.1,199.4,132.6,200,131.9,200z"/>
<path class="st17" d="M67.2,247.4c0,0.1,0,0.1,0,0.2c0,1.4-0.6,2.8-1.6,3.7c-0.5,0.5-1.1,0.9-1.7,1.3c-0.7,0.3-1.5,0.5-2.4,0.5
	c-0.5,0-0.9-0.1-1.3-0.2c-1.1-0.3-2-0.8-2.8-1.6c-0.9-1-1.5-2.3-1.6-3.7c0-0.1,0-0.1,0-0.2c0-2.7,1.9-4.9,4.4-5.5
	c0.4-0.1,0.9-0.2,1.3-0.2c0.9,0,1.7,0.2,2.4,0.5C65.8,243.1,67.2,245.1,67.2,247.4z"/>
<path class="st17" d="M74.9,205.9c-1.8-0.6-3.7-1-5.6-1.3c-1.8-0.3-3.6-0.5-5.4-0.5c-0.5,0-1,0-1.5,0c-0.8,0-1.5,0-2.2,0.1
	c-22.5,1.2-40.5,19.8-40.5,42.6c0,23.6,19.1,42.7,42.7,42.7c16.7,0,31.2-9.6,38.2-23.6c0.9-1.7,1.6-3.5,2.2-5.3c1-2.9,1.7-6,2-9.2
	c0.1-1.2,0.2-2.5,0.2-3.7c0-0.3,0-0.5,0-0.8C105.1,227.5,92.4,211.3,74.9,205.9z M99.2,251.3c-0.3,2.8-1,5.5-1.9,8.1
	c-0.6,1.8-1.4,3.5-2.3,5.1c-6.3,11.5-18.6,19.4-32.6,19.4c-20.5,0-37.1-16.7-37.1-37.1c0-19.7,15.5-35.9,34.9-37.1
	c0.7-0.1,1.5-0.1,2.2-0.1c0.5,0,1,0,1.5,0c1.1,0,2.2,0.1,3.2,0.3c1.9,0.2,3.7,0.6,5.5,1.1c15.5,4.4,26.9,18.8,26.9,35.7
	c0,0.3,0,0.5,0,0.8C99.5,248.8,99.4,250.1,99.2,251.3z"/>
<path class="st16" d="M125.3,273.3c-4.5,0-8.2-3.7-8.2-8.2c0-1.9,0.6-3.6,1.7-5l0.7,0.6c-1,1.3-1.5,2.8-1.5,4.5c0,4,3.2,7.2,7.2,7.2
	c1.2,0,2.3-0.3,3.3-0.8l0.4,0.8C127.9,273,126.6,273.3,125.3,273.3z"/>
<path class="st17" d="M61.7,275.3c-15.1,0-27.4-12.3-27.4-27.4c0-1.9,0.2-3.7,0.6-5.5l0.9,0.2c-0.4,1.7-0.5,3.5-0.5,5.3
	c0,14.6,11.9,26.5,26.5,26.5c3.1,0,6.2-0.5,9.1-1.6l0.3,0.9C68.1,274.8,65,275.3,61.7,275.3z"/>
<path class="st10" d="M54.7,47.3c0,0,2.9,9.1,3.5,18.4c0.6,9.4,6.6,0,6.6,0l1.1-8.8C65.9,57,64.6,49.2,54.7,47.3z"/>
<path class="st26" d="M55.4,42c0,0.2-0.1,0.5-0.1,0.7c-0.1,1-0.3,1.9-0.4,2.9c0,0.3-0.1,0.6-0.1,0.9c-0.9-0.2-1.7-0.5-2.6-0.9
	c-2-0.9-3.8-2.1-5.2-3.7c-2-2.2-3.2-5.1-4.1-7.9c-0.2-0.5-0.3-1.1-0.5-1.6c-0.1-0.2-0.1-0.4-0.2-0.6c-0.1-0.4-0.7-1.8-0.6-2.2
	c0.3-0.6,1.1-0.1,1.8,0.4c0.5,0.4,1.1,1,1.3,1.2c2.6,2.9,5.3,5.7,8.2,8.4C53.6,40.5,54.5,41.3,55.4,42z"/>
<path class="st11" d="M60.5,36c-0.4,0.8-0.8,1.6-1.3,2.3c-1.8,2.7-4.9,5.4-8.3,4c-1.6-0.7-3-1.9-4.2-3.2c-3-3.2-5.2-7.7-6-12.1
	s0-9.1,2.7-12.7S50.6,8.5,55,9.2c3,0.4,5.8,1.7,7.4,4.4c1.5,2.5,1.7,5.4,1.6,8.2c-0.1,2.5-0.6,5-1.1,7.5
	C62.2,31.6,61.5,33.9,60.5,36z"/>
<path class="st27" d="M34.5,94.3c-1.2,22.3,1.2,44.6,2.6,66.8c0.1,1.4,0.2,2.9-0.4,4.3c-0.4,1.1-1.3,2-2.1,2.8
	c-2.7,2.6-6,4.6-9.5,5.9c-1.3-2.3-1.4-5-1.5-7.7c-0.2-15.7,1.7-31.4,3.8-46.9c3-22.9,5.5-46.5,10.6-69.1c1,6.4-0.8,14.1-1.5,20.5
	C35.8,78.7,34.9,86.5,34.5,94.3z"/>
<path class="st10" d="M40,42.9c0,0-0.1,0.4-0.3,0.8c0,0.1,0,0.1-0.1,0.2c-0.2,0.6-0.4,1.2-0.4,1.7c-0.1,1.2-0.3,2.3-0.5,3.5
	c-0.2,1-0.3,1.9-0.5,2.9c-0.1,0.2-0.1,0.5-0.2,0.7l0,0c-0.8,3.7-1.7,7.4-2.3,10.8c-1.3,7.3-2.4,14.7-3.5,22.1
	c-1.3,9.7-2.3,19.4-2.8,29.1c-0.2,4-0.3,8-0.4,12c0,1,0,2.1,0,3.1v0.3c0,1.1,0,2.2,0,3.3c0,1,0,1.9,0.1,2.9c0,0.3,0,0.6,0,1
	c0,1.2,0.1,2.4,0.2,3.6c0.4,8.2,1.3,16.4,2.6,24.6c0.2,1.6,0.5,3.2,0.2,4.8c0,0.1-0.1,0.2-0.1,0.4c-1,4-5.3,5.9-9.1,7.7
	c-8.4,3.9-16.1,9.5-22.4,16.3c0.8-20.9,2.5-41.8,5-62.6c0.5-3.8,0.9-7.6,1.5-11.4c0.1-0.8,0.2-1.6,0.3-2.5c0.1-0.5,0.1-0.9,0.2-1.4
	c0-0.1,0-0.3,0.1-0.4c0.1-0.5,0.2-1,0.2-1.5c0.5-3.3,1-6.5,1.7-9.8c1.6-8,3.8-15.8,5.8-23.6c2-8,3.8-16.1,7.5-23.4
	c1.4-2.7,4.1-7.3,7.4-10.9c1.3-0.9,2.6-1.7,3.7-2.4c2-1.2,4-1.6,5.1-1.7c0.1,0,0.2,0,0.3,0C39.7,42.9,39.9,42.9,40,42.9L40,42.9z"/>
<path class="st11" d="M53.1,136.9c0.4,0.4,0.8,0.9,1,1.4c0.2,0.6,0.2,1.3,0.2,2c0,2,0,4,0,6c0,0.3,0,0.6-0.2,0.9
	c-0.3,0.4-0.8,0.4-1.2,0.4c-3-0.1-6-0.2-9-0.4c-1.4-0.1-2.7-1-3.1-2.4c-0.9-2.7-1.5-5.6-1.9-8.4c-0.1-0.4-0.1-0.9,0.1-1.2
	c0.2-0.3,0.5-0.4,0.9-0.6C45.3,132.6,49,132.5,53.1,136.9z"/>
<path class="st28" d="M22,77.9c-1.6,3.5-1.9,7.5-2.1,11.5s-0.5,8.1-0.7,12.2c-0.1,2.3-0.1,4.9,1.6,6.4c6.6,5.8,3.8-7.6,3.5-10.4
	C23.5,91,22.8,84.4,22,77.9z"/>
<path class="st28" d="M29.3,140.6c-0.1-0.1-0.3-0.1-0.4-0.2c-3.5-2.1-6.6-4.9-9.5-7.8c-2.6-2.7-4.9-5.6-7.3-8.5
	c-0.5-0.6-3.7-3.8-4.7-6c0.1-0.5,0.1-0.9,0.2-1.4c0-0.1,0-0.3,0.1-0.4c0,0,0,0,0.1,0c0.9-0.3,4.6,3.1,5.3,3.6
	c1.6,1.1,3.1,2.3,4.7,3.4c3.2,2.3,6.4,4.5,10,6c0.4,0.2,0.8,0.3,1.2,0.6h0.1c0,1.1,0,2.3,0,3.4c0,1,0,2,0,3
	C29.2,137.8,29.2,139.2,29.3,140.6z"/>
<path class="st10" d="M48.6,133.8c-2.3,1.6-8.4,8.1-8.8,7.9l0,0c-1.4-1-2.8-2.1-4.4-3.3c-2-1.5-4.2-3.2-6.4-4.9
	c-1.1-0.8-2.2-1.7-3.3-2.6c-1.1-0.9-2.2-1.8-3.4-2.6c-5.2-4.1-10.4-8.2-14.8-11.5c-0.9-0.6-1.7-1.3-2.5-1.8
	c-1.7-1.2-3.5-2.6-4.4-4.5c-1.3-2.6-0.6-5.8,0-8.6C2.2,94.9,3.9,88,5.5,81c0.1-0.4,0.2-0.8,0.4-1.3C10,63.8,21.8,52.9,30.3,47
	c1.3-0.9,2.6-1.7,3.7-2.4c1.4,0.5,1.6,2.4,1.2,4.5l0,0c-0.4,2.1-1.4,4.5-2.3,6c-1.3,2-3,3.7-4.1,5.8c-0.9,1.7-1.4,3.6-1.8,5.5l0,0
	c0,0.2-0.1,0.4-0.1,0.6c-1.4,6.5-2.7,13-3.9,19.6l0,0c-0.7,3.7-1.3,7.3-1.9,11c-0.4,2.3-0.7,4.7,0.1,6.8c0.5,1.2,1.3,2.2,2.1,3.1
	c0.1,0.2,0.3,0.4,0.5,0.6s0.4,0.5,0.6,0.7c1.1,1.3,2.4,2.8,3.7,4.4c0.4,0.5,0.9,1,1.3,1.5c1.6,1.8,3.3,3.8,5,5.7
	C39.7,126.4,44.9,129.4,48.6,133.8z"/>
<path class="st4" d="M82.2,78.3c3-4.4,4.5-5.5,7.8-7.4c5.1-3,10.6-0.9,15-4.9c1.4-1.3,2.9-4.6,3.3-6.5c0.1-0.4,0.1-0.8,0-1.1
	c-0.1-0.2-0.4-0.4-0.6-0.5c-4.3-2.7-9.5-3.6-14.4-2.6c-4.5,1-8.9,3.7-11.7,7.6C78.8,66.8,80.4,74.2,82.2,78.3z"/>
<path class="st4" d="M81.2,75.6c0,0,1.3,5,2.3,6.6c0,0-0.4-5,2.8-8.8c4.5-5.3-0.7-7.2-0.7-7.2l-1.9-0.6L81.2,75.6z"/>
<path class="st2" d="M60.2,11.2c0,0.8-0.1,1.6-0.6,2.3c-1.7,2.4-4.2,4.7-6.8,6s-5.4,2.2-7.7,3.9c-1.5,1-2.8,2.5-3.2,4.2
	c-0.4,1.7,0.2,3.8,1.8,4.7c-0.6-0.1-1.2-0.3-1.7-0.6c-0.9-0.5-1.6-1.4-2.1-2.3c-0.7-1.5-0.9-3.2-0.8-4.9c0.2-4,1.8-8,4.4-11.1
	c1.4-1.6,3-3,4.8-4.1c3.1-1.2,6.5-1.6,10-1c0.3,0,0.6,0.1,0.8,0.2C59.7,9.3,60.1,10.2,60.2,11.2z"/>
<path class="st2" d="M52.4,22.6c-1.6,0.8-3.2,1.5-4.7,2.4s-2.7,2.3-3.2,4c-0.3,1.2-0.1,2.6,0.9,3.3c-0.8,0.1-1.7,0.1-2.4-0.2
	s-1.3-1-1.6-1.7S41,28.8,40.9,28c-0.1-1.8,0.1-3.6,0.4-5.4c0.4-1.9,0.9-3.8,2.1-5.3c1-1.5,2.5-2.6,4-3.6c1.4-0.9,2.9-1.7,4.3-2.6
	c0.8-0.4,1.6-0.9,2.4-1.2c1.5-0.5,3.1-0.5,4.6-0.5c0.5,0,1,0,1.5,0.3c0.3,0.2,0.5,0.5,0.7,0.9c0.5,1,0.5,2.2,0.2,3.2
	c-0.2,0.7-0.7,1.2-1.1,1.8c-1.3,1.9-2.5,3.5-4.4,4.9C54.6,21.3,53.5,22,52.4,22.6z"/>
<path class="st29" d="M46.7,89.4c0.2-0.6,0.3-1.2,0.7-1.6c0.3-0.4,0.7-0.7,1-1c2.4-2.1,4.4-4.8,5.6-7.8c-0.7,1.7-0.6,4-1.2,5.9
	c-0.6,2-1.5,4-2.6,5.8c-0.5,0.9-2.7,4.8-3.8,4.7C44.6,95.1,46.4,90.4,46.7,89.4z"/>
<path class="st2" d="M60.6,22.6c1.2,2.1,2.9,3.9,3.5,6.2c0.4,2-0.1,4.1-1.4,5.6c2.1-0.1,3.7-2.1,4.4-4.2c0.9-2.6,0.8-5.5,0.1-8.2
	c-0.7-2.7-1.9-5.2-3.2-7.7c-1.1-2-4-4.3-4.8-0.9C58.4,16.5,59.1,20,60.6,22.6z"/>
<path class="st30" d="M297,99.7c-1.4,0.2-2.8,0.2-4.1,0.7c-1.3,0.5-2.5,1.7-2.3,3.1c0.1,0.9,0.8,1.7,1.6,2.2
	c0.8,0.5,1.7,0.6,2.7,0.8c4,0.5,8.2,0.2,12.1-1c1.2-0.4,2.5-0.9,3.1-2c1.4-2.4-0.9-5.8-3.4-6.1C303.5,97,300,99.3,297,99.7z"/>
<path class="st23" d="M360.6,263.9c-0.1,3.6-0.2,6.5-0.2,6.5s-3.5,0.2-8.1,0.5c-5.6,0.3-12.8,0.7-17.3,0.7c-1.6,0-3.5-0.4-4.2-1.7
	c-0.9-1.7,1-3.6,2.6-4.8c4.6-3.3,9.8-6.5,14.3-9.8c1.5-1.1,12.9-4,12.9-2.9C360.7,255.3,360.7,260,360.6,263.9z"/>
<path class="st31" d="M360.6,263.9c-0.1,3.6-0.2,6.5-0.2,6.5s-3.5,0.2-8.1,0.5c-0.7-0.5-1.2-1.1-1.2-1.9c0-0.9,0.5-1.8,1.2-2.3
	c0.7-0.6,1.6-0.8,2.5-1.1C356.3,265,358.6,264.2,360.6,263.9z"/>
<path class="st23" d="M360.8,265.2c-1.7,1.2-3.5,3-2.6,4.7c0.7,1.3,2.6,1.7,4.2,1.7c8.2,0,25.4-1.1,25.4-1.1s0.5-12.5,0.2-18
	c0-1.1-11.5,1.8-12.9,2.9C370.6,258.7,365.5,261.8,360.8,265.2z"/>
<path class="st32" d="M390.3,161.7c-1.3,37.2-1.9,58.7-1.5,95.9c0,0.3-0.2,0.6-0.5,0.6c-5.6,0.4-11.2,0.1-16.7-0.7
	c-0.3,0-0.5-0.3-0.5-0.6c1-22.5-0.9-77.5-3.7-106.6c-0.1-0.6-0.1-1.1-0.2-1.7c0-0.2-0.2-0.4-0.3-0.5c-0.2-0.1-0.4,0-0.6,0.1
	c-0.1,0.1-0.2,0.2-0.2,0.4c-0.1,0.9-0.2,1.7-0.3,2.7c-2.9,29.7-5.4,83.4-4.4,105.6c0,0.3-0.2,0.5-0.5,0.6
	c-5.5,0.8-11.2,1.1-16.7,0.7c-0.3,0-0.5-0.3-0.5-0.6c0.3-33.3-0.1-50.9-1.1-84.1c-0.1-3.9-0.3-7.8-0.4-11.8
	c-0.1-2.9-0.2-5.7-0.2-8.5c0-5.1,0-10.2,0.2-15.3c0-1.4,0.1-2.9,0.1-4.3v-0.1c0.1-4.4-0.4-13.2,1.9-16.5c1.3-1.8,8.6-4.8,10.9-4.9
	c1.8-0.1,3.5,0.7,5.2,1.5c1.9,0.9,3.9,1.9,5.7,3.1c0.2,0.1,0.4,0.1,0.6,0c1.8-1.2,3.8-2.1,5.7-3.1c1.6-0.8,3.4-1.6,5.2-1.5
	c2.3,0.1,9.5,3.1,10.9,4.9c2.4,3.2,1.8,12,1.9,16.5c0,1,0.1,2.1,0.1,3.1c0.1,2.4,0.1,4.8,0.1,7.2
	C390.5,149.8,390.5,155.8,390.3,161.7z"/>
<path class="st33" d="M390.4,143.9c-7.7,1.9-15.7,2.9-23.5,4.2c-0.2,0-0.4,0-0.6,0.1c-8.4,1.4-16.5,3.1-24.1,6.7
	c0-0.1-0.1-0.8-0.2-1.7c0-5.1,0-10.2,0.2-15.3c0.1-0.6,0.3-1.3,0.4-1.9c1.3-4.8,9.1-8.5,13.5-10.1c9.3-3.2,19.5-0.5,28.7,3
	c1.5,0.6,3.1,1.2,4,2.6c0.5,0.7,0.7,1.6,0.9,2.5c0.2,0.9,0.4,1.8,0.6,2.8C390.3,139.1,390.4,141.5,390.4,143.9z"/>
<path class="st34" d="M344,72.3c-0.9,3.1-1.8,6.2-1.5,9.4c0.3,3,1.6,5.7,2.5,8.5c2.8,9.3,0.6,19.8-1.9,29.2
	c-0.5,2.1-2.9,14.2-2.3,18.3c8.2,1.4,16.9,3.7,25.3,4.1c8.4,0.4,17.4,1,24.7-3c0.4-0.2,0.8-0.4,1-0.8c0.3-0.5,0-1.1,0-1.7
	c0.6-7.9-5.4-30.1-5.1-38.7c0.2-6.9,2.2-13.6,2.7-20.4c0.5-7-0.6-14.1-3.2-20.5c-0.3-0.7-0.6-1.4-1.2-1.8c-0.5-0.3-1.1-0.4-1.7-0.5
	c-3.8-0.2-7.6,0.7-11.4,1.1c-3.5,0.4-7,0.4-10.5,0c-1.8-0.2-3.6-0.6-5.4-1c-1.3-0.3-3.5-1.5-4.8-1.4c-2.8,0.4-3.2,5.6-3.8,7.9
	C346.2,64.8,345.1,68.6,344,72.3z"/>
<path class="st34" d="M384,55.6c-0.3,1.1-7.6,5.4-7.6,5.4l-3.2,0.1h-1.5l-3.4,0.1l-4,0.1l-7.6-2.9l-1.1-0.4l-1.8-0.7l-2.9-1.1
	l-5.6-2.2l-0.2-2c0,0,0.6-1,2-2.1c0-0.1,0.1-0.1,0.1-0.1c1-0.9,2.5-1.9,4.4-2.6c0.4-0.2,0.7-0.3,1.1-0.4l0,0
	c0.2-0.1,0.4-0.1,0.6-0.2c1.3-0.4,2.7-0.6,4.4-0.7c0.3,0,0.6,0,0.9,0c0.2,0,0.4,0,0.5,0c0.5,0,1,0,1.4,0c4.2,0.2,6.8,1.2,8.2,2.1
	c0.6,0.4,1,0.7,1.3,1s0.4,0.5,0.4,0.5l3.6-2.7l0.5-0.4c0,0,5.2,0.5,8.3,1.8C386.4,49.6,384.4,54.5,384,55.6z"/>
<path class="st30" d="M374.9,46.5l-9.7,5.4l-7.4-4.3c1.2-0.6,1.9-2,2.4-3.8s0.7-3.8,0.8-5.7c0-0.1,0-0.1,0-0.2
	c0.1-2.9-0.1-5.3-0.1-5.3l1.2-0.8l2.6-1.7c0,0,5.5-3.5,6,2.3c0,0.2,0,0.5,0,0.7s0,0.4,0,0.6c-0.1,1.9,0.1,3.7,0.5,5.3
	c0.3,1.1,0.7,2.2,1.1,3.1C373.5,45,374.9,46.5,374.9,46.5z"/>
<path class="st34" d="M358.9,46c0,0,13.1,3.5,16.7,30.2l-25.4-0.8c0,0-0.8-8.5-0.8-9.6s1.7-9.6,1.7-9.6L358.9,46z"/>
<path class="st34" d="M371.6,47.8c1-0.5,2-1.1,3.1-1.1c0.8,0,1.7,0.2,2.5,0.5c2.5,0.8,4.9,2,7.2,3.3c1.3,0.8,2.6,1.7,3.5,2.9
	s1.4,2.8,1,4.2c-0.6,2-2.7,3.2-4.7,3.8c-4.4,1.4-9.2,1.2-13.7,0.3c-2.4-0.4-4.9-1.1-6.8-2.6c-0.7-0.6-2.6-1.5-2.7-2.4
	c-0.1-1.1,2.1-2.9,2.8-3.6C366,50.9,368.8,49.3,371.6,47.8z"/>
<path class="st34" d="M372,47.3c0.7-0.3,1.4-0.7,2.1-0.6c0.5,0.1,0.9,0.4,1.4,0.7c1.2,0.9,2.3,1.7,3.5,2.6c0.3,0.3,0.7,0.5,0.9,0.9
	c0.4,0.9-0.5,1.9-1.3,2.5c-6,4.1-14.5,3.9-20.3-0.5c-1.3-0.9-2.4-2.2-2.6-3.8c-0.4-4.1,4-2.9,6.1-2.2C365,48.1,368.7,48.8,372,47.3z
	"/>
<polygon class="st30" points="358.9,45.9 365.1,67.4 374.9,46.5 "/>
<polygon class="st16" points="365.1,67.4 360.3,50.7 372.9,50.9 "/>
<path class="st34" d="M357.3,47.3c0,0.2,0,0.4,0,0.7c-0.2,1.2-0.7,2.5-0.9,3.1c-0.1,0.3-0.2,0.6-0.3,0.9c-0.3,0.9-0.7,1.8-1.1,2.8
	s-0.8,2.1-1.2,3.1c-1.3,3.4-2.5,6.7-3.8,10.1c-1.9,5-3.8,10-5.7,15.1l0,0l0,0c-0.4,0.9-0.7,1.7-1,2.7c-0.1,0.2-0.1,0.4-0.2,0.6
	c-0.2,0.5-0.4,0.9-0.5,1.4c-0.3,0.9-0.7,1.7-1,2.6c-0.7,1.9-1.5,3.8-2.7,5.4c-0.2,0.3-0.4,0.5-0.7,0.8c-2.2,2.3-5.5,3-8.6,3.9
	c-0.5,0.2-0.9,0.3-1.4,0.4c-10.3,3.3-22.9,6.4-22.9,6.4s-2.9-7.3-3.4-10.2c8.8-3.5,9.9-4.3,18.9-6.8c1.2-0.4,4.5-2,5.6-2.7
	c2.9-1.9,4.2-6.2,4.5-7.2c3-8,3-10.1,7.1-17.7c1.1-2.1,3.2-5.5,4.7-7.3c1.5-1.9,1.9-3,3.8-4.5c0-0.1,0.1-0.1,0.1-0.1
	c1.3-1.1,2.7-2.1,4.3-2.9c0.3-0.2,0.6-0.4,1-0.6l0,0c0.2-0.1,0.4-0.2,0.6-0.2c1.2-0.5,2.7-0.8,4.3-1c0.2,0.1,0.3,0.2,0.3,0.4
	c0.1,0.1,0.1,0.2,0.1,0.3C357.3,47,357.3,47.2,357.3,47.3z"/>
<path class="st35" d="M371.3,39.1c-0.5,0.8-1,1.5-1.7,2.1c-1.3,1.2-3,2-4.8,2.3c-1.5,0.3-3.1,0.3-4.6,0.3c0.5-1.8,0.7-3.8,0.8-5.7
	c0-0.1,0-0.1,0-0.2c0.1-1.1,0.2-2.3,0.2-3.6c0-0.2,0-0.5,0-0.7c0.2-0.2,0.5-0.3,0.7-0.4c2.2-0.8,4.6-1.2,7-1.2c0.4,0,0.9,0,1.3,0.1
	l0.6,0.4c0,0.2,0,0.5,0,0.7s0,0.4,0,0.6C370.7,35.8,370.9,37.6,371.3,39.1z"/>
<path class="st30" d="M357.1,4.2c-2,1.7-3.2,4-4.1,6.5c-3,8.5-1.3,18,4.8,24.6c1.9,2,4.3,3.4,7.1,3.4c3.5-0.1,6.8-2.2,8.7-5.1
	c2.3-3.5,4.3-7.4,5-11.5s0.3-8.6-1.9-12.2C373.1,3.6,363.3-1.1,357.1,4.2z"/>
<path class="st6" d="M388.2,89.7c0-1.8,0.4-3.7,0.6-5.5c0.9-6.9,0.2-14-2.1-20.6c-1.2,3.9-2.3,7.8-3.1,11.9
	c-0.5,2.8-0.9,5.7-1.2,8.6c-0.2,1.9-0.4,3.7-0.7,5.6c0,0.2,0,0.4,0.1,0.5c0.1,0.2,0.3,0.2,0.5,0.3C383,90.6,388.2,90.5,388.2,89.7z"
	/>
<polygon class="st36" points="360.3,50.7 366.9,63.8 365.1,67.4 "/>
<path class="st37" d="M351.3,99.7c-0.4,2.6-0.8,5.1-0.6,7.7c0,0.4,0.1,0.8,0.4,1c0.2,0.1,0.5,0.2,0.7,0.2c9.2,0.7,18.5,0.8,27.7-0.2
	c0.8-0.1,1.7-0.2,2.4-0.7s1.2-1.4,0.9-2.2c-6.7-0.8-13.3-2-19.8-3.6c-0.9-0.2-1.9-0.5-2.7-1c-0.6-0.5-1.1-1.1-1.5-1.7
	c-1-1.3-1.9-2.7-2.9-4c-0.6-0.8-1.8-3.5-2.7-3.8c-1-0.3-1,2.6-1.1,3.4C351.8,96.5,351.6,98.1,351.3,99.7z"/>
<path class="st38" d="M386,69.5l-2.7,33.4l0,0l-0.1,1.8l-0.2,2.6h-31.1l1.4-16.1l0.1-1.6l1.8-20.5L386,69.5z"/>
<path class="st33" d="M383.3,102.8C383.3,102.9,383.3,102.9,383.3,102.8l-0.1,1.8c-5.1-0.9-10.1-2.4-14.9-4.6
	c-2.3-1-4.5-2.2-6.9-3.1c-1.9-0.7-3.9-1.1-5.5-2.2c-1.3-0.8-2.4-2.2-2.6-3.7c-0.1-0.3-0.1-0.5-0.1-0.8c0-0.4,0.1-0.6,0.2-0.8
	c0.2-0.3,0.7-0.4,1.5-0.4c1.2,0,2.4,0.3,3.5,0.7c1.6,0.6,3.1,1.3,4.6,2.1c5.7,2.8,11.3,5.5,17,8.3c0.9,0.4,1.9,0.9,2.6,1.7
	C382.9,102.1,383.1,102.5,383.3,102.8z"/>
<path class="st30" d="M354.3,79.5c-0.6-0.2-1.3,0.2-1.8,0.6c-2.2,1.7-3.4,4.5-3.3,7.2c0,1,0.3,2.1,1.2,2.7c0.4,0.2,0.8,0.4,1.2,0.5
	c1.6,0.4,12.6,1.5,9-2.8c-1.2-1.5-3.6-1.1-5-2.2C354.4,84.7,354.5,79.6,354.3,79.5z"/>
<path class="st34" d="M398.6,102.3c-3.8,3.7-9.2,2.8-9.2,2.8s-2.5-0.4-3.6-0.6c-9.7-1.8-18.4-6.8-26.9-11.7
	c-0.4-2.2-0.2-4.6,0.7-6.7c1.8,0.1,3.5,0.7,5.2,1.3c7.1,2.2,14.6,3.3,22.1,3.1c0.8-4.8,0.1-9.7,0.4-14.6c0.1-1.8,0.4-3.6,0.4-5.4
	c0.1-4.1-1-8.2-3-11.7c-1.1-1.8-2.4-3.5-3.3-5.3c-0.6-1.2-1.7-3.4-1.3-4.8c0.5-1.6,1.9-0.7,3.3-0.2c3.1,0.9,6.1,2.2,8.3,4.6
	c1.3,1.4,2.2,3.2,3.1,5c0,0,0,0,0,0.1C395,59.6,403.2,93.2,398.6,102.3z"/>
<path class="st6" d="M343,84.6c0.1,0.4,0.2,0.7,0.2,1.1c-0.1,0.2-0.1,0.4-0.2,0.6c-0.5,1.3-1,2.7-1.5,4c-0.7,1.9-1.5,3.8-2.7,5.4
	c-0.1-1.5-0.1-2.7-0.1-5.9c0-2.2,0.6-6.9,1.1-9.1c0.9-4.3,3.4-11.8,6.5-14.9c-1.3,3.3-2.5,6.7-3.2,10.1
	C342.5,78.7,342.4,81.7,343,84.6z"/>
<path class="st6" d="M342.5,87.7c-0.3,0.9-0.7,1.7-1,2.6c-0.7,1.9-1.5,3.8-2.7,5.4c-0.2,0.3-0.4,0.5-0.7,0.8c-2.2,2.3-5.5,3-8.6,3.9
	c-0.5,0.2-0.9,0.3-1.4,0.4c0.7-0.6,1.5-1.2,2.2-1.7c1.8-1.4,3.6-2.8,4.9-4.7c1.3-1.7,2.1-3.6,2.9-5.6c0.3-0.7,1.1-4.7,1.5-4.8
	C340.6,83.8,342.1,86.7,342.5,87.7z"/>
<path class="st0" d="M356.8,13.1c-1.3,1.8-2.6,3.8-3.2,5.9c-0.9,3.1-0.5,6.3-0.1,9.5c-3.4-5.1-4.2-11.8-1.9-17.5
	c1.1-2.9,3-5.5,5.1-7.8c1.1-1.2,2.5-2.5,4.1-2.7c0.9-0.1,1.9,0.1,2.3,0.9c0.3,0.4,0.3,0.9,0.4,1.4c0,2.1-0.9,3.6-2.3,4.9
	C359.6,9.4,358.2,11.2,356.8,13.1z"/>
<path class="st23" d="M80.3,101.3l3.5-2.7c0,0,7,4.3,9.7,3.7c2.8-0.6,8.1-5.2,8.1-5.2l5.6,3.3l-5.9,5.2l-17.4,1.5L80.3,101.3z"/>
<path class="st12" d="M83.8,98.6c0,0,6.8,4.6,11.2,4.4c4.4-0.3,6.9-3.9,6.9-3.9l-0.3-1.9L95.9,98l-5-1.1L83.8,98.6z"/>
<path class="st34" d="M359.4,45.9l1.5,7.2l-3.2-2.3c0,0-0.9-3.6-0.9-3.7c0-0.1,1.2-1.2,1.2-1.2H359.4z"/>
<path class="st0" d="M360.6,11.9c1.3,2.5,3.4,4.4,5.6,6.2s4.4,3.6,6.1,5.8s2.9,5.3,2.5,8.1c2.1-2.9,4.5-5.8,5.5-9.2
	c1-3.2,0.4-6.7-0.5-10c-0.4-1.5-0.9-2.9-1.6-4.2c-1.3-2.4-3.4-4.2-5.8-5.5c-2.4-1.2-5.1-1.9-7.8-2.1c-0.7,0-1.5-0.1-2.2,0.2
	c-0.6,0.2-1,0.7-1.5,1.1c-0.6,0.6-1.4,1.3-1.7,2.1c-0.3,0.7-0.2,1.7-0.1,2.5C359.2,8.6,359.8,10.4,360.6,11.9z"/>
<path class="st0" d="M357.9,2.5c-4.5,4.5-8.1,10-9.9,16.2c-0.4,1.4-0.7,2.9-0.5,4.3c0.4,2.1,1.9,3.8,2.8,5.8c0.6,1.2,0.9,2.5,1,3.9
	c0.1,0.8,0,1.6-0.4,2.2c-0.4,0.7-1.3,1.1-2,0.7c0.6,0.5,1.6,0.3,2.2-0.1c0.6-0.5,1-1.2,1.3-1.9c1.2-3.5-0.1-7.3-0.3-11
	c-0.2-3.2,0.6-6.5,2.2-9.3c0.8-1.4,1.9-2.7,2.8-4.1c1.1-1.8,1.9-3.7,2.4-5.7c0.1-0.4,0.7-2,0.3-2.3C359.5,0.7,358.2,2.2,357.9,2.5z"
	/>
</svg>
