<?xml version="1.0" encoding="utf-8"?>
<!-- Generator: Adobe Illustrator 25.0.0, SVG Export Plug-In . SVG Version: 6.00 Build 0)  -->
<svg version="1.1" id="Layer_1" xmlns="http://www.w3.org/2000/svg" xmlns:xlink="http://www.w3.org/1999/xlink" x="0px" y="0px"
	 viewBox="0 0 400 293.4" style="enable-background:new 0 0 400 293.4;" xml:space="preserve">
<style type="text/css">
	.st0{fill:#90D7C4;}
	.st1{fill:#004751;}
	.st2{fill:#503629;}
	.st3{fill:#A9D7AA;}
	.st4{fill:#B3865D;}
	.st5{fill:#CDA176;}
	.st6{opacity:0.13;fill:#006662;enable-background:new    ;}
	.st7{opacity:0.13;fill:#004751;enable-background:new    ;}
	.st8{fill:#826040;}
	.st9{fill:#6D4A2E;}
	.st10{fill:#78CBC0;}
	.st11{fill:#E5F3E6;}
	.st12{opacity:0.27;fill:#009D88;enable-background:new    ;}
	.st13{fill:#FEDFBD;}
	.st14{fill:#CFEDE5;}
	.st15{fill:#3DB5A5;}
	.st16{fill:#FFFFFF;}
	.st17{fill:#EFC9A3;}
	.st18{fill:#FFF0C1;}
	.st19{fill:#006662;}
	.st20{opacity:0.71;fill:#004751;enable-background:new    ;}
	.st21{fill:#009D88;}
</style>
<polygon class="st0" points="338.1,108.2 352.6,114.4 350.4,117.6 343.5,113.5 341.3,112.3 337.2,110.4 "/>
<path class="st1" d="M202.7,52.6c-0.6,1.9-1,3.8-2.2,5.4c-0.9,1.2-2.3,2.1-3.2,3.4c-2.8,3.9-0.1,9.3-0.9,14.1
	c-0.9,5.6-6.4,9.3-8.5,14.6c-1,2.6-1.2,5.6-2.8,7.8c-2.2,3-6.6,4-8.6,7.2c-2.2,3.5-0.8,8.3-2.9,11.8c-2.1,3.5-7.3,4.7-8.7,8.6
	c-0.9,2.3-0.2,5.1-1.2,7.4c-1.3,3-5,4.3-6.6,7.1c-1.5,2.7-0.7,6.2-1.7,9.1c-0.6,1.7-1.7,3-2.6,4.5c-3,5-3.3,11.6-0.7,16.8
	c2.8,5.7,8.6,9.7,10.9,15.7c0.8,2.1,1.2,4.6,2.8,6.2c1.5,1.5,3.6,2,5.7,2.5c4.6,1,9.2,2.1,13.8,3.1c2,0.4,4.1,0.9,6.1,0.5
	s3.7-1.7,5.7-2.2c3.2-0.9,6.7,0.3,10,0.2c4.7-0.1,9.6-2.8,13.9-1c1.6,0.6,2.9,1.7,4.5,2.2c3.9,1.1,7.6-1.9,11.4-3.1
	c6.6-2,13.7,1.8,20.6,0.6c2.4-0.4,4.6-1.3,7-1.6c1.8-0.2,3.7,0,5.6,0.1c9.7,0.7,19.3-1.4,28.7-3.4c1.5-0.3,3.1-0.7,4.3-1.6
	c3.8-2.8,2.6-8.7,0.7-13c-0.6-1.4-1.3-2.9-1.2-4.5c0.2-1.7,1.3-3.2,1.5-4.9c0.5-3.8-3.4-6.7-4.3-10.4c-0.7-3.1,0.8-6.2,0.4-9.4
	c-0.4-3.3-2.9-6-4.9-8.7c-3.1-4.4-5-9.7-5.4-15.1c-0.1-1.4-0.1-2.9-0.6-4.2c-1-2.7-3.7-4.4-5-7c-1.3-2.8-0.7-6.1-1.9-8.9
	c-0.9-2-2.6-3.5-4.1-5.1c-4.5-5-6.8-11.8-6.2-18.5c0.2-2.6,0.8-5.4,0.1-7.9c-0.5-1.6-1.5-2.9-2.4-4.3c-3.6-5.4-6-11.6-7-17.9
	c-0.3-2-0.6-4.2-1.9-5.8c-1.9-2.3-5.4-2.8-7.3-5c-0.8-0.9-1.3-2.1-2-3c-1.9-2.3-5.2-2.6-8.2-2.8c-9.2-0.6-17.3-1.8-25.7,2.7
	C212.4,37.8,202.6,45.7,202.7,52.6z"/>
<path class="st2" d="M208.3,95.2c0.3,1.6,0.8,3.2,0.7,4.8c-0.2,2.7-2.2,5-4,7c-1.8,2.1-3.6,4.5-3.4,7.3c0.2,2.3,1.7,4.2,2,6.4
	c0.4,3.5-2.4,7.1-0.8,10.2c2.2,0,4.4,0,6.6,0c2.4,0,4.9,0,7.3-0.4c1.5-0.3,3-0.7,4.6-0.9c3.2-0.3,6.3,0.8,9.4,1.6
	c3.7,0.9,7.5,1.4,11.3,1.5c2.3,0.1,4.7,0,6.9-0.9c1.9-0.7,3.5-1.9,5.3-2.6c2.6-1,5.8-1.3,7.3-3.6c0.2-0.3,0.4-0.7,0.4-1.1
	c0-1.2-1.4-1.8-2.2-2.7c-1.6-1.6-1.5-4.1-1-6.3c0.5-2.2,1.1-4.4,0.4-6.5c-0.9-2.6-3.6-4.2-4.3-6.8c-0.9-3.6,2.4-6.9,2.8-10.6
	c0.2-1.6-0.2-3.2-0.6-4.7c-0.7-2.8-1.4-5.7-2-8.5c-0.1-0.5-0.2-1-0.5-1.3c-0.2-0.3-0.6-0.5-0.9-0.7c-1.3-0.9-2.7-1.8-4.2-2.5
	c-5.8-2.6-12.5-1.3-18.6,0.6C221.2,77.6,206.2,82.2,208.3,95.2z"/>
<polygon class="st3" points="275.4,193.8 284.6,274.1 204.3,267.1 189.9,259.3 192.4,231.7 203,194.3 248.1,186.5 "/>
<polygon class="st3" points="221.1,117 205.2,124.6 203.5,135.2 227.5,146.4 247.6,146.1 254.5,141.4 266.2,129.4 252,119.9 
	244.9,117.1 235.3,117.1 "/>
<path class="st3" d="M204.8,129c-3.2,2.4-6.3,4.8-8.9,8.1c-4.1,5.4-6.1,12.8-7.7,20.1c-1.8,8.2-3.4,16.5-4.6,24.8
	c-1.2,8-2,16.1-2.1,24.2c0,17.4,3.9,34.4,7.7,51.1c2,8.5,4,17.1,5.9,25.6c22.7-0.6,45.3-1.3,68-1.9c2-0.1,4.4-0.3,5.6-2.3
	c0.6-1,0.9-2.4,1.1-3.7c2.8-17.6,5.1-35.4,6.9-53.2c2.5-25.3,3.6-52.6-6.9-74.5c-3.4-7.1-7.9-13.3-12.5-19.4
	c-3.2-4.2-6.6-8.6-11-10.3c-2.5-0.9-5.1-1-7.6-1c-5.7-0.1-13.2-2-18.6,0.6C214.8,119.9,210.1,125.8,204.8,129z"/>
<path class="st3" d="M263,242.1c-25.9,0.6-51.9,3.2-77.4,7.8c-5,0.9-11.4,1.3-14-3.1c-0.9-1.4-1.1-3.2-1.4-4.9
	c-0.7-5.6-1.5-11.1-1.8-16.7c-0.3-6.2,0-12.4,0.4-18.6c0.4-8.3,0.9-16.6,1.3-24.9c0.5-9.1,1-18.3,3.1-27.1c0.6-2.8,1.5-5.6,3.2-7.8
	c1.4-1.8,3.2-3.2,5-4.5c3.6-2.7,26.1-22.5,29.2-19c2.3,2.6-1.8,14.9-2.6,17.9c-1.6,5.8-3.7,11.5-6,17.1c-2.1,5-4.4,10-5.9,15.3
	c-0.4,1.6-0.8,3.1-1.2,4.7c0-6,0.4-12,0.4-18.1c-2.7,2.1-4.1,8.7-5.2,11.9c-1.8,5.2-3.3,10.7-3,16.2c0.3,6,2.6,11.7,4.5,17.4
	c-0.4,7.1-0.5,14.2-0.2,21.3c1.2-0.5,2.5-0.9,3.7-1.2c2.6-0.8,5.4-1.3,8.1-1.7c0.8-0.1,1.6-0.2,2.5-0.3c3.4-0.4,6.9-0.6,10.3-0.7
	c10.7-0.4,21.4-0.6,32.1-0.5c0,0,0,0,0.1,0c4.5,0,9,0.1,13.5,0.2c0.1,1.3,0.2,2.6,0.2,3.9c0,0.2,0,0.4,0,0.5
	C262.3,232.3,262.6,237.3,263,242.1z"/>
<path class="st3" d="M207.8,160.3c0,6.1-0.4,12.1-0.4,18.1c-0.6,2.7-1,5.5-1.4,8.2c-0.9,6.4-1.5,12.8-1.9,19.2
	c-1.8-5.7-4.2-11.4-4.5-17.4c-0.3-5.5,1.2-10.9,3-16.2C203.7,169,205.1,162.4,207.8,160.3z"/>
<path class="st4" d="M221.6,114.5c-0.2,0.8-0.5,1.6-0.5,2.4c0.1,0.8,0.4,1.5,0.7,2.1c1.5,2.9,3.5,5.4,6,7.5c1.5,1.3,3.4,2.5,5.5,2.3
	c1.4-0.1,2.6-0.8,3.7-1.6c2.8-2.1,4.7-5,6.6-7.9c0.5-0.8,1-1.6,1.3-2.4c0.3-1.1,0.2-2.4,0.1-3.5c-0.6-6.3-1.1-12.6-1.7-18.8
	c0-0.5-0.1-1-0.4-1.4c-0.3-0.4-0.9-0.6-1.3-0.7c-5.8-1.3-11.9,0.7-16.2,4.7C221.4,101.1,223.2,109.3,221.6,114.5z"/>
<path class="st3" d="M249.3,120.2c0,0.6-0.3,1.1-0.6,1.6c-2.8,4.6-6.3,8.7-10.3,12.1c-0.8,0.6-1.6,1.3-2.6,1.6
	c-0.8,0.2-1.7,0.2-2.5,0.1c-7.5-1-13.1-7.2-17.4-13.4c-0.3-0.5-0.7-1-0.6-1.6c0-1.1,1.4-1.1,2.2-1.5c1-0.6,1.8-1.7,2.4-2.6
	c0.2-0.4,1.1-2.4,1.5-4.1c0.2-1.2,0.3-2.2-0.2-2.4c7.9,2.8,16.6,0.6,24.7-1.7c0,1.2,0.2,2.3,0.4,3.5c0.5,2.4,1.3,4.8,2.6,6.9
	C249,119.1,249.3,119.6,249.3,120.2z"/>
<path class="st5" d="M213.8,89.7c2.1,5.2,6.3,10.5,10.9,13.7s11.2,4,15.7,0.7c1.5-1.1,5.5-5.6,6.6-7.1c4.6-6.5,6.2-10.7,7.6-18.5
	c1-5.7,1.8-11.6,0.2-17.2c-1.7-5.6-2-11-7-14c-2.9-1.8-9.2-4.2-12.5-4.7c-4.6-0.7-11.6,1-15.8,3.1C204.7,53.2,209.1,77.8,213.8,89.7
	z"/>
<path class="st1" d="M227.1,50.8c-1.1,2.9-0.7,6.1-0.8,9.2c0,0.8-0.1,1.6-0.5,2.2c-0.4,0.5-0.9,0.8-1.5,1.1c-2.1,1.1-4.4,2-6.3,3.4
	s-3.4,3.4-3.4,5.7c0,1.6,0.8,3.1,0.7,4.7c-0.2,3.6-4.5,6.1-4.8,9.7c-0.2,2.5,1.6,4.9,1.3,7.4c-0.2,2.1-1.7,3.9-2,6
	c-0.3,2,0.3,4.5-1.4,5.8c-2.1,1.7-5.4-0.3-6.8-2.5c-1.9-3.1-2.5-6.8-1.7-10.2c0.6-2.6,2-5,2.3-7.6c0.2-2.1-0.3-4.2-0.4-6.2
	c-0.1-3.8,1.2-7.5,2.5-11.1c2.2-5.9,4.4-11.9,6.6-17.8c0.8-2.2,1.7-4.5,3-6.5c4.4-6.3,14.5-8.5,21.6-4.7c2.6,1.4-0.4,6.1-1.8,6.8
	C231,47.6,228.5,47.2,227.1,50.8z"/>
<path class="st1" d="M239.8,47.4c0.5,0.6,0.9,1.2,0.9,1.9s-0.3,1.4-0.4,2.2c-0.1,1.9,2.2,3.2,4.2,3.8s4.3,1.4,4.8,3.3
	c0.5,1.9-1.2,3.9-0.5,5.7c0.4,1,1.5,1.6,2.4,2.4c4.6,4.2,1.5,12.8,6.6,16.4c0.3,0.2,0.7,0.4,1.1,0.4c0.7-0.1,1.1-0.9,1.2-1.6
	c0.9-5,0.1-10.1-0.7-15.1c-0.4-2.6-0.8-5.2-1.8-7.7c-1.7-4.4-5.2-8-8.5-11.5c-1.7-1.7-3.4-3.5-5.5-4.7c-1.9-1-9-3.2-10.7-0.9
	C231.9,43.5,238.5,45.8,239.8,47.4z"/>
<path class="st6" d="M246.2,111.7c-0.7,1-1.8,1.9-3,2.5c-2.1,1-4.5,1.3-6.9,1.4c-5.2,0-10.3-1.1-15-3.3c0.2-1.2,0.3-2.2-0.2-2.4
	c7.9,2.8,16.6,0.6,24.7-1.7C245.8,109.4,245.9,110.6,246.2,111.7z"/>
<path class="st3" d="M284.7,193.2v99.5h-81.5c0,0.3-16.2-99.5-16.2-99.5L284.7,193.2L284.7,193.2z"/>
<path class="st3" d="M299.2,171.5c2,4.6,3.8,9.4,6.7,13.5c2.2,3,4.9,5.6,7.6,8.2c10.1,9.5,20.2,19,30.3,28.5
	c-6.9,3.9-13.9,7.9-20.8,11.8c-21.6-12.6-41.8-27.6-60.2-44.6c-3.1-2.8-6.1-5.8-8-9.5c-1.7-3.5-2.3-7.4-2.8-11.3
	c-1-8.3-1.9-16.5-2.6-24.8c-0.6-7.2-3.3-18.4-1-25.1c10.8,2.8,22.3,14.2,29.8,22.1C287,149.4,294.1,160,299.2,171.5z"/>
<path class="st7" d="M168.6,292.6h-3.8c0.3-5.7,0.5-11.3,0.6-17c0.2-12.7,0.1-25.6-1.1-38.3c1,10,2,20,3,30
	c0.5,5.4,1.1,10.7,1.3,16.1C168.6,286.5,168.7,289.6,168.6,292.6z"/>
<path class="st6" d="M212.3,266.8c0,0.3,0,0.6,0,0.9c-0.1,4.9-0.2,9.8-0.3,14.7c-0.1,3.4-0.2,6.8-0.3,10.1h-8.5c0,0.3,0,0.5,0,0.8
	h-4.3c0-0.3-0.1-0.5-0.1-0.8c-0.5-3.2-0.5-6.5-0.5-9.8c0-1.4,0-2.8,0.1-4.3c0.1-5,0-9.9-0.1-14.9c-0.1-5.3-0.4-10.6-0.8-15.8
	c-0.2-3.1-0.5-6.1-0.8-9.2c-0.4-4.3-0.9-8.6-1.4-12.9c-0.1-1-0.2-2-0.3-3.1l0,0c-0.9-8.4-1.6-16.8-1.4-25.2c0-1.5,0.1-3,0.2-4.4
	c0-0.2,0-0.4,0-0.6c0.3-4.4,1.1-9.6,2.5-14.7c2.6-9.9,7.2-19.4,14.2-22.1c-0.8,2.4-1.6,4.8-2.5,7.1c-2.9,7.2-6.2,13.9-8.1,21.3l0,0
	l0,0c-0.7,2.9-1.2,5.9-1.3,9c0,0.9-0.1,1.8,0,2.8c0,0.2,0,0.4,0,0.7c0.1,1.8,0.3,3.7,0.6,5.7c0.1,0.3,0.1,0.6,0.2,0.9
	c0.2,0.9,0.4,1.8,0.6,2.6c1.6,6.3,4.3,12.1,6.8,18c1.2,2.9,2.3,5.9,3.2,9c1.2,4.2,1.9,8.6,2.3,13.1
	C212.6,252.8,212.5,259.9,212.3,266.8z"/>
<path class="st8" d="M149.9,103.7c-3.5,8.7-12.5,25.1-12.5,25.1L126,150.1l-9.8-20.5c0,0-8.2-17-11-26c-0.2-0.8-0.5-1.6-0.3-2.3
	c0.2-1,0.9-1.7,1.6-2.4c0.6-0.5,1.1-1.1,1.6-1.7c0.7-0.8,1.3-1.6,1.9-2.4c0.8-1.1,1.5-2.3,2.1-3.5c2-3.9,3.2-8.2,4.1-12.5
	c0.2-1,0.4-1.9,0.6-2.9c1.8-8.5,13.4-5.4,20.9-5.4c0.3,2.5,0.7,5,1.1,7.4c0.6,3.5,1.4,7,2.3,10.4c0.3,1.1,0.6,2.1,0.9,3.2
	c0.4,1.3,0.8,2.6,1.3,3.8c0.3,0.9,0.7,1.7,1.2,2.5C145.6,100.3,147.4,102.4,149.9,103.7z"/>
<path class="st9" d="M141,88.3c-0.7,1.5-1.4,2.9-2.3,4.3c-2.3,3.5-5.9,6.9-10.4,7.1c-2.5,0.1-4.9-0.8-7.1-1.6
	c-1.9-0.7-3.8-1.4-5.5-2.6s-2.8-2.6-3.7-4.3c2-3.9,3.2-8.2,4.1-12.5c0.7,0.2,1.4,0.4,2.1,0.6c6.8,1.4,14,0.8,20.5-1.5
	C139.3,81.4,140.1,84.9,141,88.3z"/>
<path class="st8" d="M106,73.2c2.9,6.7,10.7,13.1,18.2,14.5c5.4,1,11.1-1.2,15.2-4.8c4.1-3.5,6.8-8.2,9.2-12.9
	c3.3-6.6,6.2-13.4,7.5-20.6s0.9-14.8-2.2-21.6c-2.1-4.6-5.4-8.7-9.2-12.2c-4.1-3.7-9.1-7-14.7-7.4c-3.6-0.3-7.2,0.6-10.5,1.9
	C93.3,20.6,97.3,53.1,106,73.2z"/>
<path class="st10" d="M177.9,292.6h-103V291l2-99.4l0.1-5.9l0,0V185l0.3-14.8l0.3-13.5l0,0l0.1-2.8l0.3-15l0.2-8.1l7.5-8.3l4.7-5.3
	l0,0l1.2-1.4l0,0l1.6-1.8l0,0l10.9-12.1l0.6-0.7l1.5,2l0,0l0.8,1.1l0,0l17.9,24.3l19.9-19.9l0.2-0.2l0,0l1.3-1.3l1.5-1.5l0.9-0.9
	l1-1l0.3-0.3l12.5,14.7l0.4,4.1l0.9,10.3l0,0l3.3,37.3l2.2,24.3l0.2,1.9l0,0l2.7,30.7l2,22.2l3.1,35L177.9,292.6z"/>
<path class="st11" d="M153.3,186.6c0.1-3.9,0.2-7.8,0.1-11.7c0-0.6,0-1.2,0-1.9l0,0c0-1.5-0.1-3.1-0.2-4.6c0-0.1,0-0.2,0-0.3
	c0-0.6-0.1-1.2-0.1-1.8l0,0c-0.2-3-0.4-6.1-0.6-9.1c-0.1-0.9-0.2-1.8-0.3-2.7l0,0c-0.7-7.7-1.7-15.4-2.9-23.1
	c-0.1-0.9-0.3-1.8-0.4-2.7c-0.1-0.6-0.2-1.2-0.3-1.8c-0.4-4.2-1.5-14.6-2.5-21.6c0,0,0,0,0.1,0c0.5,0,1,0.1,1.7,0.5
	c0.3,0.2,0.6,0.4,1,0.6s0.7,0.5,1.1,0.9l0,0c0.8,0.7,1.7,1.5,2.6,2.4l0,0c2.4,2.5,5,5.7,7.5,9.1c0.9,1.2,1.9,2.5,2.8,3.8
	c0.7,1,1.4,2,2.1,2.9c3.3,4.8,5.9,8.9,6.5,10.3c1.3,2.7,2.4,5.4,3.4,8.1c0.4,1.2,0.9,2.4,1.3,3.6c3.5,10.3,5.5,21,6.9,31.8
	c0.2,1.6,0.4,3.2,0.5,4.7l0,0c0.2,1.9,0.4,3.8,0.5,5.7c0.2,2.7,0.4,5.5,0.6,8.2c0,0.5,0.1,1,0.1,1.5c0.7,11.7,0.8,23.4,0.9,35.1
	c0,1.6,0,3.2,0,4.7c0,0.3,0,0.7,0,1l0,0c0,3.2,0.1,6.4,0.1,9.6c0.1,14.2,0.3,28.5,0.4,42.7h-38.3c1.5-13,2.4-26,2.7-39.1
	c0.3-12.1,0.1-24.2,0.7-36.3C151.8,207,153,196.8,153.3,186.6z"/>
<path class="st11" d="M203.2,292.6c0,0.3-16.2,0-16.2,0h-16.2c-0.7-19.2-3.4-38.3-6.1-57.3c-1-7.2-2.1-14.4-3.1-21.6
	c-0.8-5.6-1.6-11.2-2.4-16.8c-1-6.7-1.9-13.4-2.9-20.1l0,0c-0.2-1.2-0.3-2.3-0.5-3.5c-0.3-2.1-0.6-4.1-0.9-6.2c0-0.1,0-0.1,0-0.2
	l0,0c-0.1-0.8-0.2-1.6-0.3-2.4c-0.5-3.8-1.1-7.6-1.6-11.4c0-0.1,0-0.1,0-0.2c-1.9-13.5-3.8-27-5.8-40.5c-0.1-0.7-0.2-1.3-0.3-2
	c-0.2-1.1-0.4-2.2-0.6-3.2c-0.1-0.7-0.2-1.4-0.2-2c0-1.3,0.3-2.3,1.2-2.8l0,0c0.1-0.1,0.3-0.2,0.4-0.2c0.2-0.1,0.5-0.2,0.8-0.2
	c0.7-0.1,1.5-0.1,2.6,0.1c4.4,0.7,9.6,4.9,13.2,7.5c3.2,2.3,6.2,4.9,8.9,7.8c2.7,2.8,5.3,5.9,7.5,9.2c2.2,3.2,4.2,6.7,5.8,10.3
	c0.1,0.3,0.3,0.6,0.4,1c1.5,3.3,2.7,6.8,3.7,10.3c0.5,1.5,0.9,3.1,1.3,4.7c0.8,3.1,1.4,6.2,1.9,9.4l0,0c0.1,0.4,0.1,0.8,0.2,1.2
	c0.4,2.2,0.7,4.4,1,6.6l0,0l0,0c0.1,0.7,0.2,1.4,0.3,2.1c0.1,0.7,0.2,1.4,0.3,2.2c0,0.2,0.1,0.4,0.1,0.6l0,0c0,0.2,0.1,0.5,0.1,0.7
	c0.1,0.8,0.2,1.6,0.3,2.3c0.7,5.1,1.3,10.2,1.8,15.3c0.1,0.9,0.2,1.8,0.3,2.8c0,0.2,0,0.4,0.1,0.7c0.2,1.9,0.4,3.8,0.6,5.7
	c0.2,1.5,0.3,3.1,0.4,4.6c0,0.3,0.1,0.5,0.1,0.8c0.5,5.6,1,11.2,1.4,16.9c0.1,1.2,0.2,2.4,0.3,3.5c0.1,1.7,0.2,3.4,0.3,5.1
	c0.1,0.7,0.1,1.5,0.1,2.2s0.1,1.5,0.1,2.2c0.2,3.2,0.3,6.4,0.5,9.6c0,0.9,0.1,1.7,0.1,2.6c0,0.6,0.1,1.2,0.1,1.8
	c0,0.7,0.1,1.4,0.1,2c0.2,4.2,0.3,8.4,0.4,12.7c0.1,2,0.1,3.9,0.1,5.9c0,0.6,0,1.3,0,1.9c0,0.9,0,1.8,0,2.6c0,2,0,4,0.1,6
	C203.2,286.1,203.2,289.4,203.2,292.6z"/>
<path class="st10" d="M106.7,103.3c0,0,10.4,12.5,20.1,12.5s20.3-12.9,20.3-12.9l3.1,23.6l-14.6,14.4l-14.4-1.7l-20.4-7.2
	L106.7,103.3z"/>
<path class="st6" d="M289.3,269.7L289.3,269.7c-0.2,1.6-0.4,3.2-0.6,4.8c-1,7.3-2.1,13.6-3.1,17.5c-0.1,0.2-0.1,0.5-0.2,0.7H271
	c0-6.6,0-13.2,0.1-19.8c0-1.8,0-3.7,0-5.5l0,0c0-5.4,0-10.9,0.1-16.3c0-4.5-1.3-13-0.9-20.2l0,0c0.4-6,2-11.1,6.8-11.9
	c0.2,0,0.5-0.1,0.7-0.1s0.3,0,0.5,0c0.9,0,1.8,0.1,2.6,0.3c1.4,0.4,2.7,1.2,3.8,2.4c3.3,3.5,4.9,10.2,5.6,18.3l0,0l0,0
	c0.2,2,0.3,4.1,0.3,6.2c0,0.1,0,0.2,0,0.3C290.7,253.9,290.1,262.1,289.3,269.7z"/>
<path class="st7" d="M179.4,206.2c0.2,4.9,0.4,9.9,0.5,14.8C179.6,216.1,179.4,211.1,179.4,206.2z"/>
<path class="st6" d="M184.9,292.6h-8.1c0-2.8,0.2-5.6,0.4-8.4c0.4-4.3,1-8.4,1.3-12.2c0.5-7.2,0.9-14.3,1.2-21.5
	c0.3-9.8,0.4-19.6,0.3-29.5c0.5,9.7,1.5,19.5,2.4,29.3C183.7,264.6,185,278.8,184.9,292.6z"/>
<path class="st0" d="M379.4,204.8c0,6.3-0.2,12.6-0.4,18.8c-0.1,1.7-0.1,3.3-0.2,5l0,0c-0.1,2-0.2,3.9-0.3,5.9l0,0
	c-0.1,2.8-0.3,5.6-0.4,8.4c-0.4,6.9-0.9,13.8-1.5,20.7l0,0c0,0,0,0,0,0.1c-0.2,1.9-0.3,3.7-0.5,5.6c-0.7,7.1-1.4,14.3-2.3,21.4
	c-0.1,0.7-0.2,1.3-0.3,2h-88c0-0.2-0.1-0.5-0.1-0.7c-0.3-2.9-0.7-5.8-1-8.7c-0.3-3.1-0.6-6.2-0.9-9.3c-0.7-7.6-1.3-15.2-1.8-22.8
	c0-0.6-0.1-1.3-0.1-1.9l0,0c-0.2-3.1-0.3-6.1-0.5-9.2c-0.3-7-0.5-14.1-0.4-21.1c0-4.8,0.1-9.6,0.3-14.4c0-1,0.1-2,0.1-3
	c0.1-2.8,0.3-5.6,0.4-8.3c0-0.1,0-0.1,0-0.2c0.3-4.9,0.7-9.8,1.2-14.7l0,0l0,0c0.9-8.6,2.1-17.1,3.7-25.6c0.1-0.7,0.3-1.4,0.4-2.1
	v-0.1c1.3-6.6,1.5-14.7,4-21.3c0.9-2.2,2-4.3,3.6-6.1c0.4-0.4,0.8-0.9,1.2-1.3c3.4-3.4,7.8-6.1,12.6-7.9c0.2-0.1,0.4-0.2,0.6-0.2
	c7.4-2.7,15.8-3.4,22.8-2c0,0,0,0,0.1,0l0,0c3,0.6,5.9,1.5,8.5,3.1c0.5,0.3,0.9,0.6,1.4,1l0,0c0.8,0.6,1.5,1.3,2.2,2
	c0.1,0.1,0.2,0.2,0.3,0.3l0,0c1.1,1.1,2.1,2.2,3.2,3.3c1.4,1.4,3,2.8,4.5,4.1l0,0c2.7,2.2,5.5,4.1,8.5,5.7c1.3,0.7,2.7,1.4,4,2.2
	c1.7,1,3.3,2.1,4.6,3.5c2.5,2.7,3.6,6.3,4.5,9.9c0.9,3.4,1.7,6.9,2.3,10.3c0.3,1.7,0.6,3.4,0.8,5.1l0,0c1.2,7.9,1.8,16,2.1,24.1l0,0
	C379.4,192.5,379.5,198.6,379.4,204.8z"/>
<path class="st0" d="M285.3,120.1c-3.3,1.3-6.7,2.6-9,5.2c-2.1,2.4-3.1,5.5-4,8.5c-5.7,19.1-11.4,38.2-17.1,57.4
	c-1.4,4.8-2.9,9.9-2.1,14.9c0.8,4.9,3.6,9.2,6.7,13.1c14,18,33.8,31.5,55.8,38.1c3.3-8.7,6.2-17.7,8.5-26.7
	c-12.8-11.2-26.6-21.3-41.3-30c2.1-11.9,4.9-23.8,9.9-34.9c2.4-5.4,5.3-10.6,7.6-16c4.2-10,6.6-20.9,8.1-31.6c1-7.3-0.6-6.7-6.9-4.3
	C296.1,116,290.7,118.1,285.3,120.1z"/>
<path class="st12" d="M371.3,173c0-12.1-0.1-24.6-5.7-35.9c-5.2,6.5-4.8,14.8-5.1,22.6c-0.7,16.5-5.7,32.8-4.7,49.3
	c0.4,5.6,1.6,11.5,5.9,15.9c7.4-5.7,11.2-13.1,9.9-21.2C370,193.8,371.3,183,371.3,173z"/>
<path class="st0" d="M311.9,107.5c0,0-8.9,9.5-14.8,11s8.3,16.2,8.3,16.2l13.3,15.6l35.8,3.1l-3-39.4l-12.8-3.1
	c0,0-11.4-5.2-12.6-4.9C324.8,106.3,311.9,107.5,311.9,107.5z"/>
<path class="st13" d="M342.7,114c-2.6,7.2-9.4,21-9.4,21l-8.5,17.8l-7.3-17.2c0,0-6.1-14.2-8.2-21.7c-0.2-0.6-0.4-1.3-0.2-2
	c0.1-0.8,0.7-1.4,1.2-2c1.8-1.9,3.2-4,4.2-6.3c1.5-3.3,2.4-6.8,3.1-10.4c0.2-0.8,0.3-1.6,0.5-2.4c1.3-7.1,10-4.5,15.6-4.5
	c0.2,2.1,0.5,4.1,0.8,6.2c0.5,2.9,1,5.8,1.7,8.7c0.2,0.9,0.4,1.8,0.7,2.7C337.8,107.7,339.3,112,342.7,114z"/>
<polygon class="st14" points="359.3,181.1 363,184.8 329.6,251.1 292.6,278.2 288.9,274.5 304.6,193.1 "/>
<polygon class="st14" points="304.6,193.1 288.9,274.5 340,262.5 359.3,181.1 "/>
<polygon class="st15" points="308.4,196.8 292.6,278.2 343.7,266.2 363.4,184.4 "/>
<polygon class="st16" points="313.4,125.9 337.4,126.5 324.8,152.8 "/>
<polygon class="st15" points="289.4,274.6 288.4,274.4 304.2,192.7 359.5,180.5 363.4,184.4 362.6,185.2 359.1,181.7 305.1,193.6 
	"/>
<path class="st13" d="M321.9,239.9c-2.1,0.6-4.5,1.1-6.4-0.1c-1-0.7-1.7-1.7-2.3-2.7c-2.3-3.4-5.2-6.3-8.6-8.6
	c-0.8-0.5-1.9-1-2.6-0.3c-0.4,0.4-0.4,1.1-0.3,1.7c0.5,2.8,1.8,5.4,3.8,7.6c-2.5-0.6-5.1-1.3-7.6-1.9c-0.5-0.1-1.1-0.3-1.3-0.7
	c-0.3-0.4-0.2-0.9-0.1-1.4c0.3-1.9,0.6-3.7,1-5.6c-2.1-0.3-4.1,1-5.2,2.8c-1.1,1.7-1.6,3.8-2,5.9c-0.8,4.2-1.5,9.1,1.4,12.3
	c1.6,1.8,4,2.6,6.4,3.3c4.5,1.3,9,2.3,13.6,3c2,0.3,4,0.5,6,0.4c2.3-0.2,4.5-0.9,6.6-1.6c4.2-1.4,8.5-2.7,12.7-4.1
	c3.4-1.1,6.8-2.2,10.2-3.5c1.5-0.6,3.1-1.3,3.8-2.7c0.6-1.2,0.3-2.7,0-4c-0.5-2-1.1-4-2.4-5.6c-3.6-4.5-7.8-1.2-11.9,0.6
	C331.9,236.7,327,238.5,321.9,239.9z"/>
<path class="st12" d="M381.4,225.4c-0.3,2.5-0.5,4.9-0.8,7.3c-0.7,0.6-1.3,1.2-2,1.8l0,0c-0.1,2.8-0.3,5.6-0.4,8.4
	c-0.4,6.9-0.9,13.8-1.5,20.7l0,0c-0.4,2.8-0.8,5.5-1.2,8.3c-0.6-4.2-3.6-7.9-7.3-10c-2.9-1.7-6.3-2.5-9.7-2.8
	c-3.6-0.3-8.1,0.9-11.6,0c-3.4-1-2.6-2.9-0.8-4.7c1.4-1.4,3.5-2.8,4.8-3.5c10.7-6.1,20.2-12.8,28-22.2
	C379.7,227.6,380.6,226.5,381.4,225.4z"/>
<path class="st0" d="M399.8,206.1c-0.8,4.9-3.6,9.2-6.7,13.1c-3.8,4.8-7.9,9.3-12.5,13.5c-0.7,0.6-1.3,1.2-2,1.8l0,0
	c-9.6,8.4-20.6,15.1-32.5,19.8c-2.9,1.2-5.8,2.2-8.8,3.1c-3.3-8.7-6.2-17.7-8.5-26.7c12.8-11.2,26.6-21.3,41.3-30
	c-2.1-11.9-4.9-23.8-9.9-34.9c-2.4-5.4-5.3-10.6-7.6-16c-4.2-10-6.6-20.9-8.1-31.6v-0.1c-1-7.1,0.7-6.6,6.9-4.2
	c5.4,2.1,10.8,4.1,16.2,6.2c3.3,1.3,6.7,2.6,9,5.2c2.1,2.4,3.1,5.5,4,8.5c5.7,19.1,11.4,38.2,17.1,57.4
	C399.1,196.1,400.6,201.1,399.8,206.1z"/>
<path class="st12" d="M285.7,206.7c-2.5-2.9-5-5.7-7.4-8.6c-0.5-0.6-1-1.2-1.2-1.9c-0.3-0.9,0.1-1.9,0.4-2.9
	c2.1-6.2,4.5-12.3,7-18.3c1.4-3.3,4.3-14.4,7.8-15.5c-0.2,7.9-2,16-3.1,23.8c-0.6,4-1.1,7.9-1.7,11.9
	C287.1,196.9,284.7,205.7,285.7,206.7z"/>
<path class="st17" d="M336.1,101.1c-0.5,1.2-1.1,2.4-1.8,3.6c-1.7,2.9-4.4,5.7-7.8,5.9c-1.8,0.1-3.6-0.6-5.3-1.3
	c-1.4-0.6-2.9-1.2-4.1-2.1c-1.2-1-2.1-2.2-2.8-3.6c1.5-3.3,2.4-6.8,3.1-10.4c0.5,0.2,1,0.4,1.6,0.5c5.1,1.2,10.5,0.7,15.3-1.2
	C334.8,95.4,335.4,98.3,336.1,101.1z"/>
<path class="st13" d="M306.7,89.4c2.6,5.5,10.4,12.5,16.7,13.5c4.6,0.7,9.8-3.2,13.1-6.2s5.5-7,7.4-11c2.7-5.6,5-11.3,5.9-17.4
	c0.9-6,0.4-12.4-2.3-18c-1.9-3.8-4.7-7.1-8-10c-3.5-3-7.8-5.6-12.6-5.9c-3-0.2-6,0.6-8.8,1.8C296.4,45.6,298.9,72.9,306.7,89.4z"/>
<rect x="336.3" y="153.7" class="st18" width="18.7" height="6.7"/>
<path class="st19" d="M355.2,62.6c-0.4,8.2-7.6,19.1-11.1,22.6c2.8-7.9,3.5-15.5-2.3-21.8c-2-2.2-4.4-4-6.8-5.9
	c-1.8-1.4-3.6-2.9-5.1-4.6c-0.7-0.7-1.3-1.7-1.9-2.7c-3.3-6.2-4.3-17,5.2-17.1c2.6,0,5,1,7.2,2.4c1,0.7,2,1.5,2.8,2.3
	c0.1,0,0.1,0.1,0.2,0.1C350.7,44.6,355.7,53.1,355.2,62.6z"/>
<path class="st20" d="M343.4,38c-0.1,0.4-0.1,0.8-0.2,1c-0.9,4.7-1.8,9.6-4.2,13.8c-0.9,1.7-2.1,3.2-3.6,4.4
	c-0.1,0.1-0.3,0.3-0.5,0.4c-1.8-1.4-3.6-2.9-5.1-4.6c-0.7-0.7-1.3-1.7-1.9-2.7c0.3-0.3,0.6-0.6,0.9-0.9c3.3-3.1,6.6-6.3,9.3-10
	c0.5-0.7,1.3-2.4,2.1-3.8c1,0.7,2,1.5,2.8,2.3C343.3,37.9,343.4,37.9,343.4,38z"/>
<path class="st19" d="M320.9,56.1c-7.4,4.5-14.8,10.5-16.2,18.6c-0.4,2.5-0.3,5.2-1.4,7.6c-1.7,3.5-5.8,7.7-10.6,4.2
	c1.8,1.3,4.8,0.5,6-1.4s1-4.2,0.2-6.2s-2.2-3.8-3.4-5.6c-6-9.9-3.9-22.9,3.5-32c6.6-8.2,16.4-14.7,27-16.1
	c5.8-0.7,18.3-0.5,16.6,8.4C340.3,46,331,50,320.9,56.1z"/>
<path class="st1" d="M124.4,20.3c-3.9,0.9-7.3,3.6-9,7.2c-0.9,1.7-1.4,3.6-2,5.4c-1.2,3.2-3.1,6.1-5.4,8.6c-2,2.1-4.3,3.8-5.8,6.2
	s-2.3,5.6-0.7,8c-1.1-1.5-2.1-3-3.2-4.5c-1.1-1.6-2.2-3.1-3-4.9c-1.1-2.5-1.5-5.3-1.6-8.1c-0.6-11.2,3.7-23.3,12.9-30
	c2.6-1.8,5.4-3.2,8.3-4.5c5.4-2.4,11.2-4.4,17-3.5c2.5,0.4,4.9,1.4,6.7,3.1c1.7,1.6,2.7,3.8,3.4,6.1c0.9,2.9,1.3,6.2-0.2,8.8
	c-1.4,2.4-4.4,4.9-7.1,3.7C131.2,20.5,128.2,19.4,124.4,20.3z"/>
<path class="st1" d="M131.7,10.1c-1.2,2.5-1.3,5.5-0.3,8.1c0.7,1.7,2,3.3,3.8,3.9c2.8,0.9,5.8-0.7,8.7,0c2.1,0.5,3.8,2.3,4.8,4.2
	c1,2,1.4,4.2,1.8,6.3c0.7,3.3,1.6,6.6,2.7,9.8c0.7,2,1.4,4,1.8,6.1c0.3,2.1,0.2,4.3-0.9,6.2c4.2-2.6,7.1-6.9,8.5-11.6
	s1.2-9.8,0-14.6c-1-3.8-2.7-7.3-3.8-11c-0.6-1.9-1-3.8-2.2-5.4C155,10,152.5,9,150.1,8C143.8,5.5,135.5,2.4,131.7,10.1z"/>
<path class="st1" d="M125.5,28.4c-1.1-0.2-2.3-0.5-3.4-0.4c-2.8,0.3-4.6,3.1-6.2,5.4c-1.1,1.5-2.3,2.8-3.6,4c-2.1,2-4.7,3.6-7.6,3.9
	c-0.5,0.1-1,0.1-1.5-0.2c-1-0.4-1.4-1.6-1.6-2.7c-0.9-5.8,1.9-11.8,6.3-15.8s10.1-6.1,16-6.9c2.3-0.3,4.9-0.4,6.4,1.3
	c0.9,0.9,1.2,2.2,1.3,3.5C131.8,24.3,129.9,29.1,125.5,28.4z"/>
<path class="st1" d="M132.8,17.9c-1.1-0.3-2.4-0.6-3.3,0.1c-0.5,0.3-0.8,0.9-1,1.4c-0.9,1.7-1.4,3.6-1.6,5.5c-0.1,0.5-0.1,1,0.1,1.4
	c0.3,0.6,0.8,0.9,1.4,1.1c3.8,1.4,8.7-1.1,12,1.2c2.2,1.5,2.8,4.4,4.1,6.6c2.2,3.7,6.4,5.7,10.3,7.5c0-4.2-0.5-8.4-1.5-12.5
	c-1.1-4.3-3.1-8.7-7-10.9c-2.3-1.3-4.9-1.6-7.5-1.8c-3-0.3-6-0.6-9-1"/>
<path class="st1" d="M120.4,28.5c-0.3,0.1-2.9,1.1-6.1,8.7s-15.4,10-12.9,18.6l-4.7-10.7l4.9-11.2l0.7-8.9l7.8-4.5l4.2-0.6
	L120.4,28.5z"/>
<path class="st1" d="M136.9,6.1c0,0,10.3-5.1,19.5,3.2s8.2,26.4,6.9,30.5c-1.3,4.2-23.9-16.4-24-16.9s-4.2-6.9-4.5-7.5
	c-0.4-0.6-1.3-2.1-1.3-2.1L136.9,6.1z"/>
<path class="st8" d="M22.8,79.7C22,73,18.6,67.2,15.5,61.3c-1-1.8-2.6-2.9-4.6-3c-2.8-0.1-5.8,0.9-7.9,2.6
	c-4.5,3.7-2.6,12.3-2.1,17.3c0.6,7,2.1,13.9,5.4,20.1c0.8,1.6,1.8,3.1,3.1,4.3c1.8,1.7,4.2,2.8,6.7,3.4c2.2,0.6,4.7,0.8,6.8,0
	c2.2-0.8,4-2.8,4-5.1c0-1.9-1.1-3.6-1.6-5.3c-0.4-1.6-0.5-3.3-0.9-5C23.5,87,23.2,83.4,22.8,79.7z"/>
<path class="st8" d="M25.2,101.9c2.8-2.2,4.6-5.5,5.5-9s1.1-7.1,1.3-10.7c0.1-2.4,0.2-4.8,0.3-7.2c0.1-1.6,0.1-3.3-0.7-4.6
	s-2.9-2-4-0.8c-1.5,2.1-1.5,5-2.5,7.4c-0.6,1.7-1.7,3.2-2.8,4.7c-2.5,3.5-5,6.9-7.5,10.4c-1.2,1.6-2.4,3.3-3,5.2
	c-1.1,3.1-0.1,7.8,3.7,8.7C18.5,106.7,22.9,103.6,25.2,101.9z"/>
<path class="st11" d="M105.6,105.2L105.6,105.2c0,0.5-0.1,1-0.1,1.6c0,0.5-0.1,1.1-0.1,1.6l0,0c-0.3,4-0.7,7.9-1,11.9
	c-0.7,8.7-1.4,17.5-2.1,26.3c-0.6,8.4-1.2,16.8-1.7,25.1c-0.1,2-0.3,4-0.4,5.9l0,0l0,0c0,0.4-0.1,0.8-0.1,1.2
	c-0.1,0.9-0.1,1.7-0.2,2.6l0,0c-1.4,23.7-2.2,47.4-2,71.1c0.1,13.3,0.6,26.7,1.4,40H62.8c-1.9-33.6-0.8-67.4,3.4-100.7
	c0-0.1,0-0.1,0-0.2c0-0.1,0-0.3,0.1-0.4c0.3-2.1,0.5-4.1,0.8-6.2c0.1-0.5,0.1-1.1,0.2-1.6l0,0c1.7-12.4,4-24.7,7.7-36.6l0,0
	c0.9-2.7,1.8-5.4,2.8-8c0,0,0,0,0-0.1c2-5.1,4.5-10.8,7.6-16.3c1.8-3.2,3.8-6.3,6-9.2l0,0c0.3-0.3,0.5-0.7,0.8-1l0,0
	c1.6-2,3.2-3.8,5-5.5l0,0l0,0c1.4-1.3,2.9-2.6,4.5-3.6c0.9-0.6,1.7-1,2.2-1.1c0.2-0.1,0.4-0.1,0.6-0.1l0,0
	C105.6,102,105.7,103.3,105.6,105.2z"/>
<path class="st11" d="M78.8,113c-0.5,0.4-1,0.8-1.3,1.3c-0.5,0.8-0.6,1.8-0.6,2.8c-1.1,19-2.2,38.1-3.4,57.1
	c5.1-5.3,10.3-10.7,14.2-17.1c4.4-7.3,7-15.5,9.5-23.7c1.8-5.9,3.6-11.8,5.4-17.8c1-3.2,5.5-11.9,2.7-14.7c-3-2.9-10.2,1-13.1,2.6
	C87.4,106.2,83.1,109.6,78.8,113z"/>
<path class="st11" d="M87.7,138.6c-1.2,7.9-2.5,15.7-3.9,23.5c-0.7,3.8-1.4,7.6-2.1,11.4c-0.6,3.1-1.2,6.3-2.8,9
	c-2.2,3.9-6,6.4-10.1,8.3c-0.3,0.2-0.7,0.3-1,0.4c-0.5,0.2-1.1,0.5-1.6,0.7c-1.1,0.4-2.1,0.8-3.2,1.2c-0.3,0.1-0.7,0.2-1,0.4
	c-1.9,0.7-3.8,1.3-5.8,1.2c-1.6-0.1-3.1-0.8-4.6-1.5c-9.4-4.3-18.3-9.7-26.5-16C14.4,154.7,7.8,130.4,2,106.1c0.7-0.5,1.4-1,2.1-1.5
	c15.5,13.3,30.3,27.2,44.5,41.9c0-0.1,0.1-0.2,0.1-0.3l0,0c0.1-0.1,0.2-0.3,0.3-0.4l0,0c4.4-7.8,9.8-15,16-21.4
	c0.5-0.5,1-1.1,1.6-1.6c1.2-1.1,3.3-3.4,6-5.9l0,0c1.6-1.5,3.3-3,5.1-4.4c3-2.4,6-4.4,8.5-4.9c1.1-0.3,2.2-0.3,3,0.2
	c1.5,0.7,2.1,2.8,2.2,5.6C91.9,121.1,88.3,134.5,87.7,138.6z"/>
<path class="st11" d="M68.9,190.8c-0.1,0.1-0.2,0.2-0.4,0.3c-0.2,0.1-0.4,0.1-0.6,0.2c-0.5,0.2-1.1,0.3-1.6,0.5
	c-1.1,0.4-2.1,0.9-3.2,1.4c-7.2,3.5-13.9,9-21.3,6.6c-4.9-1.6-8.1-6.3-10.6-10.8c-2.2-3.8-4.2-7.7-6-11.7
	c-10.7-22.5-17.3-46.8-23.1-71.1c-0.2-0.8-0.4-1.5-0.5-2.3c10.3-4,20.9-7.4,31.6-10.1c3.2,9.1,6.1,18.2,8.7,27.4
	c2.1,7.2,6.4,22.7,6.4,22.8c0.3,0.6,0.6,1.2,0.9,1.8l0,0c0.3,0.5,1.1,2,2.2,4.2c1.3,2.5,3,5.8,4.9,9.4c4,7.9,8.6,17.6,11.1,24.1
	C68.7,187.2,69.4,189.9,68.9,190.8z"/>
<path class="st6" d="M75.1,292.6H62.8c-1.9-33.6-0.8-67.4,3.4-100.7c0-0.1,0-0.1,0-0.2c0-0.1,0-0.3,0.1-0.4c0.6-0.8,1.5-2,2.4-3.6
	c0.7-1.2,1.5-2.6,2.2-4.2c0.2-0.4,0.4-0.9,0.6-1.3c1.1-2.6,2.1-5.5,2.7-8.8v-0.1c0,0,0,0,0,0.1c0,0.7-0.3,4.7-0.5,10.9l0,0
	c0,0.6-0.1,1.2-0.1,1.8l0,0c0,0.6-0.1,1.3-0.1,1.9l0,0c-1,23.9-2.3,71.6,1.3,103C75,291.6,75.1,292.1,75.1,292.6z"/>
<path class="st6" d="M72.8,116.9c-8.7,9.8-15.9,20.9-21.5,32.7c-0.1,0.1-0.1,0.3-0.2,0.4c-0.7-1-1.6-3.2-1.9-4.2l0,0
	c4.4-7.8,9.8-15,16-21.4c0.5-0.5,1-1.1,1.6-1.6C67.9,121.6,70.1,119.3,72.8,116.9z"/>
<path class="st11" d="M83.9,108.4c0,0,15.5-9.6,24.3-11.4c0,0-3.5,13.4-3.6,18.9s-5.5,4.8-5.5,4.8L83.9,108.4z"/>
<g>
	<path class="st21" d="M109.8,94.7c-0.6,0.8-1.2,1.6-1.9,2.4c-6.5,3.3-18.4,13.8-19.8,45.9c0,0.1,0,0.2,0,0.2v0.3l-0.2,0.2
		c0,0-0.2,0.2-0.6,0.7c-3.1,3.5-17.6,20.5-16.6,37.1l5.7,5.6l0.9,0.9l-1,1l-0.9-0.9l-6.2-6.1v-0.3c-1.3-18.4,15.2-36.6,17.3-38.9
		C88.4,105.3,104,96.6,109.8,94.7z"/>
	<path class="st21" d="M97.3,187.4l-1.2-0.8l5.4-7.4c-1.4-17-14.5-35.4-14.6-35.6l1.2-0.8c0.1,0.2,13.6,19,14.9,36.5v0.3L97.3,187.4
		z"/>
	<circle class="st21" cx="78.5" cy="189.5" r="3.1"/>
	<circle class="st21" cx="96.8" cy="188.1" r="3.1"/>
</g>
<path class="st11" d="M160.7,109.9v8.2l-0.7,0.6l-10.4,14.4l-0.7-3.8c0,0-0.2-1.2-0.3-2.4c-0.4-4.2-1.5-14.6-2.5-21.6
	c-0.4-3.3-0.9-5.8-1.2-6.5c0.2,0.1,7.7,3.3,11.2,5.2C159.6,105.9,160.7,109.9,160.7,109.9z"/>
<g>
	<path class="st21" d="M154.3,168.8l-1.2-0.5c15.5-34.3-6.4-67.3-8.8-70.7l2.3,1.1l0,0C151.8,106.9,168.5,137.3,154.3,168.8z"/>
	<circle class="st21" cx="152.5" cy="170.6" r="4.4"/>
</g>
<path class="st21" d="M146.5,98.7l-0.6,0.7l-0.5-1.1c0,0-0.6-0.2-1.1-0.5c-0.4-0.8-0.8-1.7-1.2-2.5
	C144.8,96.1,146.5,98.7,146.5,98.7z"/>
<polygon class="st0" points="311.9,107.5 292.6,117.4 300.6,121 310,121.3 307.8,112.3 "/>
<path class="st0" d="M338.1,108.2c0,0,2.5,3.3,2.6,4.6c0.1,1.3-1.7,10.4-1.7,10.4l5.4-3.7c0,0,0.7-5,0.5-5.2
	c-0.2-0.3-1.7-2.1-1.7-2.1L338.1,108.2z"/>
<polygon class="st0" points="340.6,113.7 324.8,152.8 341,139.7 346.1,125.9 344,115.5 "/>
</svg>
