<?xml version="1.0" encoding="utf-8"?>
<!-- Generator: Adobe Illustrator 25.0.0, SVG Export Plug-In . SVG Version: 6.00 Build 0)  -->
<svg version="1.1" id="Layer_1" xmlns="http://www.w3.org/2000/svg" xmlns:xlink="http://www.w3.org/1999/xlink" x="0px" y="0px"
	 viewBox="0 0 188.2 400" style="enable-background:new 0 0 188.2 400;" xml:space="preserve">
<style type="text/css">
	.st0{fill:#006662;}
	.st1{fill:#A9D7AA;}
	.st2{fill:#FEECD7;}
	.st3{fill:#338481;}
	.st4{fill:#4CBEA0;}
	.st5{fill:#E5F3E6;}
	.st6{fill:#F2D9C2;}
	.st7{opacity:0.13;fill:#006662;enable-background:new    ;}
	.st8{fill:#009D88;}
</style>
<path class="st0" d="M87,381.4l12.3,12.8c1.2,0.8,1.5,2.4,0.6,3.6l0,0c-1.4,2-4,2.7-6.2,1.7l-11.9-8.2v5.1c0,0.4-0.4,0.8-0.8,0.8
	l-6.9-0.2c-0.4,0-0.7-0.3-0.8-0.7l-1.2-14.9L87,381.4L87,381.4z"/>
<path class="st0" d="M56.2,381.4l12.3,12.8c1.2,0.8,1.5,2.4,0.6,3.6l0,0c-1.4,2-4,2.7-6.2,1.7L51,391.3v5.1c0,0.4-0.4,0.8-0.8,0.8
	l-6.9-0.2c-0.4,0-0.7-0.3-0.8-0.7l-1.2-14.9L56.2,381.4L56.2,381.4z"/>
<path class="st1" d="M104.2,285c0,0-21.2,13.1-82.5,4.2L33.6,235l9.4-12.1l21.9-3.6h32.6L104.2,285z"/>
<path class="st0" d="M35.3,94.9c1,3.5,3.9,6.3,7.3,7.7c3.4,1.4,7.2,1.4,10.8,0.5c5.8-1.4,11-4.9,16.9-4.8c4.2,0.1,8.2,2.1,12.3,3.2
	c4.1,1.1,9.1,0.9,11.8-2.3c2.6-3,2.2-7.5,3.2-11.3c0.3-1.2,0.8-2.3,1.4-3.4c1.4-2.9,3.2-5.6,3.8-8.8c1.2-7.5-5.2-14-7.1-21.4
	c-1.1-4.3-0.6-8.8-0.6-13.2c0.1-6.1-0.7-12.2-2.2-18.1c-1.1-4-2.6-8-4.7-11.6l0,0l0,0c-0.6-0.9-1.2-1.9-1.9-2.7
	C77.2-3.4,60.9-1.3,49,5.5c-3.4,2-6.6,4.5-8.4,8c-2.2,4.5-1.8,9.8-0.7,14.7s2.9,9.6,3.2,14.7c0.3,4.8-0.8,9.6-3.2,13.8
	c-1,1.9-2.3,3.6-2.8,5.7c-0.6,2.7,0.2,5.5,0.5,8.3c0.4,2.9,0.3,5.9-0.3,8.8C36.4,84.7,33.9,89.9,35.3,94.9z"/>
<path class="st1" d="M150.9,104.8c0,0,19.2,13.6,14.7,19.1c-4.5,5.4-14.3-1.9-14.3-1.9l-2.6-7.6L150.9,104.8z"/>
<path class="st2" d="M147.7,108.4l11-10.8c0,0,2.2-5.2,5.8-6.8c2.7-1.2,5.7-2.4,8.6-2.1c1.3,0.1,1.2,1.1,0.4,1.8
	c-0.9,0.8-2,1.2-3.2,1.4c-1,0.2-2.3,0.3-2.4,1.4c-0.1,1.1,10.2-0.1,16.4-0.9c2.8-0.4,4.9,2.7,3.4,5c0,0,0,0.1-0.1,0.1
	c-1.9,2.9-11.8,4.4-20.2,6.6c-4.2,1.1-14.2,15.4-14.2,15.4s-9.1,2.5-8.9-3.3S147.7,108.4,147.7,108.4z"/>
<polygon class="st3" points="60.9,191.6 60,211.7 66.5,211.4 65.1,191.6 90.9,183.2 87,382.3 72.2,382.4 66.8,222.9 59.8,223.2 
	56.8,382.6 41.1,382.3 33.6,183.2 "/>
<polygon class="st4" points="78.9,73.5 95.9,81.8 87.4,210.7 45.2,212.5 45.2,76.8 52.7,73.2 "/>
<path class="st5" d="M24,186.9l-2.3,102.3l4-2.3v0.1l18.1-6.5c4.1-2.5,6.6-3.3,6.8-14.5l2.1-192.8l-0.9,0.4l-1.4,0.6l0,0l-17.7,8.3
	c-3.1,1.4-5.2,4.3-5.8,7.6l-7.4,48.5C6.6,166.8,14.2,180.3,24,186.9z"/>
<path class="st1" d="M35.9,180.4c0.3,3.7,1.5,7.6,4.9,10.4c5.3,4.5,7.7-6.6,5.6-14.4c-1.3-4.7-4.2-8.2-9.1-6.6
	C37.2,169.8,35.4,174.8,35.9,180.4z"/>
<polygon class="st0" points="0,134.5 29.8,167.5 69.5,167.5 45,133.1 "/>
<path class="st2" d="M52.7,73.2c6.4,4.2,15.3,4.9,22.6,2.1c1.2-0.5,2.4-1.1,3.6-1.7l0,0l0,0c-0.3-0.1-0.6-0.3-0.9-0.5
	c-0.6-0.4-1.1-0.9-1.5-1.4c-0.5-0.5-0.9-1.1-1.2-1.8c-0.7-1.2-1.2-2.5-1.6-3.8l0,0c-0.5-1.6-0.8-3.5-0.9-5.1c-5-2.1-9.7-5.7-13.1-10
	l-0.1-0.1c0.2,1.5,0.3,3,0.4,4.6c0,0.3,0,0.7,0,1c0,0.9,0,1.9,0,2.8c0,1.3-0.2,2.6-0.5,3.9c-0.6,2.8-1.8,5.5-3.7,7.6
	c-0.7,0.8-1.5,1.5-2.4,2C53.1,72.9,52.9,73.1,52.7,73.2z"/>
<path class="st2" d="M35.9,180.9c3.3-0.7,8.3-3,8.3-3c0.8-0.4,1.5-0.7,2.3-1.1c12.9-6.9,16.4-18.8,14.4-26.4
	c-2.1-8-7.1-11.7-9.2-11.7c-2.1,0-0.3,4,0.8,5s0.3,3.5,0,4.6s-3,3.5-4.8,0.3c-1.9-3.2-5.4-5.8-7-3c-0.9,1.5,4.1,3.8,4.6,8.4
	c0.5,4.5,3.7,8.5,3.7,8.5c-1,3.4-7.1,5.9-11.7,7.4C37.2,169.8,35.4,175.1,35.9,180.9z"/>
<path class="st6" d="M59.6,51c0.2,1.8,0.1,2.5,0.3,4.4c0,0.3,0,0.7,0,1c0.1,0.2,0.3,0.4,0.4,0.6c3,3.8,7.3,9.7,11.9,9.3
	c0.5,0,0.9-0.1,1.3-0.2c-0.5-1.7-0.8-3.4-0.9-5.1c-5.1-2.2-9.8-6.4-13.2-11C59.5,50.3,59.5,50.7,59.6,51z"/>
<path class="st2" d="M85.9,25.7c0.6,8.1,0.4,16.4-2.2,24c-1.8,5.4-5.7,10.9-11.4,11.4c-4.7,0.4-8.9-2.8-11.9-6.4
	c-7.9-9.4-10.6-22.9-7.1-34.7c0.3-1.2,0.8-2.3,1.6-3.3c1.1-1.3,2.8-1.9,4.4-2.4C70.1,11.3,84.9,11.9,85.9,25.7z"/>
<path class="st0" d="M83.1,30.2c1.2,2.3,2.8,4.5,3.7,6.9s1.3,5.3,0,7.6c1.8,0.3,2.8-1.9,3.1-3.7c1.4-9.5-2.1-19.5-9-26.1
	c-1.7-1.7-3.8-3.1-6.1-3.8c-3.4-1-7.6,0.1-8.7,3.8c-1,3.4,0.7,3.6,3.2,2.9C78,15.6,79.8,23.8,83.1,30.2z"/>
<path class="st0" d="M67.5,17c0,2.5,0.5,5,0.5,7.5s-0.6,5.2-2.4,7c-2.2,2.1-5.5,2.4-8.2,3.8c-4.3,2.2-6.6,7.7-5.1,12.3
	c0.7,2.4,2.3,4.4,3.1,6.8c0.9,2.7,0.8,5.6-0.2,8.2c-0.6,1.6-1.7,3-3,4c-1.8,1.3-4.3,2-4.9,4.1c-2.4-2.7-3.6-6.4-3.9-10.1
	c-0.3-3.7,0.2-7.3,0.6-11c0.8-6.3,1.7-12.7,2.5-19c0.4-2.9,0.8-5.8,2.2-8.3c1.3-2.3,3.4-4.1,5.5-5.8c2.8-2.3,5.6-4.6,9-5.8
	c2.4-0.9,6.7-1.5,8.8,0.3C69.2,12.8,67.5,13.1,67.5,17z"/>
<path class="st7" d="M74.8,75.5v199.3c0,5.6,4.6,10.2,10.2,10.2h4L86.2,76c-3.6-1.3-6.4-2.2-7.1-2.4h-0.2l0,0
	c-1.1,0.7-2.3,1.3-3.6,1.7L74.8,75.5z"/>
<path class="st5" d="M80.1,278.6c0.1,0.5,0.1,0.8,0.2,0.9c2.4,4.9,23.9,5.5,23.9,5.5V164.3l5.9,5.7c3.3,3.1,8.5,2.7,11.2-0.9
	l44.4-45.2c-9.1,2-14.8-19.1-14.8-19.1l-32.4,32.7l-1.8-6.4c0,0-7.5-40.7-11-45.5c-2.2-3.1-12.4-7.1-19.6-9.6
	c-3.6-1.3-6.4-2.2-7.1-2.4c-0.1,0-0.2,0-0.2,0s0,0,0,0.1C78.8,79.8,78,262.3,80.1,278.6z"/>
<path class="st8" d="M46.6,117l0.7-0.3c-9.6-21.3,4.1-41.6,5.6-43.8l-1.4,0.7l0,0C48.2,78.7,37.8,97.5,46.6,117z"/>
<circle class="st8" cx="47.1" cy="117.9" r="2.7"/>
<g>
	<path class="st8" d="M76.4,71.6c0.4,0.5,0.9,1,1.5,1.4c4,1.6,11.9,7.3,14.2,27v0.1v0.2l0.1,0.1c0,0,0.2,0.1,0.4,0.4
		c2.1,2,11.6,11.6,11.7,21.7l-3.2,3.6l-0.5,0.6l0.6,0.6l0.5-0.5l3.5-3.9v-0.2c0-11.2-10.8-21.5-12.2-22.8
		C90.2,76.1,79.6,72.2,76.4,71.6z"/>
	<path class="st8" d="M88.6,127.3l0.7-0.6l-3.6-4.2c0.1-10.4,7.2-22.1,7.3-22.2l-0.7-0.5c-0.1,0.1-7.4,12.1-7.4,22.8v0.2L88.6,127.3
		z"/>
	<circle class="st8" cx="100.1" cy="127.7" r="1.9"/>
	<circle class="st8" cx="88.9" cy="127.7" r="1.9"/>
</g>
<path class="st8" d="M51.5,73.6l1.4-0.7l0.4-0.1c0.9-0.6,1.7-1.2,2.4-2l0,0C53.7,71,51.6,73.4,51.5,73.6z"/>
</svg>
