<?xml version="1.0" encoding="utf-8"?>
<!-- Generator: Adobe Illustrator 25.0.0, SVG Export Plug-In . SVG Version: 6.00 Build 0)  -->
<svg version="1.1" id="Layer_1" xmlns="http://www.w3.org/2000/svg" xmlns:xlink="http://www.w3.org/1999/xlink" x="0px" y="0px"
	 viewBox="0 0 400 264.1" style="enable-background:new 0 0 400 264.1;" xml:space="preserve">
<style type="text/css">
	.st0{fill:#B8E4DE;}
	.st1{fill:#004751;}
	.st2{fill:#006662;}
	.st3{fill:#CDA176;}
	.st4{opacity:0.44;fill:#75ACAA;enable-background:new    ;}
	.st5{fill:#BC8D62;}
	.st6{fill:#759CA1;}
	.st7{fill:#90D7C4;}
	.st8{opacity:0.27;fill:#009D88;enable-background:new    ;}
	.st9{fill:#FEDFBD;}
	.st10{fill:#EDC7A2;}
	.st11{fill:#009D88;}
	.st12{fill:#FFFFFF;}
	.st13{fill:#E5E5E5;}
	.st14{fill:#826040;}
	.st15{opacity:0.13;fill:#004751;enable-background:new    ;}
	.st16{fill:#704E33;}
	.st17{fill:#FDBF7A;}
	.st18{fill:#FEDDB9;}
</style>
<path class="st0" d="M304.7,75.7c-0.9-0.4-1.7-0.8-2.4-1.1C303.2,75,304,75.3,304.7,75.7z"/>
<path class="st0" d="M312.3,84.5c-0.5,3.2-3.5,6.4-6.3,8.9c-0.6,0.6-1.3,1.1-1.9,1.6c-2.2,1.7-3.9,2.8-3.9,2.8l-27.4,5.9l-10.3-2.9
	l-3.1-6.7L257.7,82l-0.5-3.9c0,0,0.6-0.4,1.6-1.1c2.7-1.7,8.8-4.9,16.5-5.8c5.3-0.6,11.6-0.5,17.7,0.7c0.7,0.1,1.4,0.3,2.1,0.5
	c0.9,0.2,1.9,0.5,2.8,0.7c0.5,0.1,1,0.3,1.4,0.4c0.1,0.1,0.1,0.2,0.2,0.3c2.4,1.2,4.7,2.7,6.8,4.5c0.4,0,0.9,0,1.4,0.1
	c0.6,0.1,1.3,0.2,2,0.4l0.1,0.1C312,80.6,312.6,82.5,312.3,84.5z"/>
<path class="st1" d="M340.2,264.1H284c-0.3-4.1-1.3-10.1-1.9-16c-0.7-6.3-0.9-12.5,0.8-16.1c1.2-2.5,7.9-5.6,16.1-8.7
	c15.1-5.6,35.4-11,35.4-11.4c0.9,8.5,1.9,16.9,2.8,25.4C338.2,246.2,339.2,255.2,340.2,264.1z"/>
<path class="st2" d="M289.5,223.3c0,4.3-0.4,12.9-0.8,23c-0.2,5.7-0.5,11.8-0.8,17.8h-64.8c0.5-8.4,1.2-16.8,2.1-25.1
	c0.2-2.2,0.5-4.4,0.7-6.6l0,0c0.4-3.3,0.8-6.6,1.3-9.9c0.3-1.9,0.6-3.9,1.8-5.2c0.1-0.2,0.3-0.3,0.4-0.4c0.3-0.3,0.7-0.5,1.1-0.7
	c0.8-0.4,1.7-0.6,2.6-0.7c12.1-2.3,24.3-3.6,36.6-3.9c9.1-0.2,18.7-2.8,19.7,9.4C289.5,221.4,289.5,222.2,289.5,223.3z"/>
<path class="st3" d="M361.9,49.6c0-1.3,0.1-2.8,1.1-3.5c1.8-1.2,3.9,1.1,4.9,3.1c1.5,3.1,2.7,6.3,3.5,9.6
	c6.4-3.1,5.9-13.5,11.5-17.9c3.2-2.5,8.1-2.4,11.4,0.3c2.2,1.8,3.6,4.5,4.6,7.1c0.6,1.5,1.1,3,1.1,4.6c0,4.4-4.5,10.6-7.2,13.9
	c-3,3.6-3.3,6.1-5,9.6s-0.7,8.1-3.1,11c-2.8,3.3-10.5,5.3-14.7,3.5c-3.8-1.6-3.6-5.1-3.7-8.8C365.9,71.1,362.2,60.5,361.9,49.6z"/>
<path class="st0" d="M249.9,91c-3,4.5-5.2,10.3-3.3,15.4c2.3,6.4,9.8,9.1,16.5,10.7c7.1,1.6,14.4,2.9,21.6,2s14.4-4.4,18.4-10.4
	c5.2-7.9,4-19-2-26.4C285.7,63.4,261.2,73.8,249.9,91z"/>
<path class="st0" d="M236.4,85.6c-5.6,2.8-11.4,5.7-15.3,10.1c-2.9,3.3-4.5,7.2-6.1,11.1c-6.8,16.7-17.7,24.2-24.5,40.9
	c-1,2.4-1.9,4.8-2.1,7.3c-0.2,3.4,1.1,6.7,2.9,9.7c8.4,14.6,29.9,33.3,47.4,40.8c3.2-12.5,4.9-25.2,5.2-37.9c0-1.1,0-2.2-0.5-3.2
	s-1.5-1.7-2.4-2.4c-3.9-2.9-7.8-5.9-11.7-8.8c-1.2-0.9-2.4-1.8-3.1-3.1c-1.4-2.6,0-5.7,1.5-8.3c8-14.7,15.8-29.5,23.2-44.4
	c1.5-3,11.7-18.8,8.8-20.9C256.7,74.3,239.5,84,236.4,85.6z"/>
<path class="st0" d="M340.7,234.1c-0.6,2.2-3.1,3.2-5.2,3.8c-13.4,3.8-27.1,7-41,8.9c-17.7,2.4-35.4,2.6-52.7-1.1
	c-2-0.4-4-0.9-5.9-1.5c-2.2-0.6-4.4-1.3-6.6-2c-0.7-0.3-1.5-0.6-1.9-1.2c0,0,0,0-0.1-0.1l0,0c-0.5-0.7-0.6-1.6-0.6-2.4
	c-1.9-44.7-3.6-90.3,8-133.1c1-3.5,2-7.1,3.9-10.1c2.1-3.2,5-5.6,7.9-7.9c3.5-2.9,8.2-8.2,12.4-10.5c0.5-0.3,1-0.5,1.5-0.6
	c1.6-0.5,3-0.2,4.2,0.7c2.3,1.6,4.3,4.8,6.6,7c2.6,2.5,5.4,4.9,8.6,6.2c1.4,0.6,2.9,0.9,4.4,0.9c0.3,0,0.6,0,1,0
	c1.6-0.1,3.2-0.6,4.6-1.5c0.1,0,0.1-0.1,0.2-0.1c3.8-2.7,4.9-7.7,5.2-12.8c0.1-1.4,0.1-2.9,0-4.3c0-0.1,0-0.2,0-0.3
	c0.9,0.3,1.9,0.7,2.8,1.1c0.5,0.2,1.1,0.5,1.6,0.7c2.4,1.2,4.7,2.7,6.8,4.5c2.2,1.8,4.2,3.9,5.9,6.2c1.4,1.8,2.6,3.8,3.7,5.9
	c1.9,3.7,3.1,7.7,4.4,11.7c4.1,12.8,8.2,25.6,11.2,38.8c0,0.1,0.1,0.3,0.1,0.4c0.2,0.9,0.4,1.7,0.6,2.6c3.4,16.2,4.7,32.7,5.8,49.3
	c0.5,6.9,0.9,13.8,1.3,20.8c0.4,5.9,0.8,11.7,1.4,17.5C340.8,232.2,340.9,233.2,340.7,234.1z"/>
<path class="st3" d="M294.4,77.5c-0.3,2-1.8,3.6-2.9,5.2c-1.4,1.9-2.4,4.2-3.9,6c-0.9,1.1-2.3,2.1-3.6,2.5c-0.9,0.3-1.8,0.4-2.6,0.1
	c-0.1,0-0.2-0.1-0.3-0.1c-1.7-0.5-3-1.9-4.1-3.3c-0.9-1-3.9-4.2-4.8-5.2c-0.4-0.5-0.8-0.9-0.9-1.5c-0.2-0.7-0.1-1.4,0-2.1
	c0.2-1.7,0.9-2.9,1.4-4.1c0.7-1.3,1.3-2.6,1.2-4.5c0-0.4-0.1-1-0.2-1.5c-0.3-1.7-0.8-3.6-0.9-5.3c-0.1-1-0.2-1.9,0-2.7
	c1.2-5.4,11.8-3.7,16.3-3.3c0.4,0.1,0.9,0.1,1.3,0.4c0.7,0.5,0.9,1.4,0.9,2.2l0.1,1.5c0.1,1.6,0.2,3.3,0.3,4.9
	c0.1,1.4,0.4,2.8,0.9,4.2c0.2,0.8,0.6,1.5,0.9,2.2C294.2,74.6,294.6,76,294.4,77.5z"/>
<path class="st4" d="M230.8,183.7c0-5.4,0.8-10.9,0.1-16.3c-0.9-7.1-4.2-13.9-3.4-20.9c0.3-2.1,0.9-4.2,1.5-6.2
	c2.4-7.8,4.8-15.5,7.1-23.3c1.1-3.5,2.2-7.1,4.4-10c0.4,6.2-1,12.3-2.2,18.4c-4.4,22.3-4.4,44.7-6.6,67.2
	C230.4,190.3,230.8,186.3,230.8,183.7z"/>
<path class="st5" d="M293.6,73.2c-0.1,0.5-0.3,1.1-0.7,1.6c-1.5,2.3-4.4,3.2-7.1,3.5c-3.7,0.4-7.5-0.1-11.2-1.1
	c-0.4-0.1-0.9-0.3-1.2-0.6c-0.3-0.3-0.4-0.7-0.6-1.1c-0.1-0.2-0.1-0.4-0.2-0.5c0.7-1.3,1.3-2.6,1.2-4.5c0-0.4-0.1-1-0.2-1.5
	c-0.3-1.7-0.8-3.6-0.9-5.3c2.5,0.4,5.1,0.5,7.7,0.4c2.6-0.2,5.1-0.6,7.7-1.2c0.4-0.1,1.8-0.5,3.3-0.9c0.1,1.6,0.2,3.3,0.3,4.9
	c0.1,1.4,0.4,2.8,0.9,4.2C292.9,71.8,293.3,72.5,293.6,73.2z"/>
<path class="st3" d="M260.6,52.1c2,5.7,6.4,11.5,11.3,15.2c4.8,3.6,11.9,4.7,16.9,1.3c1.7-1.1,6.1-5.8,7.3-7.4
	c5.2-6.8,7-11.3,8.8-19.6c1.3-6.2,2.4-12.5,0.8-18.5c-1.6-6.1-1.8-11.9-7.1-15.4c-3-2-9.8-4.9-13.3-5.5c-5-0.9-12.6,0.7-17.1,2.8
	C252.1,12.5,255.9,39.2,260.6,52.1z"/>
<path class="st0" d="M312.9,80.1c-1.1-0.5-2.1-1-3.2-1.3c-0.7-0.2-1.4-0.3-2-0.4c-0.5-0.1-0.9-0.1-1.4-0.1c-2.1-1.8-4.4-3.3-6.8-4.5
	c-0.1-0.1-0.1-0.2-0.2-0.3c0.9,0.3,1.8,0.6,2.7,1c0.1,0,0.2,0.1,0.3,0.1c0.7,0.3,1.5,0.7,2.4,1.1c0,0,0,0,0.1,0
	C307,76.8,309.7,78.2,312.9,80.1z"/>
<path class="st0" d="M389.8,76.9c-1.3,15.6-10.4,52.6-15.9,67.1c-2.5,6.5-6.1,13.6-12.5,15.1c-6.2,1.5-12.3-3-17.3-7.2
	c-4.2-3.6-8.4-7.3-12.6-11c-2.2-2-4.4-4-6.6-6.1c-5.3-5-10.6-10.2-14.2-16.7c-2.6-4.7-4.1-10-5.3-15.3c-0.6-2.6-1-5.2-1.5-7.8
	c-0.1-0.4-0.1-0.9-0.2-1.3c-0.6-3.4-1.7-6.7-2.1-9.4l0,0c-0.1-0.4-0.1-0.7-0.1-1.1l0,0c0-0.4,0-0.9,0-1.3c0.1-2.2,1.3-3.6,4.7-3.5
	c0.4,0,0.9,0,1.4,0.1c0.6,0.1,1.3,0.2,2,0.4c1,0.3,2.1,0.7,3.2,1.3c9.2,5.4,21.8,14.7,34,29.4c2.1,2.5,4.1,5.1,6.1,7.9
	c0,0.4,1-4.9,1.6-7.4l0,0c2.6-12.7,7.2-32.8,8.3-39.7c0.7,0.2,1.5,0.5,2.2,0.7c7.5,2.4,15,4.3,22.7,5.6
	C388.4,76.7,389.1,76.8,389.8,76.9z"/>
<path class="st4" d="M340.7,234.1c-0.6,2.2-3.1,3.2-5.2,3.8c-13.4,3.8-27.1,7-41,8.9c3.1-1.2,12.9-22.2,14.4-25
	c4.5-8.8,8.6-17.9,12-27.4c6.1-17,10.2-35,10.8-53.3c0.2,0.9,0.4,1.7,0.6,2.6c3.4,16.2,4.7,32.7,5.8,49.3c0.5,6.9,0.9,13.8,1.3,20.8
	c0.4,5.9,0.8,11.7,1.4,17.5C340.8,232.2,340.9,233.2,340.7,234.1z"/>
<path class="st4" d="M354.3,147.4c-3.1-0.8-5-4-6-7c-1.8-5.3-1.9-10.9-1.9-16.5c0-4.8,0-9.6,0.5-14.3c2.1,2.5,4.1,5.1,6.1,7.9
	c0,0.4-1.2,9.5-1.4,14.7C351.3,137.3,351.8,142.8,354.3,147.4z"/>
<path class="st0" d="M304.7,75.7c-0.9-0.4-1.7-0.8-2.4-1.1C303.2,75,304,75.3,304.7,75.7z"/>
<path class="st1" d="M251.7,22.7c0.2,6.4,2.5,12.4,5.4,17.6c1.5-6,3.1-12,4.6-17.9c1.1-4.2,1.8-14.4-3.8-14
	C253.2,8.6,251.5,18,251.7,22.7z"/>
<path class="st1" d="M300.9,16.5c-0.5,0.8-0.7,1.8-0.8,2.8c-0.2,1.9,0,3.8,0.5,5.7c1.3,4.5,4.5,8.4,4.9,13.1
	c1.6-4.7,2.4-9.7,2.3-14.7c0-1.8-0.2-3.6-0.7-5.3c-0.2-0.7-0.5-1.5-1.2-1.9C304.4,15.1,302.1,14.6,300.9,16.5z"/>
<path class="st1" d="M262.3,21.6c3.6,4,9.3,5.4,14.6,5.9c10.3,0.9,20.9-1.2,29.5-6.8c0.4-0.2,0.7-0.5,0.9-0.9c0.1-0.3,0.1-0.6,0.1-1
	c-0.5-6.2-4.1-12-9.4-15.2c-4.4-2.6-9.6-3.5-14.8-3.6c-7.8-0.2-15.6,1.3-22.9,4.3c-2.1,0.9-2.5,1-2.5,3.2c0,1.7,0.1,3.4,0.4,5
	C258.9,15.9,260.1,19.1,262.3,21.6z"/>
<path class="st6" d="M282.2,90.5c0.2,0.3-0.1,1.5,0.1,1.7c-2.6-2.1-9.2-3.3-12.4-2.2c-3.2,1.1-5.8,3.8-6.6,7.1
	c-0.7-5.9-1.3-12.1,0.8-17.6c1.7-4.5,5.3-8,9.6-10.3c0.1,0.5,0.1,1,0.2,1.5c0.1,3.6-2.2,5-2.7,8.6c-0.1,0.7-0.2,1.4,0,2.1
	c0.2,0.6,0.6,1.1,0.9,1.5c0.9,1,3.9,4.2,4.8,5.2C278.1,89.2,280.5,90,282.2,90.5z"/>
<path class="st6" d="M301.6,90.7c-1.7-1.8-4.3-2.6-6.7-2.3c-1.1,0.1-3,0.5-4.9,1.1c-1.8,0.5-3.6,1.1-4.8,1.6c-0.5,0.2-2.5,0.9-2.8,1
	c0-0.2,0-1.7,0-1.7c1.3-0.4,4.4-0.7,5.4-1.8c1.5-1.8,2.5-4,3.9-6c1.2-1.6,2.6-3.2,2.9-5.2c0.1-0.4,0.1-0.9,0-1.3
	c-0.2-1.4-0.8-2.8-1.4-4.3c-0.1-0.3-0.2-0.6-0.4-0.9c-0.5-1.4-0.7-2.8-0.9-4.2c0.1,0,0.2,0.1,0.3,0.1c3.2,1.1,5.6,3.7,7.3,6.7
	c0.1,0.1,0.1,0.2,0.2,0.3c0.5,1,0.9,2.1,1.3,3.1c0.5,1.6,0.8,3.2,0.9,4.9c0,0.5,0.1,0.9,0.1,1.4c0,0.3,0,0.6,0,1l0,0
	C301.9,86.4,301.8,88.5,301.6,90.7z"/>
<path class="st3" d="M272.7,83.2c0,0,4.8,6.4,9.6,8.9c0,0,5.8-1.7,8.9-8.9c3-7.2-12.9-2.1-12.9-2.1L272.7,83.2z"/>
<path class="st2" d="M179.7,22.4c-7.9,5.8-11.8,15.3-13.3,25.1c-0.1,0.5-0.1,1-0.2,1.6c-0.3,2.6-0.5,5.1-0.4,7.7c0,0.3,0,0.6,0,0.9
	c0.1,3.2,0.3,6.5,1.5,9.5c1.3,3.3,3.6,6.2,6.3,8.6c2.9,2.6,6.1,4.8,9.8,6c8.3,2.8,17.4,0.5,25.8-1.8c1.8-0.5,3.5-1,5.1-1.9
	c2.1-1.2,3.7-3.2,5.1-5.2c1.7-2.5,3-5.3,4-8.2c1.3-3.8,1.9-7.9,2.3-11.9c0.5-4.5,0.8-9.1-0.4-13.4c-1.4-4.9-4.5-9.2-7.9-13.1
	c-1.5-1.8-3.1-3.5-5.1-4.9c-8.3-5.7-19.4-5.9-28.4-1.6C182.4,20.6,181,21.4,179.7,22.4z"/>
<path class="st7" d="M248,180.3c0,6-0.2,12-0.4,17.9c0,1.6-0.1,3.2-0.2,4.8l0,0c-0.1,1.9-0.2,3.7-0.2,5.6l0,0c0,0.2,0,0.3,0,0.5
	c-0.1,2.5-0.2,5-0.4,7.5c-0.4,6.6-0.8,13.1-1.4,19.7l0,0c0,0,0,0,0,0.1c-0.2,1.8-0.3,3.5-0.5,5.3c-0.6,6.8-1.3,13.6-2.2,20.3
	c-0.1,0.6-0.2,1.3-0.2,1.9h-83.7c0-0.2-0.1-0.4-0.1-0.6c-0.3-2.8-0.6-5.5-0.9-8.3c-0.3-3-0.6-5.9-0.9-8.9
	c-0.7-7.2-1.3-14.4-1.7-21.7c0-0.6-0.1-1.2-0.1-1.8l0,0c-0.2-2.9-0.3-5.8-0.4-8.7c-0.1-1.9-0.2-3.8-0.2-5.7
	c-0.2-4.8-0.2-9.6-0.2-14.3c0-4.6,0.1-9.2,0.2-13.7c0-0.9,0.1-1.9,0.1-2.8c0.1-2.6,0.3-5.3,0.4-7.9c0,0,0-0.1,0-0.2
	c0.3-4.7,0.7-9.3,1.2-14l0,0l0,0c0.9-8.2,2-16.3,3.6-24.4c0.1-0.7,0.3-1.3,0.4-2v-0.1c1.2-6.2,1.4-13.9,3.8-20.3
	c0.8-2.1,1.9-4.1,3.4-5.8c0.4-0.4,0.7-0.8,1.1-1.2c3.3-3.3,7.5-5.8,12-7.5c0.2-0.1,0.4-0.1,0.6-0.2c7.1-2.5,15-3.2,21.7-1.9l0,0l0,0
	c2.8,0.5,5.6,1.4,8.1,3c0.5,0.3,0.9,0.6,1.3,0.9l0,0c0.7,0.6,1.4,1.2,2.1,1.9c0.1,0.1,0.2,0.2,0.3,0.3l0,0c1,1,2,2.1,3.1,3.1
	c1.4,1.4,2.8,2.7,4.3,3.9l0,0c2.5,2,5.3,3.9,8.1,5.5c1.3,0.7,2.5,1.4,3.8,2.1c1.6,0.9,3.2,2,4.4,3.4c2.3,2.6,3.4,6,4.3,9.4
	c0.9,3.3,1.6,6.5,2.2,9.8c0.3,1.6,0.6,3.2,0.8,4.8l0,0c1.1,7.6,1.7,15.2,2,22.9l0,0C248,168.6,248.1,174.4,248,180.3z"/>
<polygon class="st7" points="162.2,264 152.1,264 154.7,214 162.2,263.9 "/>
<path class="st7" d="M158.5,99.7c-3.1,1.2-6.4,2.5-8.6,5c-2,2.3-2.9,5.2-3.8,8.1c-5.4,18.2-10.8,36.4-16.3,54.6
	c-1.4,4.6-2.8,9.4-2,14.2c0.7,4.7,3.5,8.8,6.4,12.5c13.4,17.1-16.6,36.8,4.2,43.1c3.2-8.3,9.4-20.5,11.6-29.1
	c-12.2-10.7,20-23.4,6-31.7c2-11.4,4.7-22.7,9.4-33.2c2.3-5.1,5-10.1,7.2-15.2c4-9.5,6.3-19.9,7.7-30c0.9-6.9-0.6-6.4-6.6-4.1
	C168.7,95.8,163.6,97.8,158.5,99.7z"/>
<path class="st8" d="M240.3,150.1c0-11.6-0.1-23.4-5.4-34.1c-5,6.2-4.6,14.1-4.9,21.5c-0.7,15.7-5.4,31.2-4.4,46.9
	c0.3,5.4,1.5,11,5.6,15.1c7.1-5.4,10.7-12.4,9.4-20.2C239,169.9,240.3,159.6,240.3,150.1z"/>
<path class="st7" d="M183.7,87.7c0,0-8.5,9-14.1,10.5s7.9,15.4,7.9,15.4l12.6,14.9l34,2.9l-2.8-37.5L209.2,91c0,0-10.9-5-12-4.7
	C196.1,86.5,183.7,87.7,183.7,87.7z"/>
<path class="st9" d="M213.1,93.9c-2.4,6.9-8.9,20-8.9,20l-8.1,17l-7-16.3c0,0-5.8-13.5-7.8-20.7c-0.2-0.6-0.3-1.2-0.2-1.9
	c0.1-0.8,0.7-1.4,1.1-1.9c1.7-1.8,3-3.8,4-6c1.4-3.1,2.3-6.5,2.9-9.9c0.2-0.8,0.3-1.5,0.4-2.3c1.3-6.8,9.5-4.3,14.8-4.3
	c0.2,2,0.5,3.9,0.8,5.9c0.4,2.8,1,5.6,1.6,8.3c0.2,0.8,0.4,1.7,0.6,2.5C208.4,87.9,209.8,92,213.1,93.9z"/>
<path class="st10" d="M206.8,81.7c-0.5,1.2-1,2.3-1.7,3.4c-1.6,2.8-4.2,5.5-7.4,5.6c-1.8,0.1-3.4-0.6-5.1-1.3
	c-1.4-0.6-2.7-1.1-3.9-2s-2-2.1-2.6-3.4c1.4-3.1,2.3-6.5,2.9-9.9c0.5,0.2,1,0.3,1.5,0.5c4.8,1.1,10,0.7,14.5-1.2
	C205.6,76.1,206.1,78.9,206.8,81.7z"/>
<path class="st7" d="M267.4,181.6c-0.7,4.7-3.5,8.8-6.4,12.5c-3.6,4.6-7.6,8.9-11.9,12.8c-0.6,0.6-1.3,1.1-1.9,1.7
	c-9.1,8-19.6,14.4-30.9,18.9c-2.8,1.1-5.5,2.1-8.4,2.9c-3.2-8.3-5.9-16.8-8.1-25.4c12.2-10.7,25.3-20.3,39.3-28.5
	c-2-11.4-4.7-22.7-9.4-33.2c-2.3-5.1-5-10.1-7.2-15.2c-4-9.5-6.3-19.9-7.7-30V98c-0.9-6.8,0.7-6.2,6.6-4c5.1,2,10.2,3.9,15.4,5.9
	c3.1,1.2,6.4,2.5,8.6,5c2,2.3,2.9,5.2,3.8,8.1c5.4,18.2,10.8,36.4,16.3,54.6C266.8,172,268.2,176.8,267.4,181.6z"/>
<path class="st7" d="M181.7,92c0,0,0.8,12.6,14.5,12.6s16.2-12.7,16.2-12.7l2.6,15.8c0,0-5.9,13.9-6.1,14.9
	c-0.2,1.1-9.6,12.2-9.6,12.2l-11.9-0.4l-6.6-9.3l-2-17.2L181.7,92z"/>
<path class="st11" d="M183.7,87.7c0,0,2.5,15.9,11.5,17c0,0-16.4,1.1-21.4-10.8L183.7,87.7z"/>
<path class="st11" d="M195.1,104.7c-0.1,0,13-4.7,14.4-15l10.6,3.6C220.1,93.3,212.9,105.5,195.1,104.7z"/>
<path class="st8" d="M247.2,209.1c-0.1,2.5-0.2,5-0.4,7.5c-0.4,6.6-0.8,13.1-1.4,19.7l0,0c0,0,0,0,0,0.1c-0.2,1.8-0.3,3.5-0.5,5.3
	c-0.6,6.8-1.3,13.6-2.2,20.3c-0.1,0.6-0.2,1.3-0.2,1.9h-21.3c1-14.4,0.6-28.9-1.2-43.3c4.7-2.2,9.7-3.6,14.5-5.7
	c2.7-1.2,10.3-7.9,12.3-6.4C247,208.7,247.1,208.9,247.2,209.1z"/>
<path class="st2" d="M167.5,74.3c-1.7,0.4-3.4,0.8-4.8,1.8c-1.3,1-2.2,2.4-2.8,3.9c-2.3,5.4-2,11.9,0.9,17c1.2,2.2,3,4.4,3,6.9
	c-0.1,3.8-3.9,6-6.7,8c-2.3,1.6-4.6,3.3-6.3,5.6c-3.4,4.7-1.5,8.6,1.1,13.1c2,3.4,2.5,7.1-1.2,9.6c-3.4,2.3-7.8,2.4-11.1,4.9
	c-6,4.6-1.8,12.3,4.6,13c5.9,0.7,11.5-2.6,17.3-2.5c5,0.1,10.9,4.6,15.1-0.1c1.2-1.3,1.9-2.9,2.5-4.5c1.9-5.1,2.7-10.5,1.8-16
	c-0.2-1.2-0.5-2.5-0.4-3.7c0.4-4.6,7.1-5.6,9.9-8.4c3.5-3.6,3.3-9.4,1.8-14.2s-4-9.4-4.1-14.4c-0.1-2.4,0.4-4.9,0.5-7.3
	c0.1-4.1-1.6-14.8-5.6-17.2C179.3,68,171.1,73.4,167.5,74.3z"/>
<path class="st9" d="M178.8,70.5c2.5,5.2,9.9,11.9,15.9,12.8c4.4,0.7,9.3-3,12.5-5.9s5.3-6.7,7.1-10.5c2.5-5.3,4.7-10.8,5.6-16.6
	s0.4-11.8-2.2-17.1c-1.8-3.6-4.5-6.8-7.6-9.5c-3.3-2.9-7.4-5.4-11.9-5.6c-2.9-0.2-5.7,0.6-8.4,1.7C169.1,28.8,171.4,54.8,178.8,70.5
	z"/>
<path class="st2" d="M181.9,39.5c-0.3,2.3-1.1,4.6-2.4,6.6c2.5,1,5.3,1.1,8,0.9c7.9-0.4,15.7-2.7,22.6-6.5c0,1.5-0.2,3.1-0.5,4.6
	c1.3,0.5,2.7,0.4,4-0.1c2.4,3.7,4.2,7.7,5.4,12c1.9-3.5,2-7.7,1.8-11.7c-0.2-4.4-0.6-8.8-2.2-12.9c-2.7-6.8-8.8-12.1-15.9-13.9
	c-7.1-1.7-15,0.2-20.5,5c-1.6,1.4-3,3-4.3,4.7c-2.7,3.7-4.8,8-5.3,12.6c-0.3,2.7-0.1,5.4,0.2,8.1c0.2,2.5,0.2,5.3,0.8,7.8
	c1.6-2.5,2.2-6.1,3.5-8.9c0.7-1.5,1.5-2.9,2.3-4.3C179.8,42.6,181.9,40.4,181.9,39.5z"/>
<g>
	<path class="st12" d="M293.8,37.6h-4.9c-2.4,0-4.3,1.9-4.4,4.3V42c0,0.2,0,0.4,0,0.6c0.3,2.1,2.1,3.7,4.3,3.7h4.9
		c2.4,0,4.4-2,4.4-4.4C298.2,39.6,296.2,37.6,293.8,37.6z M293.8,45.7h-4.9c-2,0-3.7-1.6-3.7-3.7c0-2,1.6-3.7,3.7-3.7h4.9
		c2,0,3.7,1.6,3.7,3.7C297.4,44,295.8,45.7,293.8,45.7z"/>
	<path class="st12" d="M273.1,37.6h-4.9c-1.5,0-2.9,0.8-3.7,2c-0.4,0.7-0.7,1.5-0.7,2.4c0,2.4,2,4.4,4.4,4.4h4.9
		c1.7,0,3.1-1,3.9-2.4c0.3-0.6,0.5-1.3,0.5-2C277.4,39.6,275.5,37.6,273.1,37.6z M273.1,45.7h-4.9c-2,0-3.7-1.6-3.7-3.7
		c0-0.8,0.3-1.5,0.7-2.1c0.7-0.9,1.7-1.5,3-1.5h4.9c2,0,3.7,1.6,3.7,3.7c0,0.6-0.2,1.3-0.5,1.8C275.6,44.9,274.4,45.7,273.1,45.7z"
		/>
	<rect x="277.4" y="41.9" class="st12" width="7.7" height="0.7"/>
</g>
<path class="st13" d="M107.9,13.8c-2.8-0.1-5.9,0-8,1.8c-1,0.9-1.7,2.1-2.6,3.1c-3.1,3.1-8.7,2.8-11.4,6.2c-2.1,2.8-1.5,6.8-3.3,9.8
	c-1.7,2.9-5.3,4.1-7.6,6.5c-2.4,2.4-3.5,6.2-2.6,9.5c0.4,1.5,1.1,2.8,1.3,4.3c0.8,4.6-2.8,8.7-4.6,13c-1.1,2.6-1.4,6.1,0.8,7.9
	c0.8,0.7,1.9,1,2.6,1.8c1.1,1.2,1,2.9,1.4,4.4c0.9,3.5,4.8,5.8,8.3,5.1c0.9-0.2,1.7-0.5,2.6-0.6c2.2-0.1,4.1,1.5,5.4,3.2
	c1.4,1.7,2.6,3.6,4.6,4.6c3.5,1.8,8.2-0.2,11.5,2c0.9,0.7,1.7,1.6,2.9,1.8c0.9,0.1,1.8-0.3,2.6-0.4c3.4-0.5,6.3,2.7,9.8,3
	c2.6,0.2,5-1.5,7.6-1.3c3.2,0.1,6.4,2.8,9.1,1.3c1.2-0.7,1.9-2,3-2.9c1.4-1.3,3.2-1.9,5.1-2.1c3.2-0.3,6-2.4,7.2-5.4l0.5-1.3
	c0.3-0.7,0.6-1.4,1.2-1.8c0.6-0.4,1.4-0.5,2.1-0.8c2.9-1.4,2-6,4-8.5c1.3-1.6,3.8-2.3,4.2-4.3c0.4-1.5-0.8-3.1-0.5-4.7
	c0.2-1,0.8-1.7,1.3-2.6c2.2-3.8,0.9-8.8-1.9-12.1c-1.5-1.7-3.4-3.3-3.8-5.5c-0.1-0.9,0-1.8-0.4-2.6c-1-2.3-4.5-1.9-6.3-3.6
	c-2.5-2.3-0.8-6.8-2.6-9.7c-0.5-0.8-1.2-1.4-1.9-2.1c-0.8-0.9-1.4-1.9-1.7-3c-0.7-2.1-1.8-4-3.4-5.5c-0.1-0.1-0.2-0.2-0.2-0.2
	c-2-1.9-4-3.9-5.9-5.8c-1-1-2.1-2.1-3.4-2.7c-3.4-1.6-7.5-0.1-11.3-0.3c-1.5-0.1-2.9-0.4-4.4-0.1c-1.3,0.3-1.6,1.1-2.5,1.7
	c-1.2,0.7-0.8,0.5-2.4-0.1C112.2,14,110,13.9,107.9,13.8z"/>
<path class="st14" d="M27.8,102.5c0,0.2,0,0.5,0,0.7c0.1,1.7-0.2,3.4-0.6,4.7c-1.1,3.1-4.3,5.4-7.4,5.2h-0.1c-0.5,0-1.1-0.2-1.6-0.4
	c-0.8-0.3-1.5-0.8-2.1-1.4c-1.9-1.7-3.1-4.3-4.7-6.3c-3.4-4.4-9-7.2-10.7-12.5C-0.1,90.4,0,88.2,0,86.1c0-1.8,0.2-3.9,1.4-5.2
	c1.5-1.6,4.2-1.4,6.2-0.6c2.2,0.9,4.2,2.2,6,3.8c2.4,2.1,4.6,4.5,6.4,7.2c0.9,1.3,1.9,2.2,3,3.2c1.1,0.9,2.2,1.8,3,2.9
	C27.1,98.7,27.7,100.5,27.8,102.5z"/>
<path class="st15" d="M124.3,263.9h-3.8c0.3-5.6,0.5-11.2,0.6-16.8c0.2-12.5,0.1-25.3-1.1-37.8c1,9.9,2,19.7,2.9,29.6
	c0.5,5.3,1.1,10.6,1.3,15.9C124.4,257.9,124.4,260.9,124.3,263.9z"/>
<path class="st14" d="M29.2,86.4c0.5,2,1.1,3.9,1.6,5.9c0.6,2.3,1.3,4.6,1.6,7c0.1,0.7,0.2,1.3,0.2,2c0.1,2-0.1,4.1-0.7,6
	c-0.3,1-0.7,1.9-1.3,2.7c-1.3,2-4,5.6-6.5,5.8c-1.9,0.2-3.4-1.1-4.3-2.8v-0.1c-0.5-1-0.8-2.2-0.8-3.3c0-0.2,0-0.5,0-0.7
	c0.1-1.5,0.6-2.9,1-4.3c1.1-3.4,2.1-6.9,3.1-10.3l0,0c0.5-1.5,0.9-3,1-4.5c0.1-2.2-0.6-4.6,0-6.7c0.5-1.2,2.4-1.2,3.4-0.3
	C28.5,83.7,28.9,85.1,29.2,86.4z"/>
<path class="st14" d="M138.8,102.2c-2.8,7.4-10.3,21.5-10.3,21.5l-9.4,18.3l-8.1-17.6c0,0-6.8-14.6-9.1-22.3c-0.2-0.7-0.4-1.3-0.3-2
	c0.2-0.8,0.8-1.5,1.3-2.1c2-1.9,3.5-4.1,4.6-6.5c1.6-3.3,2.6-7,3.4-10.7c0.2-0.8,0.3-1.6,0.5-2.5c1.4-7.3,11-4.6,17.2-4.7
	c0.2,2.1,0.5,4.2,0.9,6.4c0.5,3,1.1,6,1.9,8.9c0.2,0.9,0.5,1.8,0.7,2.7C133.3,95.8,135,100.1,138.8,102.2z"/>
<path class="st16" d="M131.5,89c-0.5,1.3-1.2,2.5-1.9,3.7c-1.9,3-4.8,5.9-8.6,6c-2,0.1-4-0.7-5.9-1.4c-1.6-0.6-3.1-1.2-4.5-2.2
	s-2.3-2.2-3-3.7c1.6-3.3,2.6-7,3.4-10.7c0.6,0.2,1.1,0.4,1.8,0.5c5.6,1.2,11.5,0.7,16.9-1.2C130.1,83.1,130.7,86.1,131.5,89z"/>
<path class="st14" d="M102.7,76c2.4,5.7,8.8,11.2,14.9,12.4c4.5,0.9,9.1-1.1,12.5-4.1c3.3-3,5.6-7.1,7.5-11.1
	c2.7-5.6,5.1-11.5,6.2-17.7c1-6.2,0.7-12.7-1.8-18.5c-1.7-3.9-4.5-7.4-7.6-10.4c-3.4-3.2-7.5-6-12.1-6.3c-2.9-0.2-5.9,0.5-8.6,1.6
	C92.3,31,95.5,58.9,102.7,76z"/>
<path class="st17" d="M161.9,264H77.1v-1.3l1.6-85.1l0.1-5.1l0,0v-0.6l0.2-12.7l0.2-11.6l0,0v-2.4l0.2-12.9l0.1-6.9l6.1-7.1l3.9-4.5
	l0,0l1-1.2l0,0l1.4-1.6l0,0l8.9-10.4l0.5-0.6l1.2,1.7l0,0l0.7,0.9l0,0l14.7,20.8l16.4-17l0.1-0.2l0,0l1.1-1.1l1.2-1.3l0.7-0.7
	l0.8-0.8l0.2-0.2l10.3,12.6l0.3,3.5l0.8,8.8l0,0l2.7,31.9l1.8,20.8l0.1,1.7l0,0l2.3,26.3l1.6,19l2.6,29.9L161.9,264z"/>
<path class="st11" d="M102.3,103.5L102.3,103.5c0,0.4-0.1,0.9-0.1,1.4s-0.1,0.9-0.1,1.4l0,0c-0.3,3.4-0.5,6.8-0.8,10.2
	c-0.6,7.5-1.2,15-1.7,22.5c-0.5,7.2-1,14.3-1.4,21.5c-0.1,1.7-0.2,3.4-0.3,5.1l0,0l0,0c0,0.4,0,0.7-0.1,1.1c0,0.7-0.1,1.5-0.1,2.2
	l0,0c-1.1,20.3-1.8,40.6-1.6,60.9c0.1,11.4,0.5,22.9,1.2,34.3h-30c-1.6-28.8-0.6-57.7,2.8-86.3v-0.1c0-0.1,0-0.2,0-0.4
	c0.2-1.8,0.4-3.5,0.7-5.3c0.1-0.5,0.1-0.9,0.2-1.4l0,0c1.4-10.6,3.3-21.2,6.4-31.3l0,0c0.7-2.3,1.5-4.6,2.3-6.9l0,0
	c1.6-4.4,3.7-9.3,6.3-14c1.5-2.8,3.1-5.4,4.9-7.9l0,0c0.2-0.3,0.4-0.6,0.7-0.9l0,0c1.3-1.7,2.7-3.3,4.1-4.7l0,0l0,0
	c1.2-1.2,2.4-2.2,3.7-3.1c0.8-0.6,1.4-0.9,1.8-1c0.2,0,0.3-0.1,0.5,0l0,0C102.4,100.8,102.4,101.9,102.3,103.5z"/>
<path class="st11" d="M168.6,264h-31.5c1.2-11.1,2-22.3,2.2-33.5c0.2-10.4,0.1-20.7,0.6-31.1c0.4-8.8,1.4-17.5,1.6-26.3
	c0.1-3.3,0.1-6.7,0.1-10c0-0.5,0-1.1,0-1.6l0,0c0-1.3-0.1-2.7-0.1-4c0-0.1,0-0.2,0-0.2c0-0.5,0-1-0.1-1.5l0,0
	c-0.1-2.6-0.3-5.2-0.5-7.8c-0.1-0.8-0.1-1.5-0.2-2.3l0,0c-0.6-6.6-1.4-13.2-2.4-19.8c-0.5-3.7-1.1-7.3-1.7-11
	c-0.2-0.9-0.7-2.8-1.2-4.8l0,0c-0.2-0.9-0.4-1.8-0.6-2.6l0,0c-0.1-0.3-0.1-0.7-0.1-1c-0.1-1-0.1-1.9,0.1-2.4l0,0l0,0
	c0.2-0.4,0.6-0.6,0.9-0.6c0.4,0,0.8,0.1,1.4,0.4c0.2,0.1,0.5,0.3,0.8,0.5s0.6,0.5,0.9,0.7l0,0c0.7,0.6,1.4,1.3,2.1,2.1l0,0
	c2.7,2.9,5.8,7,8.5,11c0.6,0.8,1.2,1.7,1.7,2.5c2.7,4.1,4.8,7.6,5.4,8.8c1,2.3,2,4.6,2.8,6.9c0.4,1,0.7,2,1.1,3.1
	c2.9,8.8,4.5,18,5.6,27.2c0.2,1.4,0.3,2.7,0.4,4.1l0,0c0.2,1.6,0.3,3.2,0.4,4.9c0.2,2.3,0.3,4.7,0.5,7.1c0,0.4,0,0.8,0.1,1.3
	c0.5,10,0.6,20.1,0.7,30.1c0,1.4,0,2.7,0,4.1c0,0.3,0,0.6,0,0.9l0,0c0,2.8,0.1,5.5,0.1,8.3C168.3,239.6,168.5,251.8,168.6,264z"/>
<path class="st11" d="M80.4,110.2c-0.4,0.3-0.8,0.7-1.1,1.2c-0.4,0.7-0.5,1.6-0.5,2.4c-0.9,16.3-1.8,32.6-2.8,48.9
	c4.2-4.6,8.5-9.2,11.7-14.6c3.7-6.2,5.7-13.3,7.8-20.3c1.5-5.1,3-10.1,4.5-15.2c0.8-2.8,4.5-10.2,2.2-12.5
	c-2.5-2.5-8.3,0.9-10.7,2.2C87.4,104.4,83.8,107.3,80.4,110.2z"/>
<path class="st11" d="M90.8,112.6c-0.3,6.8-2.7,16.3-3.2,19.4c-1,6.7-2.1,13.4-3.2,20.1c0,0.3-0.1,0.5-0.1,0.8c-0.5,3-1,6-1.6,9
	c-0.5,2.7-1,5.4-2.3,7.7c-0.5,0.8-1,1.6-1.6,2.3l0,0c-0.8,1-1.8,1.8-2.8,2.6c-1.2,0.9-2.5,1.6-3.9,2.3c-0.3,0.1-0.5,0.3-0.8,0.4
	c-0.4,0.2-0.9,0.4-1.3,0.6l0,0c-0.9,0.4-1.7,0.7-2.6,1c-0.3,0.1-0.6,0.2-0.8,0.3c-1.5,0.6-3.1,1.1-4.7,1c-1.3-0.1-2.6-0.7-3.8-1.3
	c-0.5-0.2-1-0.5-1.5-0.7c-7.2-3.6-14-7.9-20.4-13c-8.2-18-13.5-37.5-18.1-57l3.6-2.7c11.7,10.6,23,21.8,33.9,33.4
	c0-0.1,0.1-0.2,0.1-0.2l0,0c0.1-0.1,0.1-0.3,0.2-0.4c0-0.1,0.1-0.1,0.1-0.2c3.6-6.6,8-12.7,13.1-18.1c0.4-0.5,0.9-0.9,1.3-1.4
	c1.5-1.6,5.2-5.6,9.1-8.8c2.3-1.9,4.6-3.5,6.6-4.1c0.1,0,0.3-0.1,0.4-0.1c0.9-0.2,1.8-0.2,2.5,0.1c1.2,0.6,1.7,2.4,1.8,4.8l0,0
	C90.8,111.1,90.8,111.8,90.8,112.6z"/>
<path class="st11" d="M72.2,176.8c-0.1,0.1-0.2,0.2-0.3,0.2c-0.2,0-0.3,0.1-0.5,0.1c-0.4,0.1-0.9,0.3-1.3,0.5
	c-0.9,0.3-1.8,0.7-2.6,1.2c-5.9,3-11.5,7.7-17.5,5.7c-0.2-0.1-0.4-0.1-0.6-0.2c-3-1.2-5.2-3.9-6.9-6.9l0,0c-0.4-0.7-0.8-1.5-1.2-2.2
	c-1.8-3.3-3.4-6.6-5-10c-8.2-18-13.5-37.5-18.1-57l3.6-2.7l3.1-2.3l0.1-0.1l9.4-7.1c0.3-0.1,0.7-0.2,1-0.3c0.1,0.1,0.2,0.3,0.3,0.6
	c0.5,1,1.4,2.8,2.6,5.2c4.2,8.4,11.6,23.5,16,32.7c0.2,0.7,0.5,1.4,0.8,2.1c0.1,0.1,0.1,0.3,0.2,0.4c0.2,0.5,0.5,1,0.7,1.6l0,0
	c0.2,0.5,0.9,1.8,1.8,3.6c1.1,2.1,2.5,4.9,4,8.1c3.3,6.8,7.1,15,9.1,20.6l0,0c0.5,1.4,0.9,2.6,1.1,3.6l0,0
	C72.3,175.4,72.4,176.4,72.2,176.8z"/>
<path class="st11" d="M182.6,264c0,0.2-13.3,0-13.3,0H156c-0.6-16.4-2.8-32.8-5-49.1c-0.8-6.2-1.7-12.4-2.5-18.5
	c-0.7-4.8-1.3-9.6-2-14.4c-0.8-5.7-1.6-11.5-2.4-17.2l0,0c-0.1-1-0.3-2-0.4-3c-0.2-1.8-0.5-3.5-0.7-5.3c0-0.1,0-0.1,0-0.2l0,0
	c-0.1-0.7-0.2-1.4-0.3-2.1c-0.4-3.3-0.9-6.5-1.3-9.8c0-0.1,0-0.1,0-0.2c-1.6-11.6-3.2-23.1-4.7-34.7c-0.1-0.6-0.2-1.1-0.3-1.7
	c-0.2-0.9-0.4-1.9-0.5-2.7c-0.1-0.6-0.1-1.2-0.1-1.7c0-1.1,0.3-1.9,1-2.4l0,0c0.1-0.1,0.2-0.1,0.4-0.2s0.4-0.1,0.7-0.2
	c0.6-0.1,1.2-0.1,2.1,0.1c3.6,0.6,7.9,4.2,10.8,6.4c2.6,2,5.1,4.2,7.3,6.6c2.3,2.4,4.3,5,6.2,7.8c1.8,2.8,3.4,5.7,4.8,8.8
	c0.1,0.3,0.2,0.6,0.4,0.8c1.2,2.9,2.2,5.8,3.1,8.8c0.4,1.3,0.7,2.7,1,4c0.6,2.6,1.1,5.3,1.6,8l0,0c0.1,0.3,0.1,0.7,0.2,1
	c0.3,1.9,0.6,3.8,0.8,5.7l0,0l0,0c0.1,0.6,0.2,1.2,0.2,1.8c0.1,0.6,0.2,1.2,0.2,1.9c0,0.2,0,0.3,0.1,0.5l0,0c0,0.2,0,0.4,0.1,0.6
	c0.1,0.7,0.2,1.3,0.2,2c0.5,4.4,1,8.7,1.5,13.1c0.1,0.8,0.2,1.6,0.2,2.4c0,0.2,0,0.4,0.1,0.6c0.2,1.6,0.3,3.3,0.5,4.9
	c0.1,1.3,0.2,2.6,0.4,4c0,0.2,0,0.5,0.1,0.7c0.4,4.8,0.8,9.6,1.1,14.4c0.1,1,0.1,2,0.2,3c0.1,1.5,0.2,2.9,0.3,4.4
	c0,0.6,0.1,1.3,0.1,1.9c0,0.6,0.1,1.3,0.1,1.9c0.1,2.7,0.3,5.5,0.4,8.2c0,0.7,0.1,1.5,0.1,2.2c0,0.5,0,1,0.1,1.5
	c0,0.6,0,1.2,0.1,1.8c0.1,3.6,0.2,7.2,0.3,10.8c0,1.7,0.1,3.4,0.1,5.1c0,0.6,0,1.1,0,1.7c0,0.7,0,1.5,0,2.2c0,1.7,0,3.4,0,5.1
	C182.6,258.4,182.6,261.2,182.6,264z"/>
<path class="st15" d="M77.3,264H67.2c-1.6-28.8-0.6-57.7,2.8-86.3v-0.1c0-0.1,0-0.2,0-0.4c0.5-0.7,1.2-1.7,2-3.1
	c0.6-1,1.2-2.2,1.8-3.6c0.2-0.4,0.3-0.7,0.5-1.1c0.9-2.2,1.7-4.7,2.2-7.5v-0.1c0,0,0,0,0,0.1c0,0.6-0.2,4-0.4,9.4l0,0
	c0,0.5,0,1-0.1,1.6l0,0c0,0.5,0,1.1-0.1,1.6l0,0C75.1,195,74,235.8,77,262.7C77.2,263.1,77.3,263.6,77.3,264z"/>
<path class="st15" d="M79.5,109.7c-9,9.3-16.4,20.2-21.7,32.2c0,0.1-0.1,0.2-0.1,0.3c-0.8-1.2-1.5-2.3-1.9-3.6
	c-0.2-0.6-0.4-1.3-0.5-2c0.2,0.5,0.5,1,0.7,1.6c3.6-6.7,8-12.9,13.2-18.4c0.4-0.5,0.9-0.9,1.3-1.4C72,116.9,75.7,112.9,79.5,109.7z"
	/>
<path class="st17" d="M103.2,101.9c0,0,8.5,10.7,16.5,10.7s15-8.4,15-8.4v18.7l-7.8,11.1l-11.8-1.4l-4.5-5.3L103.2,101.9z"/>
<path class="st15" d="M163.1,190c0.2,4.2,0.3,8.5,0.4,12.7C163.2,198.4,163.1,194.2,163.1,190z"/>
<path class="st15" d="M167.6,264h-6.7c0-2.4,0.1-4.8,0.3-7.2c0.3-3.7,0.8-7.2,1.1-10.5c0.4-6.1,0.8-12.3,1-18.4
	c0.3-8.4,0.4-16.8,0.2-25.2c0.4,8.3,1.2,16.7,2,25.1C166.6,240,167.6,252.1,167.6,264z"/>
<path class="st17" d="M107.1,105.9c0,0-4.3-4.6-5.2-6.6l-0.1,12l3.3,4.1l3.3,0.3L107.1,105.9z"/>
<path class="st17" d="M132.4,106.6c0,0,3.8-4.8,3.7-6.7l0.9,1l2.6,34.3l-5.8-1.4l-1.9-21.2L132.4,106.6z"/>
<path class="st17" d="M100.7,124c0,0-3.4,14.5-6.9,21.5c-3.6,7,2,19,3.6,33.3c1.5,14.3,5.8,15.9,5.8,15.9s9.1-0.9,9.7-2
	s4.8-12.3,4.8-12.3l5-18.1L100.7,124z"/>
<path class="st15" d="M126,187.8c-1.7,0-3.5-0.7-4.7-1.9c-0.8-0.8-1.3-1.7-1.8-2.7c-1.7-3.2-2.9-6.8-3.5-10.3
	c1.6,2.1,2.4,5.3,3.9,7.6C120.7,181.7,124.4,187.8,126,187.8z"/>
<path class="st11" d="M56.6,178.1c-1.3,4.5-3.4,7.3-6.7,6.3c-0.2-0.1-0.4-0.1-0.6-0.2c-2-0.9-4.4-3.4-6.9-6.9l0,0
	c-13.2-18.1-31.7-63.7-31.7-63.7l7.4-5.5l3.6-2.7l3.1-2.3l0.1-0.1l9.4-7.1l0.9-0.7c0,0,0.1,0.1,0.2,0.3c0.1,0.1,0.2,0.3,0.3,0.6
	c0.5,1,1.4,2.8,2.6,5.2c4.2,8.4,11.6,23.5,16,32.7c0.7,1.4,1.3,2.7,1.8,3.8c1.1,2.2,1.7,3.6,1.7,3.8l0,0
	C57.8,141.8,60,166.2,56.6,178.1z"/>
<path class="st9" d="M218.4,212.2c-0.7,1.3-2.3,2-3.8,2.5c-3.4,1.2-6.8,2.2-10.2,3.3c-4.2,1.3-8.4,2.6-12.6,3.9
	c-2.2,0.7-4.3,1.3-6.6,1.6c-2,0.2-4,0-6.1-0.2c-4.6-0.5-9.2-1.3-13.7-2.4c-2.3-0.6-4.8-1.3-6.4-2.8c-2.9-2.8-2.4-7.2-1.6-11
	c0.4-1.8,0.8-3.7,1.9-5.3c0.7-1,1.7-1.8,2.9-2.3l1.6,3.5c-0.1,0.4-0.1,0.8-0.2,1.2c-0.1,0.4-0.1,0.9,0.2,1.2
	c0.3,0.4,0.8,0.5,1.4,0.6c2.6,0.5,5.1,1.1,7.7,1.6c-1.9-1.9-3.3-4.2-3.9-6.7c-0.1-0.5-0.2-1.2,0.2-1.6c0.6-0.6,1.8-0.2,2.6,0.2
	c3.4,2,6.4,4.5,8.7,7.5c0.7,0.9,1.4,1.8,2.4,2.4c1.9,1,4.3,0.6,6.4,0c5-1.3,10-3,14.7-4.9c4-1.6,8.2-4.7,11.9-0.7
	c1.3,1.4,1.9,3.2,2.4,4.9C218.7,209.8,219,211.1,218.4,212.2z"/>
<path class="st7" d="M211.3,191.1c-2.4,1-4.8,1.9-7,3.2c-3.7,2.1-6.4,5.1-10.3,7c2.9,1.3,4.5,3.8,5.6,6.2c2.6,5.7,3.9,11.6,3.7,17.4
	c1.1,0.5,2.5,0.3,3.7,0.1c2.5-0.5,5-1,7-2.1c1.4-0.8,2.5-1.8,3.4-2.9c5.3-5.8,8.2-13,8.3-20.5c0.1-3.2,0.2-8.3-1.9-11.4
	c-1.5-2.1-3.3-0.7-5.4,0.1C216.1,189.2,213.7,190.2,211.3,191.1z"/>
<path class="st9" d="M74,111.1c-1.7,5.3-0.5,11.5,3.1,15.7c0.6,0.7,1.3,1.4,2.2,1.8c2.6,1.1,5.4-1,7-3.3c2.7-3.9,3.7-8.6,4-13.3
	c0.2-2.6,1.1-11.1-0.7-13C85.3,94.6,75.2,107.4,74,111.1z"/>
<polygon class="st18" points="163.9,202.9 163.9,198.8 162,199.5 159.7,203.3 159.7,204.5 "/>
<path class="st9" d="M168.3,197.9c1.8,0.3,3.4,1.4,4.7,2.7c1.5,1.5,3,3.4,2.8,5.5c-0.1,0.6-0.3,1.1-0.7,1.5
	c-0.5,0.6-1.3,0.8-2.1,0.9c-3.6,0.7-7.3,0.4-10.7-0.9c-0.3-0.1-0.6-0.2-0.8-0.5c-0.4-0.4-0.5-1-0.5-1.5
	C160.7,201.1,163.3,197.2,168.3,197.9z"/>
<path class="st13" d="M124.5,33.7c-3.1,1.7-6.7,2-10.1,2.8s-7,2.3-8.6,5.4c-2.4,4.6,0.5,10.8-2.4,15.1c-1.5,2.3-4.3,3.4-6.5,5.1
	c-2.2,1.6-4.1,4.6-2.9,7.1c-1.5-2.6-2.9-5.3-4.4-7.9c-3.2-5.8-6.4-12.7-3.5-18.6c1.6-3.2,4.7-5.3,7-7.9c3.2-3.5,5.2-8.2,9.2-10.9
	c2-1.3,4.3-2,6.6-2.7c3-0.9,6.1-1.7,9.1-2.5c4.8-1.2,10.3-0.8,11.4,5.1C130.2,27.5,127.7,31.9,124.5,33.7z"/>
<path class="st13" d="M127.1,38.9c2.5,2.3,5.7,3.7,8.3,6c5.1,4.4,7.7,11.9,6.4,18.8c3-3.1,4.2-7.7,4.2-12.1s-1.2-8.7-2.4-12.9
	c-1-3.3-2-6.7-4-9.4c-2.6-3.8-12.7-11.6-17.1-7.4C118.4,25.8,124.2,36.2,127.1,38.9z"/>
<path class="st11" d="M101.9,99.3c0,0-1-0.6-3.4-0.1c-2.3,0.5,1.4,3.3,1.4,3.3l1.1,1.8l0.8,0.6L101.9,99.3z"/>
<path class="st11" d="M138,113.8l-1.9-13.9c0,0,2.9,0.1,5.6,1.4c2.7,1.3,2.5,4.4,2.4,4.9C144.1,106.7,138,113.8,138,113.8z"/>
<path class="st0" d="M268.1,72.8c0,0-12.4,3.7-15.1,4.8c-2.7,1.1,5.5,3.7,5.5,3.7l3.8-3.4L268.1,72.8z"/>
</svg>
