<svg xmlns="http://www.w3.org/2000/svg" width="460" height="329" viewBox="0 0 460 329">
    <g fill="none" fill-rule="evenodd">
        <g>
            <g>
                <path fill="#4CBEA0" d="M402.253 79.762s8.287-3.035 15.606-1.138c7.318 1.896 2.708 6.96 2.708 6.96l-2.966 19.238.129 74.798-27.343.38-.387-78.216 12.253-22.022z" transform="translate(-250 -2136) translate(250 2136)"/>
                <path fill="#CA8342" d="M416 71.97c0 .066-.018.12-.018.192v.006c-.031.4-.062.796-.123 1.185-.006.041-.006.077-.012.12-.178 1.68-.527 3.332-1.042 4.96-.128.389-.281.808-.637 1.047-.373.258-.87.293-1.347.311-1.09.066-2.187.12-3.29.174-1.397.066-2.885.108-4.05-.539-.17-.095-.324-.203-.416-.347-.122-.245-.049-.514.03-.766.111-.323.203-.658.283-1.011v-.006c.477-1.825.82-3.806 2.015-5.044.76-.82 1.875-1.317 3.608-1.245 1.507.054 2.996.185 4.472.389.153.024.325.054.417.143.11.126.11.288.11.431" transform="translate(-250 -2136) translate(250 2136)"/>
                <path fill="#DDAF86" d="M416 73c-.029.39-.058.776-.116 1.155-.005.041-.005.076-.011.117-.96.735-2.207 1.23-3.38 1.668-1.167.42-2.345.852-3.506 1.267-.953.361-1.947.717-2.987.793.45-1.78.774-3.71 1.9-4.918.711.122 1.404.134 2.127.105 1.993-.064 3.98-.123 5.973-.187" transform="translate(-250 -2136) translate(250 2136)"/>
                <path fill="#CA8342" d="M402 61.194c.016 3.62.558 7.374 2.54 10.395.591.9 1.314 1.731 2.223 2.303.7.44 1.493.715 2.3.887 3.002.64 6.201-.154 8.797-1.798 2.595-1.644 4.624-4.083 6.154-6.756 2.504-4.378 3.742-9.667 2.496-14.56-.283-1.114-.706-2.22-1.455-3.09-.838-.974-2.019-1.576-3.197-2.08-3.157-1.352-6.534-2.18-9.955-2.44-1.003-.077-2.025-.104-3.004.13-2.565.61-5.583 3.538-6.447 6.054-.512 1.488-.173 3.46-.24 5.021-.083 1.978-.22 3.953-.212 5.934" transform="translate(-250 -2136) translate(250 2136)"/>
                <path fill="#004751" d="M399.029 44.73c-.24.9-.027 1.901.557 2.631-1.704.405-3.839 1.398-3.562 3.096.2 1.215 1.586 1.846 2.817 2.082 2.265.434 4.652.232 6.807-.574-.775.353-1.422.967-1.808 1.715 5.224 2.12 11.153.294 16.49-1.539l-3.458 2.566c1.721 1.66 4.76 1.081 6.667 2.533 1.793 1.365 1.195 4.534 1.154 6.76 4.24-3.014 5.04-7.54 5.293-11.47.12-1.86-.569-4.075-1.555-5.668-1.43-2.312-3.596-4.08-6.165-5.062-3.606-1.38-8.338-2.349-12.181-1.455-1.519.353-10.684 2.99-11.056 4.386" transform="translate(-250 -2136) translate(250 2136)"/>
                <path fill="#4CBEA0" d="M406.641 78.271s1.64 1.547 4.312 1.547C413.626 79.818 416 78 416 78s-1.16 7.366-1.133 7.453c.027.088-6.613 1.547-6.613 1.547l-1.7-3.357-.554-1.065.641-4.307z" transform="translate(-250 -2136) translate(250 2136)"/>
                <path fill="#90D7C4" d="M66.908 101.603c3.288 4.196 6.35 9.294 11.238 10.683 2.628.747 5.396.273 8.105.08 4.699-.334 9.447.201 13.985 1.575.46 2.67.715 5.38.764 8.096-5.337 1.427-10.81 2.249-16.3 2.45-2.202.08-5.857.858-8.007.332-2.39-.585-4.701-2.092-6.901-3.271-2.649-1.42-3.783-3.324-6.431-4.744-1.13-.606-2.276-1.224-3.216-2.139-1.034-1.007-1.769-2.326-2.446-3.648-1.57-3.061-8.064-15.865-4.788-17.576 4.428-2.312 11.57 5.066 13.997 8.162" transform="translate(-250 -2136) translate(250 2136)"/>
                <path fill="#A9D7AA" d="M6.748 274.657c-.408.951-.825 1.953-.736 2.987.18 2.089 2.252 3.386 4.088 4.343 5.025 2.62 10.185 5.284 15.793 5.963.44.054.896.093 1.32-.04.373-.119.698-.366.959-.663 1.016-1.155 1.023-2.958.42-4.382-.603-1.424-1.707-2.555-2.79-3.647-3.155-3.189-6.4-6.41-10.246-8.74-1.148-.694-4.401-2.962-5.743-2.385-1.3.559-2.522 5.302-3.065 6.564M51.107 279.09c-.116.966-.224 1.982.17 2.883.797 1.82 3.201 2.396 5.274 2.734 5.673.927 11.492 1.853 17.156.876.445-.076.9-.17 1.273-.409.329-.211.571-.525.737-.864.646-1.323.117-2.94-.894-4.045-1.011-1.104-2.423-1.806-3.802-2.479-4.022-1.963-8.14-3.932-12.579-4.93-1.325-.298-5.168-1.41-6.303-.514-1.1.869-.88 5.463-1.032 6.747" transform="translate(-250 -2136) translate(250 2136)"/>
                <path fill="#428E8B" d="M25.19 191.85c.84 3.827.801 15.511.514 19.42-.268 3.65-1.748 7.078-3.156 10.447-6.23 14.92-10.266 30.688-14.381 46.345-.133.505-.262 1.052-.068 1.536.225.56.812.863 1.354 1.114 4.48 2.069 9.093 3.837 13.802 5.288 4.722-11.113 9.444-30.46 14.166-41.572 3.143-7.399 6.318-14.904 7.453-22.878.556-3.912.612-7.876.666-11.828l.455-32.682c.027-1.963-.005-4.109-1.236-5.623-.928-1.143-2.367-1.699-3.739-2.207-3.347-1.24-6.835-2.5-10.382-2.15-6.967.687-7.316 5.238-7.134 10.741.271 8.202-.094 15.93 1.687 24.05" transform="translate(-250 -2136) translate(250 2136)"/>
                <path fill="#428E8B" d="M50.712 192.913c1.768 3.483 4.215 15.014 4.913 18.866.651 3.596.073 7.289-.45 10.906-2.313 16.017-2.876 33.93-3.99 48.515-.04.52.01 1.085.318 1.502.358.484 1.002.625 1.59.729 4.854.85 9.764 1.374 14.687 1.569 1.8-11.95 3.6-32.127 5.402-44.078 1.198-7.956 2.4-16.025 1.51-24.023-.438-3.922-1.372-7.768-2.305-11.6l-7.716-31.702c-.463-1.904-1.03-3.969-2.6-5.117-1.185-.866-2.717-1.034-4.172-1.173-3.552-.34-7.244-.663-10.592.586-6.577 2.452-5.779 6.94-4.23 12.21 2.31 7.858 3.884 15.42 7.635 22.81" transform="translate(-250 -2136) translate(250 2136)"/>
                <path fill="#006662" d="M27.068 64.392c-.99 6.234 1.225 12.853-.806 18.824-1.475 4.336-4.998 7.643-8.762 10.195-3.063 2.076-6.622 4.088-7.782 7.628-1.046 3.194.212 6.66.118 10.023-.078 2.747-1.1 5.458-2.85 7.558-2.337 2.803-6.033 4.769-6.841 8.343-.76 3.359 1.578 6.818 4.612 8.382 3.034 1.565 6.584 1.65 9.988 1.553 3.404-.097 6.888-.335 10.144.675 2.896.898 5.676 2.78 8.678 2.37 2.316-.318 4.28-2.012 5.462-4.051 1.184-2.04 1.693-4.401 2.066-6.736.343-2.153.625-4.426 1.9-6.185 1.097-1.514 2.79-2.444 4.242-3.614 3.615-2.91 5.802-7.553 5.759-12.227-.024-2.585-.688-5.13-.73-7.714-.04-2.585.705-5.41 2.809-6.877.506-.353 1.08-.62 1.517-1.058.85-.857 1.004-2.175 1.066-3.387.11-2.142.084-4.294.325-6.426.335-2.965 1.182-5.846 1.646-8.793.994-6.314.071-13.183-3.761-18.265-1.754-2.331-5.002-3.294-7.69-3.937-6.301-1.508-12.031-.675-16.636 4.477-2.304 2.577-3.927 5.8-4.474 9.242" transform="translate(-250 -2136) translate(250 2136)"/>
                <path fill="#FEDFBC" d="M49 82v9.62c0 1.864-1.624 3.38-3.62 3.38h-1.743C41.624 95 40 93.484 40 91.62V82h9z" transform="translate(-250 -2136) translate(250 2136)"/>
                <path fill="#FEDFBC" d="M49 87.177V92c-2.893-.837-5.786-1.859-8.256-3.584-.254-.184-.507-.368-.744-.586V85c.778.335 1.929 1.088 2.352 1.239 2.131.72 4.415.87 6.648.938" transform="translate(-250 -2136) translate(250 2136)"/>
                <path fill="#FEDFBC" d="M33 97.054L41.25 91.304 48.59 91 55.8 103.409 57 112.033 47.1 114z" transform="translate(-250 -2136) translate(250 2136)"/>
                <path fill="#4CBEA0" d="M440 205.531s-48.876 15.979-58.795 6.422L381 186.345l17.183-16.562L422.59 168 440 205.531zM378.33 321.083c-1.133.883-2.37 1.987-2.329 3.414.056 1.905 2.288 2.924 4.186 3.227 6.483 1.035 13.016-1.03 19.251-3.07 1.158-.378 2.378-.797 3.165-1.722.758-.892.984-2.106 1.126-3.264.25-2.048.328-4.117.23-6.177-.017-.362-.046-.742-.247-1.045-2.002-3.011-10.117-3.023-12.895-1.224-4.35 2.815-8.396 6.666-12.488 9.86M436.965 323.265c-.669 1.3-1.342 2.85-.716 4.17.836 1.762 3.292 1.786 5.147 1.28 6.338-1.73 11.443-6.387 16.289-10.895.9-.838 1.84-1.738 2.175-2.932.324-1.152.03-2.383-.319-3.528-.615-2.024-1.398-3.995-2.337-5.886-.165-.331-.347-.676-.655-.875-3.067-1.99-10.472 1.38-12.264 4.223-2.804 4.45-4.906 9.745-7.32 14.443" transform="translate(-250 -2136) translate(250 2136)"/>
                <path fill="#428E8B" d="M412.665 234.201c.758 4.704 1.523 9.433 3.037 13.942 1.307 3.892 3.153 7.566 4.994 11.225 7.94 15.782 15.202 31.549 23.141 47.331.287.569.558 1.954 1.105 2.263.525.295 9.546-1.198 13.058-1.713-5.101-16.73-10.21-33.486-16.712-49.699-1.469-3.66-3.012-7.307-3.99-11.136-1.06-4.159-1.436-8.466-1.763-12.752-.76-9.967-1.277-19.954-1.55-29.948-.204-7.466-.28-15.006-1.97-22.272-.514-2.208-1.216-4.458-2.705-6.14-1.176-1.329-2.757-2.204-4.351-2.944-3.32-1.541-6.946-2.625-10.577-2.3-4.254.38-8.954 3.033-9.304 7.58-.46 6.001 1.228 12.966 1.974 18.93 1.573 12.588 3.594 25.113 5.613 37.633" transform="translate(-250 -2136) translate(250 2136)"/>
                <path fill="#428E8B" d="M389.326 313.238c4.197.184 10.195.578 14.392.762l3.33-67.555c.507-10.298 1.015-20.602.946-30.912-.044-6.452-.314-12.9-.583-19.346l-1.176-28.127c-.023-.534-.063-1.116-.412-1.514-.406-.464-1.085-.522-1.694-.535-4.932-.109-9.878.598-14.597 2.062-5.292 1.64-6.832 2.204-7.124 7.724-.584 11.048-.512 22.106.03 33.155 1.09 22.287 2.482 44.622 4.643 66.814 1.227 12.595 1.888 24.817 2.245 37.472" transform="translate(-250 -2136) translate(250 2136)"/>
                <path fill="#E5F3E6" d="M395.629 81.024c-9.576 5.703-18.594 12.699-29.165 16.146-10.216 3.332-21.216 3.123-31.694 5.468-.476.107-.98.235-1.313.596-.353.384-.434.946-.452 1.47-.123 3.612 2.175 7.182 5.483 8.519 2.035.822 4.291.837 6.479.731 9-.435 17.803-2.71 26.533-4.973l13.97-3.622c1.889-.49 3.804-.99 5.5-1.966 2.719-1.565 4.646-4.217 6.34-6.884 2.528-3.984 4.814-8.391 5.552-13.124.97-6.227-3.371-4.661-7.233-2.361" transform="translate(-250 -2136) translate(250 2136)"/>
                <path fill="#4CBEA0" d="M212.996 175.525h45.313s9.212-4.81 1.992-12.15c-7.22-7.34-6.972-30.375 11.452-30.375s22.408 17.719 12.947 32.4c0 0-3.486 9.113 5.975 9.113H333V295H212s1.494-118.969.996-119.475" transform="translate(-250 -2136) translate(250 2136)"/>
                <path fill="#006662" d="M212.291 294.578L91 295l.501-121 43.635 1.012s10.532-.506 1.505 16.201c-9.028 16.708 7.021 23.795 14.544 24.808 7.524 1.012 25.078-5.57 18.056-24.302-7.021-18.732.502-16.707.502-16.707h43.133l-.128 43.743s4.14 7.898 10.159 3.341C228.926 217.54 253 209.44 253 236.778c0 27.34-32.601 12.15-32.601 12.15s-6.79-4.253-7.523 4.558c-.798 9.584-.585 41.092-.585 41.092" transform="translate(-250 -2136) translate(250 2136)"/>
                <path fill="#FDBF7A" d="M92.112 170.32L79 48.129 197.015 34l5.244 45.822s-1.498 4.964-8.991 2.673c-7.493-2.292-33.719-5.728-28.1 19.856 5.621 25.583 28.85 10.692 30.722 9.546 1.874-1.146 10.116-6.11 11.989 2.673L212 155.81l-41.21 5.727s-7.87.764-3.373 9.928c4.496 9.165 11.614 26.348-7.868 32.457-19.482 6.11-24.352-15.273-19.107-25.966 5.245-10.691-4.12-12.6-4.12-12.6l-44.21 4.964z" transform="translate(-250 -2136) translate(250 2136)"/>
                <path fill="#A9D7AA" d="M272.283 0L386 39.51 347.344 155l-43.16-15.956s-3.753-6.079 1.876-9.498c5.63-3.419 22.519-28.492-2.627-34.57-25.145-6.08-26.271 16.335-23.268 23.933 3.001 7.598-6.006 11.397-12.01 8.358-6.005-3.04-35.279-13.297-35.279-13.297l14.262-36.85s2.627-9.498-4.88-10.638c-7.505-1.14-30.024 7.22-28.147-17.854 1.876-25.074 24.02-17.096 27.397-13.677 3.378 3.419 12.385 14.816 16.889 4.559C262.9 29.252 272.283 0 272.283 0" transform="translate(-250 -2136) translate(250 2136)"/>
                <path fill="#CA8342" d="M361.537 105.294c-1.515-2.385-4.128-3.774-6.624-5.059-.986-.507-1.993-1.022-3.087-1.184-1.874-.278-3.87.603-4.945 2.184-1.075 1.58-1.176 3.783-.25 5.458 1.01 1.832 2.988 2.854 4.854 3.77 2.177 1.07 4.724 2.151 6.919 1.123 2.364-1.108 3.118-4.077 3.596-6.67" transform="translate(-250 -2136) translate(250 2136)"/>
                <path fill="#E5F3E6" d="M439 205c-2.926-5.096-10.01-4.908-15.784-5.545-3.344-.37-6.64-1.238-9.746-2.566-1.26-.54-2.538-1.195-3.38-2.293-.747-.99-1.075-2.233-1.338-3.452-.848-3.847-1.296-7.754-1.529-11.685-.299-5.01-.233-10.07-.167-15.094.113-8.693.233-17.387.597-26.074.012-.322.03-.643.042-.965.484-10.938 1.355-21.888 3.123-32.7.633-3.894 1.38-7.765 2.27-11.611.901-3.913 1.534-11.272 5.201-14.038.502-.376 1.063-.668 1.684-.856.155-.048.317-.085.472-.121h.006c2.508.352 5.476 1.17 8.05 2.954v.007c1.69 1.164 3.207 2.754 4.33 4.901.048.091.095.188.137.286 2.473 5.338 2.3 11.496 2.144 17.393-.896 33.858.4 67.777 3.888 101.459" transform="translate(-250 -2136) translate(250 2136)"/>
                <path fill="#E5F3E6" d="M429.856 85.42c-.442 3.107-1.768 6.125-1.768 6.125l-8.56.882-.697.072L414 93l1.756-14.857.006-.048s.018 0 .054-.006c.388-.041 2.706-.244 5.643.15h.006c2.543.345 5.551 1.15 8.16 2.904v.006c.455 1.217.449 2.75.23 4.27M405 78.005c-.386.783-11.329 74.414-9.092 111.963.262 4.41-2.013 8.61-5.913 10.576-4.95 2.495-10.762 6.41-10.157 10.824 1.036 7.568-5.596-54.45 1.45-100.701 0 0 2.487-23.335 9.948-28.171 7.461-4.835 13.764-4.49 13.764-4.49" transform="translate(-250 -2136) translate(250 2136)"/>
                <path fill="#009D88" d="M401.6 130.652c1.469.429 3.019.86 4.5.481 1.505-.385 2.69-1.542 3.798-2.655l8.228-8.254c3.902-3.914 7.91-7.904 12.874-10.224-2.17 8.406-4.927 16.652-8.242 24.655-.694 1.676-1.432 3.373-2.62 4.725-2.187 2.487-5.554 3.447-8.77 4.005-3.9.676-7.928.929-11.792.06-6.203-1.394-11.487-5.56-15.908-10.24-1.512-1.6-3.257-3.653-3.598-5.943-.551-3.71 2.262-2.237 4.572-1.563l16.958 4.953" transform="translate(-250 -2136) translate(250 2136)"/>
                <path fill="#E5F3E6" d="M423.559 87.855c-2.334 1.703-3.947 4.203-5.506 6.645l-11.626 18.212c-.6.941-1.229 1.911-2.16 2.52-2.262 1.479-5.235.313-7.688-.814-11.91-5.474-24.469-9.516-37.324-12.011-2.098 3.512-3.548 7.414-4.255 11.45 13.93 9.337 29.03 16.9 44.829 22.45 3.193 1.123 6.603 2.175 9.909 1.459 2.934-.636 5.403-2.589 7.595-4.652 8.716-8.205 14.852-19.148 17.328-30.903 1.42-6.741-1.5-21.362-11.102-14.356" transform="translate(-250 -2136) translate(250 2136)"/>
                <path fill="#FEDFBC" d="M104.444 123.84c2.305-.978 5.24-1.36 7.11.295 1.638 1.45 1.817 4.059.876 6.024-.942 1.966-2.775 3.374-4.702 4.417-1.954 1.058-4.07 1.819-6.255 2.249-1.443.284-3.161.338-4.141-.75-4.387-4.874 3.135-10.548 7.112-12.235M31.037 69.771c.236 4.208 1.738 8.335 4.26 11.71 2.462 3.293 6.34 5.984 10.414 5.452 3.415-.446 6.228-3.104 7.755-6.196 1.527-3.092 1.975-6.591 2.322-10.024.228-2.254.414-4.577-.232-6.749-1.023-3.441-4.038-6.002-7.354-7.369-3.129-1.288-8.802-.321-12.146 1.34-4.493 2.233-5.252 7.676-5.019 11.836" transform="translate(-250 -2136) translate(250 2136)"/>
                <path fill="#90D7C4" d="M76 171.28s-15.887 7.654-26.225 10.215C39.435 184.041 18 176.132 18 176.132s10.338-71.763 10.591-76.358c.253-4.611 12.224-8.378 12.224-8.378l13.022 17.329L49.268 91s7.573.08 10.592 3.923c1.612 2.033 6.07 23.504 9.896 43.15.664 3.442 1.327 6.837 1.928 10.055C74.166 161.08 76 171.28 76 171.28" transform="translate(-250 -2136) translate(250 2136)"/>
                <path fill="#FFF" d="M44 96.628L49.522 95 53 109z" transform="translate(-250 -2136) translate(250 2136)"/>
                <path fill="#006662" d="M40.491 59.6c-1.22 2.958-.835 6.32-.394 9.499.441 3.178.902 6.513-.187 9.524-1.453 4.022-5.43 6.75-6.58 10.873-.394 1.408-.75 3.26-2.164 3.484-1.366.217-2.301-1.387-2.592-2.768-.278-1.323-.35-2.69-.213-4.035.175-1.699.68-3.358.728-5.065.043-1.584-.31-3.147-.568-4.71-.623-3.784-.688-7.663-.19-11.468.355-2.72 1.02-5.457 2.46-7.773 3.238-5.205 10.179-7.31 15.96-5.551 2.665.812 3.239 3.521.202 3.702-2.866.171-5.274 1.407-6.462 4.288" transform="translate(-250 -2136) translate(250 2136)"/>
                <path fill="#006662" d="M45.801 62.232c-1.129.376-2.019 1.25-2.716 2.203-.738 1.009-1.309 2.137-1.682 3.324-.655 2.083-.695 4.298-.78 6.478-.085 2.178-.23 4.404-1.074 6.42-.844 2.017-2.514 3.82-4.679 4.281-.288.062-.595.098-.876.007-.521-.17-.802-.716-.986-1.225-.6-1.657-.753-3.435-.852-5.192-.179-3.145-.204-6.299-.075-9.447.094-2.321.276-4.658.925-6.891.65-2.234 1.8-4.376 3.578-5.902 2.544-2.185 6.317-2.883 9.492-1.755 1 .355 1.962.896 2.617 1.721.478.603.77 1.33.959 2.073.227.897.758 3.481-.226 4.091-.84.52-2.53-.551-3.625-.186" transform="translate(-250 -2136) translate(250 2136)"/>
                <path fill="#006662" d="M49.847 59.45c1.848.547 3.913.79 5.327 2.051.986.878 1.503 2.134 1.835 3.381.787 2.962.69 6.064.59 9.118.453-.274.619-.82.736-1.321.947-4.035 1.007-8.373-.641-12.196-1.335-3.095-4.866-7.317-8.737-7.48-1.715-.073-3.13 1.432-2.94 3.084.205 1.79 2.212 2.884 3.83 3.363" transform="translate(-250 -2136) translate(250 2136)"/>
                <path fill="#006662" d="M55.992 61.368c-.104 1.004-.862 1.846-1.755 2.306-.894.46-1.912.6-2.91.7-1.532.157-3.08.241-4.57.624-1.492.383-2.95 1.098-3.923 2.299-2.056 2.54-1.401 6.397-2.971 9.267-.139.253-.408.533-.664.403-1.077-4.798-1.68-9.807-.715-14.63.179-.897.425-1.811.978-2.54.647-.85 1.645-1.355 2.645-1.72 1.777-.649 3.664-.948 5.55-1.05 1.743-.093 3.613.02 5.2.817 1.199.602 3.293 2 3.135 3.524" transform="translate(-250 -2136) translate(250 2136)"/>
                <path fill="#009D88" d="M71 148.604c-6.429 2.211-13.368 2.915-20.1 2.015-2.202-.295-4.419-.77-6.317-1.95-3.574-2.26-5.312-6.681-5.982-10.956-1.245-8.057-.112-16.574-.463-24.713 1.213.655 2.09 2.751 2.871 3.914 1.101 1.605 2.234 3.16 3.478 4.65 6.509 7.731 15.299 12.71 24.567 16.755.67 3.521 1.34 6.993 1.946 10.285" transform="translate(-250 -2136) translate(250 2136)"/>
                <path fill="#90D7C4" d="M36.597 108.582c-1.66.938-2.56 2.936-2.596 4.87-.036 1.935.673 3.81 1.595 5.502 3.23 5.926 8.93 9.944 14.433 13.748l8.243 5.7c2.422 1.673 4.907 3.377 7.74 4.122 2.913.767 5.985.465 8.97.082 9.74-1.25 19.36-3.3 28.968-5.359.254-4.908-.462-9.867-2.093-14.493l-26.567 5.409c-1.114.227-2.27.453-3.377.19-1.23-.291-2.245-1.15-3.221-1.966-5.257-4.398-10.857-8.37-16.73-11.864-3.678-2.19-10.937-8.445-15.365-5.941" transform="translate(-250 -2136) translate(250 2136)"/>
            </g>
        </g>
    </g>
</svg>
