<?xml version="1.0" encoding="utf-8"?>
<!-- Generator: Adobe Illustrator 25.0.0, SVG Export Plug-In . SVG Version: 6.00 Build 0)  -->
<svg version="1.1" id="Layer_1" xmlns="http://www.w3.org/2000/svg" xmlns:xlink="http://www.w3.org/1999/xlink" x="0px" y="0px"
	 viewBox="0 0 400 433.7" style="enable-background:new 0 0 400 433.7;" xml:space="preserve">
<style type="text/css">
	.st0{fill:#009D88;}
	.st1{opacity:0.53;fill:#247B78;enable-background:new    ;}
	.st2{fill:#A9D7AA;}
	.st3{fill:#FEDFBD;}
	.st4{fill:#457980;}
	.st5{opacity:0.25;fill:#006662;enable-background:new    ;}
	.st6{fill:#E5F3E6;}
	.st7{fill:#EAC8A7;}
	.st8{fill:#FFFFFF;}
	.st9{fill:#004751;}
	.st10{fill:#006662;}
	.st11{fill:#FEECD7;}
	.st12{fill:#338481;}
	.st13{fill:#4CBEA0;}
	.st14{fill:#E0C5AA;}
	.st15{opacity:0.13;fill:#006662;enable-background:new    ;}
</style>
<path class="st0" d="M119.8,425.6c0,1.6-0.5,3.2-1.5,4.7c-1.6,2.3-4.3,3.5-7.1,3.3h-29H72l0,0h-1.4v-25H94l11.2,6.3l9.1,2.9
	C117.7,419.1,119.8,422.3,119.8,425.6z"/>
<path class="st1" d="M90.2,425.6c0,1.6-0.5,3.3-1.5,4.7c-1.5,2.1-3.9,3.3-6.5,3.3H82c-0.1,0-0.3,0-0.4,0h-11H41v-25h13.2l11.2,6.3
	l5.2,1.6V412l5,2.8l9.1,2.9C88.1,419.1,90.2,422.3,90.2,425.6z"/>
<path class="st0" d="M80,425.6c0,1.6-0.5,3.3-1.5,4.7c-1.5,2.1-3.8,3.3-6.4,3.3c-0.1,0-0.1,0-0.2,0l0,0c-0.1,0-0.3,0-0.4,0h-1H40.9
	H30.8v-25h23.4l11.2,6.3l5.2,1.6l3.9,1.3C78,419.1,80,422.3,80,425.6z"/>
<path class="st2" d="M13.4,317.5c0,0,74.8,2.7,97.3-6L98,234.8l-42.7-3.4l-24.6,3.8L13.4,317.5z"/>
<path class="st3" d="M75.4,75.3c-8.9,5.4-21.5,5.3-30.2-0.4c4.2-2.3,6.8-6.9,7.7-11.5c0.1-0.4,0.2-0.9,0.2-1.3
	c0.2-1.1,0.3-2.1,0.3-3.2c0-1.1,0.1-2.2,0-3.3c0-0.4,0-0.8-0.1-1.2c-0.1-1.8-0.3-3.5-0.5-5.3c0,0,0.1,0.1,0.1,0.2
	c3.9,5,9.3,9.5,15.1,11.9c0.1,0.9,0.2,1.8,0.3,2.7c0.2,1,0.4,1.9,0.7,2.9l0,0c0.5,1.5,1.1,3,1.9,4.3C72.2,72.8,73.5,74.5,75.4,75.3z
	"/>
<path class="st2" d="M151.3,105.8c0,0,19.8,14,15.2,19.6s-14.7-2-14.7-2l-2.7-7.8L151.3,105.8z"/>
<path class="st3" d="M146.5,111.6l14.4-15c0,0,2.8-7.2,7.5-9.4c3.6-1.7,7.4-3.3,11.2-2.9c1.7,0.2,1.6,1.5,0.5,2.5
	c-1.2,1-2.7,1.6-4.2,1.9c-1.3,0.2-3,0.4-3.1,1.9s8.1-0.1,16.2-1.2c3.6-0.5,6.4,3.7,4.4,7c0,0-0.9,0.9-0.9,1c-2.5,4-9.3,5.3-20.2,8.3
	c-5.5,1.5-18.5,21.3-18.5,21.3s-11.9,3.4-11.6-4.5S146.5,111.6,146.5,111.6z"/>
<polygon class="st4" points="65.3,195.2 65.8,213.5 60.1,213.2 61,195.2 25.5,186.3 30.9,409 55.6,410.2 58.9,239 66.5,239.3 
	70.5,409.5 93.9,409 100.1,186.3 "/>
<polygon class="st0" points="81.5,76.5 81.5,220.4 38.1,218.7 29.3,81.4 46.8,73.7 46.9,73.7 56.8,73.5 59.5,75.1 63.6,75.2 
	73.7,73.3 73.7,73.3 "/>
<path class="st5" d="M51.1,75.3L51,301c0,5.8-4.7,10.5-10.5,10.5h-4.2l2.8-234.1c3.7-1.3,6.8-3.5,7.5-3.7l0.5-0.2L51.1,75.3z"/>
<path class="st6" d="M75.2,304.9c0.1,0.5,0.1,0.8,0.2,0.9c2.5,5,35.3,5.7,35.3,5.7l-4.3-144.4l-0.4,5.8c3.4,3.2,12,2.8,14.8-0.9
	l45.6-46.5c-9.3,2-15.2-19.6-15.2-19.6L118,139.5l-1.8-6.6c0,0-6.1-41.8-9.7-46.8c-2.3-3.2-17.7-7.3-25-9.9
	c-3.7-1.3-6.6-2.2-7.3-2.4c-0.1,0-0.2,0-0.2,0s0,0,0,0.1C73.9,80.1,73,288.2,75.2,304.9z"/>
<path class="st6" d="M13.4,191v126.5l4.1-2.4v0.1l20.3-8.4c4.2-2.5,6.8-3.4,7-15L47,73.3l-0.9,0.4l-1.4,0.7l0,0L19.9,83
	c-3.2,1.4-5.4,4.4-5.9,7.8l-6.9,49.9C-6.2,169.6,3.3,184.3,13.4,191z"/>
<g>
	<path class="st0" d="M97.5,130.9l4.2-4.8V126c0-11.9-11.5-22.9-13-24.2c-3.4-29.3-18-30.1-18.6-30.2v0.9c0.1,0,14.5,0.9,17.7,29.5
		v0.2l0.1,0.1c0.1,0.1,12.7,11.5,12.8,23.5l-4,4.5L97.5,130.9z"/>
	<path class="st0" d="M84.1,130.9l0.7-0.6l-3.8-4.5c0.1-11,7.7-23.4,7.7-23.6l-0.8-0.5c-0.1,0.1-7.9,12.9-7.9,24.2v0.2L84.1,130.9z"
		/>
	<circle class="st0" cx="96.3" cy="131.3" r="2"/>
	<circle class="st0" cx="84.5" cy="131.3" r="2"/>
</g>
<g>
	<path class="st0" d="M37.2,131.9l1-0.4c-12.5-27.8,5.3-54.3,7.3-57.1l-1.8,0.9l0,0C39.3,81.9,25.7,106.4,37.2,131.9z"/>
	<circle class="st0" cx="38.6" cy="133.4" r="3.5"/>
</g>
<path class="st7" d="M68.6,63.9c-1.6,1.1-3.4,1.8-5.4,1.9c-3.7,0.3-7.1-1.3-10-3.7c0.2-1.1,0.3-2.1,0.3-3.2c0-1.1,0.1-2.2,0-3.3
	c0-0.4,0-0.8-0.1-1.2c-0.1-1.8-0.3-3.5-0.5-5.3c0,0,0.1,0.1,0.1,0.2c3.9,5,9.3,9.5,15.1,11.9C68.3,62.1,68.4,63,68.6,63.9z"/>
<polygon class="st8" points="74,73.8 61.5,80.3 46.8,73.7 46.9,73.4 50.2,69.9 61.3,74.9 70.5,69.8 "/>
<path class="st6" d="M19.9,83c0,0-7.8-0.4-11.1,24.2s-23.3,65.2,11.1,104.6l14.8,3.3L19.9,83z"/>
<path class="st3" d="M81.5,21.5c0.7,9.4,0.5,19.1-2.6,28c-2.1,6.3-6.7,12.8-13.3,13.3c-5.4,0.5-10.3-3.3-13.8-7.5
	c-9.2-11-12.4-26.7-8.3-40.4c0.4-1.4,0.9-2.7,1.8-3.8c1.3-1.5,3.2-2.2,5.1-2.8C63.1,4.7,80.3,5.5,81.5,21.5z"/>
<path class="st9" d="M40.7,10.9c-0.8,1.2-9.7,18.8,4.1,32.6c0,0,1.8-20,10.7-26.2C62.2,12.7,46,3.1,40.7,10.9z"/>
<polygon class="st2" points="12.7,164.8 13.7,133.9 12.7,215.8 12.7,205.8 "/>
<path class="st10" d="M311.3,407.7l-12.6,13.1c-1.2,0.8-1.5,2.5-0.7,3.7l0,0c1.4,2,4.1,2.8,6.3,1.8l12.1-8.3v5.2
	c0,0.5,0.4,0.8,0.8,0.8l7.1-0.2c0.4,0,0.7-0.3,0.8-0.7l1.2-15.2h-15V407.7z"/>
<path class="st10" d="M342.7,407.7l-12.6,13.1c-1.2,0.8-1.5,2.5-0.7,3.7l0,0c1.4,2,4.1,2.8,6.3,1.8l12.1-8.3v5.2
	c0,0.5,0.4,0.8,0.8,0.8l7.1-0.2c0.4,0,0.7-0.3,0.8-0.7l1.2-15.2h-15V407.7z"/>
<path class="st2" d="M293.8,309.5c0,0,21.6,13.3,84.1,4.3l-12.1-55.3l-9.6-12.3l-22.3-3.6h-33.3L293.8,309.5z"/>
<path class="st10" d="M364,115.7c-1,3.6-4,6.5-7.4,7.8c-3.5,1.4-7.4,1.4-11,0.5c-5.9-1.4-11.3-5-17.3-4.8c-4.3,0.1-8.4,2.1-12.5,3.2
	c-4.2,1.1-9.3,0.9-12.1-2.4c-2.6-3.1-2.2-7.7-3.3-11.6c-0.4-1.2-0.9-2.4-1.4-3.5c-1.5-3-3.3-5.7-3.8-9c-1.2-7.7,5.3-14.3,7.2-21.8
	c1.1-4.4,0.6-8.9,0.6-13.4c-0.1-6.2,0.7-12.5,2.3-18.5c1.1-4.1,2.6-8.2,4.8-11.8l0,0l0,0c0.6-1,1.2-1.9,1.9-2.8
	c9.3-12.2,26-10.1,38.1-3.1c3.5,2,6.7,4.6,8.5,8.2c2.3,4.6,1.9,10,0.7,15c-1.1,5-2.9,9.8-3.2,14.9c-0.3,4.9,0.9,9.8,3.2,14.1
	c1,1.9,2.4,3.7,2.9,5.8c0.7,2.8-0.2,5.7-0.5,8.5c-0.4,3-0.3,6,0.3,9C362.9,105.3,365.4,110.6,364,115.7z"/>
<path class="st2" d="M246.1,125.7c0,0-19.6,13.9-15,19.4s14.5-1.9,14.5-1.9l2.6-7.7L246.1,125.7z"/>
<path class="st11" d="M249.5,129.4l-11.3-11c0,0-2.2-5.3-5.9-6.9c-2.8-1.2-5.8-2.4-8.8-2.2c-1.3,0.1-1.3,1.1-0.4,1.8
	c0.9,0.8,2.1,1.2,3.3,1.4c1,0.2,2.3,0.3,2.5,1.4c0.1,1.1-10.4-0.1-16.7-0.9c-2.8-0.4-5,2.7-3.4,5.1c0,0,0,0.1,0.1,0.1
	c2,3,12,4.5,20.6,6.8c4.3,1.1,14.4,15.7,14.4,15.7s9.3,2.5,9.1-3.3C252.5,131.4,249.5,129.4,249.5,129.4z"/>
<polygon class="st12" points="338,214.3 338.8,234.8 332.2,234.5 333.7,214.3 307.3,205.7 311.3,408.7 326.4,408.8 331.9,246.2 
	339,246.5 342.1,409 358.1,408.7 365.8,205.7 "/>
<polygon class="st13" points="319.6,93.9 302.3,102.3 310.9,233.7 354,235.5 353.9,97.3 346.3,93.5 "/>
<path class="st6" d="M375.5,209.4l2.4,104.3l-4.1-2.4v0.1l-18.4-6.6c-4.2-2.5-6.8-3.4-6.9-14.8l-2.1-196.6l0.9,0.4l1.4,0.7l0,0
	l18.1,8.5c3.1,1.4,5.3,4.3,5.9,7.8l7.5,49.4C393.3,189,385.5,202.8,375.5,209.4z"/>
<path class="st2" d="M363.4,202.8c-0.3,3.8-1.5,7.8-5,10.6c-5.4,4.5-7.9-6.7-5.7-14.7c1.3-4.8,4.3-8.4,9.3-6.7
	C362,192,363.9,197.1,363.4,202.8z"/>
<polygon class="st10" points="400,156.1 369.7,189.7 329.2,189.7 354.2,154.7 "/>
<path class="st11" d="M346.3,93.5c-6.5,4.3-15.6,5-23,2.1c-1.3-0.5-2.5-1.1-3.6-1.8l0,0l0,0c0.3-0.1,0.7-0.3,1-0.5
	c0.6-0.4,1.1-0.9,1.5-1.4c0.5-0.6,0.9-1.2,1.2-1.8c0.7-1.2,1.2-2.5,1.7-3.8l0,0c0.5-1.6,0.8-3.5,1-5.2c5.1-2.1,9.9-5.8,13.3-10.2
	l0.1-0.1c-0.2,1.5-0.3,3.1-0.4,4.7c0,0.3,0,0.7,0,1c0,1,0,1.9,0,2.9c0,1.3,0.2,2.7,0.5,4c0.6,2.8,1.9,5.6,3.8,7.8
	c0.7,0.8,1.5,1.5,2.4,2.1C345.9,93.3,346.1,93.4,346.3,93.5z"/>
<path class="st11" d="M363.4,203.3c-3.4-0.7-8.4-3.1-8.4-3.1c-0.8-0.4-1.6-0.8-2.3-1.2c-13.1-7.1-16.8-19.2-14.7-26.9
	c2.2-8.2,7.2-11.9,9.4-11.9c2.2,0,0.3,4.1-0.8,5.1c-1.1,1.1-0.3,3.6,0,4.6c0.3,1.1,3,3.5,4.9,0.3c1.9-3.3,5.5-5.9,7.1-3.1
	c0.9,1.5-4.2,3.9-4.7,8.5c-0.6,4.6-3.8,8.7-3.8,8.7c1,3.5,7.2,6,11.9,7.5C362,192,363.9,197.4,363.4,203.3z"/>
<path class="st14" d="M339.3,70.9c-0.2,1.8-0.1,2.5-0.3,4.5c0,0.3,0,0.7,0,1c-0.1,0.2-0.3,0.4-0.5,0.6c-3.1,3.9-7.4,9.9-12.1,9.5
	c-0.5,0-0.9-0.1-1.3-0.2c0.5-1.7,0.8-3.5,1-5.2c5.2-2.2,10-6.5,13.5-11.2C339.4,70.3,339.3,70.6,339.3,70.9z"/>
<path class="st11" d="M312.5,45.1c-0.6,8.2-0.4,16.7,2.2,24.5c1.9,5.5,5.8,11.2,11.6,11.6c4.7,0.4,9-2.9,12.1-6.5
	c8-9.6,10.9-23.4,7.2-35.4c-0.4-1.2-0.8-2.4-1.6-3.3c-1.1-1.3-2.8-2-4.5-2.4C328.5,30.4,313.5,31.1,312.5,45.1z"/>
<path class="st10" d="M315.3,49.7c-1.2,2.4-2.8,4.6-3.8,7.1s-1.3,5.4,0,7.8c-1.8,0.3-2.9-1.9-3.1-3.7c-1.4-9.6,2.1-19.9,9.2-26.6
	c1.8-1.7,3.8-3.2,6.2-3.9c3.4-1,7.8,0.1,8.9,3.9c1,3.4-0.7,3.7-3.3,3C320.4,34.8,318.7,43.2,315.3,49.7z"/>
<path class="st10" d="M331.2,36.3c0,2.6-0.5,5.1-0.5,7.7c0,2.6,0.6,5.3,2.4,7.1c2.2,2.2,5.6,2.4,8.4,3.8c4.4,2.3,6.7,7.8,5.2,12.5
	c-0.8,2.4-2.4,4.5-3.2,6.9c-0.9,2.7-0.9,5.8,0.2,8.4c0.7,1.6,1.7,3,3.1,4c1.8,1.3,4.4,2,5,4.1c2.5-2.8,3.7-6.6,4-10.3
	s-0.2-7.5-0.7-11.2c-0.8-6.5-1.7-12.9-2.5-19.4c-0.4-2.9-0.8-5.9-2.3-8.5c-1.4-2.4-3.5-4.2-5.6-5.9c-2.8-2.3-5.7-4.7-9.2-5.9
	c-2.5-0.9-6.8-1.6-8.9,0.3C329.5,32,331.2,32.3,331.2,36.3z"/>
<path class="st15" d="M323.8,95.9v203.2c0,5.7-4.7,10.4-10.4,10.4h-4.2l2.9-213.1c3.7-1.3,6.5-2.3,7.3-2.5h0.2l0,0
	c1.1,0.7,2.4,1.3,3.6,1.8L323.8,95.9z"/>
<path class="st6" d="M318.3,302.9c-0.1,0.5-0.1,0.8-0.2,0.9c-2.5,5-24.3,5.6-24.3,5.6v-123l-6,5.8c-3.3,3.2-8.7,2.8-11.5-0.9
	l-45.2-46.1c9.3,2,15-19.4,15-19.4l33,33.4l1.8-6.5c0,0,7.7-41.5,11.3-46.4c2.3-3.1,12.7-7.2,20-9.8c3.7-1.3,6.5-2.2,7.3-2.4
	c0.1,0,0.2,0,0.2,0s0,0,0,0.1C319.6,100.2,320.5,286.4,318.3,302.9z"/>
<path class="st0" d="M352.5,138.2l-0.8-0.3c9.7-21.7-4.2-42.4-5.7-44.6l1.4,0.7l0,0C350.8,99.2,361.5,118.3,352.5,138.2z"/>
<circle class="st0" cx="352" cy="139.2" r="2.7"/>
<g>
	<path class="st0" d="M322.1,92c-0.4,0.5-1,1-1.5,1.4c-4.1,1.6-12.2,7.4-14.5,27.5v0.1v0.2l-0.1,0.1c0,0-0.2,0.1-0.4,0.4
		c-2.1,2-11.8,11.9-11.9,22.1l3.3,3.7l0.6,0.6l-0.7,0.6l-0.5-0.6l-3.6-4V144c0-11.4,11.1-21.9,12.4-23.2
		C308,96.5,318.8,92.6,322.1,92z"/>
	<path class="st0" d="M309.7,148.7l-0.7-0.6l3.6-4.3c-0.1-10.6-7.4-22.5-7.4-22.6l0.8-0.5c0.1,0.1,7.6,12.4,7.6,23.2v0.2
		L309.7,148.7z"/>
	<circle class="st0" cx="298" cy="149.1" r="1.9"/>
	<circle class="st0" cx="309.4" cy="149.1" r="1.9"/>
</g>
<path class="st9" d="M43.6,9.1c0.7,2.6,2.7,4.6,5,5.9c2.5,1.4,5.5,2.1,8.4,1.9c2.4-0.2,4.7-0.9,7.1-1.2c4-0.5,8.1,0.3,11.5,2.3
	s5.5,10.8,6.3,14.7c6.9-6.7,4.2-15,2.9-19.7c-1.4-4.7-5.6-8.6-10.1-10.6c-2.9-1.3-6.1-1.7-9.2-2C61.8,0.1,58.2,0,54.6,0
	C49.4,0,41.7,2.2,43.6,9.1z"/>
<path class="st9" d="M49.6,19.4c4,3.2,8.8,5.7,13.9,5.4c1.8-0.1,3.6-0.6,5.4-0.7c1.6-0.1,3.2,0.1,4.8,0.3c1.9,0.2,3.8,0.6,5.5,1.5
	s2.6,4.6,2.7,6.5c0.9-2.1,1.2-6.6,0.9-8.9c-0.3-2.2-0.7-4.5-2-6.4c-1.4-2.2-3.8-3.5-6.2-4.6c-8.7-3.9-18.5-5.3-27.9-4.1
	C40.3,9.4,47.3,17.6,49.6,19.4z"/>
<path class="st0" d="M45.4,74.4l1.9-1.5l1.2-1.2c0,0-2.7,0.3-5,3.6L43.4,76L45.4,74.4z"/>
<path class="st0" d="M347.5,94l-1.4-0.7l-0.4-0.1c-0.9-0.6-1.7-1.3-2.4-2.1l0,0C345.3,91.3,347.4,93.8,347.5,94z"/>
</svg>
