<?xml version="1.0" encoding="utf-8"?>
<!-- Generator: Adobe Illustrator 25.0.0, SVG Export Plug-In . SVG Version: 6.00 Build 0)  -->
<svg version="1.1" id="Layer_1" xmlns="http://www.w3.org/2000/svg" xmlns:xlink="http://www.w3.org/1999/xlink" x="0px" y="0px"
	 viewBox="0 0 400 282.2" style="enable-background:new 0 0 400 282.2;" xml:space="preserve">
<style type="text/css">
	.st0{fill:#4CBEA0;}
	.st1{fill:#CA8342;}
	.st2{fill:#BA6F31;}
	.st3{fill:#004751;}
	.st4{fill:#90D7C4;}
	.st5{fill:#A9D7AA;}
	.st6{fill:#428E8B;}
	.st7{fill:#006662;}
	.st8{fill:#FEDFBD;}
	.st9{fill:#EFC9A3;}
	.st10{fill:#E5F3E6;}
	.st11{fill:#FDBF7A;}
	.st12{opacity:0.13;fill:#009D88;enable-background:new    ;}
	.st13{fill:#FFFFFF;}
	.st14{fill:none;}
	.st15{opacity:0.47;fill:#009D88;enable-background:new    ;}
</style>
<path class="st0" d="M349.2,68.1c0,0,7-2.6,13.2-1s2.3,6,2.3,6l-2.5,16.6l0.1,64.5l-23.1,0.3L338.9,87L349.2,68.1z"/>
<path class="st1" d="M361.9,61.8c0,0.1,0,0.1,0,0.2l0,0c0,0.3-0.1,0.7-0.1,1v0.1c-0.2,1.5-0.4,2.9-0.9,4.3c-0.1,0.3-0.2,0.7-0.5,0.9
	c-0.3,0.2-0.7,0.3-1.1,0.3c-0.9,0.1-1.9,0.1-2.8,0.2c-1.2,0.1-2.5,0.1-3.5-0.5c-0.1-0.1-0.3-0.2-0.4-0.3c-0.1-0.2,0-0.4,0-0.7
	c0.1-0.3,0.2-0.6,0.2-0.9l0,0c0.4-1.6,0.7-3.3,1.7-4.4c0.6-0.7,1.6-1.1,3.1-1.1c1.3,0,2.6,0.2,3.8,0.3c0.1,0,0.3,0,0.4,0.1
	C361.9,61.6,361.9,61.7,361.9,61.8z"/>
<path class="st2" d="M361.9,62c0,0.3-0.1,0.7-0.1,1v0.1c-0.9,0.7-2,1.1-3.1,1.5s-2.1,0.8-3.2,1.1c-0.9,0.3-1.8,0.6-2.7,0.7
	c0.4-1.6,0.7-3.3,1.7-4.4c0.6,0.1,1.3,0.1,1.9,0.1C358.3,62.1,360.1,62.1,361.9,62z"/>
<path class="st1" d="M349.6,52c0,3,0.5,6.2,2.2,8.8c0.5,0.8,1.1,1.5,1.9,1.9c0.6,0.4,1.3,0.6,1.9,0.7c2.5,0.5,5.3-0.1,7.5-1.5
	s3.9-3.4,5.2-5.7c2.1-3.7,3.2-8.1,2.1-12.3c-0.2-0.9-0.6-1.9-1.2-2.6c-0.7-0.8-1.7-1.3-2.7-1.8c-2.7-1.1-5.5-1.8-8.4-2.1
	c-0.9-0.1-1.7-0.1-2.5,0.1c-2.2,0.5-4.7,3-5.5,5.1c-0.4,1.3-0.1,2.9-0.2,4.2C349.7,48.7,349.6,50.3,349.6,52z"/>
<path class="st3" d="M346.8,38.7c-0.2,0.8,0,1.7,0.5,2.3c-1.5,0.4-3.3,1.2-3,2.7c0.2,1.1,1.4,1.6,2.4,1.8c1.9,0.4,4,0.2,5.8-0.5
	c-0.7,0.3-1.2,0.8-1.5,1.5c4.5,1.8,9.5,0.3,14.1-1.3c-1,0.7-2,1.5-2.9,2.2c1.5,1.4,4.1,0.9,5.7,2.2c1.5,1.2,1,3.9,1,5.9
	c3.6-2.6,4.3-6.6,4.5-10c0.1-1.6-0.5-3.5-1.3-4.9c-1.2-2-3.1-3.6-5.3-4.4c-3.1-1.2-7.1-2-10.4-1.3C354.9,35.2,347.1,37.5,346.8,38.7
	z"/>
<path class="st0" d="M352.7,67c0,0,1.5,1.3,3.9,1.3s4.5-1.5,4.5-1.5s-1,6.1-1,6.2s-6,1.3-6,1.3l-1.5-2.8l-0.5-0.9L352.7,67z"/>
<path class="st4" d="M58.2,86.6c2.9,3.6,5.7,8,10,9.2c2.3,0.6,4.8,0.2,7.2,0.1c4.2-0.3,8.4,0.2,12.5,1.4c0.4,2.3,0.6,4.6,0.7,7
	c-4.8,1.2-9.6,1.9-14.5,2.1c-2,0.1-5.2,0.7-7.1,0.3c-2.1-0.5-4.2-1.8-6.1-2.8c-2.4-1.2-3.4-2.9-5.7-4.1c-1-0.5-2-1.1-2.9-1.8
	c-0.9-0.9-1.6-2-2.2-3.1c-1.4-2.6-7.2-13.7-4.3-15.1C49.7,77.6,56.1,84,58.2,86.6z"/>
<path class="st5" d="M5.8,236.2c-0.4,0.8-0.7,1.7-0.6,2.5c0.2,1.8,1.9,2.9,3.5,3.7c4.3,2.2,8.8,4.5,13.6,5.1c0.4,0,0.8,0.1,1.1,0
	c0.3-0.1,0.6-0.3,0.8-0.6c0.9-1,0.9-2.5,0.4-3.7s-1.5-2.2-2.4-3.1c-2.7-2.7-5.5-5.4-8.8-7.4c-1-0.6-3.8-2.5-5-2
	C7.3,231.1,6.3,235.1,5.8,236.2z"/>
<path class="st5" d="M44.6,239.8c-0.1,0.9-0.2,1.8,0.1,2.6c0.7,1.6,2.7,2.2,4.5,2.5c4.8,0.8,9.7,1.7,14.5,0.8
	c0.4-0.1,0.8-0.2,1.1-0.4c0.3-0.2,0.5-0.5,0.6-0.8c0.5-1.2,0.1-2.7-0.8-3.7s-2-1.6-3.2-2.2c-3.4-1.8-6.9-3.6-10.6-4.5
	c-1.1-0.3-4.4-1.3-5.3-0.5C44.6,234.5,44.7,238.6,44.6,239.8z"/>
<path class="st6" d="M21.6,165.1c0.7,3.3,0.7,13.2,0.4,16.6c-0.2,3.1-1.5,6-2.7,8.9c-5.4,12.7-8.9,26.2-12.5,39.6
	c-0.1,0.4-0.2,0.9-0.1,1.3c0.2,0.5,0.7,0.7,1.2,1c3.9,1.8,7.9,3.3,12,4.5c4.1-9.5,8.2-26,12.3-35.5c2.7-6.3,5.5-12.7,6.5-19.5
	c0.5-3.3,0.5-6.7,0.6-10.1c0.1-9.3,0.3-18.6,0.4-27.9c0-1.7,0-3.5-1.1-4.8c-0.8-1-2.1-1.5-3.2-1.9c-2.9-1.1-5.9-2.1-9-1.8
	c-6,0.6-6.3,4.5-6.2,9.2C20.4,151.5,20.1,158.1,21.6,165.1z"/>
<path class="st6" d="M44.5,166.2c1.5,3,3.7,12.8,4.3,16.1c0.6,3.1,0.1,6.2-0.4,9.3c-2,13.7-2.5,29-3.5,41.5c0,0.4,0,0.9,0.3,1.3
	c0.3,0.4,0.9,0.5,1.4,0.6c4.2,0.7,8.5,1.2,12.7,1.3c1.6-10.2,3.1-27.5,4.7-37.7c1-6.8,2.1-13.7,1.3-20.5c-0.4-3.4-1.2-6.6-2-9.9
	c-2.2-9-4.5-18.1-6.7-27.1c-0.4-1.6-0.9-3.4-2.3-4.4c-1-0.7-2.4-0.9-3.6-1c-3.1-0.3-6.3-0.6-9.2,0.5c-5.7,2.1-5,5.9-3.7,10.4
	C39.9,153.4,41.3,159.9,44.5,166.2z"/>
<path class="st7" d="M23.5,55.2c-0.9,5.4,1.1,11-0.7,16.2c-1.3,3.7-4.3,6.6-7.6,8.8c-2.7,1.8-5.8,3.5-6.8,6.6
	c-0.9,2.7,0.2,5.7,0.1,8.6c-0.1,2.4-1,4.7-2.5,6.5c-2,2.4-5.2,4.1-5.9,7.2c-0.7,2.9,1.4,5.9,4,7.2c2.6,1.3,5.7,1.4,8.7,1.3
	s6-0.3,8.8,0.6c2.5,0.8,4.9,2.4,7.5,2c2-0.3,3.7-1.7,4.8-3.5c1-1.8,1.5-3.8,1.8-5.8c0.3-1.9,0.5-3.8,1.7-5.3c1-1.3,2.4-2.1,3.7-3.1
	c3.1-2.5,5-6.5,5-10.5c0-2.2-0.6-4.4-0.6-6.6s0.6-4.6,2.4-5.9c0.4-0.3,0.9-0.5,1.3-0.9c0.7-0.7,0.9-1.9,0.9-2.9
	c0.1-1.8,0.1-3.7,0.3-5.5c0.3-2.5,1-5,1.4-7.6c0.9-5.4,0.1-11.3-3.3-15.7c-1.5-2-4.3-2.8-6.7-3.4c-5.5-1.3-10.5-0.6-14.5,3.8
	C25.4,49.5,24,52.2,23.5,55.2z"/>
<path class="st8" d="M42.3,70.2v8.4c0,1.6-1.3,2.9-2.9,2.9H38c-1.6,0-3-1.3-3-2.9v-8.4H42.3z"/>
<path class="st9" d="M42.3,74.4v4c-2.4-0.7-4.7-1.5-6.7-2.9c-0.2-0.2-0.4-0.3-0.6-0.5v-2.3c0.6,0.3,1.6,0.9,1.9,1
	C38.7,74.2,40.5,74.3,42.3,74.4z"/>
<polygon class="st8" points="29.1,83.3 36.1,78.4 42.4,78.2 48.5,88.7 49.6,96 41.1,97.6 "/>
<path class="st0" d="M382.2,176.2c0,0-42.8,13.7-51.5,5.5l-0.2-21.9l15-14.2l21.4-1.5L382.2,176.2z"/>
<path class="st0" d="M329,275.8c-1,0.8-2,1.7-2,3c0,1.7,2,2.5,3.6,2.8c5.6,0.9,11.2-0.9,16.5-2.7c1-0.3,2-0.7,2.7-1.5s0.8-1.8,1-2.8
	c0.2-1.8,0.3-3.6,0.2-5.4c0-0.3,0-0.6-0.2-0.9c-1.7-2.6-8.7-2.6-11.1-1.1C336,269.7,332.5,273,329,275.8z"/>
<path class="st0" d="M380.2,277.3c-0.6,1.1-1.2,2.4-0.6,3.5c0.7,1.5,2.8,1.5,4.4,1.1c5.4-1.5,9.8-5.4,14-9.2
	c0.8-0.7,1.6-1.5,1.9-2.5s0-2-0.3-3c-0.5-1.7-1.2-3.4-2-5c-0.1-0.3-0.3-0.6-0.6-0.7c-2.6-1.7-9,1.2-10.5,3.6
	C384.1,268.9,382.3,273.4,380.2,277.3z"/>
<path class="st6" d="M358.6,201.1c0.7,4,1.3,8.1,2.7,12c1.1,3.3,2.8,6.5,4.4,9.6c7,13.6,13.4,27.1,20.3,40.6c0.3,0.5,0.5,1.7,1,1.9
	c0.5,0.3,8.4-1,11.5-1.5c-4.5-14.4-9-28.8-14.7-42.7c-1.3-3.1-2.6-6.3-3.5-9.6c-0.9-3.6-1.3-7.3-1.6-11c-0.7-8.6-1.1-17.1-1.4-25.7
	c-0.2-6.4-0.2-12.9-1.7-19.1c-0.5-1.9-1.1-3.8-2.4-5.3c-1-1.1-2.4-1.9-3.8-2.5c-2.9-1.3-6.1-2.3-9.3-2c-3.7,0.3-7.9,2.6-8.2,6.5
	c-0.4,5.2,1.1,11.1,1.7,16.3C355,179.6,356.8,190.4,358.6,201.1z"/>
<path class="st6" d="M338.4,268.2c3.7,0.2,8.9,0.5,12.6,0.7c1-19.3,1.9-38.5,2.9-57.8c0.4-8.8,0.9-17.6,0.8-26.4
	c0-5.5-0.3-11-0.5-16.6c-0.3-8-0.7-16-1-24.1c0-0.5-0.1-1-0.4-1.3c-0.4-0.4-0.9-0.4-1.5-0.5c-4.3-0.1-8.6,0.5-12.8,1.8
	c-4.6,1.4-6,1.9-6.2,6.6c-0.5,9.5-0.4,18.9,0,28.4c1,19.1,2.2,38.2,4.1,57.2C337.5,246.9,338.1,257.3,338.4,268.2z"/>
<path class="st10" d="M343.5,69.6c-8.3,4.9-16.2,10.9-25.4,13.9c-8.9,2.9-18.5,2.7-27.6,4.7c-0.4,0.1-0.9,0.2-1.1,0.5
	c-0.3,0.3-0.4,0.8-0.4,1.3c-0.1,3.1,1.9,6.2,4.8,7.3c1.8,0.7,3.7,0.7,5.6,0.6c7.8-0.4,15.5-2.3,23.1-4.3c4.1-1,8.1-2.1,12.2-3.1
	c1.6-0.4,3.3-0.9,4.8-1.7c2.4-1.3,4.1-3.6,5.5-5.9c2.2-3.4,4.2-7.2,4.8-11.3C350.7,66.2,346.9,67.6,343.5,69.6z"/>
<path class="st0" d="M184.7,150.2h39.7c0,0,8.1-4.1,1.7-10.5c-6.3-6.3-6.1-26.2,10-26.2s19.6,15.3,11.3,27.9c0,0-3.1,7.9,5.2,7.9
	s37.1,0,37.1,0v103.8h-106C183.8,253.1,185.1,150.6,184.7,150.2z"/>
<path class="st7" d="M184.1,253.2l-105.5,0.4L79,149.3l38,0.9c0,0,9.2-0.4,1.3,14s6.1,20.5,12.7,21.4c6.5,0.9,21.8-4.8,15.7-20.9
	s0.4-14.4,0.4-14.4h37.5l-0.1,37.7c0,0,3.6,6.8,8.8,2.9s26.2-10.9,26.2,12.7s-28.4,10.5-28.4,10.5s-5.9-3.7-6.5,3.9
	C184,226,184.1,253.2,184.1,253.2z"/>
<path class="st11" d="M79.4,146.2L68,41.5l103-12.1l4.6,39.3c0,0-1.3,4.3-7.9,2.3c-6.5-2-29.4-4.9-24.5,17s25.2,9.2,26.8,8.2
	s8.8-5.2,10.5,2.3l3.6,35.3l-36,4.9c0,0-6.9,0.7-2.9,8.5c3.9,7.9,10.1,22.6-6.9,27.8s-21.3-13.1-16.7-22.2
	c4.6-9.2-3.6-10.8-3.6-10.8L79.4,146.2z"/>
<path class="st5" d="M237.1,0l99.1,34l-33.7,99.5l-37.6-13.7c0,0-3.3-5.2,1.6-8.2c4.9-2.9,19.6-24.5-2.3-29.8s-22.9,14.1-20.3,20.6
	c2.6,6.5-5.2,9.8-10.5,7.2c-5.2-2.6-30.8-11.5-30.8-11.5L215,66.4c0,0,2.3-8.2-4.3-9.2s-26.2,6.2-24.5-15.4s20.9-14.7,23.9-11.8
	s11,12.9,14.9,4S237.1,0,237.1,0z"/>
<path class="st1" d="M314.2,90.4c-1.3-2-3.5-3.2-5.7-4.3c-0.8-0.4-1.7-0.9-2.6-1c-1.6-0.2-3.3,0.5-4.2,1.8c-0.9,1.3-1,3.2-0.2,4.6
	c0.9,1.6,2.6,2.4,4.2,3.2c1.9,0.9,4,1.8,5.9,0.9c2-0.9,2.7-3.4,3.1-5.6"/>
<path class="st10" d="M382.2,176.2c-2.6-4.4-8.8-4.2-13.8-4.8c-2.9-0.3-5.8-1.1-8.5-2.2c-1.1-0.5-2.2-1-3-2c-0.7-0.9-0.9-1.9-1.2-3
	c-0.7-3.3-1.1-6.7-1.3-10.1c-0.3-4.3-0.2-8.7-0.1-13c0.1-7.5,0.2-15,0.5-22.4c0-0.3,0-0.6,0-0.8c0.4-9.4,1.2-18.8,2.7-28.1
	c0.6-3.4,1.2-6.7,2-10c0.8-3.4,1.3-9.7,4.5-12.1c0.4-0.3,0.9-0.6,1.5-0.7c0.1,0,0.3-0.1,0.4-0.1l0,0c2.2,0.3,4.8,1,7,2.5l0,0
	c1.5,1,2.8,2.4,3.8,4.2c0,0.1,0.1,0.2,0.1,0.2c2.2,4.6,2,9.9,1.9,15C378.1,118,379.2,147.2,382.2,176.2z"/>
<path class="st10" d="M373.3,73.2c-0.4,2.7-1.5,5.4-1.5,5.4l-7.4,0.8l-0.6,0.1l-4.2,0.4l1.5-13l0,0l0,0c0.3,0,2.3-0.2,4.9,0.1l0,0
	c2.2,0.3,4.8,1,7,2.5l0,0C373.5,70.5,373.5,71.8,373.3,73.2z"/>
<path class="st10" d="M352.7,67c-0.3,0.7-9.9,64-7.9,96.3c0.2,3.8-1.8,7.4-5.2,9.1c-4.3,2.1-9.4,5.5-8.9,9.3
	c0.9,6.5-4.9-46.8,1.3-86.6c0,0,2.2-20.1,8.7-24.2S352.7,67,352.7,67z"/>
<path class="st12" d="M349.6,113.2c1.3,0.4,2.7,0.7,4,0.4c1.3-0.3,2.4-1.3,3.3-2.3c2.4-2.4,4.8-4.7,7.2-7.1c3.4-3.4,7-6.8,11.3-8.8
	c-1.9,7.2-4.3,14.3-7.3,21.1c-0.6,1.4-1.3,2.9-2.3,4.1c-1.9,2.1-4.9,3-7.7,3.4c-3.4,0.6-7,0.8-10.4,0.1c-5.5-1.2-10.1-4.8-14-8.8
	c-1.3-1.4-2.9-3.1-3.2-5.1c-0.5-3.2,2-1.9,4-1.3C339.6,110.4,344.6,111.8,349.6,113.2z"/>
<path class="st10" d="M368.4,74.7c-2,1.5-3.4,3.6-4.8,5.7c-3.4,5.2-6.7,10.5-10.1,15.7c-0.5,0.8-1.1,1.6-1.9,2.2
	c-2,1.3-4.5,0.3-6.7-0.7c-10.3-4.7-21.3-8.2-32.4-10.4c-1.8,3-3.1,6.4-3.7,9.9c12.1,8.1,25.2,14.6,39,19.4c2.8,1,5.7,1.9,8.6,1.3
	c2.5-0.5,4.7-2.2,6.6-4c7.6-7.1,12.9-16.5,15.1-26.7C379.3,81.2,376.8,68.6,368.4,74.7z"/>
<path class="st8" d="M90.8,106.1c2-0.8,4.4-1.2,6,0.3c1.4,1.2,1.5,3.5,0.7,5.2s-2.4,2.9-4,3.8c-1.7,0.9-3.5,1.6-5.3,1.9
	c-1.2,0.2-2.7,0.3-3.5-0.6C81.1,112.4,87.4,107.5,90.8,106.1z"/>
<path class="st8" d="M28.2,60.2c0.2,3.6,1.5,7.1,3.6,10c2.1,2.8,5.4,5.1,8.8,4.7c2.9-0.4,5.3-2.7,6.6-5.3c1.3-2.6,1.7-5.6,2-8.6
	c0.2-1.9,0.4-3.9-0.2-5.8c-0.9-2.9-3.4-5.1-6.2-6.3c-2.7-1.1-7.5-0.3-10.3,1.1C28.6,52,28,56.7,28.2,60.2z"/>
<path class="st4" d="M65.7,147.2c0,0-13.8,6.6-22.8,8.8s-27.7-4.6-27.7-4.6s9-61.7,9.2-65.6c0.2-4,10.6-7.2,10.6-7.2l11.3,14.9
	l-4-15.2c0,0,6.6,0.1,9.2,3.4c1.4,1.7,5.3,20.2,8.6,37.1c0.6,3,1.2,5.9,1.7,8.6C64.1,138.4,65.7,147.2,65.7,147.2z"/>
<polygon class="st13" points="38.5,83 43.3,81.7 46.4,93.4 "/>
<path class="st7" d="M35.5,51.6c-1.1,2.5-0.7,5.4-0.3,8.2S36,65.4,35,68c-1.3,3.5-4.8,5.8-5.8,9.4c-0.3,1.2-0.7,2.8-1.9,3
	c-1.2,0.2-2-1.2-2.3-2.4c-0.2-1.1-0.3-2.3-0.2-3.5c0.2-1.5,0.6-2.9,0.6-4.4c0-1.4-0.3-2.7-0.5-4.1c-0.5-3.3-0.6-6.6-0.2-9.9
	c0.3-2.3,0.9-4.7,2.2-6.7c2.9-4.5,9-6.3,14.1-4.8c2.3,0.7,2.9,3,0.2,3.2C38.7,48,36.6,49.1,35.5,51.6z"/>
<path class="st7" d="M40.2,52.9c-1,0.3-1.7,1.1-2.3,1.9c-0.6,0.9-1.1,1.8-1.4,2.8c-0.6,1.8-0.6,3.7-0.7,5.6s-0.2,3.8-0.9,5.5
	S32.8,72,31,72.4c-0.2,0.1-0.5,0.1-0.7,0c-0.4-0.1-0.7-0.6-0.8-1C29,70,28.9,68.5,28.8,67c-0.2-2.7-0.2-5.4-0.1-8.1
	c0.1-2,0.2-4,0.8-5.9c0.5-1.9,1.5-3.7,3-5.1c2.1-1.9,5.3-2.5,8-1.5c0.8,0.3,1.7,0.8,2.2,1.5c0.4,0.5,0.7,1.1,0.8,1.8
	c0.2,0.8,0.6,3-0.2,3.5C42.6,53.5,41.1,52.6,40.2,52.9z"/>
<path class="st7" d="M43.4,50.9c1.5,0.5,3.2,0.7,4.4,1.8c0.8,0.8,1.2,1.8,1.5,2.9c0.7,2.6,0.6,5.3,0.5,7.9c0.4-0.2,0.5-0.7,0.6-1.1
	c0.8-3.5,0.8-7.3-0.5-10.6c-1.1-2.7-4-6.3-7.2-6.5c-1.4-0.1-2.6,1.2-2.4,2.7C40.4,49.6,42,50.5,43.4,50.9z"/>
<path class="st14" d="M44.5,52c0.6,0.2,1.3,0,2,0c0.8,0,1.4,0.5,1.9,1.1s0.8,1.3,1.1,2c0.2-1,0.4-2,0.3-3c-0.1-1-0.6-2-1.4-2.6
	c-0.5-0.3-1.2-0.5-1.8-0.6c-1.1-0.2-2-0.1-2.6,1C43.6,50.6,43.6,51.6,44.5,52z"/>
<path class="st7" d="M48.7,52.5c-0.1,0.9-0.7,1.6-1.5,2s-1.6,0.5-2.5,0.6c-1.3,0.1-2.6,0.2-3.9,0.5c-1.3,0.3-2.5,0.9-3.4,2
	c-1.8,2.2-1.2,5.5-2.6,7.9c-0.1,0.2-0.3,0.5-0.6,0.3c-0.9-4.1-1.4-8.4-0.6-12.5c0.2-0.8,0.4-1.5,0.8-2.2c0.6-0.7,1.4-1.2,2.3-1.5
	c1.5-0.6,3.1-0.8,4.8-0.9c1.5-0.1,3.1,0,4.5,0.7C47,50,48.8,51.2,48.7,52.5z"/>
<path class="st15" d="M61.9,127.3c-5.5,1.9-11.5,2.5-17.3,1.7c-1.9-0.2-3.8-0.6-5.5-1.6c-3.1-1.9-4.6-5.6-5.2-9.2
	c-1.1-6.8-0.1-13.9-0.4-20.8c1,0.6,1.8,2.3,2.5,3.3c0.9,1.3,1.9,2.7,3,3.9c5.6,6.5,13.2,10.7,21.2,14.1
	C60.8,121.6,61.4,124.5,61.9,127.3z"/>
<path class="st4" d="M31.5,94.3c-1.4,0.8-2.2,2.5-2.3,4.1c0,1.6,0.6,3.2,1.4,4.7c2.8,5,7.8,8.5,12.5,11.7c2.4,1.6,4.8,3.2,7.2,4.9
	c2.1,1.4,4.3,2.9,6.7,3.5c2.5,0.7,5.2,0.4,7.8,0.1c8.5-1.1,16.8-2.8,25.2-4.6c0.2-4.2-0.4-8.4-1.8-12.3c-7.7,1.5-15.4,3.1-23.1,4.6
	c-1,0.2-2,0.4-2.9,0.2c-1.1-0.2-1.9-1-2.8-1.7c-4.6-3.7-9.4-7.1-14.5-10.1C41.6,97.5,35.3,92.1,31.5,94.3z"/>
</svg>
