<?xml version="1.0" encoding="utf-8"?>
<!-- Generator: Adobe Illustrator 25.0.0, SVG Export Plug-In . SVG Version: 6.00 Build 0)  -->
<svg version="1.1" id="Layer_1" xmlns="http://www.w3.org/2000/svg" xmlns:xlink="http://www.w3.org/1999/xlink" x="0px" y="0px"
	 viewBox="0 0 400 229.8" style="enable-background:new 0 0 400 229.8;" xml:space="preserve">
<style type="text/css">
	.st0{fill:#A9D7AA;}
	.st1{fill:#4CBEA0;}
	.st2{fill:#E1B77E;}
	.st3{fill:#009D88;}
	.st4{opacity:0.25;fill:#006662;enable-background:new    ;}
	.st5{fill:#E5F3E6;}
	.st6{fill:#CE9F67;}
	.st7{fill:#FFFFFF;}
	.st8{fill:#61C2B6;}
	.st9{opacity:0.49;fill:#006662;enable-background:new    ;}
	.st10{fill:#CAE6CA;}
	.st11{fill:#004751;}
	.st12{fill:#006662;}
	.st13{fill:#FEDFBD;}
	.st14{fill:#FDBF7A;}
	.st15{fill:#FFFBEC;}
	.st16{fill:#267D7A;}
	.st17{fill:#579A97;}
	.st18{fill:#A5DFCF;}
	.st19{opacity:0.25;fill:#009D88;enable-background:new    ;}
	.st20{fill:#EBF8F5;}
	.st21{fill:#EDC7A2;}
	.st22{fill:#F2F2F2;}
	.st23{fill:#85B5B4;}
	.st24{fill:#5EC1B4;}
	.st25{fill:#549896;}
	.st26{fill:#6BA6A4;}
</style>
<path class="st0" d="M78.9,77.3c0,0-9,6.4-6.9,9c2.1,2.5,6.7-0.9,6.7-0.9l1.2-3.6L78.9,77.3z"/>
<path class="st1" d="M102.2,73.6c0-2.2-0.1-4.5,0.7-6.6c1.4-3.8,5.1-6.3,9-7.3c4.9-1.2,10.9-0.2,15.9,0c3.6,0.2,7.2,0.4,10.8,0.7
	c4.5,0.4,9.7,0,12.2,4.7c2.4,4.5,2.6,9.8,2.8,14.8c0.5,13.5,2.5,27.3,0.7,40.8c0,0.2-0.1,0.4-0.1,0.6c-0.1,0.8-0.3,1.6-0.7,2.2
	c-1,1.6-3,2.1-4.8,2.5c-10.4,2-21.2,2.4-31.8,1.3c-3.2-0.3-6.5-0.8-9.3-2.4c-8.1-4.4-5-14.3-5-21.8
	C102.7,93.4,102.4,83.5,102.2,73.6z"/>
<path class="st2" d="M78,86.9c-0.5,0-2.3-1.9-2.8-2.3c-1.1-0.9-2.1-1.8-3-2.9c-1.4-1.8-3.4-4.9-2.2-7.1c0.9-1.8,2.9-2.8,4.8-3.2
	c1.3-0.2,3,1.1,3.4,2.4c0.1,0.3,0.6,3.6,0.6,3.6l-2.4,2.2l3.3,3.2l0.2,3.8C80,86.6,78,86.9,78,86.9z"/>
<path class="st2" d="M113.5,63.4c4.1,2.5,9.8,2.4,13.8-0.2c-1.9-1.1-3.1-3.1-3.5-5.3c0-0.2-0.1-0.4-0.1-0.6c-0.1-0.5-0.1-1-0.1-1.5
	s0-1,0-1.5c0-0.2,0-0.4,0-0.5c0-0.8,0.1-1.6,0.2-2.4c0,0,0,0-0.1,0.1c-1.8,2.3-4.2,4.3-6.9,5.4c0,0.4-0.1,0.8-0.2,1.2
	s-0.2,0.9-0.3,1.3l0,0c-0.2,0.7-0.5,1.4-0.9,2C115,62.3,114.4,63.1,113.5,63.4z"/>
<polygon class="st3" points="110.8,64 110.8,129.6 130.6,128.9 134.5,66.2 126.6,62.7 126.6,62.7 121.7,62.6 120.3,63.2 118.8,62.6 
	114.3,62.5 "/>
<path class="st4" d="M124.5,63.5l0.1,109c0,2.6,2.1,4.8,4.8,4.8h1.9l-2-113.2c-1.7-0.6-2.4-1.3-2.7-1.4l-0.3-0.2L124.5,63.5z"/>
<path class="st5" d="M113.6,174.1c0,0.2-0.1,0.4-0.1,0.4c-1.1,2.3-16.1,2.6-16.1,2.6l2-69.1c-1.7,1.2-5.3,0.9-6.5-0.7L72.1,86.1
	c4.3,0.9,6.9-8.9,6.9-8.9l14.2,14.4l0.1,0.1l0.9,0.9l0.1-0.2l0.4-1.6l0.3-1.2c0,0,2.8-19.1,4.5-21.4c1.1-1.4,8.1-3.3,11.4-4.5
	c1.7-0.6,3-1,3.3-1.1h0.1c0,0,0,0,0,0.1C114.3,65.4,114.6,166.5,113.6,174.1z"/>
<path class="st5" d="M141.8,116.2V180l-1.9-1.1v0.1l-9.3-3.8c-1.9-1.2-3.1-1.5-3.2-6.8l-0.9-105.8l1,0.4l0,0l11.3,3.9
	c1.4,0.7,2.5,2,2.7,3.6l3.1,22.7C150.8,106.4,146.4,113.1,141.8,116.2z"/>
<g>
	<path class="st3" d="M110.1,85.7l-0.3-0.2l1.5-1.8c0-4.4-3.1-9.4-3.1-9.5l0.3-0.2c0,0.1,3.2,5.2,3.2,9.8v0.1L110.1,85.7z"/>
	<circle class="st3" cx="105.2" cy="85.8" r="0.8"/>
	<circle class="st3" cx="110" cy="85.8" r="0.8"/>
	<path class="st3" d="M104.7,85.7l-1.7-1.9v-0.1c0-4.8,4.6-9.2,5.2-9.8c1.4-11.8,7.2-12.1,7.5-12.2v0.4c-0.1,0-5.8,0.4-7.1,11.9v0.1
		h-0.1c-0.1,0-5.1,4.6-5.2,9.5l1.6,1.8L104.7,85.7z"/>
</g>
<g>
	<path class="st3" d="M129.4,82.8l-0.3-0.1c4.4-9.8-1.9-19.1-2.5-20.1l0.6,0.3l0,0C128.7,65.2,133.4,73.8,129.4,82.8z"/>
	<circle class="st3" cx="128.9" cy="83.3" r="1.2"/>
</g>
<path class="st6" d="M116.7,58.2c0.7,0.5,1.6,0.8,2.5,0.9c1.7,0.1,3.2-0.6,4.6-1.7c-0.1-0.5-0.1-1-0.1-1.5s0-1,0-1.5
	c0-0.2,0-0.4,0-0.5c0-0.8,0.1-1.6,0.2-2.4c0,0,0,0-0.1,0.1c-1.8,2.3-4.2,4.3-6.9,5.4C116.8,57.4,116.7,57.8,116.7,58.2z"/>
<polygon class="st7" points="114.1,62.7 120.4,65.5 126.6,62.7 126.6,62.7 124.9,60.9 122,62.4 120.3,63.2 118.6,62.3 115.7,61 
	114.3,62.5 "/>
<path class="st5" d="M138.9,66.9c0,0,3.6-0.2,5.1,11s10.6,29.7-5.1,47.7l-6.7,1.5L138.9,66.9z"/>
<path class="st2" d="M110.8,38.9c-0.3,4.3-0.2,8.7,1.2,12.8c1,2.9,3.1,5.8,6.1,6.1c2.5,0.2,4.7-1.5,6.3-3.4c4.2-5,5.7-12.2,3.8-18.5
	c-0.2-0.6-0.4-1.2-0.8-1.7c-0.6-0.7-1.5-1-2.3-1.3C119.2,31.2,111.3,31.6,110.8,38.9z"/>
<path class="st5" d="M126,102.7c-0.8,0-6.1,0-6.9,0.2c-0.7,0.2-1.3,0.7-2,1.1c-2.2,1.4,0.1,2.9-2,4.3c-0.2,0.6,0.5,0.9,1,0.9
	c10.3,0.2,20.6,0.1,30.8-0.4c0.9,0,0.2-5-0.7-5.5c-1.3-0.9-4.6-0.2-6.1-0.2C135.4,103,130.7,102.8,126,102.7z"/>
<path class="st0" d="M118.5,103.1l-1.2,5.9l-2.2-0.7C115,108.3,114.3,105.2,118.5,103.1z"/>
<path class="st2" d="M112.5,104.1c-0.7,0.1-1.4,0.5-2,0.9c-1.6,1-3.1,2-4.7,3c-0.1,0.1-0.2,0.2-0.3,0.3c-0.3,0.6,0.3,1.3,0.8,1.5
	c3.4,1.2,6.9,1.6,10.4,1c0.5-1.3,0.8-2.9,1-4.4C116,106.2,114.4,103.8,112.5,104.1z"/>
<rect x="7" y="109.5" class="st8" width="162.9" height="80.7"/>
<path class="st0" d="M137.2,103.1c0.1-2.5,0.2-5.1,0.3-7.6c0-2.5,0.1-5.1-0.1-7.7c0.5,2.5,0.9,5,1.2,7.6c0.3,2.5,0.6,5.1,0.8,7.7
	H137.2z"/>
<path class="st0" d="M93.2,91.7L93.2,91.7C93.2,91.8,93.2,91.8,93.2,91.7L93.2,91.7z"/>
<path class="st0" d="M98.7,97.6c-1.3-1.9-2.8-3.5-4.5-4.9l0.4-1.6C96.3,93.1,97.7,95.3,98.7,97.6z"/>
<path class="st9" d="M169.8,116v39c0-20.7-69.8-30.9-118.1-35.4c-15.8-1.5-29.3-2.4-37.3-2.9v-0.1c8,0.1,21.7,0.1,37.7,0.1
	C100.3,116.5,169.8,116,169.8,116z"/>
<rect y="109.2" class="st10" width="176.8" height="7.3"/>
<path class="st1" d="M56.1,198.2c-0.1,0.2-0.1,0.4-0.1,0.7c0.1,0.3,0.4,0.5,0.8,0.6c1.5,0.6,3.2,0.6,4.9,0.6c2.4,0,4.8,0,7.2,0
	c1,0,2,0,2.8-0.5s1.4-1.6,0.9-2.4c-0.4-0.7-1.3-0.9-2.1-1.1c-1.6-0.4-3.2-1-4.6-1.8c-0.4-0.2-0.9-0.5-1.3-0.5
	c-0.4-0.1-0.8,0-1.2,0.1C58.9,194.4,58.5,190.2,56.1,198.2z"/>
<path class="st1" d="M71.6,199.5c-0.1,0.2-0.1,0.4-0.1,0.7c0.1,0.3,0.4,0.5,0.8,0.6c1.5,0.6,3.2,0.6,4.9,0.6c2.4,0,4.8,0,7.2,0
	c2.1,0,4.8-2.4,3.3-4.6c-1.4-2-5.6-1.1-7.6-1.7c-0.4-0.1-0.8,0-1.2,0.1C74.4,195.6,73.2,194.5,71.6,199.5z"/>
<path class="st11" d="M66.1,152c0,2.6,0,5.2-0.1,7.7c-0.2,10.5-0.9,23.7-2,34c-1.3,0.3-2.7,0.5-4,0.5c-0.5,0-1,0-1.4-0.3
	s-1.6-3.2-1.8-3.7c-3.8-9.3-5.4-19.6-6.7-29.8c-0.1-0.8-0.3-1.9-0.5-3.1c-0.5-3-0.8-6.6,1.1-7.8c3.2-2,10-0.6,13.4-0.1
	c0.6,0.1,1.3,0.2,1.7,0.9C66,150.8,66.1,151.5,66.1,152z"/>
<path class="st12" d="M14.5,118.6c0,0.8-2.5,32.9,21.1,34.2s31.1,3.3,31.1,3.3s4.7,36.6,7,39.7c0,0,6.6,1.2,7.6-0.2
	c0,0,3.1-48.8-1.2-52.7c-4.3-3.9-25.9-16.2-27.4-18.3c-1.4-2.1-4.7-8.3-4.7-8.3L14.5,118.6z"/>
<path class="st13" d="M50.5,59.8c-0.4,4.8-2.9,9.1-8.2,9.4c-2.8,0.2-4.9-1.2-6-3.4c-1.6-3.2-2.5-6.8-2.4-10.4c0-3.2,1-6.7,4-8.5
	s6.8-0.7,9.1,1.4C49.5,50.7,50.9,55.5,50.5,59.8z"/>
<path class="st12" d="M31.5,51.3c-0.8,2.7-0.8,3.5-1,7.5c-0.1,1.4-0.1,2.9,0.3,4.3c0.5,1.4,1.6,2.7,3.2,2.9c1.6,0.3,3.2-0.6,4.3-1.8
	s1.8-2.5,2.9-3.7c2.1-2.4,5.1-3.9,7.6-6c2.4-2.1,4.3-5.4,3-8.2c-0.9-2-3.3-3.2-5.6-3.4C39.4,42.2,33.3,45.2,31.5,51.3z"/>
<path class="st13" d="M36.5,66.8c-1.1,0.3-1.4,1.8-0.8,2.7c0.6,0.9,1.9,1.2,3,1c0.6-0.1,1.2-0.3,1.6-0.8c0.6-0.8,0.2-2,0.3-3
	c-1.4-0.2-2.9-0.3-4.3-0.2"/>
<path class="st1" d="M64.2,107.3c-0.7,1.1-2,1.8-3.3,2c-1.1,0.2-2.4,0-3.6-0.4c-2.5-0.7-3.6-2.8-5.5-4.4c0,0.1,0,0.2,0,0.3
	c0,0,0,0,0,0.1c0,0.7,0.1,1.4,0.1,2.1c0.4,6.2,0.5,6.2,0.1,9.5c-0.1,0.8-0.2,1.7-0.3,2.9c0,0.4-0.1,0.7-0.1,1.2
	c-0.1,0.6-0.2,1.3-0.5,1.8c-0.4,0.6-1,0.9-1.6,1.1c-6.4,2.6-13.4,2.4-20.2,2.3c-5.3-0.1-11-0.4-15.6-3.5c0.2-2,0.4-3.9,0.7-5.7v-0.1
	c1.5-11.9,3.3-17.9,6.6-31.4c1.2-4.8,2.2-10.2,5.5-13.5c10.3-10.4,20.5,3.9,20.8,4.2c1.4,1.3,3.1,4.4,3.7,5.3
	c4.8,7,8.2,11.6,13.8,18C66.6,101.2,65.8,104.8,64.2,107.3z"/>
<path class="st1" d="M11.8,98.4c-1.2,2.3-2.4,5.2-1.2,7.6c0.8,1.5,2.4,2.4,3.9,2.6s3.2,0,4.8-0.3c2.9-9,5.7-17.9,8.5-27
	c0.4-1.4,2.3-7.4,0.2-8.2c-1.7-0.6-4.8,5.7-5.7,7.1C18.5,86.1,15,92.2,11.8,98.4z"/>
<path class="st3" d="M52,108.8L52,108.8c-1.1-0.2-1.7-1.2-2.3-2c-3.2-4.7-6.4-9.7-7.4-15.3c0.2,1,0.8,2.1,1.5,3.3l0,0
	c1.5,2.4,3.8,4.9,5,6.5c0.2,0.3,1.7,1.9,2.9,3.5c0,0.3,0,0.6,0.1,0.9v0.1C51.9,106.8,52,107.8,52,108.8z"/>
<path class="st3" d="M15.6,108.6c0.4-2.6,0.9-5.2,1.4-7.7c0.2-1.3,0.4-2.6,0.8-3.8c0.4-1.3,0.8-2.5,1.3-3.7h0.1
	c0,1.3-0.2,2.6-0.4,3.9c-0.2,1.3-0.6,2.5-1,3.8c-0.7,2.5-1.4,5.1-2.1,7.6L15.6,108.6z"/>
<path class="st14" d="M57.9,154.9H14.6c-1.1,0-1.9-0.9-1.9-1.9v-2.7c0-1.1,0.9-1.9,1.9-1.9h43.3c1.1,0,1.9,0.9,1.9,1.9v2.7
	C59.8,154,59,154.9,57.9,154.9z"/>
<rect x="34.1" y="153.2" class="st14" width="5.2" height="46.5"/>
<rect x="23.4" y="194.4" class="st14" width="25.6" height="6"/>
<path class="st12" d="M27.3,50.4c-1.5,3.3-0.2,8.2-2.2,11.3c-2.6,4.1-7.8,7.1-8.6,11.8c-0.4,2.8,0.8,5.8,0,8.5
	c-0.5,1.6-1.6,3.5-0.3,4.7c0.6,0.5,1.4,0.6,2.2,0.6c2.8,0.2,6,0.3,8.2-1.4c0.9-0.7,1.5-1.7,2.1-2.7c4.1-6.7,7.9-13.5,11.6-20.4
	c0.8-1.5,1.5-3,2.6-4.2c2.4-2.7,6.1-4.3,8.1-7.3c0.9-1.4,1.4-3.2,0.7-4.8c-1.4-2.9-6.9-6.5-13.3-5.3C33.4,42.2,29.3,46,27.3,50.4z"
	/>
<path class="st13" d="M57.6,88.8c-2.4-0.4-2.8,3.7-3.4,6c-0.1,0.5-0.2,1,0,1.5c0.3,0.5,1,0.7,1.6,0.7c1.1-0.1,2-0.7,2.9-1.3
	c0.5-0.4,0.9-0.8,1.5-0.9s1.3,0.2,1.4,0.8c0.5-0.6,0.8-1.5,0.7-2.4c-0.1-0.8-0.5-1.6-1.2-2.2C61.2,90.9,60.1,89.2,57.6,88.8z"/>
<path class="st11" d="M114.9,41.1c1.6,1.2,3.7,1.7,5.7,2.1c2.9,0.6,5.1,1.5,8,1.8c1.5-3.4,1.8-7.4-0.4-10.1
	c-1.1-1.3-2.7-2.2-4.3-2.8c-2-0.8-4.1-1.2-6.2-1.1c-2.2,0.1-5.6,1-5.8,3.5C111.7,37,112.8,39.6,114.9,41.1z"/>
<path class="st11" d="M109.5,41.5c0.2,0.7,0.8,2,1.1,2.7c0.8-1.9,1.3-4.4,2.3-6.2c0.5-0.9,1.3-2.3,0.6-3.3c-0.6-0.9-1.6-0.6-2.3,0.1
	C109.6,36.4,109,39.3,109.5,41.5z"/>
<path class="st12" d="M41.9,75.7c-0.4,2.3-1.9,4.2-2.4,6.5c-0.5,2.1-0.1,4.2-0.2,6.4c-0.1,2.1-0.8,4.5-2.7,5.5
	c-1.6,0.8-3.5,0.5-5.2-0.1s-3.3-1.5-5.1-1.7c-2.6-0.2-5.3,1-7.7,0c-0.9-0.4-1.6-1.1-2.1-1.9c-0.9-1.5-1-3.6-0.4-5.3
	c1-2.7,3.2-4.6,5.6-6.2c1.2-0.8,2.5-1.6,3.5-2.8c2.1-2.5,2.3-6,3.7-9c1.4-2.9,4-5.1,6.5-7.2c1-0.9,2.1-1.8,3.4-2.2
	c2.8-0.8,2.9,0.7,2.5,2.7c-0.4,1.7-1.2,3.7-1.1,4.9c0.1,1.6,0.6,3.2,1,4.7c0.2,0.6,0.4,1.3,0.5,1.9C42,73.2,42.1,74.4,41.9,75.7z"/>
<rect x="269.6" class="st15" width="130.4" height="83"/>
<path class="st11" d="M336.8,68.1c-0.3,1.7-0.1,3.4,0.1,5.2c1.5,13.6,3,27.2,6.4,40.4c0.1,0.4,0.2,0.9,0.5,1.3
	c0.5,0.5,1.2,0.7,2,0.8c3.2,0.4,6.5,0,9.4-1.4s5.4-3.9,6.3-6.9c0.8-2.5,0.6-5.3,0.4-7.9c-0.4-4.9-0.8-9.8-1.2-14.7
	c-0.6-6.8-1.2-13.9-5-19.6c-0.8-1.2-1.7-2.4-2.9-3.2C346.9,57.8,337.9,60.9,336.8,68.1z"/>
<path class="st16" d="M318.7,170.8c-0.8,4.7,2,9.2,3.3,13.9c0.6,2.1,0.9,4.2,1.1,6.4c1,7.8,2,15.7,3,23.5c-1.7,0.5-3.4,0.7-5.2,0.7
	c-0.3-2.1-1.3-4-2.2-5.9c-1.3-2.9-2.2-6-3.1-9c-1-3.5-2-6.9-3-10.4c-1.3-4.5-2.6-9-3.2-13.6c-0.8-6.9,0.1-13.8,1.3-20.6
	c0.2-1.2,0.4-2.5,1.1-3.6c1.3-2,3.7-2.7,6-3.3c0.6-0.2,1.2-0.3,1.7-0.2c0.6,0.1,1,0.5,1.4,1c2.8,3,2.6,6.5,1.7,10.1
	C321.6,163.6,319.4,167,318.7,170.8z"/>
<path class="st0" d="M312.6,218.4c-0.9,0.4-1.8,0.8-2.4,1.5c-0.7,0.7-1.1,1.8-0.6,2.6c0.5,1,1.9,1.1,2.9,1c5.7-0.3,11.2-3,15.1-7.2
	c0.2-0.2,0.3-0.4,0.4-0.6c0-0.2-0.1-0.4-0.2-0.6c-0.8-1.6-1.5-3.1-2.3-4.7c-1.6,0.4-3.4,0.5-4.9,1.1c-1.1,0.5-1.2,1-2,2
	C317,215.5,314.9,217.3,312.6,218.4z"/>
<polygon class="st1" points="323.1,169.1 317,229.8 318.7,229.8 327.1,169.4 "/>
<path class="st17" d="M298.3,165c-0.4,2.1-0.6,4.1-1,6.2c-0.6,2.8-1.4,5.5-2.3,8.3c-3.3,10.8-6.4,21.7-9.2,32.6
	c2.5,0.3,5.2,0.5,7.2-0.9c1-0.7,1.7-1.7,2.3-2.6c5.7-8.5,9.8-18,12-27.9c0.5-2.3,0.9-4.6,1.7-6.7c1.7-4.5,5.1-8.2,8.3-11.8
	c0.3-0.3,0.6-0.7,0.6-1.2c0-0.3-0.2-0.6-0.3-0.9c-4.1-5.4-8.7-8.8-15.6-9.7c0.7,0.8-1.6,5.5-1.9,6.8
	C299.3,159.6,298.7,162.3,298.3,165z"/>
<path class="st18" d="M367.4,154.1c-0.7,5.4-4.5,10.8-9.9,11.8c-1.9,0.4-3.9,0.2-5.8,0.1c-11.1-0.8-22.2-0.6-33.3-0.4
	c-0.1-0.6-0.3-1.2-0.5-1.7c-2.4-6.9-8.9-12.3-16.1-13.3c1-2,3.1-3.1,5.2-3.8c6.2-2.1,12.8-2.6,19.2-3.7c2.3-0.4,4.7-0.9,6.8-2
	c2.1-1.1,3.8-3,4.3-5.3c9.4-0.7,18.4-0.5,27.8,0.2c0.3,1.3,0.5,2.6,0.8,3.9c0.2,0.9,0.4,1.9,0.6,2.8
	C367.1,146.5,367.8,150.3,367.4,154.1z"/>
<path class="st19" d="M367.4,154.1c-0.7,5.4-4.5,10.8-9.9,11.8c-1.9,0.4-3.9,0.2-5.8,0.1c-11.1-0.8-22.2-0.6-33.3-0.4
	c-0.1-0.6-0.3-1.2-0.5-1.7c1.3-1.2,3-2,4.6-2.7c9.2-3.8,19.5-5.6,26.8-12.3c1.3-1.2,2.6-2.6,3.3-4.3c0.8-1.9,0-4.4,2.3-5.2
	c2.5-0.9,6.4-0.2,9,0.1c0.7,0.1,1.4,0.2,2,0.5c0.2,0.9,0.4,1.9,0.6,2.8C367.1,146.5,367.8,150.3,367.4,154.1z"/>
<path class="st18" d="M365.5,137.6h-3.2l-26.6-0.4l1.6-2.9c2.8-3.4,2.3-24.5,2.3-24.5l6.6-21.3c6.8-3.1,12.2,0.7,12.2,0.7
	s4.9,12.2,5.1,13c0.2,0.7,1.6,9.4,1.6,9.4l0.4,20.4V137.6z"/>
<path class="st19" d="M365.5,137.6H362c-3.3-0.4-6.6-0.7-10-0.7c-0.2,0-0.3,0-0.4-0.1s-0.1-0.2-0.2-0.3c-1-3-5.2-3.8-5.9-6.9
	c1.6,1.1,17.5,2.4,19.9,1.8L365.5,137.6z"/>
<path class="st20" d="M345.5,100.4c0,0.7,0.1,1.5,0.7,1.7c0.4,0.1,0.8-0.1,1.1-0.3c1.1-0.7,2-1.8,2.7-2.9c2.2-3.3,3.7-7.5,4.3-11.4
	c-1.3,0.3-2.6,0.9-3.9,0.8c-0.7-0.1-1.6-0.7-2.3-0.6c-1.2,0.1-0.9,1.9-1,2.9c-0.1,1.1-0.1,2.2-0.4,3.3
	C346.2,96.1,345.6,98.3,345.5,100.4z"/>
<path class="st13" d="M354.1,88.4c-0.2,0.3-0.5,0.6-0.9,0.8c-1.1,0.6-2.4,0.8-3.6,0.6c-0.8-0.2-1.6-0.6-1.9-1.2
	c-0.1-0.1-0.1-0.3-0.1-0.4c-0.1-0.4,0-0.7,0-1.1c0.2-1.5-0.1-3.5,0.2-5c0.1-0.4,0.2-0.7,0.3-1c0.8-1.6,3-3.2,4.5-4.2
	c0,0.5,0,1.1,0.1,1.6c0,0.3,0.1,0.7,0.1,1c0.2,2.2,0.6,4.4,1.3,6.6C354.2,86.8,354.5,87.7,354.1,88.4z"/>
<path class="st21" d="M352.7,79.4c-0.3,1.4-1.1,3-1.7,4.2c-0.8,1.7-1.9,3.3-3.1,4.7c-0.1,0.1-0.1,0.1-0.2,0.2
	c-0.1-0.1-0.1-0.3-0.1-0.4c-0.1-0.4,0-0.7,0-1.1c0.2-1.5-0.1-3.5,0.2-5c0.9-0.6,1.7-1.3,2.6-1.9c0.6-0.5,1.5-1.4,2.3-1.7
	C352.7,78.8,352.7,79.1,352.7,79.4z"/>
<path class="st13" d="M354.6,73.4c-0.3,2.2-0.6,4.5-1.7,6.5c-1,2-2.7,3.8-4.9,4.4c-1.1,0.3-2.2,0.2-3.2-0.2
	c-0.8-0.4-1.8-1.1-2.3-1.8c-1-1.3-1.9-2.8-2.8-5c-0.1-0.3-0.2-0.7-0.3-1l-0.2-0.4c-2.3-6.2-2.5-13.6,4.7-14.4c0.1,0,0.2,0,0.3,0
	c2.5-0.2,5,0.7,7,2.2c1,0.7,1.9,1.6,2.6,2.7C355,68.3,354.9,70.9,354.6,73.4z"/>
<path class="st18" d="M356.7,88.3c2.1,1,4.3,2,6.1,3.5c3.1,2.5,5,6.3,5.9,10.2c1,3.9,1.1,7.9,1.2,11.9c0.1,3.7,0.2,7.4,0.3,11.1
	c0,1.1,0.1,2.3-0.2,3.4c-0.3,1.1-0.9,2.2-1.9,2.7c-0.9,0.5-2,0.5-3,0.5c-9.6-0.2-19.3-2.2-28.2-5.8c0.1-1.5,0.2-3.1,0.3-4.6
	c7.3,1.1,14.8,1.5,22.2,1c0.6,0,1.2-0.1,1.6-0.4s0.6-0.7,0.8-1.1c0.8-1.9,1-4,1-6c0-8.4-2.8-16.6-6.4-24.3c-0.4-0.9-0.9-1.6-1.5-2.4
	C355.4,87.6,356.1,88,356.7,88.3z"/>
<path class="st18" d="M345.9,91.9c-1.2,3.5-2,7.1-2.9,10.7c-0.9,3.5-1.9,7.1-3.5,10.3c-0.6,1.2-1.3,2.3-2,3.4
	c-0.1,0.2-0.2,0.3-0.4,0.5c-2,2.6-4.6,4.7-7.2,6.8c-0.3,0.2-0.6,0.5-1,0.6c-0.5,0.2-1.1,0-1.7-0.2c-6.6-2-12.6-5.9-17.2-11.1
	c-0.3-0.3-0.6-0.8-0.6-1.2c0-0.3,0.3-0.6,0.5-0.8c0.7-0.7,1.4-1.5,2.2-2.1c0.2-0.2,0.4-0.4,0.7-0.4c0.3,0,0.5,0.1,0.8,0.2
	c4.6,1.8,8.6,5,13.3,6.5c0.9,0.3,1.9,0.5,2.8,0.2c0.7-0.2,1.3-0.8,1.8-1.3c1.3-1.5,2.2-3.3,3-5.2c2.4-5.9,3.7-12.3,7.7-17.2
	c0.9-1,2.4-2.9,3.9-3C348.1,88.2,346.3,90.9,345.9,91.9z"/>
<rect x="328.1" y="110.6" class="st22" width="4.2" height="9.4"/>
<rect x="327.4" y="109.8" class="st22" width="5.6" height="1"/>
<path class="st22" d="M328.2,118.2l-3.7,7.4c-0.5,1,0.2,2.1,1.3,2.1h8.2c1.1,0,1.8-1.1,1.4-2l-3.2-7.7L328.2,118.2z"/>
<path class="st14" d="M330,116.5c0.2,0.1,0.5,0.3,0.7,0.3c0.4,0.1,0.8-0.2,1.2-0.5c0,1.2,0,2.4,0.2,3.7c0.1,0.6,0.2,1.1,0.4,1.6
	c0.2,0.5,0.4,0.9,0.7,1.4c0.3,0.4,0.6,0.8,0.9,1.2c0.3,0.4,0.6,0.7,0.8,1.2c0.2,0.4,0.3,1,0,1.4c-0.1,0.1-0.2,0.3-0.3,0.3
	c-0.1,0.1-0.3,0.1-0.4,0.1c-1.1,0.2-2.3,0-3.5,0c-0.7,0-1.3,0-2,0c-0.9,0-1.9,0-2.8-0.1c-0.3,0-0.5-0.1-0.7-0.3
	c-0.1-0.1-0.1-0.3-0.1-0.5c0-0.6,0.3-1.2,0.7-1.7c0.4-0.5,0.4-0.8,0.7-1.3c0.1-0.3,0.5-1,0.7-1.3c0.4-0.7,1.1-1.2,1.3-1.9
	c0.3-0.8,0.2-1.7,0.2-2.5c0-0.2-0.3-1.5-0.1-1.6C328.8,115.8,329.7,116.4,330,116.5z"/>
<path class="st12" d="M337.9,126.8c-1.2-0.2-2.4-0.5-3.5-0.7c-0.7-0.2-1.5-0.3-2.2-0.6c-0.9-0.4-2.1-0.6-2.9-1.1
	c-1-0.6-1.7-1.4-2.5-2.3s-1.1-2.4-0.2-3.1c0.6-0.6,1.6-0.5,2.5-0.3c0.5,0.1,1.1,0.3,1.6,0.3s1.1-0.2,1.5-0.6s0.3-1.1-0.1-1.4
	c0.3-0.3,0.9-0.1,1.1,0.2c0.3,0.4,0.3,0.8,0.5,1.2c0.4,0.8,1.2,1.4,2.1,1.6c1.7,0.6,3,0.1,3.2,2
	C338.9,122.4,338.3,126.9,337.9,126.8z"/>
<polygon class="st22" points="332.3,115.7 332.3,117.8 331.9,117.7 331.9,116.1 332,115.4 "/>
<path class="st22" d="M320.6,104.6l-11.3,12.1c-0.4,0.4-1.1,0.5-1.5,0.1l-0.7-0.6c-0.4-0.4-0.5-1.1-0.1-1.5l11.3-12.1L320.6,104.6z"
	/>
<path class="st23" d="M316.9,107.8l-7.5,8.1c-0.3,0.3-0.7,0.3-1,0l-0.4-0.4c-0.3-0.3-0.3-0.7,0-1l7.5-8.1L316.9,107.8z"/>
<rect x="319.4" y="101.3" transform="matrix(0.6611 -0.7503 0.7503 0.6611 30.8133 274.9463)" class="st7" width="0.7" height="4.1"/>
<path class="st12" d="M313.7,106.5c-1-0.1-2.1-0.2-3.1,0.2c-0.7,0.3-1.3,0.8-1.8,1.5c-0.5,0.6-0.8,1.3-0.8,2.1
	c0.1,0.8,0.7,1.5,1.3,2.1c0.4,0.4,1,0.8,1.6,0.7c0.5-0.1,1-0.5,1.3-0.8c1-1.1,1.9-2.4,2.6-3.8c0.2-0.4,0.5-1.1,0.3-1.5
	C314.8,106.5,314.1,106.6,313.7,106.5z"/>
<polygon class="st24" points="263.9,139.6 254.3,229.8 256.9,229.8 270.7,139.6 "/>
<path class="st19" d="M362.7,119.8c-0.3-4.2-0.6-8.5-0.9-12.7c-0.8,1.1-1,2.6-1.3,3.9c-0.7,3-1.8,6.1-4.1,8.2
	c-0.7,0.6-1.4,1.1-2.3,1.5c-0.8,0.4-2,0.5-2.6,1c0.9,1.2,4.5,0.7,5.8,0.4C358.7,121.6,362.9,121.6,362.7,119.8z"/>
<path class="st19" d="M340.5,100.7c-1,2.1-2,4.4-1.7,6.9c0.1,1.5,0.7,2.9,0.9,4.4c0,0.3,0,0.7,0,1c-0.6,1.2-1.3,2.3-2,3.4
	c-0.1-0.1-0.2-0.1-0.4-0.2c-0.4-4-0.3-8.1,0.1-12.1c0.1-0.8,0.2-1.7,0.5-2.5s0.8-1.6,1.3-2.3c0.9-1.4,1.9-2.7,2.8-4.1
	c0.3-0.4,0.6-0.9,0.9-1.3C343.1,96,341.4,98.8,340.5,100.7z"/>
<path class="st0" d="M276.3,217.1c-1.2,0.4-2.4,0.8-3.4,1.4c-1.1,0.6-2,1.6-2.2,2.9c-0.1,0.3-0.1,0.7,0.1,0.9
	c0.2,0.4,0.7,0.5,1.2,0.6c6.1,1.1,12.6,0,18-3c0.6-0.3,1.2-0.7,1.6-1.2c0.6-0.7,0.8-1.6,1-2.5c0.5-1.9,0.9-3.8,1.4-5.7
	c-0.1,0.3-5,0.1-5.4,0.1c-2,0-2.4,0.1-3.9,1.4C282.3,214.2,279.4,216,276.3,217.1z"/>
<polygon class="st1" points="363.2,169.1 369.3,229.8 367.6,229.8 359.1,169.4 "/>
<path class="st1" d="M366.1,170.9h-46c-1.2,0-2.2-1-2.2-2.2v-1.9c0-1.2,1-2.2,2.2-2.2h46c1.2,0,2.2,1,2.2,2.2v1.9
	C368.3,169.9,367.3,170.9,366.1,170.9z"/>
<rect x="322.1" y="188" class="st1" width="40.9" height="2.5"/>
<path class="st11" d="M337.6,72.7c0.4,0.3,1,0.4,1.5,0.5c1.1,0.1,2.2,0.2,3.3,0.4c-0.1-0.9-0.2-1.8-0.2-2.7c0.3,0.8,0.6,1.6,1,2.3
	c0.1,0.3,0.3,0.5,0.5,0.7s0.5,0.3,0.8,0.3c1.5,0.4,3.1,0.7,4.7,0.7c-0.3-0.5-0.6-1-0.7-1.6c0.3,1.2,1.5,2,2.6,2.4s2.3,0.4,3.5,0.8
	c1.1-3.4,0.3-7.1-0.4-10.6c-0.2-0.8-0.3-1.5-0.6-2.2c-0.6-1.2-1.6-2.2-2.8-2.6c-0.7-0.2-1.5-0.3-2.2-0.4c-1.2-0.1-2.5-0.2-3.7,0
	c-1.3,0.2-2.5,0.8-3.7,1.5c-0.7,0.4-1.4,0.9-2,1.5c-1.2,1.2-1.7,3-2.1,4.7C336.8,69.5,336.6,71.8,337.6,72.7z"/>
<rect x="276" y="18.1" class="st0" width="44" height="0.8"/>
<rect x="276" y="26.7" class="st0" width="18.6" height="0.8"/>
<rect x="276" y="35.3" class="st0" width="50.6" height="0.8"/>
<rect x="276" y="43.9" class="st0" width="38.8" height="0.8"/>
<rect x="276" y="61.1" class="st0" width="38.8" height="0.8"/>
<rect x="276" y="70" class="st0" width="32.7" height="0.9"/>
<rect x="276" y="52.5" class="st0" width="55.2" height="0.8"/>
<path class="st1" d="M358,41.3L358,41.3L358,41.3L358,41.3L358,41.3z M367.4,35h-3.9c0,0.1,0.1,0.3,0.1,0.5s0,0.3-0.1,0.5h3.9
	c0-0.1-0.1-0.3-0.1-0.5S367.3,35.2,367.4,35z M371.9,43.8l-2,3.4c0.3,0.1,0.6,0.3,0.8,0.5l2-3.4C372.4,44.1,372.1,44,371.9,43.8z
	 M358.9,43.8c-0.2,0.2-0.5,0.4-0.8,0.5l2,3.4c0.2-0.2,0.5-0.4,0.8-0.5L358.9,43.8z M367.4,48.6h-3.9c0,0.1,0.1,0.3,0.1,0.5
	s0,0.3-0.1,0.5h3.9c0-0.1-0.1-0.3-0.1-0.5C367.3,48.9,367.3,48.8,367.4,48.6z M370.7,37c-0.2,0.2-0.5,0.4-0.8,0.5l2,3.4
	c0.2-0.2,0.5-0.4,0.8-0.5L370.7,37z M360.1,37l-2,3.4c0.3,0.1,0.6,0.3,0.8,0.5l2-3.4C360.6,37.3,360.3,37.2,360.1,37z"/>
<path class="st0" d="M358.9,40.8c-0.2-0.2-0.5-0.4-0.8-0.5c-0.2-0.1-0.4-0.1-0.6-0.1c-1,0-1.8,0.7-2,1.6c0,0.2-0.1,0.3-0.1,0.5
	s0,0.3,0.1,0.5c0.2,0.9,1,1.6,2,1.6c0.2,0,0.4,0,0.6-0.1c0.3-0.1,0.6-0.2,0.8-0.5c0.4-0.4,0.6-0.9,0.6-1.5
	C359.6,41.7,359.3,41.2,358.9,40.8z M358,41.3L358,41.3L358,41.3L358,41.3L358,41.3z"/>
<g>
	<path class="st1" d="M358.9,30.2c-0.2,0.2-0.5,0.4-0.8,0.5l2,3.4c0.2-0.2,0.5-0.4,0.8-0.5L358.9,30.2z M358.9,30.2
		c-0.2,0.2-0.5,0.4-0.8,0.5l2,3.4c0.2-0.2,0.5-0.4,0.8-0.5L358.9,30.2z M367.4,21.4h-3.9c0,0.1,0.1,0.3,0.1,0.5s0,0.3-0.1,0.5h3.9
		c0-0.1-0.1-0.3-0.1-0.5C367.3,21.7,367.3,21.6,367.4,21.4z M367.4,35h-3.9c0,0.1,0.1,0.3,0.1,0.5s0,0.3-0.1,0.5h3.9
		c0-0.1-0.1-0.3-0.1-0.5S367.3,35.2,367.4,35z M371.9,30.2l-2,3.4c0.3,0.1,0.6,0.3,0.8,0.5l2-3.4C372.4,30.5,372.1,30.4,371.9,30.2z
		 M370.7,23.4c-0.2,0.2-0.5,0.4-0.8,0.5l2,3.4c0.2-0.2,0.5-0.4,0.8-0.5L370.7,23.4z M358.9,30.2c-0.2,0.2-0.5,0.4-0.8,0.5l2,3.4
		c0.2-0.2,0.5-0.4,0.8-0.5L358.9,30.2z M358.9,30.2c-0.2,0.2-0.5,0.4-0.8,0.5l2,3.4c0.2-0.2,0.5-0.4,0.8-0.5L358.9,30.2z
		 M360.1,23.4l-2,3.4c0.3,0.1,0.6,0.3,0.8,0.5l2-3.4C360.6,23.7,360.3,23.6,360.1,23.4z M358.9,30.2c-0.2,0.2-0.5,0.4-0.8,0.5l2,3.4
		c0.2-0.2,0.5-0.4,0.8-0.5L358.9,30.2z M358.9,30.2c-0.2,0.2-0.5,0.4-0.8,0.5l2,3.4c0.2-0.2,0.5-0.4,0.8-0.5L358.9,30.2z M367.4,35
		h-3.9c0,0.1,0.1,0.3,0.1,0.5s0,0.3-0.1,0.5h3.9c0-0.1-0.1-0.3-0.1-0.5S367.3,35.2,367.4,35z"/>
</g>
<path class="st1" d="M360.1,37l-2,3.4c0.3,0.1,0.6,0.3,0.8,0.5l2-3.4C360.6,37.3,360.3,37.2,360.1,37z M357.9,30.2L357.9,30.2
	L357.9,30.2L357.9,30.2z M348.3,30.2l-1.9,3.4c0.3,0.1,0.6,0.3,0.8,0.5l2-3.4C348.8,30.6,348.5,30.4,348.3,30.2z M358.9,30.2
	c-0.2,0.2-0.5,0.4-0.8,0.5l2,3.4c0.2-0.2,0.5-0.4,0.8-0.5L358.9,30.2z M360.1,37l-2,3.4c0.3,0.1,0.6,0.3,0.8,0.5l2-3.4
	C360.6,37.3,360.3,37.2,360.1,37z M357.9,30.2L357.9,30.2L357.9,30.2L357.9,30.2z M355.6,28.2h-4c0,0.1,0.1,0.3,0.1,0.5
	s0,0.3-0.1,0.5h4c0-0.2-0.1-0.3-0.1-0.5S355.6,28.4,355.6,28.2z M360.1,37l-2,3.4c0.3,0.1,0.6,0.3,0.8,0.5l2-3.4
	C360.6,37.3,360.3,37.2,360.1,37z M358,41.3L358,41.3L358,41.3L358,41.3L358,41.3z M355.6,41.8h-4c0,0.2,0.1,0.3,0.1,0.5
	s0,0.3-0.1,0.5h4c0-0.2-0.1-0.3-0.1-0.5S355.6,42,355.6,41.8z M347.1,36.9c-0.2,0.2-0.5,0.4-0.8,0.5l1.9,3.4
	c0.2-0.2,0.5-0.4,0.8-0.4L347.1,36.9z M357.9,30.2L357.9,30.2L357.9,30.2L357.9,30.2z M360.1,37l-2,3.4c0.3,0.1,0.6,0.3,0.8,0.5
	l2-3.4C360.6,37.3,360.3,37.2,360.1,37z M358,41.3L358,41.3L358,41.3L358,41.3L358,41.3z"/>
<path class="st0" d="M363.5,35.5c0,0.2,0,0.3-0.1,0.5c-0.2,0.9-1,1.6-2,1.6c-0.2,0-0.4,0-0.6-0.1c-0.3-0.1-0.6-0.2-0.8-0.5
	c-0.4-0.4-0.6-0.9-0.6-1.5s0.2-1.1,0.6-1.5c0.2-0.2,0.5-0.4,0.8-0.5c0.2-0.1,0.4-0.1,0.6-0.1c1,0,1.8,0.7,2,1.6
	C363.5,35.2,363.5,35.3,363.5,35.5z"/>
<path class="st0" d="M347.7,35.5c0,0.6-0.2,1.1-0.6,1.4c-0.2,0.2-0.5,0.4-0.8,0.5c-0.2,0.1-0.4,0.1-0.7,0.1c-1.1,0-2-0.9-2-2
	s0.9-2,2-2c0.2,0,0.4,0,0.7,0.1c0.3,0.1,0.6,0.3,0.8,0.5l0,0C347.5,34.4,347.7,34.9,347.7,35.5z"/>
<g>
	<path class="st0" d="M371.4,21.9c0,0.6-0.2,1.1-0.6,1.5c-0.2,0.2-0.5,0.4-0.8,0.5c-0.2,0.1-0.4,0.1-0.6,0.1c-1,0-1.8-0.7-2-1.6
		c0-0.1-0.1-0.3-0.1-0.5s0-0.3,0.1-0.5c0.2-0.9,1-1.6,2-1.6C370.5,19.9,371.4,20.8,371.4,21.9z"/>
</g>
<g>
	<path class="st0" d="M375.3,28.7c0,1.1-0.9,2-2,2c-0.2,0-0.4,0-0.6-0.1c-0.3-0.1-0.6-0.2-0.8-0.5c-0.4-0.4-0.6-0.9-0.6-1.5
		s0.2-1.1,0.6-1.5c0.2-0.2,0.5-0.4,0.8-0.5c0.2-0.1,0.4-0.1,0.6-0.1C374.4,26.7,375.3,27.6,375.3,28.7z"/>
</g>
<g>
	<path class="st0" d="M371.4,35.5c0,0.6-0.2,1.1-0.6,1.5c-0.2,0.2-0.5,0.4-0.8,0.5c-0.2,0.1-0.4,0.1-0.6,0.1c-1,0-1.8-0.7-2-1.6
		c0-0.1-0.1-0.3-0.1-0.5s0-0.3,0.1-0.5c0.2-0.9,1-1.6,2-1.6c0.2,0,0.4,0,0.6,0.1c0.3,0.1,0.6,0.3,0.8,0.5
		C371.1,34.4,371.4,34.9,371.4,35.5z"/>
</g>
<g>
	<path class="st0" d="M375.3,42.3c0,1.1-0.9,2-2,2c-0.2,0-0.4,0-0.6-0.1c-0.3-0.1-0.6-0.2-0.8-0.5c-0.4-0.4-0.6-0.9-0.6-1.5
		s0.2-1.1,0.6-1.5c0.2-0.2,0.5-0.4,0.8-0.5c0.2-0.1,0.4-0.1,0.6-0.1C374.4,40.3,375.3,41.2,375.3,42.3z"/>
</g>
<g>
	<path class="st0" d="M351.6,28.7c0,0.2,0,0.3-0.1,0.5c-0.2,0.9-1,1.6-2,1.6c-0.2,0-0.3,0-0.5-0.1c-0.3-0.1-0.6-0.2-0.8-0.4
		c-0.4-0.4-0.7-0.9-0.7-1.5c0-1.1,0.9-2,2-2c1,0,1.8,0.7,2,1.6C351.6,28.4,351.6,28.5,351.6,28.7z"/>
</g>
<g>
	<path class="st0" d="M351.6,42.3c0,0.2,0,0.3-0.1,0.5c-0.2,0.9-1,1.6-2,1.6c-1.1,0-2-0.9-2-2c0-0.6,0.3-1.1,0.7-1.5
		c0.2-0.2,0.5-0.4,0.8-0.4c0.2,0,0.3-0.1,0.5-0.1c1,0,1.8,0.7,2,1.6C351.6,42,351.6,42.1,351.6,42.3z"/>
</g>
<g>
	<path class="st7" d="M358,41.3L358,41.3L358,41.3L358,41.3L358,41.3z"/>
</g>
<g>
	<path class="st0" d="M357.9,30.2L357.9,30.2L357.9,30.2z"/>
	<path class="st0" d="M357.9,30.2L357.9,30.2L357.9,30.2L357.9,30.2z"/>
	<path class="st0" d="M358.9,27.2c-0.2-0.2-0.5-0.4-0.8-0.5c-0.2-0.1-0.4-0.1-0.6-0.1c-1,0-1.8,0.7-2,1.6c0,0.1-0.1,0.3-0.1,0.5
		s0,0.3,0.1,0.5c0.2,0.9,1,1.6,2,1.6c0.2,0,0.4,0,0.6-0.1c0.3-0.1,0.6-0.2,0.8-0.5c0.4-0.4,0.6-0.9,0.6-1.5
		C359.6,28.1,359.3,27.6,358.9,27.2z M357.9,30.2L357.9,30.2L357.9,30.2L357.9,30.2z"/>
</g>
<g>
	<path class="st0" d="M371.4,49.1c0,1.1-0.9,2-2,2c-1,0-1.8-0.7-2-1.6c0-0.1-0.1-0.3-0.1-0.5s0-0.3,0.1-0.5c0.2-0.9,1-1.6,2-1.6
		c0.2,0,0.4,0,0.6,0.1c0.3,0.1,0.6,0.3,0.8,0.5C371.1,48,371.4,48.5,371.4,49.1z"/>
</g>
<g>
	<path class="st0" d="M363.5,21.9c0,0.2,0,0.3-0.1,0.5c-0.2,0.9-1,1.6-2,1.6c-0.2,0-0.4,0-0.6-0.1c-0.3-0.1-0.6-0.2-0.8-0.5
		c-0.4-0.4-0.6-0.9-0.6-1.5c0-1.1,0.9-2,2-2c1,0,1.8,0.7,2,1.6C363.5,21.6,363.5,21.7,363.5,21.9z"/>
</g>
<g>
	<path class="st0" d="M363.5,49.1c0,0.2,0,0.3-0.1,0.5c-0.2,0.9-1,1.6-2,1.6c-1.1,0-2-0.9-2-2c0-0.6,0.2-1.1,0.6-1.5
		c0.2-0.2,0.5-0.4,0.8-0.5c0.2-0.1,0.4-0.1,0.6-0.1c1,0,1.8,0.7,2,1.6C363.5,48.8,363.5,48.9,363.5,49.1z"/>
</g>
<rect x="278.3" y="96.1" transform="matrix(0.7695 -0.6387 0.6387 0.7695 0.3855 201.8078)" class="st1" width="2.9" height="8.5"/>
<rect x="287.4" y="107.4" transform="matrix(0.7695 -0.6387 0.6387 0.7695 -4.4803 210.1461)" class="st1" width="2.9" height="7.8"/>
<rect x="282.1" y="97.1" transform="matrix(0.7695 -0.6387 0.6387 0.7695 -2.2917 206.3102)" class="st3" width="5" height="18.4"/>
<rect x="274.6" y="99.1" transform="matrix(0.7695 -0.6387 0.6387 0.7695 0.7244 201.2197)" class="st25" width="9.1" height="1"/>
<rect x="274.1" y="96.6" transform="matrix(0.7695 -0.6387 0.6387 0.7695 1.9102 199.3158)" class="st25" width="5.9" height="0.9"/>
<rect x="291.7" y="118.7" transform="matrix(0.7729 -0.6345 0.6345 0.7729 -8.4773 214.4642)" class="st3" width="7.4" height="0.7"/>
<polygon class="st1" points="298.4,114.8 290.7,121.1 291.5,121.9 299.2,115.5 "/>
<path class="st3" d="M294.6,119.9l2.4-2v4h-2.4C294.6,121.9,294.5,119.9,294.6,119.9z"/>
<path class="st3" d="M294.6,121.9c0,0-1.5,4.2-9,4.2s-9.9-6.3-9.9-9.8s2.1-7.9,5.8-10.8l-1.4-1.8c0,0-8.3,7.5-6,15.1
	c2.3,7.5,7,9.2,11.6,9.2s10.2-2.5,11.4-6L294.6,121.9L294.6,121.9z"/>
<path class="st1" d="M287.8,133.7h-4.4v-7.9c0-0.8,0.6-1.4,1.4-1.4h1.7c0.8,0,1.4,0.6,1.4,1.4v7.9H287.8z"/>
<circle class="st0" cx="285.5" cy="126.8" r="1.3"/>
<path class="st0" d="M293.5,136.2H278v-0.9c0-0.9,0.7-1.6,1.6-1.6h12.3c0.9,0,1.6,0.7,1.6,1.6V136.2z"/>
<path class="st22" d="M366.5,132.1h-1.1c-0.7,0-1.3-0.6-1.3-1.3v-18.5h3.7v18.5C367.8,131.5,367.2,132.1,366.5,132.1z"/>
<path class="st3" d="M366.3,131.3h-0.8c-0.5,0-0.9-0.4-0.9-0.9V117h2.6v13.3C367.3,130.9,366.8,131.3,366.3,131.3z"/>
<path class="st22" d="M374.5,132.1h-1.1c-0.7,0-1.3-0.6-1.3-1.3v-18.5h3.7v18.5C375.8,131.5,375.2,132.1,374.5,132.1z"/>
<path class="st14" d="M374.4,131.3h-0.8c-0.5,0-0.9-0.4-0.9-0.9V123h2.6v7.3C375.3,130.9,374.9,131.3,374.4,131.3z"/>
<rect x="359.4" y="119.7" class="st26" width="1.6" height="18.1"/>
<rect x="386.9" y="119.7" class="st26" width="1.6" height="18.1"/>
<rect x="359.4" y="119.7" class="st26" width="29" height="1.7"/>
<path class="st1" d="M399.7,141H252.5c-1,0-1.7-0.8-1.7-1.7v-1.5c0-1,0.8-1.7,1.7-1.7h147.1v4.9H399.7z"/>
<path class="st3" d="M127.2,62.9c0,0-0.5-0.5-1.1-0.8c0,0,0.2,0.2,0.7,0.9S127.2,62.9,127.2,62.9z"/>
</svg>
