<?xml version="1.0" encoding="utf-8"?>
<!-- Generator: Adobe Illustrator 25.0.0, SVG Export Plug-In . SVG Version: 6.00 Build 0)  -->
<svg version="1.1" id="Layer_1" xmlns="http://www.w3.org/2000/svg" xmlns:xlink="http://www.w3.org/1999/xlink" x="0px" y="0px"
	 viewBox="0 0 400 366.7" style="enable-background:new 0 0 400 366.7;" xml:space="preserve">
<style type="text/css">
	.st0{fill:#90D7C4;}
	.st1{fill:#A9D7AA;}
	.st2{opacity:0.21;fill:#006662;enable-background:new    ;}
	.st3{fill:#428E8B;}
	.st4{opacity:0.28;fill:#004751;enable-background:new    ;}
	.st5{fill:#CA8342;}
	.st6{fill:#FFFFFF;}
	.st7{fill:#B56C30;}
	.st8{opacity:0.28;fill:#006662;enable-background:new    ;}
	.st9{fill:#C7E9E5;}
	.st10{fill:#26AC9A;}
	.st11{fill:#004751;}
	.st12{opacity:0.37;fill:#4CBEA0;enable-background:new    ;}
	.st13{fill:#4CBEA0;}
	.st14{fill:#006662;}
	.st15{fill:#2E817E;}
	.st16{fill:#93D8C6;}
	.st17{fill:#9CDBCB;}
	.st18{fill:#FEECD7;}
	.st19{fill:#338481;}
	.st20{fill:#FDC485;}
	.st21{opacity:0.28;fill:#CA8342;enable-background:new    ;}
	.st22{fill:#E5F3E6;}
	.st23{fill:#14A592;}
	.st24{opacity:0.13;fill:#006662;enable-background:new    ;}
	.st25{fill:#FEDFBD;}
	.st26{fill:#177370;}
	.st27{fill:#CCCCCC;}
	.st28{fill:#EDC39A;}
	.st29{fill:#BFE1BF;}
	.st30{fill:#C4EAE0;}
	.st31{fill:#21AA98;}
	.st32{fill:#EBF0F1;}
	.st33{fill:#FFF0C1;}
	.st34{fill:#89D4C0;}
	.st35{opacity:0.45;fill:#006662;enable-background:new    ;}
	.st36{fill:#009D88;}
</style>
<path class="st0" d="M105.4,54.4c0,0,16.8,2,19.2,8c2.4,6,3.6,17.7,3.6,17.7l-6,1.4l-10.9-6.8l-3.6-7.6l-2-7.4L105.4,54.4"/>
<path class="st1" d="M103.4,316.6c0.1,4.4,0.2,7.9,0.2,7.9s4.2,0.3,9.8,0.6c6.7,0.4,15.4,0.8,20.8,0.8c1.9,0,4.2-0.4,5.1-2
	c1-2.1-1.1-4.3-3.1-5.7c-5.6-4-11.8-7.8-17.2-11.8c-1.8-1.3-15.5-4.8-15.6-3.5C103.2,306.3,103.3,312,103.4,316.6z"/>
<path class="st2" d="M103.4,316.6c0.1,4.4,0.2,7.9,0.2,7.9s4.2,0.3,9.8,0.6c0.8-0.6,1.4-1.4,1.5-2.3c0.1-1.1-0.6-2.1-1.5-2.8
	c-0.9-0.7-1.9-1-3-1.4C108.5,317.9,105.8,317,103.4,316.6z"/>
<path class="st1" d="M103.1,318.1c2,1.4,4.2,3.6,3.1,5.7c-0.8,1.6-3.1,2-5.1,2c-9.9,0-30.6-1.4-30.6-1.4s-0.6-15-0.3-21.6
	c0.1-1.3,13.8,2.2,15.6,3.5C91.4,310.3,97.5,314.1,103.1,318.1z"/>
<path class="st3" d="M125.8,183.4c0,3.4-0.1,6.8-0.2,10.3c-0.2,4.7-0.3,9.4-0.5,14.2c-1.2,40-1.7,61.1-1.4,101.1
	c0,0.4-0.3,0.7-0.6,0.7c-6.7,0.5-13.5,0.2-20.1-0.8c-0.3-0.1-0.6-0.3-0.6-0.7c1.2-26.7-1.9-91.3-5.3-127c-0.1-1.1-0.2-2.2-0.3-3.2
	c0-0.2-0.1-0.3-0.2-0.4l0,0c-0.2-0.2-0.5-0.2-0.7-0.1c-0.1,0.1-0.2,0.2-0.3,0.3c0,0.1-0.1,0.2-0.1,0.2c-0.1,0.6-0.1,1.3-0.2,2
	c-3.3,35-5.6,101.2-4.4,128.3c0,0.3-0.2,0.6-0.6,0.7c-6.6,1-13.4,1.3-20.1,0.8c-0.3,0-0.6-0.3-0.6-0.7c0.4-44.7-0.2-70.6-1.9-115.3
	c-0.2-7.1-0.3-14.3-0.2-21.4c0-1.9,0-3.8,0.1-5.7c0-1,0-2,0.1-3c0-1.2,0.1-2.5,0.1-3.8c0.1-5.3-0.5-15.9,2.3-19.8
	c1.6-2.2,10.3-5.8,13.1-5.9c2.2-0.1,4.3,0.8,6.2,1.8c2.3,1.1,4.7,2.3,6.9,3.7c0.2,0.2,0.5,0.2,0.7,0c2.2-1.4,4.5-2.6,6.9-3.7
	c2-1,4-1.9,6.2-1.8c2.8,0.1,11.4,3.7,13.1,5.9c0.6,0.8,1,2,1.4,3.3l0,0l0.5,2.9c0.6,4.6,0.3,10.2,0.4,13.6v0.1
	c0,1.1,0.1,2.2,0.1,3.3c0,0.6,0,1.2,0,1.8c0,0.2,0,0.3,0,0.5c0.1,2.3,0.1,4.5,0.1,6.8C125.8,176,125.8,179.7,125.8,183.4z"/>
<path class="st4" d="M125.7,172.3c-9.2,2.3-18.8,3.5-28.3,5c-0.2,0-0.4,0.1-0.7,0.1c-0.1,0-0.1,0-0.2,0c-0.3,0.1-0.7,0.1-1,0.2
	c-9.6,1.6-19,3.7-27.8,7.9c0-0.1-0.1-0.9-0.2-2.1c-0.1-6.1,0-12.3,0.2-18.4c0.1-0.8,0.3-1.5,0.5-2.3c1.5-5.8,11-10.2,16.3-12.1
	c11.1-3.9,23.4-0.6,34.5,3.6c1.8,0.7,3.7,1.5,4.8,3.1c0.6,0.9,0.8,1.9,1.1,3c0.2,1,0.4,2,0.7,3c0,0.6,0,1.2,0,1.8c0,0.2,0,0.3,0,0.5
	C125.6,167.8,125.7,170,125.7,172.3z"/>
<path class="st0" d="M128.4,165c0,0-1.1,0.2-2.8,0.5c-6.2,1.2-21,3.9-28.8,4.3c-9.8,0.5-20.4,1.2-29.1-3.3c-0.2-0.1-0.4-0.2-0.6-0.3
	c-0.5-0.3-0.9-0.5-1.2-1c-0.3-0.6-0.1-1.4,0-2.1c0.9-7.4,2.9-21.9,4.9-34c0.3-1.7,0.5-3.3,0.7-4.8c0.4-3,0.6-5.7,0.6-7.7
	c-0.3-8.3-2.7-16.3-3.3-24.6c-0.6-8.4,0.7-16.9,3.8-24.7c0.3-0.8,0.7-1.6,1.4-2.1c0.6-0.4,1.4-0.5,2.1-0.5c4.6-0.3,9.2,0.8,13.7,1.4
	c4.2,0.5,8.4,0.5,12.6,0c2.2-0.3,4.4-0.7,6.5-1.2c1.6-0.4,4.2-1.9,5.8-1.7c3.4,0.4,3.8,6.8,4.6,9.5c1.3,4.5,2.7,9,4,13.5
	c1.1,3.7,2.2,7.5,1.8,11.3c-0.3,3.6-1.9,6.9-3,10.3c-3.3,11.2,2.2,35.2,2.2,35.2l0.1,0.4l0,0l0.5,2.9L128.4,165z"/>
<path class="st5" d="M106.6,55.2l-8.8,6.4l-11.7-6.5c0,0,1.7-1.9,3.1-5.1c0.4-0.9,0.8-2,1.1-3.1l0,0c0.6-2,0.9-4.3,0.8-6.9
	c0-0.2,0-0.3,0-0.5v-0.1c0-0.1,0-0.1,0-0.2c0-0.1,0-0.2,0-0.4c0.3-7.7,7.2-3.3,7.2-3.3l3.1,2l1.5,1c0,0,0,0.4-0.1,1.1
	c-0.1,1.2-0.1,3.2,0,5.5c0.1,1.8,0.3,3.8,0.6,5.6C104.1,53.4,104.9,54.4,106.6,55.2z"/>
<path class="st0" d="M105.5,54.4c0,0-15.9,4.4-20.1,36.5L116,90c0,0,0.9-10.2,0.9-11.5S113,57.7,113,57.7L105.5,54.4z"/>
<path class="st0" d="M90.1,56.8c-1.2-0.6-2.4-1.3-3.7-1.4c-1-0.1-2,0.2-3,0.6c-3,1-5.9,2.4-8.6,4c-1.6,0.9-3.1,2-4.2,3.4
	c-1.1,1.4-1.7,3.4-1.2,5.1c0.7,2.4,3.2,3.9,5.6,4.6c5.3,1.7,11.1,1.4,16.5,0.4c2.9-0.5,5.9-1.3,8.2-3.2c0.9-0.7,3.1-1.8,3.2-2.9
	c0.1-1.3-2.5-3.5-3.4-4.3C96.9,60.5,93.5,58.6,90.1,56.8z"/>
<path class="st0" d="M89.7,56.2c-0.8-0.4-1.7-0.8-2.6-0.7c-0.6,0.1-1.1,0.5-1.6,0.9c-1.4,1-2.8,2.1-4.2,3.1c-0.4,0.3-0.8,0.6-1,1.1
	c-0.5,1.1,0.6,2.3,1.6,3c7.2,4.9,17.5,4.7,24.4-0.6c1.5-1.1,2.9-2.7,3.1-4.5c0.5-4.9-4.8-3.5-7.3-2.6C98.1,57.1,93.7,57.9,89.7,56.2
	z"/>
<polygon class="st5" points="105.4,54.4 98,80.3 86.1,55.2 "/>
<polygon class="st6" points="98,80.4 103.7,60.2 88.6,60.5 "/>
<path class="st7" d="M103.5,50.7c-1.6,0-3.2,0-4.8-0.3c-2-0.3-3.4-0.2-6.1-1.6c-0.7-0.4-1.6-1.3-2.3-1.9l0,0c0.6-2,0.9-4.3,0.8-6.9
	c0-0.2,0-0.3,0-0.5v-0.1c0-0.3,0-0.5,0-0.5h0.1l1.4-0.9c0.5-0.1,1-0.1,1.5-0.1c2.7,0,5.5,0.5,8,1.4c0.3,0.1,0.5,0.2,0.8,0.4
	c-0.1,1.2-0.1,3.2,0,5.5C103,46.9,103.2,48.9,103.5,50.7z"/>
<path class="st5" d="M106.5,11.9c2.1,1.7,3.8,3.9,4.4,6.4c1.8,8.3,0.7,18.1-5.8,24.6c-2,2-4.6,3.8-7.6,3.7c-3.7-0.1-7.6-3.3-9.7-6.1
	c-2.5-3.5-3.6-7-4.4-11.1s-0.3-8.5,2-12.1C89.4,11.3,99.9,6.7,106.5,11.9z"/>
<path class="st8" d="M70.2,107.1c-0.1-2.2-0.5-4.4-0.8-6.6c-1.1-8.3-0.2-16.9,2.5-24.8c1.4,4.7,2.8,9.4,3.7,14.3
	c0.7,3.4,1.1,6.9,1.5,10.3c0.3,2.2,0.5,4.5,0.8,6.7c0,0.2,0,0.4-0.1,0.6s-0.4,0.3-0.6,0.3C76.4,108.2,70.2,108.1,70.2,107.1z"/>
<polygon class="st9" points="103.7,60.2 95.9,75.9 98,80.3 "/>
<path class="st10" d="M76.9,82.8l3.2,40.1l0,0l0.2,2.1l0.3,3.1H118l-1.7-19.4l-0.2-1.9l-2.2-24.6L76.9,82.8z"/>
<path class="st5" d="M78,97.3c-0.1-0.4-0.3-0.9-0.7-1.1c-0.4-0.1-0.8,0-1.1,0.3c-0.3,0.3-0.4,0.7-0.5,1c-0.3,0.8-0.5,1.5-0.7,2.3
	c-0.3,1-0.5,1.9-0.5,2.9c0,2.3,1.1,4.5,3,5.8c1.8,1.3,4.3,1.7,6.5,0.9c0.4-0.1,0.7-0.3,1-0.6c0.4-0.4,0.6-1.1,0.6-1.7
	c0.1-1.1-0.1-2.8-0.7-3.8c-0.6-0.8-1.2-0.8-2.2-1.2C80.5,101.3,78.8,99.5,78,97.3z"/>
<path class="st0" d="M130.5,122.2c-2.8,2.8-6.3,3.4-8.6,3.5c-1.5,0.1-2.5-0.1-2.5-0.1s0,0.1,0.1,0.1c-1.6-0.3-3.1-0.6-4.4-0.8
	c-11.6-2.2-22.1-8.3-32.3-14.3c-0.5-2.7-0.2-5.6,0.8-8.1c2.1,0.2,4.2,0.9,6.2,1.5c8.6,2.7,17.6,4,26.6,3.8
	c0.9-5.9,0.1-11.9,0.5-17.8c0.2-2.2,0.5-4.4,0.5-6.6c0.1-5-1.1-10-3.6-14.2c-1.3-2.2-2.8-4.2-4-6.5c-0.7-1.4-2.1-4.2-1.6-5.9
	c0.6-2,2.2-0.8,3.9-0.3c3.7,1.1,7.3,2.7,10,5.6c1.6,1.8,2.7,3.9,3.7,6.1c0,0,0,0,0,0.1c0.3,1.4,5.1,21,6.2,36.7
	C132.5,112.3,132.3,118.7,130.5,122.2z"/>
<path class="st0" d="M86.1,55.2c0,0-13.3,0.7-19.3,7.7s-1.1,9.8-1.1,9.8l16.7-1l8.6-6.1L86.1,55.2z"/>
<path class="st11" d="M81.5,16.5c0.2,0.5,0.4,0.9,0.3,1.4c-0.1,0.4-0.4,0.7-0.6,1c-1,1.4-0.8,3.3-0.5,5.1c0.1,0.5,0.1,0.9,0.2,1.4
	c0.5,3.1,1.1,6.5,3.7,8.4c1.3-2.2,2.6-4.4,3.8-6.6c0.2-0.3,0.4-0.6,0.7-0.8c0.4-0.2,0.8-0.2,1.2-0.3c1.2-0.4,1.6-1.7,2.2-2.8
	c1.3-2.2,4.3-3.4,6.9-2.8c0.9,0.2,1.7,0.6,2.6,0.7c0.8,0.1,1.5-0.1,2.3-0.2c2.5-0.5,6.7,2.3,9.2,2.4c1.7-2.2,1.5-7.4,2.8-9.8
	c-2.2,0.3-4-1.5-5.7-2.8C106.1,7.3,99.6,6,94,7.5c-3,0.8-6.5,1.7-9.3,2.8C82.3,11.4,80.7,14.1,81.5,16.5z"/>
<path class="st8" d="M120.6,105.5c0,0.4,0,0.9-0.1,1.3c-0.4,2.6-2.4,4.9-4.5,6.3c-2.9,1.8-6.3,2.5-9.6,3.7
	c-4.1,1.4-7.9,3.4-11.9,5.1c-7.6,3.4-15.6,5.9-23.8,7.4c0.3-2,0.6-3.9,0.9-5.8c0.8-0.5,1.8-1,2.7-1.4c9.8-4.6,19.5-9.3,29.3-13.9
	c2.6-1.2,5.3-2.5,8-3.5c2-0.6,4-1.2,6.1-1.2c1.4,0,2.2,0,2.5,0.6C120.4,104.4,120.6,104.8,120.6,105.5z"/>
<path class="st5" d="M115,94.4c0.7-0.2,1.5,0.2,2.1,0.7c2.6,2.1,4.1,5.4,4,8.7c0,1.2-0.4,2.6-1.4,3.2c-0.4,0.3-0.9,0.4-1.4,0.5
	c-1.9,0.5-15.2,1.8-10.9-3.4c1.5-1.8,4.3-1.4,6-2.6C114.8,100.7,114.7,94.5,115,94.4z"/>
<path class="st0" d="M57.8,122.2c4.9,4.5,11.9,3.4,11.9,3.4s0,0.1-0.1,0.1c1.7-0.3,3.3-0.6,4.7-0.8c12.4-2.2,25.6-8.8,36.5-14.7
	c0.6-2.7,0.3-5.5-0.9-8c-2.3,0.2-6.4,1.5-8.6,2.1c-9.2,2.7-18.8,4-28.4,3.7c-1-5.8-0.1-11.7-0.6-17.6c-0.2-2.2-0.5-4.3-0.5-6.5
	c-0.1-4.9,1.2-9.8,3.9-14.1c1.4-2.2,3-4.2,4.3-6.4c0.8-1.4,2.2-4.1,1.7-5.8c-0.6-1.9-2.4-0.8-4.2-0.3c-3.9,1.1-7.9,2.6-10.7,5.5
	c-1.7,1.7-2.9,3.9-3.9,6c0,0,0,0,0,0.1C62.4,70.9,51.8,111.3,57.8,122.2z"/>
<path class="st12" d="M130.5,122.2c-2.8,2.8-6.3,3.4-8.6,3.5c-0.1-1,0-1.9,0.2-2.9c0.4-2.3,1.4-4.6,2.5-6.7
	c2.1-3.9,4.5-7.7,7.4-11.1C132.5,112.3,132.3,118.7,130.5,122.2z"/>
<polygon class="st13" points="384.1,119.4 384.1,254.2 395.8,269 400,123.2 "/>
<polygon class="st14" points="384,253.6 295.3,253.6 292.7,264 332.9,268.2 370.9,269 394,267.8 394,264.8 388.1,263.8 389.6,261.3 
	"/>
<polygon class="st13" points="14.3,173.9 14.3,221.8 8.4,233.2 4.4,211.3 6.4,186 6.2,177 "/>
<rect x="6.8" y="232.8" class="st15" width="281.3" height="31.2"/>
<rect x="289.9" y="1.3" class="st16" width="2.2" height="319.3"/>
<path class="st15" d="M276.5,256.6l88.6-109c1.4-1.7,3.8-1.9,5.5-0.6l9,7.3c1.7,1.4,1.9,3.8,0.6,5.5l-88.6,109
	c-1.4,1.7-3.8,1.9-5.5,0.6l-9-7.3C275.4,260.7,275.2,258.2,276.5,256.6z"/>
<path class="st16" d="M283.3,200.1c-8.1-11-12.4-25.5-13.7-45.4c-0.4-6.4-0.3-14.7-0.2-23.4c0.2-13,0.4-55.2-1.1-64.4l2.1-0.3
	c1.5,9.4,1.3,51.7,1.1,64.8c-0.1,8.7-0.2,16.9,0.2,23.3c1.2,19.5,5.5,33.6,13.3,44.3L283.3,200.1z"/>
<path class="st17" d="M141.5,315.8c-2.5,2.2-4.3,4.7-3.6,7c0.4,1.5,1.9,2.6,3.5,3.1s3.4,0.6,5.2,0.5c5.5-0.2,10.9-1.2,16.2-2.3
	c0.8-0.2,1.7-0.4,2.4-0.9c0.6-0.5,0.9-1.3,1.1-2.1c1-4.6-0.5-9.2-2-13.7c-3.9,0-8.8-0.8-12,1.3C150.1,310,145,312.7,141.5,315.8z"/>
<path class="st17" d="M197.9,315.8c2.5,2.2,4.3,4.7,3.6,7c-0.4,1.5-1.9,2.6-3.5,3.1s-3.4,0.6-5.2,0.5c-5.5-0.2-10.9-1.2-16.2-2.3
	c-0.8-0.2-1.7-0.4-2.4-0.9c-0.6-0.5-0.9-1.3-1.1-2.1c-1-4.6,0.5-9.2,2-13.7c3.9,0,8.8-0.8,12,1.3C189.4,310,194.4,312.7,197.9,315.8
	z"/>
<path class="st18" d="M243.4,151.3c2.2,1.4,4.1,3.3,5.1,5.7c0.3,0.8,0.5,1.7,0.3,2.5c-0.3,1.4-1.8,2.4-3.3,2.5s-2.9-0.4-4.3-1
	c-2-0.9-3.9-1.9-5.8-3.1c-1-0.6-2-1.4-2.3-2.5c-0.3-0.9-0.1-1.8,0.1-2.7C234.4,146.6,239.3,148.8,243.4,151.3z"/>
<path class="st1" d="M136.9,215.5c0,0,50.4,5.1,60.3,0.2c9.9-4.9,3-22.8,3-22.8l-5.9-9.4l-25-5.5l-14.8-0.5L136.9,215.5z"/>
<polygon class="st19" points="167.4,137 166.8,156.5 171.4,156.2 170.4,137 188.5,128.8 185.8,308 175.4,308.1 171.6,167.4 
	166.7,167.7 164.5,308.3 153.5,308 148.2,128.8 "/>
<polygon class="st18" points="186.6,73.9 182.1,80.3 175.2,79.6 171.6,76.4 170.6,67.6 176.7,67.4 "/>
<path class="st18" d="M186.2,74.3c-0.3,0.2-0.7,0.1-1,0.1c-4.9-0.6-9.7-2.5-13.8-5.4c-0.5-0.3-1-0.8-1-1.3c0-0.6,0.4-0.9,0.8-1.3
	c0.2-0.1,0.4-0.3,0.7-0.4l0,0c0.1,0,0.1-0.1,0.2-0.1c0.5-0.3,0.9-0.6,1.2-1.1c1-1.2,1.7-2.7,2.4-4.2c1.1-2.3,2.6-4.5,5.4-4.5
	c2,0,4.6,1.3,5,3.4c0.3,1.5-0.9,3.3-1.2,4.8c0,0.1,0,0.1,0,0.2c-0.3,1.7-0.2,3.4,0.3,5c0,0.1,0,0.2,0.1,0.3c0.1,0.2,0.1,0.4,0.2,0.6
	c0,0,0,0,0,0.1c0.1,0.2,0.1,0.4,0.2,0.6c0.1,0.3,0.3,0.7,0.5,1C186.6,72.7,187,73.8,186.2,74.3z"/>
<path class="st20" d="M193.6,120.7l1.8,25l-0.5,43.5l-5.9,0.3l-6,0.3h-0.4l-32.9,1.6l9-42.4l6.8-70.1l6.1-12.8c0,0,4.8,7.3,9.4,7.8
	c1.1,0.1,2,0.1,2.8,0c0.6-0.1,1.1-0.2,1.6-0.4l0.3-0.1c0.2-0.1,0.4-0.2,0.6-0.3c0.4-0.3,0.6-0.5,0.6-0.5l3.3,9.1l5.7,12.2
	L193.6,120.7z"/>
<path class="st21" d="M191.5,125.8l-2.4,63.8l0,0l-6,0.3h-0.4L183.8,74c0.6-0.1,1.1-0.2,1.6-0.4l0.3-0.1c0.2-0.1,0.4-0.2,0.6-0.3
	L191.5,125.8z"/>
<path class="st22" d="M186.2,73.4v109.5c0,3.5,1.2,7,3.3,9.8l12.9,18.2l0.9-69.5l0.2-13.5L186.3,74L186.2,73.4z"/>
<path class="st22" d="M170.5,67.6l-6.8,116.7c-0.3,5.1-2.9,9.8-7,12.9l-18.8,15.9l5.7-65.9l0.5-6.2l4.2-49.2L170.5,67.6z"/>
<path class="st22" d="M186.2,73.2V108c0.4,1.6,0.9,3.2,1.5,4.8c2,5.5,4.9,10.6,7.8,15.7c2.3,4,4.6,8,7.6,11.5
	c0.1,0.1,0.2,0.2,0.3,0.3c8,9.1,31.8,20.6,31.8,20.6l3.1-10.3l0.8-3l-3.2-1.9c0,0-9.7-5.6-14.1-8.4c-5.9-3.7-11.8-10.7-13.9-17.4
	c-2.2-7.2-3.7-12.9-4.6-20.4c-0.4-3.5-0.7-7-2-10.2c-1.1-2.8-2.8-5.2-4.6-7.5c-1.9-2.4-3.8-4.7-5.9-6.9c-2-2.1-3-4-4.5-2
	C186.4,73,186.3,73.1,186.2,73.2z"/>
<polygon class="st23" points="170,166.6 171.7,119.1 194.6,129.3 193.3,179 "/>
<path class="st18" d="M194.6,147.4c0.6,0.1,1.2,0.2,1.5,0.6c0.3,0.4,0.4,0.9,0.3,1.4c-0.2,2.1-1.9,3.8-4,4.6s-4.4,0.7-6.5,0.1
	c-2.1-0.6-4.1-1.5-6.1-2.5c-0.6-0.3-1.3-0.6-1.9-0.9c-0.4-0.2-0.8-0.4-1-0.7c-0.5-0.6-0.4-1.4-0.3-2.1c0.3-1.7,1-3.5,2.4-4.6
	c2.5-2.1,4.3-0.5,6.4,0.9C188.1,145.8,191.4,146.9,194.6,147.4z"/>
<polygon class="st24" points="146.2,120.5 150.1,105.1 152.9,125.7 "/>
<path class="st24" d="M165.5,148.2c-2.9,2.2-6.7,3.1-10.4,2.8c-3.6-0.3-6.5-1.5-10.3-3.2c-0.3-0.1-1-0.3-1.4-0.6l0.5-6.2
	c1.1,0.2,4.4,1.1,4.8,1.3c1.8,0.9,3.5,1.6,5.5,2.1C158.1,145.4,162.2,145.9,165.5,148.2z"/>
<path class="st22" d="M158.5,68.3c-2.8,1-3.9,1.7-6.4,4.6c-1,1.2-3.2,4.1-3.8,5.6c-1.1,2.9-2.1,4-3.9,6.9
	c-8.2,13.8-17.3,27.6-17.8,43.7c0,1.1,0,2.2,0.4,3.2c0.5,1.3,1.7,2.2,2.8,2.9c4.8,3.2,9.4,5.3,14.9,7.2c12,4.1,18.7,6.5,30.7,10.6
	c1,0.3,2.9,1.3,2.9,1.3s1.2-2.1,1.6-2.8c1.7-3.1,3.3-6.3,5-9.4c-12-8.3-21-11-33.2-19.1c-1-0.6-1.9-1.3-2.4-2.4
	c-0.5-1.3-0.1-2.7,0.3-4c1.1-3.7,2.2-7.4,3.3-11.2c1.4-4.7,2.8-9.4,5.4-13.5c2.3-3.7,5.5-6.8,7.5-10.8c1.2-2.4,1.9-5,2.7-7.5
	c0.8-2.6,2.3-4.9,3.3-7.4C167.6,65.3,162.3,66.9,158.5,68.3z"/>
<path class="st25" d="M179.1,58.8c0.7,3.8,2.6,7.4,5.3,10.3c0.2,0.3,0.6,0.5,0.9,0.6c-0.5-1.7-0.7-3.5-0.3-5.2c0-0.1,0-0.1,0-0.2
	c-0.2,0-0.3-0.1-0.5-0.1c-0.7-0.3-1.4-0.7-2-1.3C181.1,61.6,180.2,60.1,179.1,58.8z"/>
<path class="st18" d="M200.5,39.2c-0.8,6.3-2.1,12.6-5.3,18.1c-2.2,3.9-6,7.6-10.5,7.1c-3.6-0.4-6.4-3.5-8.2-6.7
	c-4.6-8.4-4.7-19.2-0.3-27.7c0.4-0.8,0.9-1.7,1.7-2.3c1-0.8,2.4-1.1,3.7-1.2C190.6,25.8,201.8,28.5,200.5,39.2z"/>
<path class="st26" d="M192.9,29.7c-2.4,3-5.1,5.7-8.1,8.1c-2.3,1.9-4.8,3.5-6.8,5.7s-3.5,5-3.2,7.9c0.3,2.8,3.9,5,6.4,6.2
	c-3.2,3.2-8.3,2.7-12.1,1.1c-1.9-0.8-3.9-2-5.2-3.6c-1.7-2-3.1-4.3-3.7-6.8c-0.8-3.3-0.7-7.5-0.1-10.8c0.7-3.5,2.7-6.8,4.7-9.7
	c3-4.4,7.7-6.7,12.8-8c3-0.8,6.1-1.1,9.2-1c2.6,0.1,6.4,0.2,8.5,2C197.9,23,194.6,27.6,192.9,29.7z"/>
<path class="st26" d="M198.3,49.9c3.1-2.9,4.8-5.1,5-9.6s-1.1-13.1-4.2-16.5s-8.5-5.4-13.8-4.6c-0.5,0.1-1,0.2-1.3,0.4
	c-0.3,0.2-0.5,0.5-0.6,0.9c-0.4,1-0.5,2.2,0,3.1c0.9,1.5,4.5,2.1,6.1,3.4c2.3,1.9,4.2,4,5.8,6.4C198.3,38.1,198.9,44.4,198.3,49.9z"
	/>
<path class="st27" d="M307,150.1c-0.7,0.9-1.4,1.8-1.7,2.9c-0.6,1.8-0.3,3.8-0.6,5.7c-0.3,1.6-1,3.1-1.6,4.6
	c-3.2,7.5-4.5,15.7-3.9,23.8c0.3,4.5,1.6,9.5,5.6,11.7c1.2,0.7,2.7,1,4.1,1.2c2.1,0.2,4.2,0,6.2-0.6c6.4-2,10.9-7.8,13.4-14
	s3.5-12.9,5.4-19.3c0.9-3.1,2-6.3,1.2-9.3c-0.6-2.1-2.1-4.1-1.7-6.2c0.2-0.8,0.6-1.5,0.7-2.2c0.6-2.2-0.9-4.6-2.8-5.8
	C323.1,137.6,312.1,143.7,307,150.1z"/>
<path class="st25" d="M324.3,179.7c0.1,0.9-0.2,1.9-0.6,2.8c-1.4,3.7-3.5,7.8-6.8,9.6c-0.7,0.4-1.5,0.7-2.4,0.9
	c-2.1,0.4-4.2-0.1-6.3-0.6c-0.8-0.2-1.7-0.5-2-1.2c0-0.1-0.1-0.2-0.1-0.3c-0.1-0.4-0.1-0.8,0.1-1.2c0.2-0.6,0.6-1.1,1-1.6
	c0.2-0.2,0.3-0.4,0.5-0.6c1-1.3,2.1-3,3.3-4.7c0.5-0.7,1.1-1.4,1.6-2.1c2.4-2.9,5.2-5,8.7-4.1C322.7,177,324.1,178.1,324.3,179.7z"
	/>
<path class="st28" d="M320.8,182.2c-4.1,2.9-8.6,4.7-13.2,5.3c1-1.3,2.1-3,3.3-4.7c0.5-0.7,1.1-1.4,1.6-2.1h0.1
	C314.1,181.2,319.3,183.3,320.8,182.2z"/>
<path class="st25" d="M306.7,174.7c0,0.3,0.1,0.6,0.1,0.9c0.5,3.2,2.3,6.3,5.1,7.7c1.5,0.7,3.3,0.9,5,0.8
	c11.1-0.6,20.1-12.5,21.8-23.1c1-6.4-1.8-14-7.8-16.5C314.8,137.9,305.1,161.3,306.7,174.7z"/>
<path class="st29" d="M277.3,194.7c-9.4,5.3-17.7,12.4-27.1,17.8c-1.3,0.7-2.6,1.5-3.2,2.8c-0.5,1.1-0.5,2.3-0.4,3.5
	c0.6,10.4,1.6,20.8,3.1,31.2c0.2,1.3,0.5,2.8,1.6,3.4c1,0.6,2.4,0.3,3.5-0.1c11.7-3.5,23.3-7.3,34-13.2s20.4-14,26.5-24.6
	c2.9-4.9,5-10.7,3.9-16.3C315.8,180.9,287.8,188.9,277.3,194.7z"/>
<rect x="354.3" y="267.5" class="st30" width="7.2" height="80.2"/>
<rect x="376.8" y="263.8" class="st30" width="7.4" height="69.9"/>
<path class="st30" d="M357.6,348.8c3.3,0,6,2.7,6,6s-2.7,6-6,6s-6-2.7-6-6S354.3,348.8,357.6,348.8 M357.6,343
	c-6.5,0-11.8,5.3-11.8,11.8s5.3,11.8,11.8,11.8s11.8-5.3,11.8-11.8S364.2,343,357.6,343L357.6,343z"/>
<path class="st30" d="M380.4,335.9c3.3,0,6,2.7,6,6s-2.7,6-6,6s-6-2.7-6-6C374.4,338.7,377.1,335.9,380.4,335.9 M380.4,330.2
	c-6.5,0-11.8,5.3-11.8,11.8s5.3,11.8,11.8,11.8s11.8-5.3,11.8-11.8S386.9,330.2,380.4,330.2L380.4,330.2z"/>
<path class="st31" d="M248.3,204.3c-15.3-0.7-30.3,5.2-45.7,5.7c-9.2,0.3-18.4-1.4-27.5-2.4c-26-3-52.3-1.1-78.5-1.6
	c-24.9-0.5-50.6-3.2-74.1,5.7c-1.9,0.7-3.9,1.6-5.6,2.9c-6.4,5-6.8,15.1-5.8,23.6c1.1,8.9-4.2,20.3,2.7,25.2
	c4.8,3.4,18.6,2,24.4,2.2c30.7,0.7,61.5-2.9,92.2-0.8c25.8,0,51.6,0,77.4,0c12.5,0,25,0,37.5,0c7.2,0,6.1-1.5,6.1-10.2
	C251.4,250,250.6,204.4,248.3,204.3z"/>
<path class="st25" d="M188.8,226.6c-0.2,1-0.4,2-0.6,3.1c-0.4,2-0.8,4.1-1.1,5.7c-4.4-0.7-8.8-1.6-13.2-2.4
	c-1.2-0.2-2.3-0.5-3.5-0.7c-2.3-2-1.2-6.2,1.5-7.8s6-1.2,9-0.5C183.6,224.6,186.2,225.5,188.8,226.6z"/>
<path class="st29" d="M302,220.3c-2.8,6.1-8.7,10.1-14.3,13.8c-7.6,5-15.4,10.1-24.2,12.6c-4.6,1.3-9.2,1.9-13.9,2
	c-7.7,0.1-15.5-1-23-2.5c-13.4-2.5-26.7-5.9-39.7-10c0.1-0.2,0.1-0.5,0.2-0.8c0.3-1.6,0.7-3.7,1.1-5.7c0.2-1.1,0.4-2.2,0.6-3.1
	c0.1-0.5,0.2-0.9,0.3-1.3c16.5,2.5,33,6,49.7,5.4c5.1-0.2,10.3-0.5,15.2-1.9c9-2.6,16.7-8.6,23.2-15.3c4.7-4.8,12.2-13.4,19.7-10.2
	C303.2,205.9,304.6,214.7,302,220.3z"/>
<rect x="24.1" y="267.5" class="st30" width="7.2" height="80.2"/>
<rect x="46.6" y="261.9" class="st30" width="7.3" height="71.8"/>
<rect x="12.6" y="270.8" class="st16" width="375.2" height="19.8"/>
<path class="st29" d="M248.7,205c0-1.2,0-2.5,0.8-3.5s2.3-1.6,3.7-2.1c9.2-3.4,18.6-6.7,28.5-8.5c4.1-0.7,8.2-1.2,12.4-1.1
	c3.3,0.1,7,0.9,8.4,3.3c1.3,2.2,0.1,4.8-1.7,6.7c-2.5,2.6-6.1,4.4-9.7,5.9c-8.6,3.5-18.1,5.3-27.6,6.4c-2.7,0.3-10.9,2.1-13.2,0.8
	C247.5,211.4,248.7,207.6,248.7,205z"/>
<path class="st25" d="M241.9,209.9c0.1,2.1,0.3,4.3,1.6,6s4,2.4,5.5,0.9c0.6-0.6,0.9-1.4,1.3-2.2c0.9-2.4,1.9-4.7,2.8-7.1
	C255.8,201,241.4,197.8,241.9,209.9z"/>
<rect y="178" class="st30" width="10.9" height="93.3"/>
<rect x="389.1" y="123.2" class="st30" width="10.9" height="148.4"/>
<rect x="0.7" y="260.5" class="st30" width="398.9" height="10.9"/>
<rect x="254.5" y="212.5" class="st30" width="145.1" height="8.9"/>
<rect x="254.4" y="214" class="st30" width="8.8" height="55.1"/>
<rect x="281.3" y="214" class="st30" width="8.8" height="55.1"/>
<rect x="308.3" y="213.9" class="st30" width="8.8" height="55.1"/>
<rect x="335.2" y="214" class="st30" width="8.8" height="55.1"/>
<rect x="362.1" y="214" class="st30" width="8.8" height="55.1"/>
<path class="st30" d="M27.5,348.8c3.3,0,6,2.7,6,6s-2.7,6-6,6s-6-2.7-6-6C21.4,351.5,24.1,348.8,27.5,348.8 M27.5,343
	c-6.5,0-11.8,5.3-11.8,11.8s5.3,11.8,11.8,11.8s11.8-5.3,11.8-11.8S34,343,27.5,343L27.5,343z"/>
<path class="st30" d="M50.2,335.9c3.3,0,6,2.7,6,6s-2.7,6-6,6s-6-2.7-6-6C44.2,338.7,46.9,335.9,50.2,335.9 M50.2,330.2
	c-6.5,0-11.8,5.3-11.8,11.8s5.3,11.8,11.8,11.8S62,348.5,62,342S56.8,330.2,50.2,330.2L50.2,330.2z"/>
<path class="st16" d="M314.8,37.6c-2.9,0-5.3-1.1-6.3-3.1l1.9-1c0.8,1.6,3.7,2.3,6.7,1.6c3.3-0.8,6.8-3.2,6.8-7.8
	c0-8.5-7.1-11.7-7.4-11.9l-0.6-0.3v-13h-48V0H318v13.8c2,1.1,8,5.1,8,13.5c0,5.9-4.6,9-8.5,9.9C316.7,37.5,315.7,37.6,314.8,37.6z"
	/>
<path class="st32" d="M284.9,18.3h-30.6v31.5c0,2.8,1.2,5.5,3.4,7.3l10,9.5c1.4,1.3,3.5,1.2,4.8-0.1l9.1-9.1c1.9-1.6,3-3.9,3-6.3
	L284.9,18.3z"/>
<path class="st6" d="M281.4,24.9h-23.7v24.4c0,2.2,1,4.2,2.6,5.6l7.8,7.3c1,1,2.7,1,3.7-0.1l7-7c1.5-1.2,2.3-3,2.3-4.9L281.4,24.9z"
	/>
<path class="st33" d="M278.7,29.6H260v19.2c0,1.7,0.8,3.3,2.1,4.5l6.1,5.8c0.8,0.8,2.1,0.8,2.9,0l5.5-5.5c1.2-1,1.8-2.4,1.8-3.9
	L278.7,29.6z"/>
<path class="st27" d="M323.2,148c0.4,2.1,1.1,4.2,0.5,6.2c-0.7,2.2-3,3.7-3.9,5.9c-1.1,2.9,0.6,6.4-0.8,9.2
	c-0.5,1.1-1.4,1.9-2.1,2.8c-2,2.8-2,6.5-1.8,10c0.1,2.7,0.2,5.4,0.3,8.1c0.1,1.7,0.1,3.4,0.6,5c0.9,2.8,2.9,5.1,5.1,7.1
	c1.2,1.1,2.7,2.3,4.3,1.9c0.8-0.2,1.4-0.7,2-1.2c4.2-3.8,5.7-9.8,9.3-14.3c0.8-1,1.7-1.9,2.2-3.1c0.3-0.8,0.4-1.7,0.7-2.5
	c1.7-5.4,9.8-7.1,10.9-12.7c0.7-4-2.6-7.4-4.1-11.1c-1.1-2.7-1.3-5.8-2.7-8.4c-1.8-3.4-5.3-5.5-8.6-7.3c-1.6-0.9-3.2-1.8-5-2.2
	C325.5,140.4,322.4,143.7,323.2,148z"/>
<rect x="269.6" y="319.5" class="st16" width="41.3" height="2.9"/>
<rect x="269.8" y="319.5" class="st16" width="2.2" height="12.1"/>
<rect x="289.9" y="319.5" class="st16" width="2.2" height="12.1"/>
<rect x="310.7" y="319.5" class="st16" width="2.2" height="12.1"/>
<path class="st16" d="M270,332.9c3.3,0,5.9,2.7,5.9,5.9s-2.7,5.9-5.9,5.9s-5.9-2.7-5.9-5.9S266.7,332.9,270,332.9 M270,330.7
	c-4.5,0-8.1,3.6-8.1,8.1s3.6,8.1,8.1,8.1s8.1-3.6,8.1-8.1C278.1,334.4,274.5,330.7,270,330.7L270,330.7z"/>
<path class="st16" d="M290.8,332.9c3.3,0,5.9,2.7,5.9,5.9s-2.7,5.9-5.9,5.9c-3.3,0-5.9-2.7-5.9-5.9S287.5,332.9,290.8,332.9
	 M290.8,330.7c-4.5,0-8.1,3.6-8.1,8.1s3.6,8.1,8.1,8.1s8.1-3.6,8.1-8.1C298.9,334.4,295.3,330.7,290.8,330.7L290.8,330.7z"/>
<path class="st16" d="M312,332.9c3.3,0,5.9,2.7,5.9,5.9s-2.7,5.9-5.9,5.9c-3.3,0-5.9-2.7-5.9-5.9S308.7,332.9,312,332.9 M312,330.7
	c-4.5,0-8.1,3.6-8.1,8.1s3.6,8.1,8.1,8.1s8.1-3.6,8.1-8.1C320.1,334.4,316.5,330.7,312,330.7L312,330.7z"/>
<polygon class="st6" points="258.8,260 257.4,260 257.4,214.8 343.4,214.8 343.4,216.3 258.8,216.3 "/>
<rect x="283.5" y="222.2" class="st6" width="1.4" height="38.2"/>
<rect x="310.5" y="222.2" class="st6" width="1.4" height="38.2"/>
<rect x="337.6" y="222.2" class="st6" width="1.4" height="38.2"/>
<rect x="364.6" y="222.2" class="st6" width="1.4" height="38.2"/>
<polygon class="st34" points="0,178 5,173.9 14.3,173.9 10.9,178 "/>
<polygon class="st34" points="389.1,123.2 384.1,119.4 396.1,119.4 400,123.2 "/>
<path class="st35" d="M249.6,248.7c-0.8,0.5-1.9,0.6-2.9,0.7c-10.4,0.5-20.8-0.9-31.1-2.6c-6.1-1-12.1-2.1-18.1-3.2
	c-3.5-0.6-7.1-1.3-10.5-2.4c-1.4-0.4-2.7-0.9-3.8-1.8c-0.9-0.8-1.6-1.8-2.6-2.4c-0.9-0.5-1.9-0.5-2.8-0.8c-1.2-0.4-3.2-1.7-4-3.1
	c4.4,0.9,8.8,1.7,13.2,2.4c-0.1,0.3-0.1,0.5-0.2,0.8c13,4.1,26.3,7.5,39.7,10C234.2,247.7,241.9,248.8,249.6,248.7z"/>
<rect x="27" y="305.9" transform="matrix(0.9418 -0.3361 0.3361 0.9418 -100.7866 30.9295)" class="st30" width="23.9" height="1.4"/>
<rect x="27" y="321.2" transform="matrix(0.9418 -0.3361 0.3361 0.9418 -105.928 31.8223)" class="st30" width="23.9" height="1.4"/>
<rect x="357.3" y="305.9" transform="matrix(0.9418 -0.3361 0.3361 0.9418 -81.5685 141.9419)" class="st30" width="23.9" height="1.4"/>
<rect x="357.3" y="321.2" transform="matrix(0.9418 -0.3361 0.3361 0.9418 -86.7099 142.8346)" class="st30" width="23.9" height="1.4"/>
<rect x="268" y="0.9" class="st16" width="2.1" height="20.8"/>
<path class="st22" d="M171.4,66.8l-1.2,6.5c0,0-1.2-1-1.2-1.1s-0.4-2.9-0.4-2.9l1.8-2.1L171.4,66.8z"/>
<path class="st22" d="M186.2,74.3l-0.8-4c0,0,2.4,1.4,3.4,2.4c0.9,1,1.1,2.5,1.1,2.5l-2.6,0.6L186.2,74.3z"/>
<g>
	<path class="st36" d="M189.3,97.6l-0.5-0.2c6-13.2-2.5-25.8-3.4-27.1l0.9,0.4l0,0C188.3,73.8,194.7,85.5,189.3,97.6z"/>
	<circle class="st36" cx="188.6" cy="98.2" r="1.7"/>
</g>
<g>
	<path class="st36" d="M173.4,64.7c-0.4,0.4-0.8,0.8-1.2,1.1c-0.1,0-0.1,0.1-0.2,0.1l0,0c-0.2,0.1-0.4,0.3-0.7,0.4
		c-2.5,1.7-5.8,5.7-6.9,15.1v0.1v0.1l-0.1,0.1c0,0-0.1,0.1-0.2,0.2c-1.2,1.2-6.9,6.9-7,12.8l1.9,2.1l0.3,0.4l-0.4,0.3l-0.3-0.3
		l-2.1-2.3v-0.1c0-6.6,6.5-12.7,7.3-13.4C165.4,68.1,171.2,65.3,173.4,64.7z"/>
	<path class="st36" d="M166.6,97.5l-0.4-0.3l2.1-2.5c-0.1-6.1-4.3-13-4.4-13.1l0.4-0.3c0,0.1,4.5,7.2,4.5,13.4v0.1L166.6,97.5z"/>
	
		<ellipse transform="matrix(1.453087e-02 -0.9999 0.9999 1.453087e-02 59.6042 256.0113)" class="st36" cx="159.7" cy="97.8" rx="1.1" ry="1.1"/>
	
		<ellipse transform="matrix(1.453087e-02 -0.9999 0.9999 1.453087e-02 66.2214 262.6861)" class="st36" cx="166.4" cy="97.7" rx="1.1" ry="1.1"/>
</g>
<path class="st36" d="M186.3,70.7l-0.7-0.2l-0.1-0.2c0,0,0,0,0-0.1c-0.1-0.2-0.2-0.4-0.2-0.6c0-0.1-0.1-0.2-0.1-0.3
	C186.1,70,186.3,70.7,186.3,70.7z"/>
<path class="st11" d="M110.5,26.2c0.4,1.4,0.6,2.9,0.7,4.4c0.6-1.8,1.3-3.5,1.9-5.3c0.6-1.6,1.1-3.5,0.3-5c-0.1-0.2-0.2-0.3-0.3-0.4
	c-0.1-0.1-0.3-0.1-0.5-0.2c-1.1-0.2-3.1,0.2-3.5,1.4c-0.3,0.7,0.3,1.7,0.6,2.4C110,24.4,110.3,25.3,110.5,26.2z"/>
</svg>
