<?xml version="1.0" encoding="utf-8"?>
<!-- Generator: Adobe Illustrator 25.0.0, SVG Export Plug-In . SVG Version: 6.00 Build 0)  -->
<svg version="1.1" id="Layer_1" xmlns="http://www.w3.org/2000/svg" xmlns:xlink="http://www.w3.org/1999/xlink" x="0px" y="0px"
	 viewBox="0 0 400 203.6" style="enable-background:new 0 0 400 203.6;" xml:space="preserve">
<style type="text/css">
	.st0{fill:#EBEBEB;}
	.st1{fill:#503629;}
	.st2{fill:#457980;}
	.st3{fill:#009D88;}
	.st4{opacity:0.25;fill:#004751;enable-background:new    ;}
	.st5{fill:#E5F3E6;}
	.st6{fill:#3A241B;}
	.st7{fill:#A9D7AA;}
	.st8{fill:#FFFFFF;}
	.st9{fill:#4CBEA0;}
	.st10{fill:none;}
	.st11{fill:#61A09E;}
	.st12{fill:#90D7C4;}
	.st13{fill:#FEDFBD;}
	.st14{fill:#EABE92;}
	.st15{opacity:0.47;fill:#26AC9A;enable-background:new    ;}
	.st16{fill:#618D93;}
	.st17{fill:#004751;}
	.st18{opacity:0.22;fill:#26AC9A;enable-background:new    ;}
	.st19{fill:#FEECD7;}
	.st20{fill:#006662;}
	.st21{fill:#FDBF7A;}
	.st22{opacity:0.19;fill:#009D88;enable-background:new    ;}
	.st23{fill:#42777E;}
	.st24{fill:#B3865D;}
	.st25{fill:#9E6E47;}
	.st26{fill:#D2EFE7;}
	.st27{opacity:0.68;fill:#26AC9A;enable-background:new    ;}
	.st28{fill:#E8CCB1;}
</style>
<path class="st0" d="M270.7,14.1c1,4.6-0.5,9.3-1.9,13.8c-3.2-2.2-6-4.7-8.4-7.6c-1.7-2-3.2-4.2-3.5-6.7c-0.4-3.1,1.3-6.4,4.2-8
	c1.3-0.7,2-1.6,3.4-0.7c1.1,0.7,2,1.6,2.9,2.6C269.1,9.4,270.2,11.7,270.7,14.1z"/>
<path class="st1" d="M267,60.1c-8.6,4.8-20.7,4.8-29.1-0.4c3.9-2,6.4-6,7.4-10.1c0-0.1,0-0.2,0.1-0.2c0.1-0.4,0.2-0.8,0.2-1.2
	c0.2-1,0.3-1.9,0.3-2.9s0.1-2,0-2.9c0-0.4,0-0.7-0.1-1c-0.1-1.6-0.3-3.2-0.4-4.7l0,0l0.1,0.1c3.8,4.4,8.9,8.5,14.5,10.6
	c0,0.1,0,0.3,0,0.4c0.1,0.7,0.2,1.3,0.3,2c0.1,0.5,0.2,1,0.4,1.5c0.1,0.3,0.2,0.7,0.3,1l0,0c0.5,1.3,1.1,2.6,1.8,3.9
	C263.9,57.8,265.2,59.4,267,60.1z"/>
<path class="st2" d="M290.7,159.4l-0.6,20.7l0,0v1v0.4l-0.6,22.1h-65.3l0,0l0,0h-3.8l-0.5-20.2l-0.1-2.6l-0.1-2l-0.5-19.4l5.8,1.4
	l4.4,1l1.6,0.4l7.6,1.8l5,1.2l9.6,2.2l-0.9,16.1l5.5,0.3l-0.5-16.4l9-2.1l6.6-1.6l6.8-1.6L290.7,159.4z"/>
<polygon class="st3" points="272.9,61.2 272.9,189.9 231.2,188.4 222.8,65.5 239.6,58.6 239.6,58.6 249.2,58.5 251.8,59.9 255,58.4 
	265.4,58.3 265.4,58.3 "/>
<path class="st4" d="M243.6,60.5v143.1h-13.2v-1.3l0.1-4.3l0.1-6.7l0.1-9.4v-0.1l0.1-8v-0.4l0.2-11.3l0.6-47.4l0.1-4.7v-0.5v-1
	l0.5-38.1v-2.5l0.1-6.4v-0.6l5.1-1.6l0,0l0.2-0.1c0.1,0,0.2-0.1,0.3-0.1c0.3-0.1,0.6-0.2,0.9-0.3l0,0c0.2-0.1,0.4-0.1,0.5-0.2l0,0
	h0.1l0.2,0.1l0,0l0,0l0.1,0.1L243.6,60.5z"/>
<path class="st5" d="M239.7,58.3L239.7,58.3v0.3v0.2v1.9v4.2V65l-1,99l-0.3,24.8l0,0l-0.1,12.5v2.4h-14.1l0,0l0,0h-16.6v-28.9v-11.1
	c-9.7-6-18.9-19.2-6-45L208,74c0.5-3.1,2.6-5.7,5.7-7l18.7-6l5.1-1.7l0.2-0.1l1.2-0.5L239.7,58.3z"/>
<path class="st6" d="M260.8,51.4c-1.5,1-3.7,1.8-5.5,2c-3.4,0.3-7.1-1.4-9.9-3.7c0-0.1,0-0.2,0.1-0.2c0.1-0.4,0.2-0.8,0.2-1.2
	c0.2-1,0.3-1.9,0.3-2.9s0.1-2,0-2.9c0-0.4,0-0.7-0.1-1c-0.1-1.6-0.3-3.2-0.4-4.7l0,0l0.1,0.1c3.8,5,9,8.6,14.6,11
	c0.1,0.7,0.2,1.3,0.3,2C260.6,50.3,260.7,50.9,260.8,51.4z"/>
<path class="st5" d="M213.7,67c0,0-7.5-0.3-10.7,21.6c-3.2,22-22.3,58.3,10.7,93.5l14.2,2.9L213.7,67z"/>
<path class="st1" d="M269.1,17.5c0.6,7.2,0.4,14.6-2.1,21.5c-1.8,4.8-5.5,9.8-11,10.2c-4.5,0.3-10.5-2.6-13.3-5.8
	c-7.6-8.4-8.3-20.4-4.9-30.9c0.3-1,0.7-2.1,1.5-2.9c1.1-1.2,2.7-1.7,4.2-2.1C253.9,4.6,268.1,5.2,269.1,17.5z"/>
<path class="st7" d="M215.4,122.7c-0.8,3-1.3,6.2-1.3,9.3c0,4.9,1.9,9.5,3.8,14.1c1.4-9.7,2.4-19.5,2.8-29.4c0.1-2.5,1-8.9,0-11.2
	C217.8,108.9,216.5,118.5,215.4,122.7z"/>
<path class="st7" d="M231.5,173.1c-4.8,5.3-12,8.7-19.4,9.2L231.5,173.1z"/>
<path class="st7" d="M231.9,194.7c-0.4,1.2-0.9,2.2-1.4,3.2c-1.1,2-2.6,3.6-4.4,5c-0.3,0.2-0.5,0.4-0.8,0.6h-1.2
	c0.1-0.1,0.3-0.3,0.4-0.4c0.8-0.7,1.5-1.5,2.1-2.3c2.2-2.8,3.4-6.1,4-9.5c0.2-1.2,0.4-2.5,0.5-3.7l0,0l0,0c0.3-2.6,0.3-5.3,0.3-7.9
	c0.7,2.9,1.3,5.8,1.3,8.8C232.8,190.6,232.6,192.7,231.9,194.7z"/>
<path class="st5" d="M297.5,162.7v11.1v29.8h-30.7v-2.4l-0.1-11.5l-0.3-24.5l-1-93.2l-0.1-11v-1.8V59v-0.7v-0.9l0.9,0.4l1.4,0.6l0,0
	l0.9,0.3l0,0l2.9,0.9l0,0l20,6.5c3,1.3,5.2,3.9,5.7,7l6.6,44.6C316.3,143.6,307.2,156.7,297.5,162.7z"/>
<path class="st5" d="M291.2,66.1c0,0,7.5-0.3,10.7,21.6c3.2,22,22.3,58.3-10.7,93.5l-14.2,2.9L291.2,66.1z"/>
<path class="st7" d="M289.2,122c0.8,3,0.8,5.7,0.9,8.8c0,4.9-1.1,9.8-3,14.3c-1.4-9.7-2.4-19.5-2.8-29.4c-0.1-2.5-0.5-5.7,0.5-8
	C287.6,111.2,288,117.8,289.2,122z"/>
<path class="st7" d="M273.4,172.2c4.8,5.3,12,8.7,19.4,9.2L273.4,172.2z"/>
<path class="st7" d="M281.8,203.6h-0.9c-0.7-0.5-1.4-1-2.1-1.5c-2.6-2.1-4.7-4.7-5.8-8.2c-0.4-1.3-0.7-2.7-0.8-4
	c-0.2-2.8,0.1-5.6,0.7-8.4c0.2-0.9,0.4-1.8,0.6-2.7c0.1,7.3,0.3,15.2,4.9,21.2c0.6,0.8,1.2,1.5,2,2.2
	C280.8,202.6,281.3,203.1,281.8,203.6z"/>
<polygon class="st8" points="251.9,59.8 265.4,72 265.2,57.4 262.2,55 "/>
<polygon class="st9" points="251.9,59.7 242.9,67.5 252.1,76.4 260.4,67.5 "/>
<path class="st0" d="M258.9,13c-2.5,0.7-5,1.4-6.7,3.1c-1.3,1.2-1.9,2.9-2.6,4.4c-1,2.3-2.3,4.6-4.2,6.5s-4.5,3.3-7.3,3.6
	c-0.9,0.1-2,0-2.6-0.7c-0.3-0.4-0.4-0.8-0.5-1.3c-0.6-2.8-0.7-5.7-0.8-8.6c0-2.9,0-5.7,0.8-8.5s2.3-5.5,4.7-7.4
	c2-1.6,4.7-2.5,7.3-3.1c4.4-1,9-1.3,13.5-0.8c3.2,0.4,6.5,1.3,8.6,3.5c1.9,2,2.3,4.8,2.6,7.3c0,0.3,0.1,0.7-0.2,1
	c-0.2,0.2-0.4,0.3-0.6,0.3c-1.7,0.4-3.5-0.6-5.3-0.5C263.3,11.9,261.1,12.4,258.9,13z"/>
<path class="st10" d="M268.7,26.3c0.2,0.1,0.3,0.2,0.5,0.2c0.5,0,0.7-0.5,0.8-1c0.7-3.6,0.8-7.4,0.1-11c-0.4-2.1-1.1-4.4-2.9-5.8
	c-1.4-1.1-3.4-1.6-5.1-1.1c-1.3,0.3-3,1.5-3.2,2.9c-0.2,1.1,0.4,2.8,0.7,3.9c0.7,3.1,2.3,6.1,4.6,8.5
	C265.5,24.2,267,25.4,268.7,26.3z"/>
<path class="st11" d="M317,174.8c1.1,0.1,0,28.8,0,28.8l57.5-0.1c0,0,17.6-4.2,16.9-30.3c-0.8-26.2-54.9-8.6-54.9-8.6L317,174.8z"/>
<path class="st12" d="M310.6,89.1c-3.2,11.2-5.9,22.6-8.1,34c-0.3,1.7-0.6,3.4-0.4,5c0.2,1.8,1,3.4,1.6,5.1c0.9,2.5,1.4,5.2,2.7,7.5
	c1.3,2.4,3.5,4.4,6.2,4.5c1.7,0,3.3-0.8,4.8-1.6c0.4-0.2,0.8-0.4,1-0.7c0.5-0.5,0.5-1.2,0.6-1.9c1-9.3,2.1-18.5,3.1-27.8
	c0.7-6.5,1.5-12.9,2-19.4c0.5-6.3,1.6-13.2,0.9-19.4c-4.3-1.2-6.8-0.4-9.4,3.1C313.5,80.2,310.6,85.5,310.6,89.1z"/>
<path class="st12" d="M393.8,172.3c-20.4,3.6-41.5-0.3-62.1,1.9c-2.8,0.3-11.9,1.1-14.7,0.7c-4.9-27.8,2.6-56.8,0.2-84.9
	c-0.3-3.7-0.7-7.3-1-11c-0.1-0.9-0.1-1.9,0.3-2.8c0.4-0.7,1.1-1.1,1.7-1.6c7.9-5,16.1-9.4,24.6-13.1c1.1-0.5,2.5-1.3,3.9-1.9
	c0.4-0.1,0.8-0.3,1.1-0.3l0,0c0.1,0,0.2,0,0.3,0l0,0c0.2,0,0.4,0,0.6,0s0.4,0.1,0.5,0.3c0.3,0.2,0.6,0.6,1,0.6c1,0.1,2.1-0.1,3-0.2
	c1.2-0.2,2.3-0.5,3.5-0.8s2.5-0.7,3.7-0.9c1.3-0.2,2.7-0.3,4-0.2c0.1,0,0.3,0,0.4,0.1c1.8,0.3,3.4,1.1,5,1.9
	c5,2.5,10.1,5.1,15.1,7.7l0,0c0.3,0.1,0.6,0.3,0.8,0.4c0.7,0.4,1.4,0.7,1.9,1.3c0.5,0.7,0.6,1.5,0.7,2.3c2.3,17.3,3.5,34.6,4.2,52
	c0,0.1,0,0.1-0.1,0.2c0.2,5.8,0.5,12.6,0.7,18.6c0,0.9,0,1.7,0.1,2.6C393.5,154.2,393.7,163.3,393.8,172.3z"/>
<path class="st13" d="M364.7,62c0,1.6-0.2,3.4-1.3,4.5c-0.8,0.9-2.1,1.2-3.2,1.5c-1.8,0.5-3.7,0.9-5.6,0.9s-3.8-0.5-5.2-1.8
	c-0.5-0.4-0.9-0.9-1.1-1.5c-0.2-0.5-0.2-1-0.2-1.6c0-0.8-0.1-1.7-0.1-2.6c0-0.6-0.1-1.1-0.1-1.7c0-0.2,0-0.3,0-0.5h0.2v-2.6
	c0,0-0.1,0-0.1-0.1s0-0.1,0-0.2l0,0c0-0.1,0.1-0.3,0.1-0.4c0.3-1.3,0.9-2.5,2-3.5c1.7-1.6,3.1-3.3,5.3-4.2c2.2-0.9,4.6-1,6.9-1.1
	c0.2,0,0.5,0,0.7,0.1s0.2,0.4,0.3,0.6c0.2,0.8,0.3,1.6,0.4,2.3v0.1c0,0.2,0.1,0.4,0.1,0.5c0,0.2,0.1,0.4,0.1,0.6c0,0.1,0,0.1,0,0.2
	C364.5,55.3,364.7,58.7,364.7,62z"/>
<polygon class="st13" points="347.5,59.7 353.5,86 365.1,58.7 "/>
<polygon class="st8" points="348.2,65.7 362.5,65.1 353.5,86 "/>
<polygon class="st12" points="347.5,59.7 353.5,86 365.1,58.7 374.5,79.7 370.6,96.7 344.3,94.7 334.2,85.4 337.2,71 "/>
<path class="st14" d="M364.3,50.6c-0.1,0.2-0.3,0.4-0.4,0.6c0,0.2,0.1,0.4,0.1,0.6c0,0.1,0,0.1,0,0.2v0.1c-0.8,3-2.6,5.7-4.6,7.4
	c-2.6,2.1-5.8,2.9-8.9,2.7c-0.8-0.1-1.7-0.2-2.5-0.6c0-0.6-0.1-1.1-0.1-1.7c0-0.2,0-0.3,0-0.5h0.2v-2.6c0,0-0.1,0-0.1-0.1
	s0-0.1,0-0.2h0.1c1.7,0,3.7,0.2,5.3,0c1.5-0.3,3-0.5,4.4-1.1c2.2-0.9,4.2-2.5,5.8-4.7l0,0c0.2-0.3,0.4-0.6,0.7-1
	C364.4,49.9,364.3,50.3,364.3,50.6z"/>
<path class="st13" d="M364.3,50.6c-0.1,0.2-0.3,0.4-0.4,0.6c-1.1,1.4-2.3,2.8-3.7,4c-1.7,1.6-3.7,3-6,3.2c-1.4,0.2-2.8-0.2-4.1-0.7
	c-0.6-0.3-1.3-0.6-1.8-0.9c0,0-0.1,0-0.1-0.1c-0.1,0-0.1-0.1-0.2-0.1c-3.6-2.5-5.5-7.2-6.5-11.6c-1-4.2-1.7-8.1-1.3-12.4
	c0.4-4,0.2-9.6,3.9-12.2c5.4-3.8,12.7-2.2,18.1,0.6c2,1,3.9,2.3,5.2,4.1c1,1.4,1.6,3.1,1.9,4.8C370.8,37,368.6,44.6,364.3,50.6z"/>
<path class="st15" d="M393.3,145.2c-1,1.6-2.1,3.2-3.2,4.8c-1.6,2.3-3.5,4.7-6.2,5.6c-1.6,0.6-3.3,0.6-5,0.5
	c-12.1-0.4-24-5.4-33-13.4c-1.4-1.2-5.8-4.5-5.9-6.5c0-1.1,0.6-1.6,1.5-1.8c1.5-0.4,3.7,0,5,0.1c6.7,0.5,13.1,3.1,19.8,2.6
	c4-0.3,7.8-1.7,11.1-4c2.4-1.7,4.4-3.9,6.9-5.3c2.5-1.5,5.3-3.6,8.2-3.9c0,0.1,0,0.1,0,0.2c0.2,5.8,0.5,12.6,0.7,18.6
	C393.3,143.5,393.3,144.3,393.3,145.2z"/>
<path class="st3" d="M348.1,142.3h-46.6c-0.8,0-1.5-0.7-1.5-1.5V80c0-0.8,0.7-1.5,1.5-1.5h46.6c0.8,0,1.5,0.7,1.5,1.5v60.9
	C349.6,141.7,348.9,142.3,348.1,142.3z"/>
<path class="st13" d="M314.2,103.4c-0.6-0.2-1.3-0.4-2-0.1c-0.3,0.1-0.6,0.4-0.8,0.6c-2.1,2.4-2.4,6.1-1.3,9.1s3.6,5.4,6.4,7
	c2.8,1.7,5.9,2.7,8.9,3.7c1,0.3,2.2,0.6,3,0.1c0.5-0.4,0.8-1,1-1.6c1.4-3.7,2.1-9.2-1-12.2C325,106.5,319,104.9,314.2,103.4z"/>
<path class="st12" d="M398.8,92c-1.3,7.3-1.7,14.8-3.2,22c-0.7,3.4-1.9,6.6-3,9.8c0,0.1,0,0.1-0.1,0.2c-0.2,0.6-0.4,1.3-0.6,1.9
	c-1.4,4.4-1.5,9.8-5.1,13.2c-2.9,2.7-7.2,3.6-10.9,4c-7.2,0.7-14.7-1.2-21.4-3.4c-4.5-1.5-8.8-3.3-13-5.3c-6.3-3-12.4-6.4-18.6-9.5
	c-0.8-0.4-1.7-0.9-1.9-1.8c-0.2-0.6,0-1.3,0.2-2c1.5-4.7,3.2-9.3,5.1-13.8c13.5,3.3,26.3,9.2,37.5,17.4c5.2-1.1,10.2-25.7,11.1-28.1
	c3-8.6,5.6-17,7.9-25.8c0.3-1.3,0.9-2.8,2.2-3l0,0c0.6-0.1,1.2,0.2,1.8,0.4c4.6,1.9,9.6,4.2,11.8,8.7C401,81.5,399.7,86.9,398.8,92z
	"/>
<path class="st15" d="M373.2,112.1c-0.2,0.3-0.3,0.6-0.6,0.9c-0.4,0.4-0.9,0.6-1.4,0.8c-2.7,0.8-5.6,0.6-8.2-0.5
	c4.5-4.1,10-9,15.1-12.1C376.9,104.8,375,108.5,373.2,112.1z"/>
<polygon class="st16" points="345.8,203.4 348.2,185.5 351.2,203.4 "/>
<path class="st17" d="M337.9,27.5c0.2,1.7,0.9,3.4,2.4,4.3c0.4-0.9,1.5-1.4,2.6-1.4s2,0.3,3,0.6c1.9,0.5,3.8,0.7,5.7,0.7
	c0.5,0,1,0,1.4-0.3s0.6-0.8,0.3-1.2c3.5,1.8,7.2,2.9,11.1,3.4c0.3-0.2,0.4-0.5,0.2-0.8c0.8,2,1.5,3.9,2.3,5.9
	c0.8,2.1-0.5,8.1-0.6,8.9c2.6-4.5,8-10.6,9-15.7s0.1-10.8-3.6-14.5c-2.2-2.2-5.3-3.5-8.3-4.3c-5.4-1.3-13.3-1.6-18.4,1.3
	c-1.8,1-3.5,3.5-4.7,5.2C338.6,21.8,337.6,24.6,337.9,27.5z"/>
<path class="st13" d="M296.2,130.1c-0.1,2.3,1.5,6.1,4,6.6c2.8,0.5,5.7-2.5,7.7-4.1c1.9-1.5,3.8-3.6,3.6-6c-0.1-1.1-0.6-2.1-1.1-3.1
	c-0.2-0.3-0.3-0.6-0.6-0.8c-0.3-0.2-0.6-0.2-0.9-0.2c-1.4-0.1-2.8-0.2-4.2,0C301.4,123.1,296.3,126.3,296.2,130.1z"/>
<polygon class="st18" points="348.9,65.7 353.5,86 355.1,82.1 "/>
<polygon class="st7" points="122.2,203.6 123.9,187.2 151.1,187.2 162.6,189.1 169.5,190.2 175.7,198.3 177.3,200.3 178,203.6 "/>
<path class="st7" d="M79.2,91.5c0,0-16.1,11.4-12.3,15.9c3.8,4.5,11.9-1.6,11.9-1.6l2.2-6.3L79.2,91.5z"/>
<path class="st19" d="M81.9,94.5l-9.2-9c0,0-1.8-4.3-4.8-5.7c-2.3-1-4.7-2-7.2-1.8c-1.1,0.1-1,0.9-0.3,1.5c0.8,0.6,1.7,1,2.7,1.1
	c0.8,0.1,1.9,0.2,2,1.1c0.1,0.9-8.5,0-13.7-0.7c-2.3-0.3-4.1,2.2-2.8,4.2c0,0,0,0,0,0.1c1.6,2.4,9.8,3.7,16.9,5.5
	c3.5,0.9,11.8,12.9,11.8,12.9s7.6,2.1,7.4-2.7C84.4,96.2,81.9,94.5,81.9,94.5z"/>
<polygon class="st20" points="177.3,157 175.7,198.3 175.5,203.6 155.6,203.6 155.3,190.5 149.5,190.2 149,203.6 130.2,203.6 
	129.9,187.2 129.3,157 130.8,157.5 132.1,157.9 139.6,160.4 142.8,161.4 150.9,164.1 149.7,180.6 155.2,180.9 154.5,164.1 
	162.3,161.6 167.6,160 "/>
<path class="st21" d="M167.6,68v113.5l-5-0.2l-19.7-0.8l-3.4-0.1l-7.2-0.3l-0.5-6.8l0,0l-6.6-100.9l8.1-3.9l0,0l6-2.9l0.1-0.1l0,0
	l0,0l21.9-0.3l0.4,0.2l0.6,0.3l0.3,0.1l0,0L163,66l0.2,0.1l0,0L167.6,68z"/>
<path class="st5" d="M185.2,160.1l1,43.5h-23.4l-0.2-14.5l-0.1-7.8l-0.2-19.6l-1-96.6l0.4,0.2l0.3,0.2l0.6,0.3L163,66l0.2,0.1l0,0
	l4.4,2.1l10.4,4.9c2.6,1.2,4.4,3.6,4.8,6.4l6.1,40.5C199.8,143.3,193.5,154.6,185.2,160.1z"/>
<path class="st7" d="M175.3,154.7c-0.2,3.1-1.3,6.4-4.1,8.7c-4.4,3.7-6.5-5.5-4.7-12c1.1-3.9,3.5-6.9,7.6-5.5
	C174.2,145.8,175.7,150,175.3,154.7z"/>
<path class="st19" d="M175.2,156c-2.7-0.8-6.9-2.7-6.9-2.7c-0.6-0.3-1.3-0.7-1.8-1.1c-10.4-6.4-12.7-16.6-10.7-22.8
	c2.2-6.6,6.5-9.3,8.3-9.2c1.8,0.1,0,3.3-0.9,4.2c-0.9,0.8-0.4,2.9-0.2,3.8c0.2,0.9,2.3,3.1,4,0.5c1.7-2.6,4.8-4.5,6-2.2
	c0.7,1.3-3.6,3-4.3,6.7s-3.6,6.9-3.6,6.9c0.6,2.9,5.6,5.3,9.4,6.8C174.6,146.9,175.9,151,175.2,156z"/>
<g>
	<path class="st3" d="M167.6,104.7L167.6,104.7c-0.1,0.3-0.2,0.6-0.3,0.8c0,0.1-0.1,0.2-0.1,0.3l-0.7-0.3c0.2-0.4,0.3-0.7,0.5-1
		c0.1-0.3,0.2-0.6,0.4-0.9c0.1-0.3,0.2-0.6,0.4-1c3.1-8.9,2.1-17.5,0-24.3c-0.1-0.4-0.2-0.7-0.4-1.1c-2.1-6.5-5.1-11-5.9-12.1l0,0
		c0,0,0,0,0-0.1l0,0l1,0.5l0.3,0.1l0,0l0,0l0,0l0,0c1.1,1.7,3,5,4.6,9.3c0.1,0.3,0.2,0.6,0.4,1C170.3,83.5,172,94,167.6,104.7z"/>
	<circle class="st3" cx="166.1" cy="106.9" r="2.5"/>
</g>
<path class="st22" d="M142.8,67v136.6h-11.4l0.2-16.3l0.2-14.1L132,158l1.2-89.6v-0.9c2.9-1,5.2-1.8,5.9-2c0,0,0,0,0.1,0l0,0
	l0.1-0.1l0.7,0.4c0.4,0.2,1,0.5,1.3,0.6L142.8,67z"/>
<path class="st5" d="M139.6,160.4c0,6.8,0,13.5-0.1,19.9l0,0c0,2.3,0,4.6,0,6.9c0,5.7-0.1,11.2-0.1,16.3h-21.1v-62.3l-4.9,4.7
	c-2.7,2.6-7.1,2.3-9.4-0.7l-37.1-37.8c7.6,1.7,12.3-15.9,12.3-15.9l27.1,27.3l1.5-5.4c0,0,6.3-34,9.2-38.1c1.9-2.6,10.4-5.9,16.4-8
	c2.6-0.9,4.8-1.6,5.7-1.9c0.1,0,0.2-0.1,0.2-0.1s0,0,0.1,0s0.1,0,0.1,0l0,0l0,0c0,0,0,0,0,0.1C139.4,68.3,139.7,115.9,139.6,160.4z"
	/>
<g>
	<circle class="st3" cx="123.6" cy="112.6" r="1.6"/>
	<g>
		<path class="st3" d="M122.9,112.5l-3.6-3.6v-0.1c-0.6-9.4,7.9-18.8,9-19.9c1.1-23.4,12.6-24.9,13.1-24.9l0.1,0.7
			c-0.1,0-11.4,1.5-12.5,24.4v0.1l-0.1,0.1c-0.1,0.1-9.4,9.8-8.9,19.3l3.4,3.4L122.9,112.5z"/>
		<path class="st3" d="M133.5,111.8l-0.6-0.4l2.8-3.8c-0.7-8.7-7.3-18.2-7.4-18.3l0.6-0.4c0.1,0.1,6.9,9.8,7.6,18.8v0.1L133.5,111.8
			z"/>
		<circle class="st3" cx="133.3" cy="112.1" r="1.6"/>
	</g>
</g>
<path class="st17" d="M27.2,51.1c-2.3,2.1-2.9,5.4-4.3,8.1c-1.1,2.2-2.7,4.1-4.6,5.5c-2.9,2.1-6.5,3.1-9.6,5s-5.8,5.2-5.3,8.7
	C3.8,81,5.8,83,8.1,84s4.9,1.2,7.4,1.1c4.5-0.1,9-0.9,13.4-0.1c2.9,0.5,5.6,1.7,8.4,2.2s6.1,0.3,8.2-1.7c1-0.9,1.6-2.1,2.2-3.2
	c1.4-2.6,2.8-5.2,4.3-7.8c0.9-1.6,1.7-3.2,2.3-4.9c1.2-3.6,1.1-7.4,0.8-11.2c-0.2-2.4-0.5-5.2-2.4-6.7c-1.2-1-2.8-1.3-4.3-1.6
	c-3.7-0.6-7.4-0.6-11.1-0.8C33.8,49.1,30,48.6,27.2,51.1z"/>
<path class="st12" d="M14,159c0.2,0.1,0.5,0.2,0.7,0.1c0.1-0.1,0.2-0.2,0.3-0.4c1.3-2.6,2.6-5.1,3.9-7.7c0.6-1.2,1.3-2.5,1.3-3.9
	c0.2-3.3-2.6-5.9-5.2-7.9c-0.8-0.6-1.6-1.3-2.6-1.3s-1.8,0.5-2.6,1.1c-3.1,2.5-6.6,7.9-5.8,12C4.8,155.1,10.3,157.5,14,159z"/>
<path class="st12" d="M12.6,76c-2.4,2.4-5,6.4-6.5,9.4C4.3,89,3.9,93,3.4,97c-0.9,8.5-1.8,16.9-2.7,25.4c-0.4,4.2-0.9,8.4-0.7,12.6
	c0.2,4.7,1.2,9.3,2.5,13.8c0.6,2.1,1.9,4.6,4.1,4.3c1.4-0.2,2.2-1.6,2.8-2.9c1-1.9,1.9-3.8,2.9-5.7s1.9-3.8,3.6-5.1
	c1.6-1.3,4-1.9,5.8-0.9c1.9-4.2,0.9-9,0.3-13.5c-1.7-12.1-1.3-24.5-0.2-36.6c0.3-3,0.6-5.9,1-8.9c0.2-1.7,1.9-7.6,1-9
	C21.8,67.2,14.4,74.2,12.6,76z"/>
<path class="st12" d="M76.8,81.1c1.7,3.1,2.6,6.5,3.4,9.9c4,16.5,6.7,33.3,8,50.1c0.1,1.3,0.1,2.9-1.2,3.7c-1.2,0.8-3,0.5-4.5,0.4
	c-5.2-0.4-10.5,1.1-14.2,4.1c-2.1-3.8-4.2-7.7-4.7-11.9c-0.4-3.7,0.5-7.3,1.2-10.9c1.9-9.3,2.7-18.8,2.3-28.2
	c-0.4-9.3-1.9-18.7-7.2-26.9c-1.1-1.7-2.7-2.9-4.2-4.1C64.7,67.6,73.3,74.8,76.8,81.1z"/>
<path class="st23" d="M73.3,201.7c0,0.6,0,1.2,0,1.8H43.6c-0.1-1.5-0.3-2.9-0.4-4.2c-0.1-1.2-0.2-2.3-0.3-3.4c0-0.2-0.1-0.4-0.3-0.5
	c-0.2-0.2-0.5-0.2-0.7-0.1c-0.2,0.1-0.4,0.3-0.4,0.6c-0.1,0.7-0.1,1.4-0.2,2.1c-0.2,1.8-0.3,3.6-0.5,5.5H12.2c-0.1-4.5,0-9,0-13.5
	c0-2,0-4,0.1-6c0-1,0-2.1,0.1-3.1c0-1.3,0.1-2.7,0.1-4c0.1-4.6-0.3-13,1.2-18.1v-0.1c0.3-1,0.7-1.9,1.2-2.5c0.4-0.5,1.1-1.1,2.1-1.7
	c1.2-0.7,2.7-1.5,4.2-2.2c2.9-1.3,5.9-2.3,7.4-2.3c2.3-0.1,4.5,0.9,6.5,1.9c2.5,1.2,4.9,2.4,7.2,3.9c0.2,0.2,0.5,0.2,0.7,0
	c2.3-1.5,4.8-2.7,7.2-3.9c1.5-0.7,3-1.4,4.6-1.7c0.6-0.1,1.3-0.2,1.9-0.2c2.9,0.1,12,3.9,13.7,6.2c1.4,2,2,5.6,2.3,9.4
	c0.2,4.1,0.1,8.4,0.2,11.3v0.1c0.1,1.8,0.1,3.6,0.1,5.4c0,0.1,0,0.1,0,0.2C73.3,189,73.4,195.3,73.3,201.7z"/>
<path class="st12" d="M70.8,99.8c1.1,3.9,2.3,7.8,1.9,11.8c-0.4,3.7-2,7.2-3.1,10.8c-3.5,11.7-0.8,25,2.4,36.8
	c0.7,2.6,3.6,17.9,2.9,23.1c-10.4,1.8-21.3,4.6-31.9,5.2s-21.9,1.3-31.1-3.8c-0.5-0.3-1-0.6-1.2-1c-0.4-0.6,0-1.4,0-2.2
	c-0.7-9.9,6.8-38,6.5-48.7c-0.3-8.7-2.8-17.1-3.4-25.8c-0.6-8.8,0.8-17.7,4-25.9c0.3-0.8,0.7-1.7,1.5-2.2c0.6-0.4,1.4-0.5,2.2-0.6
	c4.8-0.3,9.6,0.9,14.4,1.4c4.4,0.5,8.8,0.5,13.2,0c2.3-0.3,4.6-0.7,6.8-1.2c1.7-0.4,4.4-1.9,6.1-1.7c3.5,0.5,4,7.1,4.8,10
	C68,90.4,69.4,95.1,70.8,99.8z"/>
<path class="st12" d="M20.3,78.7c0.4,1.4,9.5,6.8,9.5,6.8l4,0.1h1.9l4.3,0.1l5,0.1l9.5-3.6l1.4-0.5l2.2-0.9l3.7-1.4l7.1-2.8l0.2-2.5
	c0,0-0.8-1.2-2.5-2.7c-0.1-0.1-0.1-0.1-0.1-0.1c-1.3-1.1-3.1-2.4-5.6-3.3c-0.4-0.2-0.9-0.4-1.4-0.5c0,0,0,0-0.1,0
	c-0.3-0.1-0.5-0.2-0.8-0.2c-1.6-0.4-3.4-0.8-5.5-0.8c-0.4,0-0.7,0-1.1,0c-0.2,0-0.4,0-0.7,0c-0.6,0-1.2,0-1.8,0.1
	c-5.4,0.3-8.6,1.6-10.4,2.7c-0.8,0.4-1.3,0.9-1.6,1.2c-0.4,0.4-0.6,0.7-0.6,0.7l-4.6-3.4l-0.6-0.5c0,0-6.6,0.7-10.5,2.3
	C17.3,71.1,19.9,77.4,20.3,78.7z"/>
<path class="st24" d="M53.3,68.6L44,74.1l-12.2-6.8c0,0,1.8-1.9,3.2-5.4c0.8-1.9,1.5-4.1,1.8-6.8c0,0,0,0,0-0.1
	c0.1-1.2,0.2-2.4,0.1-3.7c0-0.3,0-0.6,0-0.8s0-0.3,0-0.5c0.4-8,7.6-3.4,7.6-3.4l3.3,2.1l1.6,1c0,0-0.2,2.7-0.1,6.1
	c0,0.3,0,0.6,0,0.8c0.1,2,0.3,4.1,0.7,6C50.6,65.4,51.6,67.8,53.3,68.6z"/>
<path class="st12" d="M52,66.7c0,0-16.5,4.5-21,38.1l32.1-1c0,0,1-10.7,1-12.1S62,79.6,62,79.6L52,66.7z"/>
<path class="st12" d="M36,68.9c-1.2-0.7-2.5-1.4-3.9-1.4C31,67.4,30,67.8,29,68.1c-3.2,1.1-6.2,2.5-9,4.2c-1.6,1-3.2,2.1-4.4,3.6
	c-1.1,1.5-1.8,3.5-1.2,5.3c0.7,2.6,3.4,4,5.9,4.8c5.6,1.7,11.6,1.5,17.3,0.4c3.1-0.5,6.2-1.4,8.6-3.3c0.9-0.8,3.3-1.9,3.4-3.1
	c0.1-1.4-2.6-3.7-3.5-4.5C43,72.8,39.5,70.8,36,68.9z"/>
<path class="st12" d="M35.5,68.3c-0.9-0.4-1.8-0.9-2.7-0.7c-0.6,0.1-1.2,0.5-1.7,0.9c-1.5,1.1-3,2.2-4.4,3.3
	c-0.4,0.3-0.9,0.7-1.1,1.2c-0.5,1.2,0.6,2.4,1.7,3.2c7.5,5.2,18.3,4.9,25.6-0.6c1.6-1.2,3.1-2.8,3.3-4.8c0.5-5.1-5-3.6-7.7-2.8
	C44.3,69.3,39.6,70.1,35.5,68.3z"/>
<polygon class="st24" points="51.9,66.5 44.2,93.6 31.7,67.3 "/>
<polygon class="st8" points="44.1,93.8 50.2,72.7 34.3,72.9 "/>
<path class="st17" d="M55.7,16.4c1.6,1.4,2.9,3.1,4,4.8c1,1.5,1.9,3,2.6,4.6c1.7,4.4,1,9.1,0.2,13.7c-0.5,2.9-1.2,5.8-3,8.3
	c-0.9,1.2-2.1,2.3-3.2,3.4c-1.5,1.4-3.1,2.9-5.2,3.4c-1.8,0.5-3.8,0.3-5.8,0.1c-2.6-0.3-5.2-0.6-7.7-0.9c-1.1-0.1-2.1-0.3-3.1-0.7
	c-0.8-0.4-1.5-0.9-2.2-1.5c-1.3-1-2.6-2.1-3.7-3.3c-1.8-2.1-2.9-4.5-3.7-7c-1.2-3.6-2-7.3-1.7-11s1.6-7.4,4.3-10.4
	c3.4-3.7,8.5-5.8,13.9-6.8c2.3-0.4,5.8-1.1,8.1-0.4C51.5,13.3,54.2,15.1,55.7,16.4z"/>
<path class="st25" d="M50,62.7c-1.8,0-3.6,0-5.3-0.3c-2.1-0.4-4.2-1.2-5.7-2.6c-0.9-0.7-1.5-1.7-2.2-2.6c0-0.7,0.1-1.4,0.1-2
	c0,0,0,0,0-0.1c0.1-1.2,0.2-2.4,0.1-3.7c0-0.3,0-0.6,0-0.8s0-0.3,0-0.5l1.3-0.8c0.5-0.1,1.1-0.1,1.6-0.1c2.8,0,5.7,0.5,8.4,1.4
	c0.3,0.1,0.6,0.2,0.8,0.4c0,0.2,0,0.5,0,0.8c-0.1,1.4,0,2.8,0.2,4c0,0.3,0,0.6,0,0.8C49.4,58.6,49.6,60.8,50,62.7z"/>
<path class="st24" d="M53.1,20c2,1.8,3.4,4.2,4.3,6.8c3.1,8.9,2.1,19.6-4.3,26.5c-2,2.1-6,3.5-8.9,3.4c-3.7-0.1-7.8-2.7-9.8-5.7
	c-2.5-3.7-3.1-8-3.9-12.3s-0.3-9.1,2-12.9C36.4,19.3,46.7,14.4,53.1,20z"/>
<polygon class="st26" points="50.2,72.7 41.9,89.1 44.1,93.7 "/>
<path class="st17" d="M49.8,23.9c1.5-1.6,3.1-3.2,3.8-5.3c-4.3-0.2-8.7,0.1-12.9,0.9c-1.7,0.3-3.4,0.7-4.9,1.5
	c-3.6,1.7-6,5.2-7.1,8.9C28,32.5,27,37.4,28.2,40c1.2,2.7,5.6-1.9,7-3.1C40.4,32.9,45.3,28.6,49.8,23.9z"/>
<path class="st17" d="M48,25.1c2.7,4.9,7.1,9,11.5,13c1.7-3.1,1.7-6.8,0.2-10c-1.4-3.2-4.1-6-7.4-8.1c-1.1-0.7-2.5-1.4-3.9-1.3
	C44.4,19,47.2,23.5,48,25.1z"/>
<path class="st27" d="M23.5,99.6c1.1,0.1,1.3,1.6,1.1,2.7c-1.1,9.1-3.2,18.3-1.6,27.4c0.7,3.6,1.9,7.5,0.3,10.8c1-2-2.3-9-3.1-11.1
	c-1-2.7-2.3-5.1-2.3-8C17.8,114,20.1,106.1,23.5,99.6z"/>
<path class="st27" d="M20.5,155.5c-0.4,1.7-1,3.7-2.8,4.3c-0.1,0-0.1,0.1-0.2,0.1c-1.9,0.5-3.7-1-5-2.3c-1.2-1.2-2.4-2.3-3.6-3.5
	c-0.9-0.9-1.8-1.8-2.4-2.9c-0.9-1.7-0.8-3.7-0.6-5.6c0.2-1.8,0.5-3.7,1.5-5.3l0,0c0-0.1,0.1-0.1,0.1-0.2c1.7-2.6,5.4-3.8,8.5-3.1
	c0.1,0,0.1,0,0.2,0c3.8,1,5.4,3.5,5.8,6.5C22.5,147.4,21.3,152.1,20.5,155.5z"/>
<path class="st24" d="M58,124.7c-1.2,3.2-2.4,6.5-3.6,9.7c-0.3,0.8-0.6,1.6-1.2,2.2c-0.6,0.6-1.4,1-2.2,1.3
	c-6.5,2.6-12.9,5.2-19.4,7.9c-1.4,0.5-2.7,1.1-4.1,1.7c-2.9,1.2-5.9,2.4-9,2.7c-2.2,0.2-4.4-0.1-6.3-1c-1.2-0.5-2.3-1.2-3-2.3
	c-0.8-1.3-1-3-0.8-4.5c0.2-1.3,0.4-3,1.5-3.8c1.3-1.1,3.2-1.5,4.8-2c5.2-1.7,10.5-2.9,15.8-4.3c5.4-1.4,10.7-2.9,16.1-4.3
	c1.9-0.5,3.8-1,5.7-1.5c0.9-0.3,1.9-0.5,2.8-0.8c0.5-0.1,1-0.3,1.4-0.4C56.8,125,57.9,124.9,58,124.7z"/>
<polygon class="st17" points="35.8,18.4 32.5,25.8 38,24.5 46.9,21 54.8,25.8 57.7,24.8 55.3,17.6 47.7,15.1 "/>
<path class="st20" d="M63,130.4c-0.8-1.1-13.9-18.2-13.9-18.2l2.9-2.9l14.3,22.4L63,130.4z"/>
<path class="st24" d="M63.8,126c2.2,1.2,4,3.1,4.7,5.5c0.3,1.2,0.3,2.5,0.3,3.8c0,0.4,0,0.9-0.2,1.3c-0.2,0.5-0.6,0.8-1,1.1
	c-2.3,1.5-5.2,1.7-7.9,1.1c-2.7-0.5-5.2-1.6-7.9-2.3c-0.2-1.8-0.5-3.6-0.3-5.3c0.2-1.8,1-3.6,2.4-4.6C57.3,124,59.9,123.9,63.8,126z
	"/>
<path class="st3" d="M93.7,165.7H57.6c-3.6,0-6.2-3.5-5.2-7l16.9-56.3c0.7-2.3,2.8-3.9,5.2-3.9h36.1c3.6,0,6.2,3.5,5.2,7l-16.9,56.3
	C98.2,164.1,96.1,165.7,93.7,165.7z"/>
<path class="st24" d="M101.3,130.7c-1,0.9-1.6,2-2.1,3.3c-0.8,2.1-0.8,4.6,0.3,6.5c1.1,2,3.6,3.2,5.7,2.5c1.8-0.6,3-2.4,4-4
	c1.5-2.5,4.7-7.6,1.8-9.8C108.8,127.6,102.9,129.2,101.3,130.7z"/>
<path class="st8" d="M266.7,31.2h-3.1c-1.5,0-2.7-1.2-2.7-2.7s1.2-2.7,2.7-2.7h3.1c1.5,0,2.7,1.2,2.7,2.7
	C269.4,30,268.2,31.2,266.7,31.2z M263.6,26.2c-1.3,0-2.3,1-2.3,2.3s1,2.3,2.3,2.3h3.1c1.3,0,2.3-1,2.3-2.3s-1-2.3-2.3-2.3H263.6z"
	/>
<path class="st8" d="M253.8,31.2h-3.1c-1.5,0-2.7-1.2-2.7-2.7s1.2-2.7,2.7-2.7h3.1c1.5,0,2.7,1.2,2.7,2.7S255.3,31.2,253.8,31.2z
	 M250.7,26.2c-1.3,0-2.3,1-2.3,2.3s1,2.3,2.3,2.3h3.1c1.3,0,2.3-1,2.3-2.3s-1-2.3-2.3-2.3H250.7z"/>
<rect x="256.5" y="28.4" class="st8" width="4.8" height="0.4"/>
<polygon class="st11" points="374.1,203.5 391,203.5 390.8,173.3 359.6,181.5 "/>
<path class="st3" d="M162.6,65.7c0,0-1.4-2-3.7-2.2c-2.3-0.3,0.3,1,0.3,1s1.2,0,2.1,0.6C162.2,65.7,162.6,65.7,162.6,65.7z"/>
<path class="st20" d="M126,32.6c0.6,4.1,2.6,8.2,2.1,12.3c-0.2,1.5-0.6,3-0.3,4.5c0.5,2,2.5,3.4,4.3,4.7c1.8,1.2,3.6,2.4,5.4,3.6
	c1.6-2.1,2.3-4.6,3-7.1c2.3-7.8,4.5-15.7,5-23.8c0.3-3.9,0.1-8.4-2.7-11.7c-2-2.4-5.5-4.4-8.6-2.4C128,16.9,125,26.1,126,32.6z"/>
<path class="st20" d="M137,55.9c-0.2,1.5,1.1,3.1,2.7,3.1c0.6,0,1.3-0.2,1.9-0.1c0.8,0.1,1.5,0.6,2.2,0.9c2.8,1.1,5.7-1,8.7-1
	c0.8,0,1.7,0.2,2.4-0.2c0.5-0.3,0.9-0.9,1.1-1.5c0.6-2-0.2-4.3-1.7-5.9c-1.5-1.5-3.5-2.4-5.6-3.1c-2.4-0.8-6.9-2-9.1-0.1
	c-0.9,0.7-1,1.9-1.2,3c-0.1,0.9-0.2,1.8-0.6,2.6C137.6,54.4,137.1,55.1,137,55.9z"/>
<path class="st20" d="M147.7,7.4c2,0.7,3.6,2.5,5.7,2.6c2.7,0.2,5.5-2.2,7.9-0.9c1.2,0.7,1.8,2.2,2.3,3.5c0.6,1.3,1.4,2.6,2.5,3.5
	c1.9,1.7,4.7,2.5,6,4.7c0.9,1.5,0.9,3.3,0.5,4.9c-0.3,1.7-1,3.2-1.4,4.9c-0.6,2.4-0.6,5-0.1,7.4c0.5,2.3,1.5,4.7,0.8,7
	c-0.8,2.5-3.6,4.2-3.7,6.8c-0.1,1.8,1.1,3.7,0.5,5.4c-0.7,1.8-3,2.3-4.9,2.5c-1.7,0.2-3.3,0.4-5,0.6c-0.6,0.1-1.2,0.1-1.8-0.1
	c-0.9-0.4-1.4-1.3-1.9-2.1c-2-2.9-5.9-4.3-7.2-7.6c-0.9-2.2-0.3-4.8-1.3-6.9c-1.2-2.8-4.6-4-6.2-6.5c-1.6-2.4-1.4-5.7-2.7-8.3
	c-0.7-1.5-1.9-2.8-2.5-4.4c-0.9-2.3-0.5-4.8,0-7.2c0.6-2.8,0.5-6.4,3.2-8C141.1,7.6,144.5,6.2,147.7,7.4z"/>
<path class="st19" d="M161.3,65.1c-5.4,3.5-12.8,4.1-18.8,1.8c-1.1-0.4-2.1-0.9-3-1.5l0,0c1.4-0.6,2.3-1.8,3.1-3.1
	c0.6-1,1-2.1,1.4-3.1l0,0c0.4-1.3,0.7-3.1,0.8-4.4c4.2-1.7,8.1-4.6,10.9-8.2l0.1-0.1c-0.1,1.3-0.3,2.5-0.3,3.8c0,0.3,0,0.6,0,0.8
	c0,0.8,0,1.6,0,2.4c0,1.1,0.2,2.2,0.4,3.3C156.4,60.1,158.3,63.4,161.3,65.1z"/>
<path class="st28" d="M155.6,46.5c-0.2,1.5-0.1,2.1-0.3,3.7c0,0.3,0,0.6,0,0.8c-0.1,0.2-0.3,0.3-0.4,0.5c-2.5,3.2-6.1,8.1-10,7.8
	c-0.4,0-0.7-0.1-1.1-0.2c0.4-1.4,0.7-2.8,0.8-4.3c4.3-1.8,8.2-5.3,11-9.2C155.6,46,155.6,46.3,155.6,46.5z"/>
<path class="st19" d="M134.1,25.8c-0.5,6.6-0.4,13.5,1.8,19.8c1.5,4.4,4.7,9,9.4,9.4c3.8,0.3,7.3-2.3,9.8-5.3
	c6.5-7.8,8.8-18.8,5.8-28.5c-0.3-1-0.6-1.9-1.3-2.7c-0.9-1.1-2.3-1.6-3.6-2C147,14,134.9,14.5,134.1,25.8z"/>
<path class="st20" d="M140.3,21.9c-0.1,0.9-0.1,1.7-0.4,2.5c-1.1,3-4.8,4.2-6.4,7c-1.4,2.6-0.6,5.7-0.7,8.7
	c-0.1,1.3-0.5,2.8-1.7,3.1c0.1-4.7-2-9.5-0.8-14.1c0.6-2.2,1.9-4.1,3.1-6c1.2-1.8,2.5-3.6,3.7-5.4c0.8-1.2,2.4-4.2,3.5-1.9
	C141.3,17.3,140.5,20.3,140.3,21.9z"/>
<path class="st20" d="M146.2,21.2c1.6,0.5,3.5,0.8,4.6,2c1.4,1.6,0.8,4,0.9,6.1c0.2,2.6,1.6,4.9,3.6,6.7c1.9,1.8,4.3,3.2,6.6,4.6
	c0.2,0.1,0.4,0.2,0.7,0.2c0.2-0.1,0.3-0.3,0.4-0.5c2.6-5.6,3.3-12,2.1-18c-0.3-1.7-0.8-3.3-1.8-4.7c-1.9-2.6-5.3-3.8-8.6-4.7
	c-3.8-1-7.7-1.7-11.6-2.1c-4-0.4-4.6,2.3-3.1,5.1C141.1,18.4,143.4,20.3,146.2,21.2z"/>
<path class="st8" d="M251.9,59.8c-0.3,0.1-12.3,10.8-12.3,10.8V58.5l3.5-3.5L251.9,59.8z"/>
<polygon class="st12" points="373.4,61.8 386.6,68.1 382.6,69.8 375.3,67.4 374.3,65.9 "/>
<polygon class="st12" points="364.7,58.7 363.6,62.3 366.8,61.9 367,60 366.6,59.4 365.1,58.5 "/>
<polygon class="st12" points="349.2,67.6 345,64.5 345,62.4 345,62.1 345.5,61.5 346.1,60.7 346.6,60 347.8,59.4 347.9,59.4 
	347.9,59.4 347.9,59.5 347.9,59.7 348.2,61.6 348.8,65.1 348.8,65.1 349.1,66.9 349.1,67 "/>
<path class="st12" d="M348.8,65.1L348.8,65.1h-0.1h-0.6l-1.9,0.1c0,0-1.1-1.5-1.1-1.6c0,0,0.1-0.8,0.2-1.6c0-0.2,0-0.3,0.1-0.5
	c0.1-0.5,0.1-0.9,0.1-0.9l1.1-0.9c0.4-0.1,0.8-0.3,1.1-0.3l0,0l0,0c0.1,0,0.2,0,0.3,0l0,0v0.3l0.2,2L348.8,65.1z"/>
</svg>
