<svg xmlns="http://www.w3.org/2000/svg" xmlns:xlink="http://www.w3.org/1999/xlink" width="48" height="48" viewBox="0 0 48 48">
    <defs>
        <filter id="mtix7cs3ta">
            <feColorMatrix in="SourceGraphic" values="0 0 0 0 0.000000 0 0 0 0 0.278431 0 0 0 0 0.317647 0 0 0 1.000000 0"/>
        </filter>
        <path id="v2fzg3p0ab" d="M0 0L16 0 16 14 0 14z"/>
    </defs>
    <g fill="none" fill-rule="evenodd">
        <g>
            <g>
                <g>
                    <path fill="#006562" d="M47.667 26.667c0 11.598-9.402 21-21 21-11.599 0-21-9.402-21-21s9.401-21 21-21c11.598 0 21 9.402 21 21" transform="translate(-670 -621) translate(670 183) translate(0 438)"/>
                    <path fill="#FDBF7A" d="M42 21c0 11.598-9.401 21-21 21S0 32.598 0 21 9.401 0 21 0s21 9.402 21 21" transform="translate(-670 -621) translate(670 183) translate(0 438)"/>
                    <g filter="url(#mtix7cs3ta)" transform="translate(-670 -621) translate(670 183) translate(0 438)">
                        <g transform="rotate(90 7.5 20.5)">
                            <mask id="wbl8rvadoc" fill="#fff">
                                <use xlink:href="#v2fzg3p0ab"/>
                            </mask>
                            <path fill="#282828" d="M8.293.293c.391-.391 1.023-.391 1.414 0l6 6c.188.187.293.442.293.707 0 .266-.105.52-.293.707l-6 6c-.391.391-1.023.391-1.414 0s-.391-1.023 0-1.414L12.586 8H1c-.552 0-1-.447-1-1 0-.552.448-1 1-1h11.586L8.293 1.707c-.391-.391-.391-1.023 0-1.414" mask="url(#wbl8rvadoc)"/>
                        </g>
                    </g>
                </g>
            </g>
        </g>
    </g>
</svg>
