<svg xmlns="http://www.w3.org/2000/svg" width="18" height="18" viewBox="0 0 18 18">
    <g fill="none" fill-rule="evenodd">
        <g fill="#FFF">
            <g>
                <g>
                    <path d="M0 10c0-1.104.896-2 2-2h5c.552 0 1 .448 1 1s-.448 1-1 1H2v12h12v-5c0-.553.447-1 1-1 .553 0 1 .447 1 1v5c0 1.104-.896 2-2 2H2c-1.104 0-2-.896-2-2V10zm11-2c-.553 0-1-.448-1-1s.447-1 1-1h6c.266 0 .52.105.707.293.188.187.293.442.293.707v6c0 .552-.447 1-1 1-.553 0-1-.448-1-1V9.414l-9.293 9.293c-.391.391-1.023.391-1.414 0s-.391-1.023 0-1.414L14.586 8H11z" transform="translate(-1046 -482) translate(970 -13) translate(76 489)"/>
                </g>
            </g>
        </g>
    </g>
</svg>
