<svg xmlns="http://www.w3.org/2000/svg" width="19" height="14" viewBox="0 0 19 14">
    <g fill="none" fill-rule="evenodd">
        <g fill="#004751">
            <g>
                <g>
                    <path d="M44 16.833c0-.645.523-1.166 1.167-1.166H61.5c.645 0 1.167.521 1.167 1.166 0 .646-.522 1.167-1.167 1.167H45.167C44.523 18 44 17.479 44 16.833M44 11c0-.644.523-1.167 1.167-1.167H61.5c.645 0 1.167.523 1.167 1.167 0 .645-.522 1.167-1.167 1.167H45.167C44.523 12.167 44 11.645 44 11m0-5.833C44 4.523 44.523 4 45.167 4H61.5c.645 0 1.167.523 1.167 1.167s-.522 1.166-1.167 1.166H45.167c-.644 0-1.167-.522-1.167-1.166" transform="translate(-1258 -29) translate(1193 12) translate(21 13)"/>
                </g>
            </g>
        </g>
    </g>
</svg>
