<svg xmlns="http://www.w3.org/2000/svg" width="32" height="32" viewBox="0 0 32 32">
    <g fill="none" fill-rule="evenodd">
        <g fill="#FFF">
            <g>
                <g>
                    <path d="M16 2c7.732 0 14 6.268 14 14s-6.268 14-14 14S2 23.732 2 16 8.268 2 16 2zm-4.106 11.595H8.72v9.533h3.173v-9.533zm7.789-.223c-1.685 0-2.439.925-2.86 1.574v-1.35H13.65c.01.209.015.843.017 1.69l.001.483v1.342c-.002 2.352-.014 5.12-.017 5.84l-.001.132v.045h3.173v-5.323c0-.285.02-.57.104-.774.23-.569.752-1.158 1.628-1.158 1.149 0 1.608.874 1.608 2.155v5.1h3.173v-5.466c0-2.928-1.566-4.29-3.653-4.29zM10.328 9c-1.085 0-1.795.712-1.795 1.647 0 .915.689 1.647 1.754 1.647h.02c1.107 0 1.796-.732 1.796-1.647C12.082 9.712 11.413 9 10.328 9z" transform="translate(-1111 -120) translate(970 75) translate(141 45)"/>
                </g>
            </g>
        </g>
    </g>
</svg>
