<svg xmlns="http://www.w3.org/2000/svg" width="32" height="32" viewBox="0 0 32 32">
    <g fill="none" fill-rule="evenodd">
        <g fill="#FFF">
            <g>
                <g>
                    <path d="M16 2c7.732 0 14 6.268 14 14s-6.268 14-14 14S2 23.732 2 16 8.268 2 16 2zm.11 8.867h-.22c-.71.002-4.666.029-5.724.32-.643.176-1.149.696-1.32 1.356-.277 1.057-.309 3.132-.312 3.597v.187c.003.465.035 2.54.311 3.597.172.66.678 1.18 1.32 1.356.46.126 1.462.202 2.51.249l.484.019c1.129.04 2.22.05 2.65.051h.382c.43-.002 1.521-.01 2.65-.051l.485-.02c1.047-.046 2.05-.122 2.508-.248.643-.177 1.149-.696 1.32-1.356.277-1.058.309-3.132.312-3.597v-.187c-.003-.465-.035-2.54-.311-3.597-.172-.66-.678-1.18-1.32-1.356-1.06-.291-5.015-.318-5.725-.32zm-1.51 3.266l3.733 2.334L14.6 18.8v-4.667z" transform="translate(-1158 -120) translate(970 75) translate(188 45)"/>
                </g>
            </g>
        </g>
    </g>
</svg>
