<svg xmlns="http://www.w3.org/2000/svg" xmlns:xlink="http://www.w3.org/1999/xlink" width="16" height="14" viewBox="0 0 16 14">
    <defs>
        <filter id="l0ifuvlbha">
            <feColorMatrix in="SourceGraphic" values="0 0 0 0 1.000000 0 0 0 0 1.000000 0 0 0 0 1.000000 0 0 0 1.000000 0"/>
        </filter>
        <path id="ttv16d57db" d="M0 0L16 0 16 14 0 14z"/>
    </defs>
    <g fill="none" fill-rule="evenodd">
        <g filter="url(#l0ifuvlbha)" transform="translate(-252 -184)">
            <g transform="translate(252 184)">
                <mask id="40npxb9m5c" fill="#fff">
                    <use xlink:href="#ttv16d57db"/>
                </mask>
                <path fill="#282828" d="M8.293.293c.391-.391 1.023-.391 1.414 0l6 6c.188.187.293.442.293.707 0 .266-.105.52-.293.707l-6 6c-.391.391-1.023.391-1.414 0s-.391-1.023 0-1.414L12.586 8H1c-.552 0-1-.447-1-1 0-.552.448-1 1-1h11.586L8.293 1.707c-.391-.391-.391-1.023 0-1.414" mask="url(#40npxb9m5c)"/>
            </g>
        </g>
    </g>
</svg>
