<svg xmlns="http://www.w3.org/2000/svg" xmlns:xlink="http://www.w3.org/1999/xlink" width="40" height="40" viewBox="0 0 40 40">
    <defs>
        <path id="fyinku9fua" d="M0 0L14 0 14 8 0 8z"/>
    </defs>
    <g fill="none" fill-rule="evenodd">
        <g>
            <g>
                <g transform="translate(-1150 -3204) translate(250 3202) translate(900 2)">
                    <circle cx="20" cy="20" r="20" fill="#FDBF7A"/>
                    <g transform="matrix(1 0 0 -1 13 24)">
                        <mask id="5sqzb2tsab" fill="#fff">
                            <use xlink:href="#fyinku9fua"/>
                        </mask>
                        <path fill="#282828" d="M6.293.293c.391-.391 1.023-.391 1.414 0l6 6c.391.391.391 1.023 0 1.414s-1.023.391-1.414 0L7 2.414 1.707 7.707c-.391.391-1.023.391-1.414 0s-.391-1.023 0-1.414l6-6z" mask="url(#5sqzb2tsab)"/>
                    </g>
                </g>
            </g>
        </g>
    </g>
</svg>
