<svg xmlns="http://www.w3.org/2000/svg" width="304" height="48" viewBox="0 0 304 48">
    <g fill="none" fill-rule="evenodd">
        <g fill="#FFF" fill-rule="nonzero">
            <g>
                <g>
                    <path d="M297.533 42.267s.4.333.867.333c.267 0 .467-.133.467-.4 0-.6-1.6-.533-1.6-1.533 0-.6.466-1 1.133-1s1 .4 1 .4l-.267.533s-.333-.267-.733-.267c-.267 0-.533.2-.533.4 0 .6 1.6.467 1.6 1.534 0 .533-.4 1-1.134 1-.733 0-1.2-.467-1.2-.467l.4-.533zm2.8-2.6H301l.667 1.666c.066.2.2.534.2.534s.066-.267.2-.534l.666-1.666h.667l.267 3.4h-.6l-.134-1.934V40.6s-.133.333-.2.533l-.533 1.334h-.533l-.534-1.334c-.066-.2-.2-.533-.2-.533v.533l-.133 1.934h-.8l.333-3.4zM0 14.533L20 0 7.667 38.067zM20 0L39.333 15.667 35.267 26.333 13.533 35.533zM70.4 23.4h3.8v11.8c0 2.733.533 4.933 3.733 4.933 4 0 6.4-3.533 6.4-7.466V23.4h3.8v19.733h-3.666v-2.6c0-.8.066-1.466.066-1.466h-.066c-.8 1.933-3.4 4.533-7.267 4.533-4.467 0-6.733-2.333-6.733-7.6V23.4H70.4zm22.467 0h3.666V26c0 .8-.066 1.467-.066 1.467h.066c.934-2.334 3.734-4.534 6.8-4.534 3.334 0 5.267 1.534 5.934 4.467h.066c1.067-2.4 3.8-4.467 7-4.467 4.467 0 6.534 2.534 6.534 7.6V43.2h-3.8V31.267c0-2.8-.534-4.934-3.534-4.934-2.8 0-4.866 2.334-5.533 5-.2.8-.267 1.734-.267 2.734v9H106v-11.8c0-2.6-.4-4.934-3.467-4.934-2.866 0-4.933 2.4-5.666 5.2-.2.8-.267 1.667-.267 2.6v9h-3.8V23.4h.067zm34.8-7.733h3.8v3.866h-3.8v-3.866zm0 7.733h3.8v19.733h-3.8V23.4zm8.6 0h3.666V26c0 .8-.066 1.467-.066 1.467h.066c.8-1.734 3.134-4.534 7.4-4.534 4.667 0 6.8 2.534 6.8 7.6V43.2h-3.8V31.333c0-2.8-.6-4.933-3.733-4.933-3 0-5.4 2-6.267 4.867-.266.8-.333 1.666-.333 2.666V43.2h-3.8V23.4h.067zm22.666-7.733h3.8v3.866h-3.8v-3.866zm0 7.733h3.8v19.733h-3.8V23.4zm9.4 14.6s2.2 2.333 5.667 2.333c1.667 0 3.267-.866 3.267-2.466 0-3.6-10.134-2.867-10.134-9.334 0-3.6 3.2-5.6 7.134-5.6 4.333 0 6.333 2.2 6.333 2.2L179.067 28s-1.734-1.733-4.867-1.733c-1.667 0-3.267.733-3.267 2.4 0 3.533 10.134 2.8 10.134 9.266 0 3.267-2.8 5.734-7.134 5.734-4.866 0-7.466-2.867-7.466-2.867l1.866-2.8zm22.8-22.333h2.667V28.8h13.133V15.667h2.667v27.4h-2.667v-11.8H193.8v11.866h-2.667V15.667zM223.667 23c5.4 0 8.2 4.2 8.2 9.067 0 .466-.067 1.333-.067 1.333h-15.067c.134 5 3.534 7.733 7.6 7.733 3.6 0 6-2.4 6-2.4l1.2 2s-2.866 2.734-7.266 2.734C218.4 43.467 214 39.267 214 33.2c0-6.333 4.333-10.2 9.667-10.2zm5.466 8.267c-.133-4.067-2.666-6-5.6-6-3.266 0-6.133 2.066-6.733 6h12.333zm17.6-.267h1.067v-.533c0-3.8-2.067-5.067-4.867-5.067-3.266 0-5.533 1.867-5.533 1.867l-1.267-2s2.6-2.2 7-2.2c4.734 0 7.334 2.6 7.334 7.533v12.533h-2.534V41c0-1 .067-1.667.067-1.667h-.067S246.267 43.6 241.4 43.6c-3.267 0-6.667-1.933-6.667-5.8 0-6.667 8.6-6.8 12-6.8zm-4.866 10.333c3.733 0 6-3.933 6-7.266V33.2h-1.134c-3.066 0-9.266.133-9.266 4.467 0 1.8 1.466 3.666 4.4 3.666zm13.466-25.666H258v22.2c0 2.6 1.2 2.933 2.2 2.933.333 0 .667-.067.667-.067v2.4s-.467.067-1 .067c-1.667 0-4.534-.533-4.534-4.8V15.667zm9.6 10.266h-2.6v-2.2h2.6v-5.666h2.6v5.666h4.934v2.2h-4.934v9.734c0 4.6 2.934 5.2 4.4 5.2.534 0 .867-.067.867-.067v2.4s-.4.067-1.133.067c-2.267 0-6.8-.734-6.8-7.267V25.933h.066zm11.8-10.266h2.667v10.6c0 .866-.067 1.6-.067 1.6h.067C280.133 26 282.733 23 287.2 23c4.867 0 6.533 2.8 6.533 7.6v12.467h-2.666V31.333c0-3.066-.467-5.8-4.267-5.8-3.333 0-6.267 2.334-7.133 5.6-.267.8-.334 1.667-.334 2.6v9.4h-2.666V15.667h.066zm-223.666 0h3.866v21.8c0 1.266 1 2.266 2.267 2.266h7.933v3.334h-9.2c-2.666 0-4.866-2.2-4.866-4.867V15.667zM20 48l9.667-7 5.666-14.667L12.4 41.867 20 48z" transform="translate(-250 -3593) translate(0 3321) translate(250 272)"/>
                </g>
            </g>
        </g>
    </g>
</svg>
